<svg width="84" height="84" viewBox="0 0 84 84" fill="none" xmlns="http://www.w3.org/2000/svg">
<path d="M33.5999 16.7998C19.6811 16.7998 8.3999 28.081 8.3999 41.9998C8.3999 55.9186 19.6811 67.1998 33.5999 67.1998C47.5187 67.1998 58.7999 55.9186 58.7999 41.9998C58.7999 28.081 47.5187 16.7998 33.5999 16.7998ZM36.3999 53.239V55.9998H30.7999V53.2614C26.8967 52.5194 24.5055 50.1702 24.4327 46.7094H29.7415C29.8787 48.3026 31.4691 49.319 33.7735 49.319C35.8511 49.319 37.2791 48.3166 37.2791 46.8746C37.2791 45.6622 36.3215 45.0098 33.8211 44.5086L30.9399 43.9318C26.9359 43.173 24.8723 40.989 24.8723 37.5478C24.8723 34.0842 27.1459 31.6146 30.8027 30.7886V27.9998H36.4027V30.8082C39.9531 31.6426 42.2715 34.0422 42.3443 37.2902H37.2035C37.0831 35.7446 35.6131 34.6666 33.6531 34.6666C31.6931 34.6666 30.4079 35.5934 30.4079 37.0494C30.4079 38.2478 31.3795 38.945 33.6839 39.3986L36.5063 39.9446C40.8295 40.779 42.7699 42.7362 42.7699 46.2082C42.7671 49.949 40.3983 52.4466 36.3999 53.239Z" fill="white"/>
<path d="M63.8484 36.291C64.1984 38.1418 64.4 40.0458 64.4 42.0002C64.4 47.1102 63.1316 51.9206 60.9197 56.1654C61.8969 57.1846 62.3673 58.5118 62.3673 60.2086C62.3673 63.9494 59.9985 66.447 56.0001 67.2394V70.0002H50.4001V67.7826C46.7405 70.1766 42.5405 71.7922 38.0269 72.4446C42.0197 76.1294 47.3369 78.4002 53.2001 78.4002C65.5705 78.4002 75.6 68.3706 75.6 56.0002C75.6 47.4826 70.8456 40.0794 63.8484 36.291Z" fill="white"/>
<path d="M53.2001 16.7917V14.0001H58.8001V16.8085C62.3505 17.6429 64.6689 20.0425 64.7417 23.2905H59.6009C59.4805 21.7449 58.0105 20.6669 56.0505 20.6669C55.9609 20.6669 55.8965 20.6921 55.8097 20.6977C57.4113 22.3665 58.8141 24.2201 60.0097 26.2137C62.9021 26.9893 64.4953 28.4117 64.9853 30.6293C69.1237 32.5557 72.7049 35.4565 75.4461 39.0489C77.3137 35.7897 78.4001 32.0293 78.4001 28.0001C78.4001 15.6297 68.3705 5.6001 56.0001 5.6001C49.9213 5.6001 44.4361 8.0473 40.4041 11.9785C44.6209 12.9305 48.4961 14.7505 51.8589 17.2341C52.2901 17.0717 52.7185 16.9009 53.2001 16.7917Z" fill="white"/>
</svg>
