<svg width="119" height="84" viewBox="0 0 119 84" fill="none" xmlns="http://www.w3.org/2000/svg">
<path d="M48.2231 8.25182H28.9626C27.2051 8.25182 25.8869 8.68561 25.0081 9.55319C24.1293 10.4208 23.6899 11.7222 23.6899 13.4573V19.8383C25.1788 19.8383 26.5782 20.121 27.8879 20.6863C29.1977 21.2516 30.3508 22.0324 31.3471 23.0288C32.3434 24.0251 33.1242 25.1753 33.6896 26.4795C34.2549 27.7837 34.5376 29.1802 34.5376 30.6691C34.5376 31.643 34.4089 32.5834 34.1514 33.4903C33.8939 34.397 33.5356 35.2477 33.0767 36.0425H48.7268C50.2269 36.0425 51.3967 35.6087 52.2363 34.7412C53.076 33.8736 53.4958 32.5723 53.4958 30.8371V13.4573C53.4958 11.7222 53.0536 10.4208 52.1692 9.55319C51.2848 8.68561 49.9695 8.25182 48.2231 8.25182ZM31.6326 8.40294H34.3361C34.3361 7.64171 34.5236 6.95044 34.8986 6.32912C35.2736 5.70782 35.7802 5.20966 36.4183 4.83464C37.0564 4.45962 37.7785 4.27212 38.5845 4.27212C39.4017 4.27212 40.1293 4.45962 40.7674 4.83464C41.4055 5.20966 41.9093 5.70782 42.2787 6.32912C42.6481 6.95044 42.8328 7.64171 42.8328 8.40294H45.5362C45.5362 7.20512 45.2256 6.09964 44.6045 5.08653C43.9831 4.07341 43.1463 3.25899 42.094 2.64329C41.0416 2.02758 39.8718 1.71973 38.5845 1.71973C37.3083 1.71973 36.144 2.02758 35.0917 2.64329C34.0394 3.25899 33.1999 4.07341 32.5729 5.08653C31.946 6.09964 31.6326 7.20512 31.6326 8.40294Z" fill="white"/>
<path d="M23.7069 39.1994C24.8599 39.1994 25.9514 38.9754 26.9813 38.5276C28.0112 38.0798 28.9208 37.4641 29.71 36.6805C30.4992 35.8969 31.1177 34.9901 31.5655 33.9602C32.0133 32.9304 32.2372 31.8333 32.2372 30.6689C32.2372 29.4935 32.0161 28.3908 31.5739 27.361C31.1317 26.3311 30.5188 25.4244 29.7352 24.6407C28.9515 23.8571 28.0448 23.2441 27.0149 22.8019C25.985 22.3597 24.8823 22.1387 23.7069 22.1387C22.5426 22.1387 21.4455 22.3597 20.4156 22.8019C19.3857 23.2441 18.4789 23.8599 17.6953 24.6491C16.9117 25.4383 16.296 26.345 15.8482 27.3694C15.4004 28.3936 15.1765 29.4935 15.1765 30.6689C15.1765 31.8444 15.4004 32.9471 15.8482 33.9771C16.296 35.007 16.9117 35.9137 17.6953 36.6973C18.4789 37.481 19.3857 38.0939 20.4156 38.536C21.4455 38.9783 22.5426 39.1994 23.7069 39.1994Z" fill="white"/>
<path d="M23.69 36.0087C23.3765 36.0087 23.1274 35.9136 22.9427 35.7233C22.758 35.533 22.6656 35.2867 22.6656 34.9844V31.6931H19.3744C19.0722 31.6931 18.8259 31.6008 18.6356 31.4161C18.4453 31.2315 18.3501 30.9824 18.3501 30.6688C18.3501 30.3554 18.4453 30.1064 18.6356 29.9217C18.8259 29.7369 19.0722 29.6445 19.3744 29.6445H22.6656V26.3534C22.6656 26.0511 22.758 25.8048 22.9427 25.6145C23.1274 25.4242 23.3765 25.3291 23.69 25.3291C24.0034 25.3291 24.2525 25.4242 24.4372 25.6145C24.6219 25.8048 24.7143 26.0511 24.7143 26.3534V29.6445H28.0055C28.3078 29.6445 28.554 29.7369 28.7443 29.9217C28.9347 30.1064 29.0298 30.3554 29.0298 30.6688C29.0298 30.9824 28.9347 31.2315 28.7443 31.4161C28.554 31.6008 28.3078 31.6931 28.0055 31.6931H24.7143V34.9844C24.7143 35.2867 24.6219 35.533 24.4372 35.7233C24.2525 35.9136 24.0034 36.0087 23.69 36.0087Z" fill="#F0B00B"/>
<path d="M97.5654 49.699H78.3049C76.5474 49.699 75.2292 50.1422 74.3504 51.0287C73.4716 51.9151 73.0322 53.2448 73.0322 55.0177V61.5373C74.5211 61.5373 75.9205 61.8262 77.2302 62.4038C78.54 62.9814 79.6931 63.7792 80.6894 64.7972C81.6857 65.8152 82.4665 66.9904 83.0319 68.3229C83.5972 69.6555 83.8799 71.0823 83.8799 72.6036C83.8799 73.5987 83.7512 74.5595 83.4937 75.4861C83.2361 76.4126 82.8779 77.2818 82.419 78.0938H98.0691C99.5692 78.0938 100.739 77.6506 101.579 76.7642C102.418 75.8778 102.838 74.5481 102.838 72.7752V55.0177C102.838 53.2448 102.396 51.9151 101.512 51.0287C100.627 50.1422 99.3117 49.699 97.5654 49.699ZM80.9748 49.8534H83.6784C83.6784 49.0756 83.8659 48.3693 84.2408 47.7345C84.6159 47.0997 85.1225 46.5907 85.7605 46.2075C86.3987 45.8244 87.1208 45.6328 87.9268 45.6328C88.744 45.6328 89.4716 45.8244 90.1097 46.2075C90.7478 46.5907 91.2516 47.0997 91.6209 47.7345C91.9904 48.3693 92.1751 49.0756 92.1751 49.8534H94.8785C94.8785 48.6295 94.5679 47.5 93.9467 46.4649C93.3254 45.4298 92.4886 44.5976 91.4363 43.9685C90.3839 43.3394 89.2141 43.0249 87.9268 43.0249C86.6506 43.0249 85.4863 43.3394 84.4339 43.9685C83.3817 44.5976 82.5421 45.4298 81.9152 46.4649C81.2883 47.5 80.9748 48.6295 80.9748 49.8534Z" fill="white"/>
<path d="M73.0491 81.3193C74.2022 81.3193 75.2937 81.0905 76.3236 80.6329C77.3535 80.1754 78.263 79.5463 79.0523 78.7456C79.8415 77.945 80.46 77.0185 80.9078 75.9663C81.3556 74.914 81.5795 73.793 81.5795 72.6034C81.5795 71.4024 81.3584 70.2758 80.9162 69.2235C80.474 68.1713 79.8611 67.2448 79.0775 66.4441C78.2938 65.6435 77.3871 65.0172 76.3572 64.5653C75.3273 64.1136 74.2246 63.8877 73.0491 63.8877C71.8849 63.8877 70.7878 64.1136 69.7579 64.5653C68.728 65.0172 67.8212 65.6463 67.0376 66.4527C66.254 67.259 65.6383 68.1855 65.1905 69.2321C64.7427 70.2786 64.5188 71.4024 64.5188 72.6034C64.5188 73.8044 64.7427 74.9311 65.1905 75.9835C65.6383 77.0357 66.254 77.9622 67.0376 78.7629C67.8212 79.5635 68.728 80.1897 69.7579 80.6415C70.7878 81.0934 71.8849 81.3193 73.0491 81.3193Z" fill="white"/>
<path d="M68.7167 73.6503C68.4368 73.6503 68.1962 73.5445 67.9946 73.333C67.7931 73.1213 67.6924 72.8782 67.6924 72.6037C67.6924 72.3293 67.7931 72.0862 67.9946 71.8746C68.1962 71.663 68.4368 71.5571 68.7167 71.5571H77.3478C77.6277 71.5571 77.8711 71.663 78.0782 71.8746C78.2853 72.0862 78.3889 72.3293 78.3889 72.6037C78.3889 72.8782 78.2853 73.1213 78.0782 73.333C77.8711 73.5445 77.6277 73.6503 77.3478 73.6503H68.7167Z" fill="#F0B00B"/>
<path d="M57.425 13.7266C57.3644 12.9577 57.627 12.2267 58.2128 11.5336C61.0609 8.02476 64.4997 5.2253 68.5295 3.13518C72.5592 1.04506 76.8767 0 81.4821 0C85.421 0 89.1527 0.763489 92.6775 2.29047C96.2022 3.81744 99.3583 5.93463 102.146 8.64205C104.933 11.3494 107.201 14.5009 108.948 18.0963C110.695 21.6917 111.781 25.5579 112.205 29.6948H116.356C117.447 29.6948 118.128 30.0305 118.401 30.702C118.674 31.3734 118.507 32.164 117.901 33.0737L111.144 43.4052C110.639 44.1633 110.064 44.5369 109.417 44.526C108.771 44.5152 108.205 44.1415 107.721 43.4052L100.934 33.0412C100.348 32.1531 100.192 31.3734 100.464 30.702C100.737 30.0305 101.409 29.6948 102.479 29.6948H106.993C106.589 26.2727 105.66 23.0996 104.206 20.1756C102.752 17.2516 100.883 14.6904 98.6009 12.492C96.3185 10.2935 93.7178 8.58247 90.7989 7.35871C87.8802 6.13498 84.7746 5.52312 81.4821 5.52312C77.6039 5.52312 73.9832 6.37324 70.6201 8.07349C67.2569 9.77374 64.3937 12.075 62.0304 14.9774C61.5456 15.5838 60.97 15.9466 60.3034 16.0657C59.6368 16.1849 59.0106 16.017 58.4249 15.5622C57.8189 15.1073 57.4856 14.4955 57.425 13.7266Z" fill="white"/>
<path d="M61.1028 70.2734C61.1634 71.0423 60.9008 71.7733 60.3151 72.4664C57.467 75.9752 54.0281 78.7747 49.9984 80.8648C45.9687 82.9549 41.6511 84 37.0457 84C33.1069 84 29.3751 83.2365 25.8504 81.7095C22.3256 80.1826 19.1696 78.0654 16.3822 75.3579C13.5947 72.6506 11.3273 69.4991 9.58013 65.9037C7.83276 62.3083 6.74707 58.4421 6.32305 54.3052H2.17211C1.08124 54.3052 0.399502 53.9695 0.126892 53.298C-0.145721 52.6266 0.0208855 51.836 0.626713 50.9263L7.3835 40.5948C7.8884 39.8367 8.46403 39.4631 9.1104 39.474C9.75677 39.4848 10.3224 39.8585 10.8072 40.5948L17.5941 50.9588C18.1799 51.8469 18.3363 52.6266 18.0635 53.298C17.7909 53.9695 17.1193 54.3052 16.0487 54.3052H11.5344C11.9384 57.7273 12.8675 60.9004 14.3218 63.8244C15.7761 66.7484 17.6445 69.3096 19.9269 71.508C22.2094 73.7065 24.8101 75.4175 27.729 76.6413C30.6477 77.865 33.7532 78.4769 37.0457 78.4769C40.9239 78.4769 44.5446 77.6268 47.9078 75.9265C51.2709 74.2263 54.1341 71.925 56.4974 69.0226C56.9822 68.4162 57.5579 68.0534 58.2245 67.9343C58.891 67.8151 59.5172 67.983 60.103 68.4378C60.7089 68.8927 61.0422 69.5045 61.1028 70.2734Z" fill="white"/>
</svg>
