<svg width="84" height="84" fill="none" xmlns="http://www.w3.org/2000/svg"><path d="M11.2 22.4h61.6M16.8 11.2h50.4M72.8 72.8H11.2A2.8 2.8 0 0 1 8.4 70V36.4a2.8 2.8 0 0 1 2.8-2.8h61.6a2.8 2.8 0 0 1 2.8 2.8V70a2.8 2.8 0 0 1-2.8 2.8Z" stroke="#fff" stroke-width="4" stroke-miterlimit="10" stroke-linecap="round"/><path d="M72.8 42a5.6 5.6 0 1 0 0-11.2 5.6 5.6 0 0 0 0 11.2ZM11.2 42a5.6 5.6 0 1 0 0-11.2 5.6 5.6 0 0 0 0 11.2ZM11.2 75.6a5.6 5.6 0 1 0 0-11.2 5.6 5.6 0 0 0 0 11.2ZM72.8 75.6a5.6 5.6 0 1 0 0-11.2 5.6 5.6 0 0 0 0 11.2ZM64.4 56a2.8 2.8 0 1 0 0-5.6 2.8 2.8 0 0 0 0 5.6ZM19.6 56a2.8 2.8 0 1 0 0-5.6 2.8 2.8 0 0 0 0 5.6ZM35.04 64.4h13.92a13.14 13.14 0 0 0 4.24-9.8C53.2 47.64 48.19 42 42 42c-6.19 0-11.2 5.64-11.2 12.6 0 3.98 1.67 7.49 4.24 9.8Z" fill="#fff"/></svg>