<svg width="84" height="84" viewBox="0 0 84 84" fill="none" xmlns="http://www.w3.org/2000/svg">
<path d="M49.9746 20.8887C50.5214 20.8887 50.8144 20.6055 50.8536 20.0391C51.0684 18.3203 51.293 16.9726 51.5274 15.9961C51.7618 15.0195 52.1329 14.2822 52.6407 13.7842C53.1485 13.2861 53.9053 12.9053 54.9111 12.6416C55.9169 12.3779 57.2987 12.0996 59.0565 11.8067C59.6425 11.748 59.9355 11.4648 59.9355 10.957C59.9355 10.4687 59.6816 10.1855 59.1738 10.1074C57.3964 9.77538 55.9999 9.47753 54.9843 9.21387C53.9687 8.95019 53.2021 8.57421 52.6845 8.08593C52.1669 7.59765 51.7861 6.875 51.5421 5.91798C51.2979 4.96094 51.0684 3.62305 50.8536 1.9043C50.8144 1.33789 50.5214 1.05469 49.9746 1.05469C49.4668 1.05469 49.1934 1.32812 49.1544 1.875C48.92 3.61328 48.6856 4.98047 48.4512 5.97657C48.2168 6.97265 47.8457 7.7246 47.3379 8.23242C46.8301 8.74024 46.0684 9.11622 45.0528 9.36036C44.0372 9.6045 42.6309 9.85352 40.8339 10.1074C40.6191 10.127 40.4385 10.2149 40.2921 10.3711C40.1455 10.5274 40.0722 10.7227 40.0722 10.957C40.0722 11.4648 40.3261 11.748 40.8339 11.8067C42.6309 12.1582 44.0372 12.4707 45.0528 12.7442C46.0684 13.0176 46.8301 13.3984 47.3379 13.8867C47.8457 14.375 48.2168 15.1026 48.4512 16.0694C48.6856 17.0361 48.92 18.3789 49.1544 20.0977C49.1738 20.332 49.2617 20.5225 49.4181 20.6689C49.5743 20.8154 49.7598 20.8887 49.9746 20.8887ZM30.375 12.9785C30.7461 12.9785 30.9707 12.793 31.0488 12.4219C31.3223 10.957 31.5762 9.90722 31.8106 9.27246C32.0449 8.6377 32.4746 8.19825 33.0996 7.95411C33.7246 7.70997 34.7793 7.45118 36.2637 7.17774C36.6739 7.08008 36.879 6.85547 36.879 6.50391C36.879 6.13281 36.6739 5.89843 36.2637 5.80077C35.1504 5.58593 34.2959 5.39062 33.7002 5.21484C33.1045 5.03906 32.6553 4.79492 32.3525 4.48242C32.0498 4.16992 31.8154 3.71094 31.6494 3.10548C31.4834 2.5 31.2832 1.66016 31.0488 0.585936C30.9512 0.195312 30.7266 0 30.375 0C30.0039 0 29.7793 0.195312 29.7012 0.585936C29.4668 1.66016 29.2666 2.5 29.1006 3.10548C28.9346 3.71094 28.7002 4.16992 28.3975 4.48242C28.0947 4.79492 27.6406 5.03906 27.0352 5.21484C26.4297 5.39062 25.5801 5.58593 24.4863 5.80077C24.0762 5.89843 23.8711 6.13281 23.8711 6.50391C23.8711 6.85547 24.0762 7.08008 24.4863 7.17774C25.5801 7.39258 26.4346 7.58789 27.0498 7.76367C27.665 7.93945 28.1289 8.17871 28.4414 8.48145C28.7539 8.78419 28.9883 9.24317 29.1445 9.85839C29.3008 10.4736 29.4863 11.3281 29.7012 12.4219C29.7793 12.793 30.0039 12.9785 30.375 12.9785ZM14.4375 78.1641C14.8281 78.1641 15.0625 77.9395 15.1406 77.4903C15.4141 76.0645 15.6582 74.9414 15.8731 74.121C16.0879 73.3008 16.4004 72.6807 16.8106 72.2607C17.2207 71.8409 17.8457 71.5089 18.6856 71.2647C19.5254 71.0205 20.6973 70.7617 22.2012 70.4883C22.6504 70.3711 22.875 70.1172 22.875 69.7266C22.875 69.3164 22.6504 69.0722 22.2012 68.994C20.6973 68.7012 19.5352 68.4278 18.7148 68.1738C17.8945 67.92 17.2793 67.5831 16.8692 67.1631C16.459 66.7431 16.1465 66.1279 15.9317 65.3175C15.7168 64.5069 15.4531 63.3887 15.1406 61.9629C15.0625 61.5137 14.8281 61.2891 14.4375 61.2891C14.0469 61.2891 13.8027 61.5137 13.7051 61.9629C13.3926 63.3887 13.1289 64.5069 12.9141 65.3175C12.6992 66.1279 12.3916 66.7431 11.9912 67.1631C11.5908 67.5831 10.9854 67.92 10.1748 68.1738C9.36426 68.4278 8.19727 68.7012 6.67383 68.994C6.22461 69.0722 6 69.3164 6 69.7266C6 70.1172 6.22461 70.3711 6.67383 70.4883C8.19727 70.7813 9.36914 71.0498 10.1894 71.2938C11.0098 71.538 11.625 71.8701 12.0352 72.2901C12.4453 72.7099 12.7578 73.3251 12.9727 74.1357C13.1875 74.9463 13.4316 76.0645 13.7051 77.4903C13.8027 77.9395 14.0469 78.1641 14.4375 78.1641ZM29.6133 68.877C31.8984 71.1622 34.291 72.8516 36.7911 73.9452C39.2911 75.039 41.8057 75.5761 44.3349 75.5565C46.8643 75.5371 49.3204 74.9903 51.7032 73.9161C54.086 72.8419 56.3028 71.2794 58.3536 69.2286C61.6544 65.9472 63.6807 62.5439 64.4325 59.0187C65.1845 55.4933 64.8574 51.67 63.4512 47.5488C63.08 46.377 62.6552 45.1905 62.1768 43.9893C61.6982 42.7881 61.1611 41.5625 60.5655 40.3125C59.9697 39.0625 59.3349 37.7832 58.6611 36.4746C57.9873 35.166 57.2793 33.8086 56.5371 32.4024C56.1465 31.6406 55.7315 30.8398 55.2921 30C54.8525 29.1602 54.4277 28.3887 54.0177 27.6856C53.6075 26.9824 53.2364 26.4648 52.9044 26.1328C52.3574 25.5859 51.7275 25.3272 51.0147 25.3565C50.3017 25.3858 49.6523 25.6934 49.0665 26.2793C48.4023 26.9434 48.0654 27.7148 48.0558 28.5938C48.046 29.4727 48.295 30.6445 48.8028 32.1093L51.9669 41.0448C52.1621 41.5136 52.2451 41.8994 52.2159 42.2022C52.1865 42.505 52.0937 42.7442 51.9375 42.9198C51.7227 43.1348 51.4786 43.2374 51.2052 43.2276C50.9316 43.2178 50.6093 43.0274 50.2383 42.6564L28.5 20.918C27.8945 20.3125 27.1572 20.0098 26.2881 20.0098C25.4189 20.0098 24.6816 20.3125 24.0762 20.918C23.4512 21.543 23.1387 22.2901 23.1387 23.1592C23.1387 24.0283 23.4512 24.7656 24.0762 25.3711L39.6036 40.8984C39.213 41.0742 38.8223 41.2744 38.4315 41.499C38.0409 41.7236 37.6503 41.9726 37.2597 42.246L19.2422 24.2285C18.6172 23.6035 17.8701 23.291 17.001 23.291C16.1318 23.291 15.3945 23.6035 14.7891 24.2285C14.1836 24.834 13.8808 25.5713 13.8808 26.4404C13.8808 27.3096 14.1836 28.0469 14.7891 28.6523L32.6016 46.4649C32.2891 46.8165 31.9912 47.1778 31.708 47.5488C31.4248 47.92 31.1562 48.2911 30.9023 48.6621L14.6133 32.373C13.9883 31.7676 13.2412 31.4649 12.3721 31.4649C11.5029 31.4649 10.7656 31.7676 10.1602 32.373C9.55468 32.9786 9.25194 33.7208 9.25194 34.5996C9.25194 35.4786 9.55468 36.2208 10.1602 36.8262L27.8555 54.5214C27.6797 55.0292 27.5283 55.5273 27.4014 56.0157C27.2744 56.5039 27.1621 56.9824 27.0644 57.4512L14.7598 45.1464C14.1543 44.5214 13.4121 44.2089 12.5332 44.2089C11.6543 44.2089 10.9121 44.5214 10.3067 45.1464C9.70117 45.752 9.39843 46.4893 9.39843 47.3583C9.39843 48.2275 9.70117 48.9648 10.3067 49.5702L29.6133 68.877ZM44.7012 26.6894L38.9298 20.918C38.3242 20.3125 37.582 20.0098 36.7032 20.0098C35.8242 20.0098 35.082 20.3125 34.4766 20.918C34.4375 20.957 34.3984 21.0156 34.3594 21.0938L44.994 31.7577C44.8184 30.8399 44.7013 29.961 44.6427 29.1211C44.5841 28.2812 44.6036 27.4707 44.7012 26.6894ZM68.754 69.2577C72.0548 65.9569 74.0811 62.5439 74.8329 59.0187C75.5849 55.4933 75.2676 51.6602 73.881 47.5194C73.5098 46.3672 73.0801 45.1905 72.5919 43.9893C72.1035 42.7881 71.5664 41.5625 70.9806 40.3125C70.3946 39.0625 69.7598 37.7832 69.0762 36.4746C68.3926 35.166 67.6797 33.8086 66.9375 32.4024C66.5469 31.6406 66.1319 30.8398 65.6925 30C65.2529 29.1602 64.8281 28.3887 64.4181 27.6856C64.0079 26.9824 63.6368 26.4746 63.3048 26.1621C62.7578 25.5957 62.1279 25.3272 61.4151 25.3565C60.7021 25.3858 60.0527 25.6934 59.4669 26.2793C59.0763 26.6699 58.7931 27.1191 58.6173 27.6269C58.9493 28.2324 59.2666 28.8379 59.5692 29.4434C59.872 30.0489 60.1894 30.6446 60.5214 31.2306C61.2246 32.5782 61.9082 33.9063 62.5722 35.2149C63.2364 36.5235 63.8565 37.8125 64.4325 39.0819C65.0087 40.3515 65.541 41.6015 66.0294 42.8319C66.5176 44.0625 66.9375 45.2637 67.2891 46.4355C68.9101 51.4161 69.2226 56.0108 68.2266 60.2196C67.2304 64.4286 64.8769 68.3691 61.1661 72.0411C59.9161 73.3105 58.5782 74.414 57.1524 75.3516C59.2422 75.0586 61.2685 74.3945 63.2313 73.3593C65.1943 72.3241 67.0352 70.9569 68.754 69.2577Z" fill="white"/>
</svg>
