<svg width="119" height="84" fill="none" xmlns="http://www.w3.org/2000/svg"><path d="M48.22 8.25H28.96c-1.75 0-3.07.44-3.95 1.3-.88.87-1.32 2.17-1.32 3.9v6.39c1.49 0 2.89.28 4.2.85a11.02 11.02 0 0 1 5.8 5.79 10.42 10.42 0 0 1 .46 7.01c-.26.9-.61 1.76-1.07 2.55h15.65c1.5 0 2.67-.43 3.5-1.3.85-.87 1.27-2.17 1.27-3.9V13.46c0-1.74-.45-3.04-1.33-3.9-.89-.87-2.2-1.3-3.95-1.3Zm-16.59.15h2.7c0-.76.2-1.45.57-2.07a4.27 4.27 0 0 1 3.68-2.06 4.23 4.23 0 0 1 3.7 2.06c.37.62.55 1.31.55 2.07h2.7c0-1.2-.3-2.3-.93-3.31a7.1 7.1 0 0 0-6.02-3.37c-1.27 0-2.44.3-3.49.92a7.17 7.17 0 0 0-2.52 2.45 6.18 6.18 0 0 0-.94 3.31Z" fill="#fff"/><path d="M23.7 39.2c1.16 0 2.25-.22 3.28-.67a8.84 8.84 0 0 0 4.59-4.57c.44-1.03.67-2.13.67-3.3a8.3 8.3 0 0 0-2.5-6.02 8.3 8.3 0 0 0-6.03-2.5 8.25 8.25 0 0 0-6.01 2.5c-.79.8-1.4 1.7-1.85 2.73a8.15 8.15 0 0 0-.67 3.3c0 1.17.22 2.28.67 3.3a8.74 8.74 0 0 0 4.57 4.57c1.03.44 2.12.66 3.29.66Z" fill="#fff"/><path d="M23.69 36a1 1 0 0 1-.75-.28 1.02 1.02 0 0 1-.27-.74V31.7h-3.3c-.3 0-.54-.09-.73-.27a1 1 0 0 1-.29-.75 1 1 0 0 1 .29-.75c.19-.18.43-.28.73-.28h3.3v-3.29c0-.3.09-.55.27-.74a1 1 0 0 1 .75-.28 1 1 0 0 1 .75.28c.18.2.27.44.27.74v3.3h3.3c.3 0 .54.09.73.27a1 1 0 0 1 .29.75 1 1 0 0 1-.29.75c-.19.18-.43.27-.73.27h-3.3V35c0 .3-.09.54-.27.73a1 1 0 0 1-.75.29Z" fill="#F0B00B"/><path d="M97.57 49.7H78.3c-1.75 0-3.07.44-3.95 1.33-.88.89-1.32 2.21-1.32 3.99v6.52c1.5 0 2.9.29 4.2.86a11.3 11.3 0 0 1 5.8 5.92 10.85 10.85 0 0 1 .46 7.17c-.25.92-.61 1.8-1.07 2.6h15.65a4.6 4.6 0 0 0 3.5-1.33c.85-.88 1.27-2.21 1.27-3.98V55.02c0-1.78-.44-3.1-1.33-4-.88-.88-2.2-1.32-3.94-1.32Zm-16.6.15h2.7c0-.77.2-1.48.57-2.12.38-.63.88-1.14 1.52-1.52a4.13 4.13 0 0 1 2.17-.58 4.16 4.16 0 0 1 4.25 4.22h2.7c0-1.22-.31-2.35-.93-3.39a7.17 7.17 0 0 0-2.51-2.5 6.7 6.7 0 0 0-3.51-.94c-1.28 0-2.44.32-3.5.95a7.24 7.24 0 0 0-2.51 2.5 6.42 6.42 0 0 0-.95 3.38Z" fill="#fff"/><path d="M73.05 81.32c1.15 0 2.24-.23 3.27-.69a8.83 8.83 0 0 0 4.6-11.4 8.82 8.82 0 0 0-4.56-4.66 8.14 8.14 0 0 0-3.31-.68 8.1 8.1 0 0 0-3.3.68 8.55 8.55 0 0 0-2.71 1.88c-.79.8-1.4 1.74-1.85 2.78a8.48 8.48 0 0 0-.67 3.37c0 1.2.22 2.33.67 3.38a8.94 8.94 0 0 0 4.57 4.66 8.1 8.1 0 0 0 3.29.68Z" fill="#fff"/><path d="M68.72 73.65a.96.96 0 0 1-.73-.32 1.03 1.03 0 0 1 0-1.46c.2-.2.45-.31.73-.31h8.63c.28 0 .52.1.73.31a1.01 1.01 0 0 1 0 1.46.99.99 0 0 1-.73.32h-8.63Z" fill="#F0B00B"/><path d="M57.42 13.73c-.06-.77.2-1.5.8-2.2a32.3 32.3 0 0 1 10.3-8.4A27.73 27.73 0 0 1 81.49 0c3.94 0 7.67.76 11.2 2.29a31.41 31.41 0 0 1 9.47 6.35 33.43 33.43 0 0 1 6.8 9.46 34.33 34.33 0 0 1 3.25 11.6h4.16c1.09 0 1.77.33 2.04 1 .27.67.1 1.46-.5 2.37l-6.76 10.34c-.5.75-1.08 1.13-1.72 1.12-.65-.01-1.22-.39-1.7-1.12l-6.79-10.37c-.58-.89-.74-1.67-.47-2.34.28-.67.95-1 2.02-1h4.51c-.4-3.43-1.33-6.6-2.78-9.52a27.7 27.7 0 0 0-5.6-7.69 25.2 25.2 0 0 0-7.81-5.13 23.85 23.85 0 0 0-9.32-1.84c-3.88 0-7.5.85-10.86 2.55-3.36 1.7-6.23 4-8.59 6.9-.48.61-1.06.98-1.73 1.1a2.3 2.3 0 0 1-1.88-.5 2.43 2.43 0 0 1-1-1.84ZM61.1 70.27c.06.77-.2 1.5-.78 2.2A32.3 32.3 0 0 1 50 80.87 27.73 27.73 0 0 1 37.05 84c-3.94 0-7.67-.76-11.2-2.29a31.4 31.4 0 0 1-9.47-6.35 33.42 33.42 0 0 1-6.8-9.46 34.32 34.32 0 0 1-3.26-11.6H2.17c-1.09 0-1.77-.33-2.04-1-.28-.67-.1-1.46.5-2.37l6.75-10.34c.5-.75 1.08-1.13 1.73-1.12.65.01 1.21.39 1.7 1.12l6.78 10.37c.59.89.75 1.67.47 2.34-.27.67-.94 1-2.01 1h-4.52c.4 3.43 1.34 6.6 2.8 9.52a27.7 27.7 0 0 0 5.6 7.69 25.2 25.2 0 0 0 7.8 5.13 23.85 23.85 0 0 0 9.32 1.84c3.87 0 7.5-.85 10.86-2.55 3.36-1.7 6.22-4 8.59-6.9.48-.61 1.06-.98 1.72-1.1a2.3 2.3 0 0 1 1.88.5c.6.46.94 1.07 1 1.84Z" fill="#fff"/></svg>