<svg width="84" height="84" viewBox="0 0 84 84" fill="none" xmlns="http://www.w3.org/2000/svg">
<path d="M25.2001 19.6001H16.8V28.0001L25.2001 19.6001Z" fill="white"/>
<path d="M58.8 19.6001H67.2V28.0001L58.8 19.6001Z" fill="white"/>
<path d="M70.0001 11.2002H48.8433C49.8065 12.855 50.4001 14.7506 50.4001 16.8002C50.4001 18.8498 49.8065 20.7454 48.8433 22.4002H70.0001C73.0941 22.4002 75.6001 19.8942 75.6001 16.8002C75.6001 13.7062 73.0941 11.2002 70.0001 11.2002Z" fill="white"/>
<path d="M39.1999 11.2002H13.9999C10.9059 11.2002 8.3999 13.7062 8.3999 16.8002C8.3999 19.8942 10.9059 22.4002 13.9999 22.4002H39.1999C42.2939 22.4002 44.7999 19.8942 44.7999 16.8002C44.7999 13.7062 42.2939 11.2002 39.1999 11.2002Z" fill="white"/>
<path d="M8.3999 72.8001H41.9999C39.3287 65.8701 33.4095 66.5561 30.7999 62.5689V59.4217C31.8947 58.2961 34.2579 55.6641 34.4791 53.7181C34.4791 53.7181 36.5399 52.2929 36.5399 49.7421C36.5399 47.9725 35.7503 47.7065 35.7503 47.7065C35.7503 47.7065 37.1699 45.0129 37.1699 42.4425C37.1699 37.2905 34.5827 33.3257 30.2399 33.3257C30.2399 33.3257 28.3947 30.8057 25.1999 30.8057C18.4155 30.8057 12.9135 34.8909 12.9135 42.2045C12.9135 45.2957 14.6495 47.7065 14.6495 47.7065C14.6495 47.7065 13.8599 48.0873 13.8599 49.7393C13.8599 52.9481 15.9207 53.7153 15.9207 53.7153C16.1419 55.6641 18.5051 58.2933 19.5999 59.4189V62.5661C16.9903 66.5561 11.0711 65.8701 8.3999 72.8001Z" fill="white"/>
<path d="M47.46 49.7393C47.46 52.9481 49.5208 53.7153 49.5208 53.7153C49.742 55.6641 52.1052 58.2933 53.2 59.4189V62.5661C51.5032 65.1589 48.412 65.7861 45.7212 67.8021C46.27 68.6869 46.788 69.6501 47.2248 70.7813L48.0032 72.8001H75.6C72.9288 65.8701 67.0096 66.5561 64.4 62.5689V59.4217C65.4948 58.2961 67.858 55.6641 68.0792 53.7181C68.0792 53.7181 70.14 52.2929 70.14 49.7421C70.14 47.9725 69.3504 47.7065 69.3504 47.7065C69.3504 47.7065 70.77 45.0129 70.77 42.4425C70.77 37.2905 68.1828 33.3257 63.84 33.3257C63.84 33.3257 61.9948 30.8057 58.8 30.8057C52.0156 30.8057 46.5136 34.8909 46.5136 42.2045C46.5136 45.2957 48.2496 47.7065 48.2496 47.7065C48.2496 47.7065 47.46 48.0873 47.46 49.7393Z" fill="white"/>
</svg>
