<svg width="84" height="84" fill="none" xmlns="http://www.w3.org/2000/svg"><path d="M42 14V8.4M5.6 14h72.8M44.8 58.8 54.6 77" stroke="#fff" stroke-width="3" stroke-miterlimit="10" stroke-linecap="round" stroke-linejoin="round"/><path d="M5.6 14v44.8c0 3.1 2.5 5.6 5.6 5.6h61.6c3.1 0 5.6-2.5 5.6-5.6V14H5.6Zm60.78 15.98-16.8 16.8a2.8 2.8 0 0 1-3.96 0l-6.42-6.42-9.22 9.22a2.8 2.8 0 0 1-3.96 0l-5.6-5.6a2.8 2.8 0 1 1 3.96-3.96L28 43.64l9.22-9.22a2.8 2.8 0 0 1 3.96 0l6.42 6.42 14.82-14.82a2.8 2.8 0 1 1 3.96 3.96ZM54.6 81.2a4.2 4.2 0 1 0 0-8.4 4.2 4.2 0 0 0 0 8.4Z" fill="#fff"/><path d="M39.2 58.8 29.4 77" stroke="#fff" stroke-width="3" stroke-miterlimit="10" stroke-linecap="round" stroke-linejoin="round"/><path d="M29.4 81.2a4.2 4.2 0 1 0 0-8.4 4.2 4.2 0 0 0 0 8.4Z" fill="#fff"/></svg>