<svg width="84" height="84" fill="none" xmlns="http://www.w3.org/2000/svg"><path d="M33.6 16.8a25.2 25.2 0 1 0 0 50.4 25.2 25.2 0 0 0 0-50.4Zm2.8 36.44V56h-5.6v-2.74c-3.9-.74-6.3-3.09-6.37-6.55h5.31c.14 1.6 1.73 2.6 4.03 2.6 2.08 0 3.5-1 3.5-2.44 0-1.2-.95-1.86-3.45-2.36l-2.88-.58c-4-.76-6.07-2.94-6.07-6.38 0-3.47 2.28-5.94 5.93-6.76V28h5.6v2.8c3.55.84 5.87 3.24 5.94 6.49H37.2c-.12-1.55-1.59-2.62-3.55-2.62-1.96 0-3.24.92-3.24 2.38 0 1.2.97 1.9 3.27 2.35l2.83.54c4.32.84 6.26 2.8 6.26 6.27 0 3.74-2.37 6.24-6.37 7.03Z" fill="#fff"/><path d="M63.85 36.3a30.56 30.56 0 0 1-2.93 19.87 5.55 5.55 0 0 1 1.45 4.04c0 3.74-2.37 6.24-6.37 7.03V70h-5.6v-2.22a30.54 30.54 0 0 1-12.37 4.66A22.3 22.3 0 0 0 53.2 78.4a22.4 22.4 0 0 0 10.65-42.1ZM53.2 16.8V14h5.6v2.8c3.55.84 5.87 3.24 5.94 6.5H59.6c-.12-1.56-1.59-2.63-3.55-2.63-.09 0-.15.02-.24.03 1.6 1.67 3 3.52 4.2 5.51 2.9.78 4.49 2.2 4.98 4.42a28.06 28.06 0 0 1 10.46 8.42A22.14 22.14 0 0 0 78.4 28 22.4 22.4 0 0 0 56 5.6a22.26 22.26 0 0 0-15.6 6.38c4.22.95 8.1 2.77 11.46 5.25.43-.16.86-.33 1.34-.44Z" fill="#fff"/></svg>