<svg width="8" height="10" viewBox="0 0 8 10" fill="none" xmlns="http://www.w3.org/2000/svg">
<path d="M4 9.00195C4.28564 9.00195 4.48779 8.7998 4.48779 8.50977V3.08252L4.45264 2.1333L5.59082 3.40332L6.59277 4.39648C6.68066 4.48438 6.80371 4.5415 6.93994 4.5415C7.20801 4.5415 7.41016 4.33936 7.41016 4.0625C7.41016 3.93506 7.36182 3.81641 7.25635 3.71094L4.36035 0.810547C4.26367 0.709473 4.13184 0.656738 4 0.656738C3.86377 0.656738 3.73193 0.709473 3.63525 0.810547L0.743652 3.71094C0.638184 3.81641 0.589844 3.93506 0.589844 4.0625C0.589844 4.33936 0.787598 4.5415 1.05566 4.5415C1.19629 4.5415 1.31934 4.48438 1.40723 4.39648L2.40478 3.40332L3.54736 2.12891L3.50781 3.08252V8.50977C3.50781 8.7998 3.70996 9.00195 4 9.00195Z" fill="#61B67F"/>
</svg>
