<svg width="56" height="56" viewBox="0 0 56 56" fill="none" xmlns="http://www.w3.org/2000/svg">
<path d="M8.61784 19.9199H21.1048C21.5605 19.9199 21.9441 19.7642 22.2555 19.4528C22.567 19.1414 22.7227 18.7654 22.7227 18.3249C22.7227 17.8843 22.567 17.5046 22.2555 17.1855C21.9441 16.8665 21.5605 16.707 21.1048 16.707H8.61784C8.16211 16.707 7.77854 16.8665 7.46712 17.1855C7.15571 17.5046 7 17.8843 7 18.3249C7 18.7654 7.15571 19.1414 7.46712 19.4528C7.77854 19.7642 8.16211 19.9199 8.61784 19.9199ZM15.2031 50.0437C15.5829 50.0437 15.9019 49.9564 16.1602 49.7817C16.4184 49.607 16.6918 49.3069 16.9805 48.8815L30.3333 29.0801L43.3216 9.89387C43.4736 9.66601 43.5837 9.45334 43.652 9.25586C43.7204 9.05838 43.7547 8.8457 43.7547 8.61784C43.7547 8.16211 43.5837 7.77854 43.2418 7.46712C42.9 7.15571 42.4937 7 42.0229 7C41.6279 7 41.2975 7.07975 41.0317 7.23926C40.7658 7.39876 40.4734 7.71398 40.1543 8.18489L27.1204 27.5306L13.8359 47.1042C13.684 47.3168 13.5701 47.5257 13.4941 47.7309C13.4182 47.9359 13.3802 48.1599 13.3802 48.4029C13.3802 48.9043 13.5587 49.303 13.9157 49.5992C14.2727 49.8955 14.7018 50.0437 15.2031 50.0437ZM34.3894 40.086C34.3894 40.5265 34.5451 40.9025 34.8565 41.2139C35.1679 41.5253 35.5439 41.681 35.9844 41.681H40.6555V46.3521C40.6555 46.7927 40.8112 47.1686 41.1227 47.4801C41.4341 47.7915 41.8101 47.9472 42.2506 47.9472C42.6911 47.9472 43.0709 47.7915 43.39 47.4801C43.709 47.1686 43.8685 46.7927 43.8685 46.3521V41.681H48.4941C48.9347 41.681 49.3145 41.5253 49.6335 41.2139C49.9525 40.9025 50.1121 40.5265 50.1121 40.086C50.1121 39.6302 49.9525 39.2466 49.6335 38.9352C49.3145 38.6237 48.9347 38.468 48.4941 38.468H43.8685V33.8424C43.8685 33.3867 43.709 33.0031 43.39 32.6916C43.0709 32.3802 42.6911 32.2245 42.2506 32.2245C41.795 32.2245 41.4152 32.3802 41.1112 32.6916C40.8074 33.0031 40.6555 33.3867 40.6555 33.8424V38.468H35.9844C35.5439 38.468 35.1679 38.6237 34.8565 38.9352C34.5451 39.2466 34.3894 39.6302 34.3894 40.086Z" fill="#F0B00B"/>
</svg>
