<svg width="56" height="56" viewBox="0 0 56 56" fill="none" xmlns="http://www.w3.org/2000/svg">
<path d="M12.1998 14.4557C8.9793 14.4557 6.52975 15.2684 4.85115 16.8939C3.17255 18.5193 2.33325 20.8815 2.33325 23.9805V27.444C2.33325 30.5429 3.17255 32.9051 4.85115 34.5305C6.52975 36.1561 8.9793 36.9689 12.1998 36.9689H17.509V14.4557H12.1998ZM20.6308 36.9915C22.879 37.2497 25.1501 37.6485 27.4439 38.1878C29.7377 38.7271 32.005 39.3993 34.2458 40.2045C36.4864 41.0095 38.6625 41.9513 40.774 43.0299C40.774 42.9691 40.774 42.9046 40.774 42.8363C40.774 42.768 40.774 42.7034 40.774 42.6426V8.62239C40.774 8.59201 40.774 8.55783 40.774 8.51986C40.774 8.48188 40.774 8.44769 40.774 8.41731C38.6472 9.51107 36.4218 10.4681 34.0976 11.2884C31.7733 12.1087 29.4604 12.7847 27.159 13.3164C24.8576 13.8481 22.6816 14.2279 20.6308 14.4557V36.9915ZM43.8958 43.9413C43.8958 44.8832 44.0932 45.7112 44.4882 46.4252C44.8831 47.1392 45.4338 47.6936 46.1402 48.0886C46.8466 48.4836 47.6707 48.681 48.6126 48.681C49.5696 48.681 50.4051 48.4836 51.1191 48.0886C51.8331 47.6936 52.3875 47.1392 52.7825 46.4252C53.1774 45.7112 53.3749 44.8832 53.3749 43.9413V7.34636C53.3749 6.38932 53.1774 5.55382 52.7825 4.83985C52.3875 4.12587 51.8331 3.5714 51.1191 3.17643C50.4051 2.78147 49.5696 2.58398 48.6126 2.58398C47.6707 2.58398 46.8466 2.78147 46.1402 3.17643C45.4338 3.5714 44.8831 4.12587 44.4882 4.83985C44.0932 5.55382 43.8958 6.38932 43.8958 7.34636V43.9413ZM21.6334 53.0332C22.5904 53.0332 23.4373 52.8167 24.1741 52.3838C24.9108 51.9509 25.4463 51.3204 25.7805 50.4924C26.1147 49.6645 26.1528 48.6505 25.8946 47.4504L24.3905 40.3412C24.0108 40.1893 23.4145 40.0601 22.6018 39.9537C21.7891 39.8474 20.946 39.7677 20.0725 39.7145C19.199 39.6613 18.4661 39.6272 17.8736 39.6121H12.0175L16.3241 48.9545C16.9318 50.2456 17.6306 51.2482 18.4205 51.9622C19.2104 52.6762 20.2814 53.0332 21.6334 53.0332Z" fill="#F0B00B"/>
</svg>
