<svg width="56" height="56" viewBox="0 0 56 56" fill="none" xmlns="http://www.w3.org/2000/svg">
<path d="M49 43.75H7C6.53587 43.75 6.09075 43.5656 5.76256 43.2374C5.43437 42.9092 5.25 42.4641 5.25 42C5.25 41.5359 5.43437 41.0908 5.76256 40.7626C6.09075 40.4344 6.53587 40.25 7 40.25H49C49.4641 40.25 49.9092 40.4344 50.2374 40.7626C50.5656 41.0908 50.75 41.5359 50.75 42C50.75 42.4641 50.5656 42.9092 50.2374 43.2374C49.9092 43.5656 49.4641 43.75 49 43.75Z" fill="#F0B00B"/>
<path d="M45.5 49H10.5C10.0359 49 9.59075 48.8156 9.26256 48.4874C8.93437 48.1592 8.75 47.7141 8.75 47.25C8.75 46.7859 8.93437 46.3408 9.26256 46.0126C9.59075 45.6844 10.0359 45.5 10.5 45.5H45.5C45.9641 45.5 46.4092 45.6844 46.7374 46.0126C47.0656 46.3408 47.25 46.7859 47.25 47.25C47.25 47.7141 47.0656 48.1592 46.7374 48.4874C46.4092 48.8156 45.9641 49 45.5 49Z" fill="#F0B00B"/>
<path d="M3.5 29.75H1.75V35C1.75 35.9283 2.11875 36.8185 2.77513 37.4749C3.4315 38.1312 4.32174 38.5 5.25 38.5H10.5V36.75C10.4981 34.8941 9.76005 33.1147 8.4477 31.8023C7.13535 30.4899 5.35595 29.7519 3.5 29.75V29.75Z" fill="#F0B00B"/>
<path d="M52.5 26.25H54.25V19.25H52.5C49.7162 19.2469 47.0473 18.1397 45.0788 16.1712C43.1103 14.2027 42.0031 11.5338 42 8.75V7H14V8.75C13.9969 11.5338 12.8897 14.2027 10.9212 16.1712C8.95275 18.1397 6.28383 19.2469 3.5 19.25H1.75V26.25H3.5C6.28383 26.2531 8.95275 27.3603 10.9212 29.3288C12.8897 31.2973 13.9969 33.9662 14 36.75V38.5H42V36.75C42.0031 33.9662 43.1103 31.2973 45.0788 29.3288C47.0473 27.3603 49.7162 26.2531 52.5 26.25V26.25ZM28 33.25C25.2152 33.25 22.5445 32.1438 20.5754 30.1746C18.6062 28.2055 17.5 25.5348 17.5 22.75C17.5 19.9652 18.6062 17.2945 20.5754 15.3254C22.5445 13.3562 25.2152 12.25 28 12.25C30.7848 12.25 33.4555 13.3562 35.4246 15.3254C37.3938 17.2945 38.5 19.9652 38.5 22.75C38.5 25.5348 37.3938 28.2055 35.4246 30.1746C33.4555 32.1438 30.7848 33.25 28 33.25V33.25Z" fill="#F0B00B"/>
<path d="M28 29.75C29.8565 29.75 31.637 29.0125 32.9497 27.6997C34.2625 26.387 35 24.6065 35 22.75C35 20.8935 34.2625 19.113 32.9497 17.8003C31.637 16.4875 29.8565 15.75 28 15.75C26.1435 15.75 24.363 16.4875 23.0503 17.8003C21.7375 19.113 21 20.8935 21 22.75C21 24.6065 21.7375 26.387 23.0503 27.6997C24.363 29.0125 26.1435 29.75 28 29.75V29.75Z" fill="#F0B00B"/>
<path d="M45.5 36.75V38.5H50.75C51.6783 38.5 52.5685 38.1312 53.2249 37.4749C53.8812 36.8185 54.25 35.9283 54.25 35V29.75H52.5C50.6442 29.7525 48.8652 30.4908 47.553 31.803C46.2408 33.1152 45.5025 34.8942 45.5 36.75Z" fill="#F0B00B"/>
<path d="M52.5 15.75H54.25V10.5C54.25 9.57174 53.8812 8.6815 53.2249 8.02513C52.5685 7.36875 51.6783 7 50.75 7H45.5V8.75C45.5019 10.6059 46.2399 12.3853 47.5523 13.6977C48.8647 15.0101 50.6441 15.7481 52.5 15.75V15.75Z" fill="#F0B00B"/>
<path d="M10.5 8.75V7H5.25C4.32174 7 3.4315 7.36875 2.77513 8.02513C2.11875 8.6815 1.75 9.57174 1.75 10.5V15.75H3.5C5.35595 15.7481 7.13535 15.0101 8.4477 13.6977C9.76005 12.3853 10.4981 10.6059 10.5 8.75Z" fill="#F0B00B"/>
</svg>
