<svg width="56" height="56" fill="none" xmlns="http://www.w3.org/2000/svg"><path d="M8.6 20h12.5c.5 0 .8-.2 1.2-.5.3-.4.4-.7.4-1.2 0-.4-.1-.8-.4-1.1-.4-.3-.7-.5-1.2-.5H8.6c-.4 0-.8.2-1.1.5-.3.3-.5.7-.5 1.1 0 .5.2.8.5 1.2.3.3.7.4 1.1.4Zm6.6 30c.4 0 .7 0 1-.2l.8-1 13.3-19.7 13-19.2.4-.6v-.7c0-.4-.1-.8-.5-1.1-.3-.3-.7-.5-1.2-.5-.4 0-.7 0-1 .2l-.8 1-13 19.3-13.4 19.6-.3.6-.1.7c0 .5.2.9.5 1.2.4.3.8.4 1.3.4Zm19.2-10c0 .5.1.9.5 1.2.3.3.6.5 1 .5h4.8v4.7c0 .4.1.8.4 1 .3.4.7.5 1.2.5.4 0 .8-.1 1-.4.4-.3.6-.7.6-1.1v-4.7h4.6c.4 0 .8-.2 1.1-.5.4-.3.5-.7.5-1.1 0-.5-.1-.9-.5-1.2-.3-.3-.7-.4-1.1-.4h-4.6v-4.7c0-.4-.2-.8-.5-1.1a1.5 1.5 0 0 0-2.3 0c-.3.3-.4.7-.4 1.1v4.7H36c-.5 0-.8.1-1.1.4-.4.3-.5.7-.5 1.2Z" fill="#F0B00B"/></svg>