<svg width="40" height="54" viewBox="0 0 40 54" fill="none" xmlns="http://www.w3.org/2000/svg">
<path d="M32.1288 8.26319H34.7265C35.7291 8.26319 36.2304 8.83285 36.2304 9.97217V44.6988C36.2304 45.3823 36.143 45.8912 35.9683 46.2255C35.7936 46.5596 35.3797 46.8634 34.7265 47.1369C33.2226 47.7901 31.5402 48.3635 29.6793 48.8573C27.8184 49.351 25.8739 49.7308 23.846 49.9966C21.818 50.2625 19.8014 50.3954 17.7962 50.3954C16.0341 50.3954 14.3023 50.3347 12.6009 50.2132C10.8995 50.0915 9.17534 49.8788 7.42838 49.575V49.8713C9.84375 49.9017 12.2022 49.7726 14.5036 49.484C16.805 49.1953 18.9697 48.7813 20.9977 48.242C23.0257 47.7027 24.8486 47.0761 26.4665 46.3622C28.0843 45.6482 29.4173 44.8887 30.4654 44.0835C31.2858 43.4759 31.8403 42.8986 32.1288 42.3517C32.4175 41.8048 32.5619 41.03 32.5619 40.0275V3.68311C32.5619 2.55898 32.2884 1.71967 31.7415 1.1652C31.1947 0.610731 30.42 0.333496 29.4173 0.333496C29.0679 0.333496 28.6881 0.375271 28.2779 0.458822C27.8679 0.542372 27.4198 0.660102 26.9337 0.812011C23.4853 1.93614 20.0901 2.83241 16.748 3.50081C13.406 4.16922 9.72223 4.50342 5.69662 4.50342H3.87371C2.64323 4.50342 1.69 4.83382 1.014 5.49462C0.337999 6.15544 0 7.04791 0 8.17205V47.2736C0 48.1547 0.136719 48.8839 0.410156 49.4611C0.683593 50.0384 1.23806 50.5321 2.07357 50.9423C4.03321 51.7929 6.3954 52.4727 9.16015 52.9817C11.9249 53.4905 14.8036 53.7449 17.7962 53.7449C19.3913 53.7449 21.0205 53.6803 22.6839 53.5512C24.3473 53.4221 25.9917 53.2208 27.6171 52.9474C29.2427 52.6739 30.8111 52.3169 32.3225 51.8764C33.834 51.4358 35.2278 50.9041 36.5038 50.2813C37.871 49.6281 38.7787 48.9294 39.2268 48.185C39.675 47.4407 39.8991 46.3622 39.8991 44.9494V9.97217C39.8991 6.3871 38.1673 4.59456 34.7037 4.59456H32.1288V8.26319ZM3.66863 45.5647V9.15186C3.66863 8.46826 3.98004 8.12646 4.60287 8.12646H5.85613C9.83616 8.12646 13.6643 7.77706 17.3405 7.07828C21.0167 6.37951 24.4499 5.52882 27.64 4.52622C28.0197 4.40468 28.3235 4.39708 28.5514 4.50342C28.7793 4.60976 28.8932 4.83762 28.8932 5.18702V39.2299C28.8932 39.8528 28.8173 40.3275 28.6655 40.6542C28.5135 40.9807 28.1489 41.3339 27.5716 41.7138C26.3867 42.5037 25.0196 43.2101 23.4701 43.8329C21.9206 44.4557 20.1812 44.976 18.252 45.3937C16.3227 45.8115 14.2112 46.1077 11.9173 46.2824C9.62348 46.4571 7.13975 46.4913 4.46614 46.3849C3.93447 46.3545 3.66863 46.0811 3.66863 45.5647ZM8.31705 14.1421V21.616C8.31705 21.9654 8.49935 22.1401 8.86394 22.1401C10.6413 22.1401 12.411 22.0376 14.1732 21.8325C15.9353 21.6274 17.6291 21.3312 19.2545 20.9439C20.88 20.5565 22.3763 20.0893 23.7435 19.5425C23.9562 19.4361 24.0625 19.269 24.0625 19.0412V11.2482C24.0625 10.99 23.9713 10.8229 23.789 10.7469C23.6067 10.6709 23.4548 10.6634 23.3333 10.7241C20.9787 11.5748 18.6203 12.2356 16.2581 12.7065C13.8959 13.1775 11.4312 13.4585 8.86394 13.5496C8.49935 13.58 8.31705 13.7775 8.31705 14.1421Z" fill="#F0B00B"/>
</svg>
