<svg width="53" height="49" fill="none" xmlns="http://www.w3.org/2000/svg"><path d="M18.9 37.6h26.6c.4 0 .8-.2 1.1-.5.3-.3.5-.7.5-1.2s-.2-.9-.5-1.2c-.3-.4-.7-.5-1.1-.5H19.2a2 2 0 0 1-1.5-.6c-.4-.5-.7-1-.8-1.7L13.2 6.5c-.1-.9-.4-1.5-.8-2C12 4.1 11.2 4 10 4H2a2 2 0 0 0-1.2.5c-.3.3-.5.7-.5 1.2s.2.9.5 1.2c.4.3.8.5 1.2.5h7.7l3.7 25a7 7 0 0 0 1.7 3.9c.8 1 2.1 1.4 3.8 1.4Zm-4.2-8.1h30.8c1.7 0 3-.5 3.8-1.4a7 7 0 0 0 1.7-4l1.8-12a4.6 4.6 0 0 0 .1-.8c0-.6-.2-1-.5-1.4-.4-.3-1-.5-1.5-.5H12.7V13h36.4l-1.7 10.9a3 3 0 0 1-.7 1.6 2 2 0 0 1-1.5.7H14.6v3.4Zm6 19.2c1 0 1.8-.4 2.6-1a4 4 0 0 0 1-2.7c0-1-.3-2-1-2.6a3.8 3.8 0 0 0-2.6-1.1 3.6 3.6 0 0 0-3.3 1.8c-.3.6-.5 1.2-.5 1.9s.2 1.3.5 1.9c.4.5.8 1 1.4 1.3.5.3 1.2.5 1.9.5Zm21.3 0a4 4 0 0 0 2.6-1 4 4 0 0 0 1-2.7c0-1-.3-2-1-2.6a3.6 3.6 0 0 0-2.6-1.1 3.7 3.7 0 0 0-3.2 1.8 3.5 3.5 0 0 0 .6 4.5c.7.7 1.5 1 2.6 1Z" fill="#F0B00B"/></svg>