<svg width="56" height="56" fill="none" xmlns="http://www.w3.org/2000/svg"><path d="M7 22.1a1.7 1.7 0 0 1-1.4-.6 1.6 1.6 0 0 1-.1-1.9A25 25 0 0 1 28 8c6 0 11.4 1.6 15.8 4.7a26.6 26.6 0 0 1 7 7.5 1.6 1.6 0 0 1-.8 1.7 1.7 1.7 0 0 1-2.3-.4A22.4 22.4 0 0 0 28 11.2c-12.3 0-17.8 7-19.6 10a1.6 1.6 0 0 1-1.5.9Z" fill="#F0B00B"/><path d="M35 54.3h-.4c-10.1-2.6-14-12.8-14-13.2-.2-.4-2.2-7.3 1-11.4 1.4-1.9 3.5-2.8 6.4-2.8 2.7 0 4.6.8 6 2.5 1 1.4 1.5 3.2 2 4.8.8 3.5 1.4 5.4 5.1 5.5 1.7.1 2.7-.8 3.3-1.6 1.7-2.2 2-5.8.7-9A19 19 0 0 0 28 17.3a17.5 17.5 0 0 0-16.8 12 32.9 32.9 0 0 0 .6 15.5 1.6 1.6 0 0 1-1.2 1.4 1.7 1.7 0 0 1-2-1.2c-.2-.4-2.8-10-.7-16.6a21.1 21.1 0 0 1 33.5-9.5 23 23 0 0 1 6.8 9c1.7 4.2 1.2 9-1 12A7.1 7.1 0 0 1 41 43c-6.4-.3-7.5-4.7-8.3-8-.9-3.3-1.4-4.9-4.7-4.9-1.8 0-3 .5-3.8 1.6-1 1.4-1.2 3.5-1 5.1 0 1.1.2 2.2.5 3.3.3.6 3.7 9 11.8 11a1.6 1.6 0 0 1 1.2 2 1.7 1.7 0 0 1-1.6 1.2Z" fill="#F0B00B"/><path d="M22 53.5a1.7 1.7 0 0 1-1.2-.5c-4-4.3-6.4-9-7.2-15-.5-4 .2-9.6 3.7-13.4 2.5-2.9 6.2-4.3 10.7-4.3 5.4 0 9.6 2.5 12.2 7.2a20 20 0 0 1 2.3 7 1.6 1.6 0 0 1-1.5 1.8 1.7 1.7 0 0 1-1.8-1.5c-.3-2-1-4-2-5.8a10 10 0 0 0-9.2-5.4c-3.6 0-6.3 1-8.2 3.1-2.8 3-3.3 7.7-3 10.8a23 23 0 0 0 6.4 13.3 1.6 1.6 0 0 1 0 2.3c-.4.2-.8.4-1.2.4Z" fill="#F0B00B"/><path d="M40.7 48.8c-3.5 0-6.5-1-9-3-4.8-3.9-5.4-10.2-5.4-10.5a1.7 1.7 0 0 1 3.3-.3c0 .1.5 5.4 4.3 8.4 2.2 1.7 5.2 2.4 8.8 2a1.7 1.7 0 0 1 1.9 1.5 1.6 1.6 0 0 1-1.5 1.8l-2.4.1Zm2.9-43.5c-1.4-.9-6.4-3.5-15.6-3.5a28 28 0 0 0-16 3.8 1.6 1.6 0 0 0-.5 1.3 1.6 1.6 0 0 0 1.7 1.6c.3 0 .7-.1 1-.3 0 0 4.2-3.2 13.8-3.2 9.6 0 13.8 3.1 13.9 3.1.3.3.6.4 1 .4a1.6 1.6 0 0 0 1.7-1.7 1.6 1.6 0 0 0-1-1.5Z" fill="#F0B00B"/></svg>