<svg width="56" height="56" viewBox="0 0 56 56" fill="none" xmlns="http://www.w3.org/2000/svg">
<path d="M6.92077 22.1038C6.66515 22.1063 6.41235 22.0502 6.1818 21.9398C5.95124 21.8293 5.74906 21.6676 5.59077 21.4668C5.39136 21.21 5.27364 20.8992 5.25284 20.5747C5.23204 20.2503 5.30912 19.927 5.4741 19.6468C7.58344 16.1258 13.9978 7.91016 27.9978 7.91016C34.0644 7.91016 39.3868 9.50616 43.8061 12.6468C47.4461 15.2252 49.4831 18.1418 50.4561 19.5488C50.5788 19.7261 50.6649 19.9261 50.7093 20.137C50.7537 20.348 50.7555 20.5657 50.7146 20.7774C50.6738 20.9891 50.5911 21.1905 50.4713 21.3698C50.3516 21.549 50.1973 21.7026 50.0174 21.8215C49.6493 22.0649 49.2008 22.1555 48.767 22.0741C48.3333 21.9926 47.9482 21.7456 47.6934 21.3852C45.9364 18.8558 40.5768 11.1652 28.0001 11.1652C15.7221 11.1652 10.1711 18.2422 8.36277 21.2778C8.21775 21.5314 8.00762 21.7417 7.75411 21.8869C7.5006 22.0322 7.21291 22.107 6.92077 22.1038V22.1038Z" fill="#F0B00B"/>
<path d="M35.0513 54.257C34.9114 54.259 34.7719 54.2433 34.6359 54.2103C24.4813 51.6927 20.6896 41.5403 20.5356 41.1203L20.5123 41.027C20.4283 40.733 18.3889 33.7703 21.5179 29.694C22.9529 27.8343 25.1346 26.88 28.0139 26.88C30.6903 26.88 32.6223 27.713 33.9499 29.435C35.0443 30.842 35.4806 32.578 35.9053 34.2487C36.7919 37.7277 37.4359 39.557 41.1319 39.7437C42.7536 39.8253 43.8199 38.878 44.4266 38.0683C46.0599 35.8657 46.3446 32.2723 45.1126 29.099C43.5283 25.0063 37.9073 17.29 27.9999 17.29C23.7696 17.29 19.8823 18.6503 16.7649 21.2053C14.1843 23.3217 12.1403 26.3083 11.1556 29.3813C9.33094 35.098 11.7249 44.086 11.7483 44.1677C11.8044 44.377 11.818 44.5955 11.7882 44.8102C11.7585 45.0249 11.686 45.2314 11.5751 45.4176C11.4641 45.6038 11.317 45.7659 11.1423 45.8943C10.9677 46.0226 10.7691 46.1147 10.5583 46.165C10.133 46.2781 9.68029 46.22 9.29732 46.0032C8.91434 45.7864 8.63156 45.4282 8.50961 45.0053C8.39994 44.5947 5.84261 35.0093 7.94961 28.4013C10.2479 21.238 17.3366 14.021 28.0046 14.021C32.9326 14.021 37.5899 15.6963 41.4773 18.8603C44.4873 21.322 46.9466 24.626 48.2323 27.93C49.8656 32.1487 49.4293 36.8853 47.1169 39.977C45.5769 42.0397 43.3836 43.1177 40.9569 43.001C34.6266 42.6837 33.4903 38.2667 32.6596 35.0443C31.8079 31.7403 31.2596 30.1443 28.0046 30.1443C26.2149 30.1443 24.9573 30.639 24.1756 31.6563C23.1093 33.0517 23.0253 35.231 23.1443 36.813C23.2213 37.9143 23.4079 39.0063 23.7019 40.0703C23.9609 40.7283 27.3513 49.0397 35.4689 51.051C35.6793 51.1002 35.8778 51.1908 36.0528 51.3176C36.2277 51.4445 36.3756 51.605 36.4877 51.7897C36.5998 51.9744 36.674 52.1796 36.7058 52.3933C36.7376 52.6071 36.7264 52.825 36.6729 53.0343C36.5736 53.3872 36.3616 53.698 36.0693 53.9191C35.7769 54.1403 35.4202 54.2598 35.0536 54.2593L35.0513 54.257Z" fill="#F0B00B"/>
<path d="M22.0173 53.4966C21.7893 53.4975 21.5634 53.4522 21.3533 53.3636C21.1432 53.275 20.9532 53.1448 20.7947 52.9809C16.7323 48.7156 14.4317 43.9439 13.566 37.9799V37.9496C13.0807 34.0016 13.7923 28.4109 17.276 24.5679C19.8473 21.7306 23.4617 20.2886 28.0023 20.2886C33.369 20.2886 37.5877 22.7852 40.2197 27.4962C42.1283 30.9192 42.5063 34.3282 42.5157 34.4682C42.5359 34.6842 42.5132 34.902 42.4491 35.1092C42.3849 35.3164 42.2804 35.5089 42.1417 35.6756C42.0029 35.8423 41.8326 35.98 41.6405 36.0807C41.4485 36.1814 41.2384 36.2432 41.0223 36.2626C40.5867 36.31 40.1498 36.1841 39.8062 35.9121C39.4626 35.6401 39.2398 35.2438 39.186 34.8089C38.898 32.7627 38.236 30.7869 37.233 28.9802C35.1937 25.3822 32.0927 23.5552 27.9883 23.5552C24.4463 23.5552 21.672 24.6216 19.7657 26.7262C17.0147 29.7596 16.485 34.4379 16.8607 37.5296C17.619 42.8029 19.6467 47.0006 23.226 50.7502C23.3748 50.9058 23.491 51.0897 23.5675 51.2909C23.644 51.4921 23.6794 51.7067 23.6716 51.9218C23.6638 52.137 23.6129 52.3484 23.5219 52.5435C23.4309 52.7387 23.3018 52.9136 23.142 53.0579C22.834 53.3379 22.4335 53.4941 22.0173 53.4966V53.4966Z" fill="#F0B00B"/>
<path d="M40.74 48.804C37.1863 48.804 34.1646 47.8194 31.745 45.864C26.887 41.9487 26.3433 35.574 26.32 35.3057C26.303 35.0871 26.3292 34.8672 26.3971 34.6587C26.4651 34.4503 26.5734 34.2572 26.716 34.0906C26.8586 33.9239 27.0326 33.787 27.2281 33.6877C27.4235 33.5883 27.6367 33.5284 27.8553 33.5114C28.0739 33.4944 28.2938 33.5206 28.5023 33.5885C28.7108 33.6565 28.9038 33.7649 29.0704 33.9074C29.2371 34.05 29.374 34.224 29.4734 34.4195C29.5727 34.6149 29.6326 34.8281 29.6496 35.0467C29.6613 35.14 30.1466 40.355 33.8916 43.358C36.1083 45.129 39.0716 45.8314 42.7186 45.4207C43.155 45.3679 43.5945 45.4899 43.9412 45.7601C44.2879 46.0303 44.5136 46.4267 44.569 46.8627C44.5925 47.0779 44.573 47.2957 44.5116 47.5033C44.4503 47.711 44.3482 47.9043 44.2114 48.0722C44.0746 48.24 43.9058 48.379 43.7149 48.481C43.5239 48.583 43.3145 48.646 43.099 48.6664C42.3173 48.7597 41.5286 48.8064 40.7423 48.8064L40.74 48.804Z" fill="#F0B00B"/>
<path d="M43.5517 5.33633C42.1657 4.43333 37.247 1.75 28.0024 1.75C18.2957 1.75 13.3654 4.71333 12.2757 5.46933C12.204 5.51312 12.1367 5.56393 12.075 5.621C12.0688 5.62741 12.0606 5.63152 12.0517 5.63267C11.8769 5.78449 11.7365 5.97189 11.6399 6.18235C11.5433 6.3928 11.4928 6.62145 11.4917 6.853C11.4947 7.06974 11.5405 7.28374 11.6264 7.48275C11.7123 7.68176 11.8367 7.86186 11.9923 8.01273C12.1479 8.1636 12.3318 8.28227 12.5334 8.36193C12.735 8.4416 12.9503 8.48071 13.167 8.477C13.515 8.47688 13.8545 8.37021 14.14 8.17133C14.1867 8.13633 18.4287 5.02133 28.0047 5.02133C37.5807 5.02133 41.846 8.12467 41.8927 8.148C42.1836 8.36305 42.5366 8.4777 42.8984 8.47467C43.1151 8.47806 43.3304 8.43865 43.5318 8.3587C43.7333 8.27874 43.917 8.15982 44.0724 8.00873C44.2278 7.85765 44.3519 7.67738 44.4375 7.47826C44.5232 7.27913 44.5686 7.06507 44.5714 6.84833C44.5717 6.52334 44.4747 6.20568 44.293 5.93623C44.1113 5.66678 43.8531 5.45786 43.5517 5.33633V5.33633Z" fill="#F0B00B"/>
</svg>
