<svg width="56" height="56" viewBox="0 0 56 56" fill="none" xmlns="http://www.w3.org/2000/svg">
<path d="M34.3653 52.7543L28.1587 40.2033L23.247 33.9267C22.5215 32.6992 22.1387 31.2995 22.1387 29.8737V15.75H23.8537C24.4315 15.7497 25.0037 15.8632 25.5376 16.0841C26.0715 16.305 26.5566 16.629 26.9653 17.0374C27.3739 17.4459 27.6981 17.9308 27.9193 18.4646C28.1405 18.9984 28.2543 19.5705 28.2543 20.1483V40.2033" fill="#F0B00B"/>
<path d="M34.3653 52.7543L28.1587 40.2033L23.247 33.9267C22.5215 32.6992 22.1387 31.2995 22.1387 29.8737V15.75H23.8537C24.4315 15.7497 25.0037 15.8632 25.5376 16.0841C26.0715 16.305 26.5566 16.629 26.9653 17.0374C27.3739 17.4459 27.6981 17.9308 27.9193 18.4646C28.1405 18.9984 28.2543 19.5705 28.2543 20.1483V40.2033" stroke="#F0B00B" stroke-width="2.875" stroke-linecap="round" stroke-linejoin="round"/>
<path d="M13.9907 32.053V23.9027C13.9907 23.9027 18.0671 15.75 22.1434 15.75" stroke="#F0B00B" stroke-width="2.875" stroke-linecap="round" stroke-linejoin="round"/>
<path d="M40.4787 30.0135L33.25 25.2651" stroke="#F0B00B" stroke-width="2.875" stroke-linecap="round" stroke-linejoin="round"/>
<path d="M18.6526 52.3203L24.5023 43.75" stroke="#F0B00B" stroke-width="2.875" stroke-linecap="round" stroke-linejoin="round"/>
<path d="M28.252 11.6664C28.7986 11.6849 29.3434 11.5933 29.8538 11.3969C30.3642 11.2005 30.8299 10.9033 31.2231 10.5232C31.6164 10.1431 31.9291 9.68769 32.1426 9.18419C32.3562 8.68069 32.4662 8.13937 32.4662 7.59245C32.4662 7.04553 32.3562 6.5042 32.1426 6.0007C31.9291 5.4972 31.6164 5.04183 31.2231 4.66169C30.8299 4.28156 30.3642 3.98444 29.8538 3.78804C29.3434 3.59163 28.7986 3.49994 28.252 3.51845C27.1881 3.54391 26.1763 3.98443 25.4329 4.7459C24.6894 5.50737 24.2732 6.52939 24.2732 7.59361C24.2732 8.65784 24.6894 9.67986 25.4329 10.4413C26.1763 11.2028 27.1881 11.6433 28.252 11.6688V11.6664Z" fill="#F0B00B" stroke="#F0B00B" stroke-width="2.875" stroke-linecap="round" stroke-linejoin="round"/>
</svg>
