<svg width="40" height="54" fill="none" xmlns="http://www.w3.org/2000/svg"><path d="M32.1 8.3h2.6c1 0 1.5.5 1.5 1.7v34.7c0 .7 0 1.2-.2 1.5-.2.4-.6.7-1.3 1A35.6 35.6 0 0 1 23.8 50a46.5 46.5 0 0 1-11.2.2l-5.2-.6v.3a51.6 51.6 0 0 0 19-3.5c1.7-.8 3-1.5 4-2.3.9-.6 1.4-1.2 1.7-1.7a5 5 0 0 0 .5-2.4V3.7c0-1.1-.3-2-.9-2.5-.5-.6-1.3-.9-2.3-.9-.3 0-.7 0-1.1.2l-1.4.3A56.5 56.5 0 0 1 5.7 4.5H3.9a4 4 0 0 0-2.9 1C.3 6.2 0 7 0 8.2v39c0 1 .1 1.7.4 2.3.3.5.8 1 1.7 1.4a47.6 47.6 0 0 0 20.6 2.6 55.7 55.7 0 0 0 9.6-1.6c1.5-.5 3-1 4.2-1.6a6.2 6.2 0 0 0 2.7-2.1c.5-.8.7-1.8.7-3.3V10c0-3.5-1.7-5.3-5.2-5.3h-2.6v3.7ZM3.7 45.6V9.2c0-.7.3-1 .9-1h1.3c4 0 7.8-.4 11.4-1.1 3.7-.7 7.1-1.6 10.3-2.6h1c.2.1.3.3.3.7v34c0 .7 0 1.1-.2 1.5a3 3 0 0 1-1.1 1 32.4 32.4 0 0 1-9.3 3.7 46.8 46.8 0 0 1-13.8 1c-.6 0-.8-.3-.8-.8ZM8.3 14v7.5c0 .4.2.5.6.5a45.9 45.9 0 0 0 14.8-2.6c.3 0 .4-.2.4-.5v-7.8c0-.2-.1-.4-.3-.5h-.5A49 49 0 0 1 9 13.5c-.4 0-.6.3-.6.6Z" fill="#F0B00B"/></svg>