<svg width="56" height="56" fill="none" xmlns="http://www.w3.org/2000/svg"><path d="m34.4 52.8-6.2-12.6-5-6.3a8 8 0 0 1-1-4V15.8h1.7a4.4 4.4 0 0 1 4.4 4.3v20.1" fill="#F0B00B"/><path d="m34.4 52.8-6.2-12.6-5-6.3a8 8 0 0 1-1-4V15.8h1.7a4.4 4.4 0 0 1 4.4 4.3v20.1M14 32v-8s4-8.1 8.1-8.1M40.5 30l-7.3-4.7m-14.5 27 5.8-8.5" stroke="#F0B00B" stroke-width="2.9" stroke-linecap="round" stroke-linejoin="round"/><path d="M28.3 11.7a4 4 0 1 0 0-8.2 4 4 0 0 0 0 8.2v0Z" fill="#F0B00B" stroke="#F0B00B" stroke-width="2.9" stroke-linecap="round" stroke-linejoin="round"/></svg>