<svg width="56" height="56" fill="none" xmlns="http://www.w3.org/2000/svg"><path d="M49 43.8H7a1.7 1.7 0 0 1 0-3.5h42a1.7 1.7 0 0 1 0 3.5ZM45.5 49h-35a1.8 1.8 0 0 1 0-3.5h35a1.7 1.7 0 0 1 0 3.5Zm-42-19.2H1.7V35a3.5 3.5 0 0 0 3.5 3.5h5.3v-1.8a7 7 0 0 0-7-7Z" fill="#F0B00B"/><path d="M52.5 26.3h1.8v-7h-1.8A10.5 10.5 0 0 1 42 8.7V7H14v1.8A10.5 10.5 0 0 1 3.5 19.1H1.7v7h1.8A10.5 10.5 0 0 1 14 36.9v1.7h28v-1.8a10.5 10.5 0 0 1 10.5-10.5Zm-24.5 7a10.5 10.5 0 1 1 0-21 10.5 10.5 0 0 1 0 21Z" fill="#F0B00B"/><path d="M28 29.8a7 7 0 1 0 0-14 7 7 0 0 0 0 14Zm17.5 7v1.7h5.3a3.5 3.5 0 0 0 3.5-3.5v-5.3h-1.8a7 7 0 0 0-7 7Zm7-21h1.8v-5.3A3.5 3.5 0 0 0 50.8 7h-5.3v1.8a7 7 0 0 0 7 7Zm-42-7V7H5.2a3.5 3.5 0 0 0-3.5 3.5v5.3h1.8a7 7 0 0 0 7-7Z" fill="#F0B00B"/></svg>