<svg width="56" height="56" viewBox="0 0 56 56" fill="none" xmlns="http://www.w3.org/2000/svg">
<path d="M52.1267 24.8315L52.1103 24.8245L5.397 5.45088C5.0047 5.28638 4.57776 5.2216 4.15432 5.26232C3.73088 5.30303 3.32411 5.44798 2.97034 5.68422C2.59594 5.92923 2.28837 6.26353 2.07534 6.657C1.8623 7.05048 1.7505 7.49077 1.75 7.93822V20.3282C1.75013 20.9393 1.96344 21.5312 2.35318 22.0019C2.74292 22.4725 3.28466 22.7925 3.885 22.9065L29.3627 27.6199C29.4633 27.6381 29.5542 27.6911 29.6198 27.7696C29.6853 27.848 29.7212 27.947 29.7212 28.0492C29.7212 28.1514 29.6853 28.2504 29.6198 28.3289C29.5542 28.4073 29.4633 28.4603 29.3627 28.4785L3.885 33.1895C3.28505 33.3035 2.74362 33.6231 2.35393 34.0933C1.96423 34.5635 1.75067 35.1549 1.75 35.7655V48.1555C1.74924 48.5827 1.8546 49.0033 2.05661 49.3796C2.25862 49.7559 2.55095 50.0762 2.90734 50.3115C3.27035 50.5533 3.68796 50.7006 4.1223 50.7401C4.55665 50.7797 4.99399 50.7101 5.39467 50.5379L52.108 31.2739L52.1267 31.2645C52.756 30.9946 53.2922 30.546 53.6691 29.9742C54.0459 29.4025 54.2468 28.7328 54.2468 28.048C54.2468 27.3633 54.0459 26.6936 53.6691 26.1219C53.2922 25.5501 52.756 25.1015 52.1267 24.8315Z" fill="#F0B00B"/>
</svg>
