<svg width="56" height="56" fill="none" xmlns="http://www.w3.org/2000/svg"><path d="M12.2 14.5c-3.2 0-5.7.8-7.3 2.4-1.7 1.6-2.6 4-2.6 7v3.5c0 3.1.9 5.5 2.6 7.1 1.6 1.7 4 2.5 7.3 2.5h5.3V14.5h-5.3ZM20.6 37a59.3 59.3 0 0 1 20.2 6V8.4a53.5 53.5 0 0 1-13.6 5c-2.3.4-4.5.8-6.6 1V37ZM44 44a4.75 4.75 0 0 0 2.2 4.1 5 5 0 0 0 2.5.6c1 0 1.8-.2 2.5-.6.7-.4 1.3-1 1.7-1.7a5 5 0 0 0 .6-2.5V7.3c0-1-.2-1.7-.6-2.5a4.87 4.87 0 0 0-4.2-2.2 5 5 0 0 0-2.5.6c-.7.4-1.2 1-1.6 1.6-.4.8-.6 1.6-.6 2.5V44Zm-22.3 9a5 5 0 0 0 2.6-.6c.7-.4 1.2-1 1.6-2 .3-.7.4-1.7 0-3l-1.4-7a36.7 36.7 0 0 0-6.5-.7h-6l4.3 9.3a9.4 9.4 0 0 0 2.1 3c.8.7 1.9 1 3.2 1Z" fill="#F0B00B"/></svg>