<svg width="53" height="49" viewBox="0 0 53 49" fill="none" xmlns="http://www.w3.org/2000/svg">
<path d="M18.8586 37.6034H45.4504C45.8909 37.6034 46.2783 37.4401 46.6126 37.1134C46.9467 36.7869 47.1138 36.3806 47.1138 35.8945C47.1138 35.4084 46.9467 35.002 46.6126 34.6753C46.2783 34.3486 45.8909 34.1853 45.4504 34.1853H19.246C18.608 34.1853 18.0877 33.9765 17.6851 33.5588C17.2826 33.141 17.0357 32.5827 16.9446 31.8839L13.2076 6.52264C13.0861 5.64156 12.8164 4.98075 12.3987 4.54022C11.9809 4.09967 11.1872 3.87939 10.0175 3.87939H2.01945C1.56372 3.87939 1.16876 4.0503 0.834555 4.3921C0.500353 4.7339 0.333252 5.13267 0.333252 5.5884C0.333252 6.05931 0.500353 6.46567 0.834555 6.80747C1.16876 7.14926 1.56372 7.32015 2.01945 7.32015H9.72128L13.3671 32.3396C13.6102 33.965 14.1722 35.2487 15.0533 36.1906C15.9344 37.1325 17.2028 37.6034 18.8586 37.6034ZM14.6659 29.4913H45.4961C47.1671 29.4913 48.4431 29.0167 49.3242 28.0673C50.2052 27.1178 50.7673 25.8227 51.0105 24.1821L52.8333 12.1281C52.8636 11.9762 52.8864 11.8205 52.9016 11.661C52.9169 11.5015 52.9245 11.3686 52.9245 11.2622C52.9245 10.7153 52.7346 10.271 52.3547 9.92921C51.975 9.58741 51.4737 9.41651 50.8509 9.41651H12.6835L12.7063 12.8573H49.0507L47.4328 23.772C47.3418 24.4708 47.1063 25.0253 46.7265 25.4353C46.3467 25.8455 45.8227 26.0506 45.1543 26.0506L14.6204 26.0735L14.6659 29.4913ZM20.6588 48.6776C21.6766 48.6776 22.5462 48.3206 23.2678 47.6066C23.9894 46.8926 24.3503 46.0191 24.3503 44.9861C24.3503 43.9532 23.9894 43.0797 23.2678 42.3657C22.5462 41.6517 21.6766 41.2947 20.6588 41.2947C19.96 41.2947 19.3334 41.4581 18.7789 41.7847C18.2244 42.1113 17.7801 42.5556 17.4459 43.1178C17.1117 43.6798 16.9446 44.3026 16.9446 44.9861C16.9446 45.6697 17.1117 46.2926 17.4459 46.8546C17.7801 47.4166 18.2244 47.861 18.7789 48.1876C19.3334 48.5143 19.96 48.6776 20.6588 48.6776ZM41.9641 48.6776C42.9972 48.6776 43.8744 48.3206 44.5959 47.6066C45.3175 46.8926 45.6783 46.0191 45.6783 44.9861C45.6783 43.9532 45.3175 43.0797 44.5959 42.3657C43.8744 41.6517 42.9972 41.2947 41.9641 41.2947C41.2805 41.2947 40.6576 41.4581 40.0956 41.7847C39.5336 42.1113 39.0854 42.5556 38.7511 43.1178C38.417 43.6798 38.2499 44.3026 38.2499 44.9861C38.2499 46.0191 38.6145 46.8926 39.3438 47.6066C40.0729 48.3206 40.9463 48.6776 41.9641 48.6776Z" fill="#F0B00B"/>
</svg>
