<svg width="99" height="106" viewBox="0 0 99 106" fill="none" xmlns="http://www.w3.org/2000/svg">
<path d="M96.1042 32.4683C95.4031 31.7624 94.5688 31.2028 93.6497 30.822C92.7305 30.4412 91.7449 30.2468 90.75 30.25H75.625V26.4688C75.625 19.4488 72.8363 12.7164 67.8725 7.75252C62.9086 2.78866 56.1762 0 49.1562 0C42.1363 0 35.4039 2.78866 30.44 7.75252C25.4762 12.7164 22.6875 19.4488 22.6875 26.4688V30.25H7.5625C5.5568 30.25 3.63325 31.0468 2.21501 32.465C0.796761 33.8832 0 35.8068 0 37.8125V88.8594C0 98.0755 7.79946 105.875 17.0156 105.875H81.2969C85.7537 105.875 90.0391 104.131 93.2254 101.02C94.831 99.4889 96.1096 97.6483 96.9839 95.6093C97.8582 93.5704 98.3102 91.3753 98.3125 89.1568V37.8125C98.316 36.82 98.1226 35.8366 97.7436 34.9193C97.3645 34.002 96.8073 33.1689 96.1042 32.4683ZM67.2306 57.1927L46.0556 83.6614C45.7079 84.0955 45.2687 84.4475 44.7694 84.6924C44.27 84.9372 43.7228 85.069 43.1668 85.0781H43.1063C42.5603 85.0785 42.0207 84.9606 41.5246 84.7326C41.0286 84.5045 40.5877 84.1718 40.2325 83.7572L31.1575 73.1495C30.8347 72.7722 30.5895 72.3349 30.4357 71.8627C30.2819 71.3905 30.2226 70.8927 30.2613 70.3976C30.2999 69.9025 30.4356 69.4199 30.6608 68.9773C30.8859 68.5347 31.196 68.1407 31.5734 67.818C31.9508 67.4952 32.3881 67.2499 32.8603 67.0962C33.3324 66.9424 33.8303 66.8831 34.3254 66.9217C34.8204 66.9604 35.3031 67.0961 35.7457 67.3213C36.1883 67.5464 36.5822 67.8565 36.905 68.2339L43.0105 75.3679L61.3268 52.4636C61.6373 52.0756 62.0212 51.7526 62.4566 51.513C62.8919 51.2733 63.3702 51.1218 63.8641 51.0671C64.3581 51.0123 64.8579 51.0553 65.3352 51.1937C65.8125 51.3321 66.2578 51.5632 66.6458 51.8737C67.0338 52.1842 67.3568 52.5681 67.5964 53.0035C67.836 53.4388 67.9875 53.9171 68.0423 54.411C68.0971 54.9049 68.054 55.4048 67.9156 55.8821C67.7772 56.3593 67.5462 56.8047 67.2357 57.1927H67.2306ZM68.0625 30.25H30.25V26.4688C30.25 21.4545 32.2419 16.6456 35.7875 13.1C39.3331 9.5544 44.142 7.5625 49.1562 7.5625C54.1705 7.5625 58.9794 9.5544 62.525 13.1C66.0706 16.6456 68.0625 21.4545 68.0625 26.4688V30.25Z" fill="#F0B00B"/>
</svg>
