<svg width="108" height="118" viewBox="0 0 108 118" fill="none" xmlns="http://www.w3.org/2000/svg">
<path fill-rule="evenodd" clip-rule="evenodd" d="M57.8786 35.5598C70.351 37.5944 78.8153 49.3712 76.784 61.864C74.7527 74.3568 62.9952 82.8348 50.5228 80.8003C38.0504 78.7657 29.5861 66.9889 31.6174 54.4961C33.6487 42.0033 45.4062 33.5252 57.8786 35.5598ZM63.932 51.7829C64.0762 55.8033 59.3894 57.2236 59.3894 57.2236C59.3894 57.2236 66.0951 57.2477 65.374 63.8198C64.7732 69.5013 58.1156 69.5013 56.6014 69.5013V74.316H54.198V69.5013H51.4581V74.316H49.0546V69.5013H42.9258V66.6605H46.5791V49.5682H42.9979V46.9682H49.0786V42.1534H51.4821V46.9682H54.2461V42.1534H56.6495V46.9682H56.9379C56.9379 46.9682 63.7637 46.583 63.932 51.7829ZM55.7362 50.5552H51.3379V56.0921H55.7362C56.1083 56.0989 56.4778 56.0297 56.8223 55.8887C57.1668 55.7477 57.479 55.5379 57.7399 55.2721C58.0008 55.0063 58.2048 54.6901 58.3397 54.3426C58.4745 53.9952 58.5373 53.624 58.5242 53.2514C58.5314 52.8872 58.4634 52.5253 58.3245 52.1886C58.1857 51.8518 57.979 51.5473 57.7173 51.2943C57.4556 51.0412 57.1446 50.8449 56.8037 50.7178C56.4628 50.5906 56.0994 50.5352 55.7362 50.5552ZM51.3379 66.0587H56.4092V66.0106C57.2615 65.9856 58.071 65.6305 58.6672 65.0198C59.2634 64.4091 59.5999 63.5906 59.6057 62.7365C59.6095 62.3205 59.5284 61.9082 59.3675 61.5247C59.2067 61.1412 58.9693 60.7946 58.6701 60.5061C58.3709 60.2177 58.016 59.9934 57.6273 59.8471C57.2385 59.7007 56.824 59.6354 56.4092 59.6551H51.3379V66.0587Z" fill="#F0B00B"/>
<path d="M54.1996 86.136C48.6759 86.136 43.2763 84.4953 38.6836 81.4216C34.0908 78.3478 30.5112 73.9789 28.3974 68.8673C26.2836 63.7558 25.7305 58.1312 26.8081 52.7048C27.8857 47.2785 30.5456 42.294 34.4514 38.3818C38.3572 34.4696 43.3336 31.8054 48.7511 30.726C54.1686 29.6466 59.784 30.2006 64.8872 32.3179C69.9904 34.4351 74.3521 38.0206 77.4209 42.6209C80.4897 47.2211 82.1276 52.6295 82.1276 58.1622C82.1213 65.5794 79.1768 72.6909 73.9407 77.9356C68.7045 83.1803 61.6046 86.1296 54.1996 86.136ZM54.1996 31.1514C48.8661 31.1514 43.6523 32.7356 39.2177 35.7036C34.783 38.6716 31.3266 42.8901 29.2856 47.8256C27.2445 52.7612 26.7105 58.1922 27.751 63.4318C28.7915 68.6714 31.3599 73.4842 35.1312 77.2617C38.9026 81.0393 43.7076 83.6118 48.9386 84.654C54.1697 85.6962 59.5918 85.1613 64.5193 83.117C69.4468 81.0726 73.6584 77.6105 76.6216 73.1686C79.5847 68.7267 81.1663 63.5045 81.1663 58.1622C81.1599 51.0005 78.3167 44.1339 73.2609 39.0698C68.205 34.0056 61.3496 31.1578 54.1996 31.1514Z" fill="#F0B00B"/>
<path d="M103.542 81.8513L102.412 81.3698C102.869 80.2625 103.301 79.131 103.662 77.9995L104.816 78.3606C104.431 79.4439 103.998 80.6476 103.542 81.8513ZM105.945 74.8218L104.768 74.5088C105.056 73.3533 105.296 72.1014 105.513 70.994L106.69 71.1866C106.402 72.3662 106.137 73.5699 105.753 74.7736L105.945 74.8218ZM107.195 67.5996L105.993 67.4793C105.993 66.2997 106.186 65.0719 106.21 63.8682H107.435C107.291 64.9997 107.219 66.2756 107.099 67.407L107.195 67.5996ZM106.089 60.1849C106.089 59.0053 105.945 57.7775 105.825 56.5738L107.027 56.4535C107.171 57.6893 107.267 58.917 107.315 60.1368L106.089 60.1849ZM105.296 52.9628C105.104 51.7831 104.84 50.5554 104.551 49.4239L105.729 49.135C106.041 50.3387 106.282 51.5424 106.498 52.7461L105.296 52.9628ZM103.566 45.9332C103.205 44.7777 102.797 43.6462 102.364 42.5388L103.494 42.0814C103.926 43.2129 104.359 44.4888 104.719 45.5721L103.566 45.9332ZM100.946 39.2166C100.441 38.1333 99.8885 37.05 99.3117 35.9907L100.393 35.3889C100.97 36.4722 101.547 37.5796 102.052 38.687L100.946 39.2166ZM97.4851 32.8852C96.8362 31.8741 96.1632 30.863 95.4421 29.876L96.4276 29.1538C97.1486 30.1649 97.8456 31.2001 98.5186 32.2112L97.4851 32.8852ZM93.231 27.0112C92.4859 26.0964 91.6687 25.1816 90.8275 24.2909L91.7168 23.4724C92.558 24.3631 93.3752 25.302 94.1203 26.2409L93.231 27.0112ZM88.2799 21.6668C87.4146 20.8483 86.5013 20.0298 85.588 19.2595L86.3571 18.3206C87.3185 19.115 88.2318 19.9335 89.1211 20.728L88.2799 21.6668ZM82.7279 17.0928C81.7665 16.3706 80.7811 15.6965 79.7476 15.0225L80.4206 14.0114C81.4621 14.6854 82.4715 15.3836 83.4489 16.1058L82.7279 17.0928ZM76.6472 13.1688C75.6137 12.591 74.5321 12.0132 73.4506 11.5077L73.9553 10.4003C75.0609 10.9299 76.1665 11.5077 77.248 12.1095L76.6472 13.1688ZM70.1338 10.0633C69.0282 9.60586 67.8746 9.19661 66.745 8.8355L67.1055 7.65589C68.2832 8.04107 69.5089 8.47439 70.5905 8.9318L70.1338 10.0633ZM63.26 7.8244C62.1063 7.51144 60.8565 7.24663 59.7509 7.02997L59.9672 5.82628C61.169 6.06702 62.3707 6.33183 63.5724 6.62071L63.26 7.8244ZM38.4564 7.4633L38.168 6.28368C39.2736 6.01887 40.4032 5.8022 41.5088 5.60961L41.701 6.8133C40.6916 7.00589 39.586 7.22256 38.4564 7.4633ZM56.0977 6.50034C54.896 6.3559 53.6942 6.25961 52.4925 6.18738V4.98369C53.7183 4.98369 54.896 5.15221 56.1938 5.27258L56.0977 6.50034ZM45.2822 6.3559L45.162 5.15221C46.3878 5.03184 47.5655 4.95962 48.8633 4.93555V6.13924C47.7577 6.18738 46.556 6.23553 45.3543 6.3559H45.2822Z" fill="#EA3943"/>
<path d="M59.4622 111.39V110.186C60.664 110.186 61.8657 110.186 63.0674 109.97L63.1876 111.173C61.9378 111.294 60.688 111.366 59.4622 111.39ZM55.785 111.39C54.5592 111.39 53.3815 111.222 52.0837 111.101L52.2279 109.873C53.4296 110.018 54.6313 110.114 55.833 110.186L55.785 111.39ZM66.8168 110.74L66.6245 109.536C67.7061 109.344 68.8117 109.127 69.8692 108.886L70.1576 110.066C69.076 110.307 67.9464 110.523 66.8168 110.74ZM48.4304 110.523C47.2287 110.283 46.027 110.018 44.8252 109.705L45.1377 108.525C46.2913 108.846 47.469 109.111 48.6708 109.32L48.4304 110.523ZM41.2201 108.694C40.0424 108.309 38.8166 107.875 37.7351 107.418L38.1917 106.286C39.2973 106.744 40.451 107.153 41.5806 107.514L41.2201 108.694ZM34.4423 105.925C33.3368 105.396 32.2312 104.818 31.1496 104.216L31.7505 103.157C32.784 103.735 33.8655 104.288 34.9471 104.818L34.4423 105.925ZM27.9771 102.314C26.9516 101.64 25.9421 100.942 24.9487 100.22L25.6697 99.2328C26.6311 99.955 27.6406 100.629 28.65 101.279L27.9771 102.314ZM22.0405 97.9328C21.1032 97.1384 20.1659 96.3199 19.2766 95.5255L20.1178 94.6347C20.983 95.4532 21.8963 96.2717 22.8096 97.0421L22.0405 97.9328ZM16.6808 92.8533C15.8637 91.9625 15.0225 91.0237 14.2774 90.0848L15.2147 89.3144C15.9838 90.2292 16.777 91.144 17.6182 92.0107L16.6808 92.8533ZM12.0182 87.1478C11.2971 86.1608 10.6001 85.1256 9.95119 84.1145L10.9606 83.4404C11.6096 84.4515 12.2825 85.4626 13.0036 86.4496L12.0182 87.1478ZM8.02843 80.9127C7.4516 79.8293 6.87478 78.7219 6.37005 77.6386L7.47564 77.0368C7.98036 78.1201 8.53316 79.2034 9.10998 80.2627L8.02843 80.9127ZM4.80781 74.2442C4.37519 73.1128 3.94257 71.8368 3.58205 70.7535L4.80781 70.3924C5.16833 71.548 5.57692 72.7998 6.00954 73.7868L4.80781 74.2442ZM2.5726 67.1906C2.28419 65.9869 2.01981 64.7832 1.8035 63.5795L3.00523 63.3629C3.1975 64.5425 3.46188 65.7702 3.75029 66.9017L2.5726 67.1906ZM1.27474 59.9685C1.13053 58.7407 1.0344 57.5611 0.986328 56.2852H2.21209C2.21209 57.4648 2.35629 58.6925 2.47647 59.8962L1.27474 59.9685ZM2.40436 52.5778H1.1786C1.1786 51.35 1.1786 50.1704 1.41895 48.8945L2.62067 49.0149C2.40436 50.1464 2.40436 51.35 2.40436 52.5778ZM3.1254 45.3557L1.92367 45.1631C2.11595 43.9353 2.38033 42.7557 2.66874 41.5279L3.84643 41.8168C3.4779 43.0205 3.1975 44.2082 3.00523 45.3797L3.1254 45.3557ZM4.80781 38.3743L3.65416 37.9891C4.03871 36.8335 4.47133 35.5817 4.92798 34.5225L6.0576 35.0039C5.52885 36.1113 5.09623 37.2428 4.80781 38.3743Z" fill="#EA3943"/>
<path d="M93.919 18.9515L91.0807 31.5746M98.8064 26.6833L86.1934 23.8428" stroke="#EA3943" stroke-width="2" stroke-linecap="round" stroke-linejoin="round"/>
<path d="M21.0813 89.5302L20.5674 102.459M27.2835 96.2516L14.3652 95.7373" stroke="#EA3943" stroke-width="2" stroke-linecap="round" stroke-linejoin="round"/>
<g filter="url(#filter0_b_140_9528)">
<ellipse cx="88.8057" cy="97.3727" rx="18.9366" ry="18.9518" fill="white" fill-opacity="0.1"/>
<path d="M107.492 97.3727C107.492 107.702 99.1258 116.074 88.8057 116.074C78.4856 116.074 70.1191 107.702 70.1191 97.3727C70.1191 87.0438 78.4856 78.6709 88.8057 78.6709C99.1258 78.6709 107.492 87.0438 107.492 97.3727Z" stroke="#9E9E9E" stroke-width="0.5"/>
</g>
<g filter="url(#filter1_b_140_9528)">
<ellipse cx="20.2432" cy="18.9518" rx="18.9366" ry="18.9518" fill="white" fill-opacity="0.1"/>
<path d="M38.9298 18.9518C38.9298 29.2806 30.5633 37.6535 20.2432 37.6535C9.92309 37.6535 1.55664 29.2806 1.55664 18.9518C1.55664 8.62287 9.92309 0.25 20.2432 0.25C30.5633 0.25 38.9298 8.62287 38.9298 18.9518Z" stroke="#9E9E9E" stroke-width="0.5"/>
</g>
<path d="M88.8053 92.609L94.6136 96.3993L88.8053 88.0605L83.1309 96.4042L88.8053 92.609Z" fill="#F0B00B"/>
<path d="M94.6672 97.3697L88.805 93.6855L82.9429 97.373L88.805 101.06L94.6672 97.3697Z" fill="#F0B00B"/>
<path d="M82.9971 98.342L88.8054 106.686L94.4798 98.3403L88.8054 102.137L82.9971 98.342Z" fill="#F0B00B"/>
<path d="M19.012 23.4273L20.1727 19.4589L21.9358 18.8887L22.3602 17.3905L20.6118 17.9558L22.623 11.0728H19.4495L17.0498 19.1076L15.1251 19.7285L14.7007 21.2266L16.6009 20.6123L14.9374 26.1786H24.9346L25.7851 23.4273H19.012Z" fill="#F0B00B"/>
<defs>
<filter id="filter0_b_140_9528" x="59.8691" y="68.4209" width="57.873" height="57.9033" filterUnits="userSpaceOnUse" color-interpolation-filters="sRGB">
<feFlood flood-opacity="0" result="BackgroundImageFix"/>
<feGaussianBlur in="BackgroundImage" stdDeviation="5"/>
<feComposite in2="SourceAlpha" operator="in" result="effect1_backgroundBlur_140_9528"/>
<feBlend mode="normal" in="SourceGraphic" in2="effect1_backgroundBlur_140_9528" result="shape"/>
</filter>
<filter id="filter1_b_140_9528" x="-8.69336" y="-10" width="57.873" height="57.9033" filterUnits="userSpaceOnUse" color-interpolation-filters="sRGB">
<feFlood flood-opacity="0" result="BackgroundImageFix"/>
<feGaussianBlur in="BackgroundImage" stdDeviation="5"/>
<feComposite in2="SourceAlpha" operator="in" result="effect1_backgroundBlur_140_9528"/>
<feBlend mode="normal" in="SourceGraphic" in2="effect1_backgroundBlur_140_9528" result="shape"/>
</filter>
</defs>
</svg>
