<svg width="66" height="65" viewBox="0 0 66 65" fill="none" xmlns="http://www.w3.org/2000/svg">
<path d="M33.0194 7.07324C18.843 7.07324 7.34912 18.5671 7.34912 32.7435C7.34912 46.9199 18.843 58.4137 33.0194 58.4137C47.1957 58.4137 58.6896 46.9199 58.6896 32.7435C58.6896 18.5671 47.1957 7.07324 33.0194 7.07324ZM33.0194 48.7874C31.2481 48.7874 29.8106 47.3498 29.8106 45.5786C29.8106 43.8073 31.2481 42.3698 33.0194 42.3698C34.7906 42.3698 36.2281 43.8073 36.2281 45.5786C36.2281 47.3498 34.7906 48.7874 33.0194 48.7874ZM37.4432 33.8131C36.027 35.1201 35.1585 35.9779 35.1585 37.0218H30.8802C30.8802 34.0505 32.9103 32.1766 34.5403 30.6685C36.2495 29.0897 37.2977 28.0351 37.2977 26.3259C37.2977 23.9664 35.3789 22.0475 33.0194 22.0475C30.6598 22.0475 28.741 23.9664 28.741 26.3259H24.4626C24.4626 21.6069 28.3003 17.7692 33.0194 17.7692C37.7384 17.7692 41.5761 21.6069 41.5761 26.3259C41.5761 29.9946 39.285 32.1103 37.4432 33.8131Z" fill="#F0B00B"/>
</svg>
