<svg width="483" height="467" fill="none" xmlns="http://www.w3.org/2000/svg"><g opacity=".3"><path opacity=".1" d="m489.92 344.76-52.4-161.69 46.76-82.25 5.64 243.94Z" fill="#fff" fill-opacity=".3"/><path opacity=".2" d="m376.12 441.65 34.92-10.7-70.42-215.77 35.5 226.47Z" fill="#fff" fill-opacity=".3"/><path opacity=".1" d="M260.63 207.85 135 349.25l122.81-60.27 2.82-81.13Z" fill="#fff" fill-opacity=".3"/><path opacity=".2" d="m466.25 394.89-332.38-45.63 327.88-57.46 4.5 103.09Z" fill="#fff" fill-opacity=".3"/><path opacity=".3" d="m339.5 218-9.02 146.48 245.63-54.09L339.5 218ZM164.3 80.54l97.45 20.28-191.54 16.9 94.08-37.18Z" fill="#fff" fill-opacity=".3"/><path opacity=".4" d="m321.47 151.52 71.55-49.58L339.5 211.8l-18.03-60.28Z" fill="#fff" fill-opacity=".3"/><path opacity=".3" d="m219.5 145.9 264.78-45.08-46.76 82.25L219.5 145.9ZM461.75 291.8l-67.6-25.9 185.34-1.13-117.75 27.04Z" fill="#fff" fill-opacity=".3"/><path d="M140.07 411.8 259.5 285.04l-20.84 83.38-98.6 43.38Zm115.49-118.87-105.92 112.1 87.33-38.3 18.59-73.8Z" fill="#fff" fill-opacity=".4"/><path d="m184.57 461.9-42.81-54.65 197.74-47.32-154.93 101.96Zm-36.62-52.4 37.75 48.45 136.33-89.57-174.08 41.12Z" fill="#fff" fill-opacity=".4"/><path d="m144.57 413.48-12.95-65.36v-.56l51.26-97.46-38.3 163.38Zm-10.14-64.8 10.7 54.65 32.12-135.77-42.82 81.13ZM297.8 458.57l-42.25-172.95 78.88 78.3-36.62 94.65Zm-38.3-165.63 38.3 158.3 33.8-86.75-72.1-71.55Z" fill="#fff" fill-opacity=".4"/><path d="m130.49 352.64 131.26-148.17-2.81 85.07-128.45 63.1Zm129-141.97L139.5 345.31l117.18-57.46 2.82-77.18Z" fill="#fff" fill-opacity=".4"/><path d="m240.34 375.71-61.4-116.61 41.69-123.38 19.72 240Zm-58.02-117.18 52.95 100.85-16.9-207.32-36.05 106.47ZM253.87 291.23l86.75-77.19 55.21 49.02-141.96 28.17Zm86.75-74.37-78.87 70.42 129.58-25.35-50.7-45.07Z" fill="#fff" fill-opacity=".4"/><path d="m466.82 396-223.1-112.1 247.32 59.15L466.82 396ZM271.33 294.04l193.8 97.46 20.84-45.64-214.64-51.82Z" fill="#fff" fill-opacity=".4"/><path d="m411.6 432.62-84.5-69.29 136.34-73.8-51.83 143.1Zm-80.55-69.29 79.43 65.35 49.01-134.64-128.44 69.29ZM390.76 264.77l47.33-86.2 49.57 40-96.9 46.2Zm47.89-82.81-42.82 77.74L483.16 218l-44.51-36.05ZM182.88 460.8l54.65-95.77 61.97 90.14-116.62 5.63Zm55.21-91.26-50.7 89 108.73-5.06-58.03-83.94ZM261.75 211.26l-43.38-67.6 45.07-46.2-1.69 113.8Zm-41.12-67.04 38.87 59.71 1.13-100.28-40 40.57Z" fill="#fff" fill-opacity=".4"/><path d="m257.8 292.38-91.26-112.67 160-25.92-68.73 138.6Zm-84.5-110.42 83.94 104.22L320.9 158.3l-147.6 23.66Z" fill="#fff" fill-opacity=".4"/><path d="m263.44 209.51-158.87-43.38 60.28-87.88 98.6 131.26Zm-155.49-44.5 149.86 40.56-93.52-122.81L107.95 165Z" fill="#fff" fill-opacity=".4"/><path d="m340.62 212.93-82.25-3.95 68.17-118.3 14.08 122.25Zm-78.3-6.2 75.49 3.94-12.96-113.23-62.54 109.29ZM440.9 194.35l-49.57-92.4 21.4-54.64 28.17 147.04Zm-45.63-92.4 38.3 71.55-21.96-113.8-16.34 42.25Z" fill="#fff" fill-opacity=".4"/><path d="M488.79 100.84 348.5 74.38l64.22-21.97.57.56 75.49 47.88ZM357.52 73.8l120 22.54-65.35-41.7-54.65 19.16ZM338.93 215.18l-19.15-64.23 76.05-52.39-56.9 116.62Zm-16.33-63.66 16.9 56.9 50.7-103.66-67.6 46.76Z" fill="#fff" fill-opacity=".4"/><path d="M395.27 271.53 325.97 89l71.55 16.34v1.13l-2.25 165.06ZM329.92 92.38l63.1 167.32 2.25-152.67-65.35-14.65ZM62.32 119.43l101.97-40h.56L270.2 101.4 62.32 119.43ZM164.3 81.68l-86.76 33.8 176.34-15.2-89.58-18.6ZM21.76 201.11l9.58-55.77 78.3 20.28-87.88 35.5Zm11.27-52.96-8.45 49.58 77.74-31.55-69.3-18.03Z" fill="#fff" fill-opacity=".4"/><path d="m28.52 148.15 41.13-31.55h.56l149.29 26.48v2.25l-190.98 2.82Zm41.69-29.3L35.28 145.9l172.39-2.26L70.2 118.86ZM322.6 153.8l-63.1-53.52 69.86-10.7-6.76 64.22Zm-58.03-52.4 55.77 47.33 6.2-56.9-61.97 9.57ZM482.6 219.69l72.1-68.73 20.85 67.03-92.96 1.7Zm70.98-64.8-65.36 62.54 84.5-1.69-19.14-60.84ZM396.96 107.6l-.56-2.25L590.2 15.2l-46.77 51.83h-.56l-145.9 40.56Zm184.22-85.63-171.82 80L542.3 65.35l38.87-43.38Z" fill="#fff" fill-opacity=".4"/><path d="m483.15 99.67-.56-.56-73.24-46.2L590.2 16.3 483.15 99.67Zm-67.6-45.63 67.6 42.81 98.03-76.61-165.63 33.8Z" fill="#fff" fill-opacity=".4"/><path d="m432.45 188.13 47.89-87.32 68.17-38.87-116.06 126.2Zm49.58-85.63-38.87 70.42 93.51-101.97-54.64 31.55ZM491.04 342.5l-31.55-52.38 121.69 19.15-90.14 33.24ZM464 292.94l28.17 46.76 80.56-29.3L464 292.94Z" fill="#fff" fill-opacity=".4"/><path d="m577.8 312.62-96.9-94.08 99.72 45.64-2.82 48.44Zm-85.63-86.75 83.94 81.68 2.25-41.69-86.2-40Z" fill="#fff" fill-opacity=".4"/><path d="m321.47 368.96 167.32-150.42-26.48 74.37h-.56l-140.28 76.05Zm162.25-143.1L336.68 357.7l123.94-67.04 23.1-64.78Z" fill="#fff" fill-opacity=".4"/><path d="m461.75 292.91-73.24-28.17 201.12-1.12-127.88 29.3ZM400.34 267l61.4 23.66 107.6-24.23-169 .57Z" fill="#fff" fill-opacity=".4"/><path d="M492.73 348.7 390.2 260.25l95.77-43.94 6.76 132.39Zm-98.59-87.32 95.77 82.25-6.2-123.38-89.57 41.13Z" fill="#fff" fill-opacity=".4"/><path d="m409.92 433.76-18.6-176.9 77.19 137.47-58.6 39.43Zm-14.09-161.12 16.34 154.93 51.27-34.37-67.6-120.56Z" fill="#fff" fill-opacity=".4"/><path d="m374.99 443.34-35.5-227.6 2.26-.56 70.98 216.33L375 443.34ZM344 228.7l33.24 211.26 32.68-10.14L344 228.7Z" fill="#fff" fill-opacity=".4"/><path d="m296.12 456.3 33.8-91.27 47.88 77.74-81.68 13.53Zm34.36-86.76-30.42 83.38 74.37-12.4-43.95-70.98ZM180.06 263.06l-14.08-81.12 54.08-38.3-40 119.43Zm-11.26-80 11.83 71 35.49-104.8-47.32 33.8ZM29.65 198.28a7.46 7.46 0 0 1-7.33 7.32 7.46 7.46 0 0 1-7.32-7.32 7.46 7.46 0 0 1 7.32-7.32c3.95 0 7.33 2.81 7.33 7.32ZM39.79 148.7a7.46 7.46 0 0 1-7.32 7.33 7.46 7.46 0 0 1-7.33-7.32 7.46 7.46 0 0 1 7.33-7.33 7.46 7.46 0 0 1 7.32 7.33ZM113.03 168.43a7.46 7.46 0 0 1-7.33 7.32 7.46 7.46 0 0 1-7.32-7.32 7.46 7.46 0 0 1 7.32-7.33c3.95 0 7.33 2.82 7.33 7.33Z" fill="#fff" fill-opacity=".4"/><path d="M168.23 188.7a7.32 7.32 0 1 0 0-14.64 7.32 7.32 0 0 0 0 14.65Z" fill="#fff" fill-opacity=".4"/><path d="M187.95 258a7.46 7.46 0 0 1-7.32 7.32 7.46 7.46 0 0 1-7.32-7.32 7.46 7.46 0 0 1 7.32-7.32c3.94-.57 7.32 2.81 7.32 7.32Z" fill="#fff"/><path d="M269.08 208.43a7.46 7.46 0 0 1-7.33 7.32 7.46 7.46 0 0 1-7.32-7.32 7.46 7.46 0 0 1 7.32-7.33 7.46 7.46 0 0 1 7.33 7.33ZM445.4 183.07a7.46 7.46 0 0 1-7.31 7.33 7.46 7.46 0 0 1-7.33-7.33 7.46 7.46 0 0 1 7.32-7.32 7.46 7.46 0 0 1 7.33 7.32ZM486.53 226.44a7.32 7.32 0 1 0 0-14.65 7.32 7.32 0 0 0 0 14.65ZM331.05 153.77a7.46 7.46 0 0 1-7.33 7.32 7.46 7.46 0 0 1-7.32-7.32 7.46 7.46 0 0 1 7.32-7.33c3.95-.56 7.33 2.82 7.33 7.33ZM399.78 263.63a7.46 7.46 0 0 1-7.33 7.33 7.46 7.46 0 0 1-7.32-7.33 7.46 7.46 0 0 1 7.32-7.32c3.95-.56 7.33 2.82 7.33 7.32ZM266.26 289.55a7.46 7.46 0 0 1-7.32 7.32 7.46 7.46 0 0 1-7.33-7.32 7.46 7.46 0 0 1 7.33-7.33c3.94-.56 7.32 2.82 7.32 7.33ZM245.98 367.85a7.46 7.46 0 0 1-7.32 7.33 7.46 7.46 0 0 1-7.33-7.33 7.46 7.46 0 0 1 7.32-7.32 7.46 7.46 0 0 1 7.33 7.32ZM330.48 371.8a7.32 7.32 0 1 0 0-14.65 7.32 7.32 0 0 0 0 14.65ZM347.95 214.06a7.46 7.46 0 0 1-7.33 7.32 7.46 7.46 0 0 1-7.32-7.32 7.46 7.46 0 0 1 7.32-7.33 7.46 7.46 0 0 1 7.33 7.33ZM469.07 291.8a7.46 7.46 0 0 1-7.32 7.32 7.46 7.46 0 0 1-7.33-7.32 7.46 7.46 0 0 1 7.33-7.33c3.94-.56 7.32 2.82 7.32 7.33ZM219.5 153.2a7.32 7.32 0 1 0 0-14.64 7.32 7.32 0 0 0 0 14.65ZM78.66 120.53a7.46 7.46 0 0 1-7.32 7.33 7.46 7.46 0 0 1-7.33-7.33 7.46 7.46 0 0 1 7.33-7.32c3.94-.56 7.32 2.82 7.32 7.32ZM171.62 82.8a7.46 7.46 0 0 1-7.33 7.32 7.46 7.46 0 0 1-7.32-7.33 7.46 7.46 0 0 1 7.32-7.32 7.46 7.46 0 0 1 7.33 7.32ZM270.2 102.5a7.46 7.46 0 0 1-7.32 7.33 7.46 7.46 0 0 1-7.32-7.33 7.46 7.46 0 0 1 7.32-7.32c3.94-.56 7.32 2.82 7.32 7.32ZM336.12 91.8a7.46 7.46 0 0 1-7.33 7.33 7.46 7.46 0 0 1-7.32-7.32 7.46 7.46 0 0 1 7.32-7.32 7.46 7.46 0 0 1 7.33 7.32Z" fill="#fff" fill-opacity=".4"/><path d="M403.72 105.32a7.46 7.46 0 0 1-7.32 7.33 7.46 7.46 0 0 1-7.33-7.33A7.46 7.46 0 0 1 396.4 98a7.46 7.46 0 0 1 7.32 7.32Z" fill="#fff"/><path d="M363.16 73.78a7.46 7.46 0 0 1-7.33 7.32 7.46 7.46 0 0 1-7.32-7.32 7.46 7.46 0 0 1 7.32-7.32 7.46 7.46 0 0 1 7.33 7.32ZM420.06 55.75a7.46 7.46 0 0 1-7.33 7.32 7.46 7.46 0 0 1-7.32-7.32 7.46 7.46 0 0 1 7.32-7.32 7.46 7.46 0 0 1 7.33 7.32ZM491.6 100.83a7.46 7.46 0 0 1-7.32 7.32 7.46 7.46 0 0 1-7.32-7.33 7.46 7.46 0 0 1 7.32-7.32 7.46 7.46 0 0 1 7.33 7.33ZM141.76 349.27a7.46 7.46 0 0 1-7.33 7.32 7.46 7.46 0 0 1-7.32-7.32 7.46 7.46 0 0 1 7.32-7.33c3.95-.56 7.33 2.82 7.33 7.33ZM153.59 408.99a7.46 7.46 0 0 1-7.33 7.32 7.46 7.46 0 0 1-7.32-7.32 7.46 7.46 0 0 1 7.32-7.33 7.46 7.46 0 0 1 7.33 7.33ZM185.13 467a7.32 7.32 0 1 0 0-14.65 7.32 7.32 0 0 0 0 14.65ZM306.26 455.18a7.46 7.46 0 0 1-7.32 7.32 7.46 7.46 0 0 1-7.33-7.32 7.46 7.46 0 0 1 7.32-7.33 7.46 7.46 0 0 1 7.33 7.32ZM374.99 448.97a7.32 7.32 0 1 0 0-14.65 7.32 7.32 0 0 0 0 14.65ZM411.04 438.84a7.32 7.32 0 1 0 0-14.65 7.32 7.32 0 0 0 0 14.65ZM473.58 393.76a7.46 7.46 0 0 1-7.33 7.33 7.46 7.46 0 0 1-7.32-7.33 7.46 7.46 0 0 1 7.32-7.32 7.46 7.46 0 0 1 7.33 7.32ZM489.91 352.07a7.32 7.32 0 1 0 0-14.64 7.32 7.32 0 0 0 0 14.64Z" fill="#fff" fill-opacity=".4"/><path d="M113.03 168.43a7.46 7.46 0 0 1-7.33 7.32 7.46 7.46 0 0 1-7.32-7.32 7.46 7.46 0 0 1 7.32-7.33c3.95 0 7.33 2.82 7.33 7.33ZM269.08 208.43a7.46 7.46 0 0 1-7.33 7.32 7.46 7.46 0 0 1-7.32-7.32 7.46 7.46 0 0 1 7.32-7.33 7.46 7.46 0 0 1 7.33 7.33ZM486.54 226.44a7.32 7.32 0 1 0 0-14.65 7.32 7.32 0 0 0 0 14.65ZM266.26 289.55a7.46 7.46 0 0 1-7.32 7.32 7.46 7.46 0 0 1-7.33-7.32 7.46 7.46 0 0 1 7.33-7.33c3.94-.56 7.32 2.82 7.32 7.33ZM330.48 371.8a7.32 7.32 0 1 0 0-14.65 7.32 7.32 0 0 0 0 14.65ZM347.95 214.06a7.46 7.46 0 0 1-7.32 7.32 7.46 7.46 0 0 1-7.33-7.32 7.46 7.46 0 0 1 7.32-7.33 7.46 7.46 0 0 1 7.33 7.33ZM270.2 102.5a7.46 7.46 0 0 1-7.32 7.33 7.46 7.46 0 0 1-7.32-7.33 7.46 7.46 0 0 1 7.32-7.32c3.94-.56 7.32 2.82 7.32 7.32ZM420.06 55.75a7.46 7.46 0 0 1-7.33 7.32 7.46 7.46 0 0 1-7.32-7.32 7.46 7.46 0 0 1 7.32-7.32 7.46 7.46 0 0 1 7.33 7.32ZM491.6 100.83a7.46 7.46 0 0 1-7.32 7.32 7.46 7.46 0 0 1-7.32-7.33 7.46 7.46 0 0 1 7.32-7.32 7.46 7.46 0 0 1 7.33 7.33ZM185.14 467a7.32 7.32 0 1 0 0-14.65 7.32 7.32 0 0 0 0 14.65ZM306.26 455.18a7.46 7.46 0 0 1-7.32 7.32 7.46 7.46 0 0 1-7.33-7.32 7.46 7.46 0 0 1 7.32-7.33 7.46 7.46 0 0 1 7.33 7.32ZM473.58 393.76a7.46 7.46 0 0 1-7.33 7.33 7.46 7.46 0 0 1-7.32-7.33 7.46 7.46 0 0 1 7.32-7.32 7.46 7.46 0 0 1 7.33 7.32Z" fill="#fff" fill-opacity=".6"/><path d="m341.75 215.18-1.69-.56-237.17-46.2 159.43-67.04.56.57 78.87 113.23Zm-233.8-47.32 230.99 45.07-76.62-109.86-154.36 64.79Z" fill="#fff" fill-opacity=".6"/><path d="M330.49 365.02 257.8 290.1l83.38-77.75-10.7 152.67Zm-70.43-74.92 69.3 71.54 10.14-145.9-79.44 74.36Z" fill="#fff" fill-opacity=".6"/><path d="m470.2 396.04-2.25-.57-135.78-29.3v-.56L259.5 205.06l2.25 2.25L470.2 396.04Zm-137.46-30.99 132.39 28.73L262.88 210.7l69.86 154.36ZM487.66 221.94 411.61 53.5l2.25 1.12 142.53 99.16-.56.56-68.17 67.6Zm-73.24-164.5 73.24 162.25 65.92-65.35-139.16-96.9Z" fill="#fff" fill-opacity=".6"/><path d="M332.74 218.03 483.16 99.72l75.49 55.2-225.91 63.1Zm150.42-114.37L347.95 210.14l203.37-56.9-68.16-49.58Z" fill="#fff" fill-opacity=".6"/><path d="m489.92 345.34-29.3-54.65 118.3 19.72-89 34.93Zm-27.05-52.96 27.61 51.26 83.38-32.67-110.99-18.59Z" fill="#F0B00B"/><path d="m327.1 365.62 134.65-74.93 29.3 54.65h-1.13L327.1 365.62Zm134.08-73.24L333.3 363.36l155.49-19.15-27.6-51.83Z" fill="#F0B00B"/><path d="m329.92 365.59 9.01-148.16 1.13.56 238.87 93.52-2.26.56-246.75 53.52Zm10.14-146.47-9.01 144.78 242.8-52.96-233.79-91.82Z" fill="#F0B00B"/><path d="m491.04 349.27-54.08-166.2 47.89-84.5v2.26l6.2 248.44Zm-52.4-166.2 50.71 156.62-5.63-236.6-45.07 79.99Z" fill="#F0B00B"/><path d="m462.87 292.9-1.12-.57-245.63-147.6 222.53 38.31v.56l24.22 109.3ZM222.88 146.99l237.74 143.09-23.66-106.48L222.88 147Z" fill="#F0B00B"/><path d="m438.09 183.63-222.53-38.3 3.94-.57 265.9-45.07-47.31 83.94ZM223.45 145.9l214.07 36.62 45.63-80.56-259.7 43.94Z" fill="#F0B00B"/><path d="M339.81 217.82 71.1 120.36l.56-1.13 148.17 25.36 120 72.1v1.13ZM78.99 121.5l254.64 92.95-114.36-68.73L78.98 121.5ZM467.38 395.44h-.56l-336.9-46.2 4.51-.56 328.44-57.46 4.51 104.22Zm-329-46.2 327.31 44.51-4.5-101.4-322.81 56.9Z" fill="#F0B00B"/><path d="M331.61 365.04h-1.13l-197.17-15.2.56-1.13 85.63-204.5.56 1.12 111.55 219.71ZM135 348.71l194.36 15.2L219.5 147.6 135 348.7ZM466.82 396.01l-.56-1.13-130.14-180.84 154.92 130.14v.56l-24.22 51.27ZM343.44 221.93 466.25 393.2l23.1-48.45-145.9-122.8Z" fill="#F0B00B"/><path d="m491.04 345.88-78.87-27.04 43.94-55.2 34.93 82.24Zm-76.61-27.6 74.36 25.35-33.24-77.74-41.12 52.39Z" fill="#F0B00B"/><path d="M460.62 292.93v-1.7L483.16 99.7l1.12.56 143.1 71.55-166.76 121.13Zm24.23-190.99-21.98 188.17 162.25-117.75-140.27-70.42ZM500.62 344.75a10.7 10.7 0 1 1-21.4 0c0-6.2 4.5-10.7 10.7-10.7 6.2 0 10.7 4.5 10.7 10.7ZM155.84 408.98a10.1 10.1 0 0 1-10.14 10.14 10.1 10.1 0 0 1-10.14-10.14 10.1 10.1 0 0 1 10.14-10.14 10.1 10.1 0 0 1 10.14 10.14Z" fill="#F0B00B"/><path d="M461.75 300.8a9.01 9.01 0 1 0 0-18.02 9.01 9.01 0 0 0 0 18.03ZM330.48 371.8a7.32 7.32 0 1 0 0-14.65 7.32 7.32 0 0 0 0 14.65ZM140.07 349.26a5.65 5.65 0 0 1-11.27 0 5.65 5.65 0 0 1 11.27 0ZM472.45 394.9a5.65 5.65 0 0 1-5.63 5.63c-2.82 0-5.63-2.81-5.63-5.63a5.64 5.64 0 0 1 11.26 0ZM76.97 120.53a5.65 5.65 0 0 1-11.27 0 5.65 5.65 0 0 1 5.64-5.63c2.81-.57 5.63 2.25 5.63 5.63ZM443.72 183.07a5.65 5.65 0 0 1-11.27 0c0-2.81 2.82-5.63 5.64-5.63a5.65 5.65 0 0 1 5.63 5.63ZM489.92 100.81a5.65 5.65 0 0 1-11.27 0 5.65 5.65 0 0 1 11.27 0ZM225.13 145.88a5.65 5.65 0 0 1-11.27 0 5.65 5.65 0 0 1 11.27 0ZM346.26 215.18a5.64 5.64 0 0 1-5.63 5.63c-2.82 0-5.64-2.82-5.64-5.63a5.65 5.65 0 0 1 5.63-5.64c2.82 0 5.64 2.82 5.64 5.64ZM412.17 322.78a4.5 4.5 0 1 0 0-9.02 4.5 4.5 0 0 0 0 9.02ZM460.62 263.62c0 2.82-2.25 4.51-4.5 4.51a4.85 4.85 0 0 1-4.51-4.5c0-2.82 2.25-4.51 4.5-4.51 2.26 0 4.51 1.69 4.51 4.5ZM436.96 296.3c0 2.82-2.26 4.5-4.5 4.5a4.44 4.44 0 0 1-4.52-4.5c0-2.82 2.26-4.5 4.51-4.5 2.82-.57 4.5 1.68 4.5 4.5ZM468.5 335.17c0 2.82-2.25 4.5-4.5 4.5a4.44 4.44 0 0 1-4.5-4.5c0-2.82 2.25-4.5 4.5-4.5s4.5 2.25 4.5 4.5ZM332.74 319.4a4.5 4.5 0 1 0 0-9.02 4.5 4.5 0 0 0 0 9.02ZM435.83 343.07c0 2.81-2.25 4.5-4.5 4.5a4.44 4.44 0 0 1-4.51-4.5c0-2.82 2.25-4.51 4.5-4.51 2.82 0 4.51 2.25 4.51 4.5ZM181.2 402.78c0 2.82-2.26 4.51-4.51 4.51a4.44 4.44 0 0 1-4.51-4.5c0-2.82 2.25-4.51 4.5-4.51 2.82-.57 4.51 1.69 4.51 4.5Z" fill="#F0B00B"/></g><g filter="url(#a)"><g clip-path="url(#b)"><rect x="160" y="187" width="155" height="155" rx="12" fill="#fff" fill-opacity=".1" shape-rendering="crispEdges"/><path d="M270.14 262.06v2.96a32.14 32.14 0 1 1-19.06-29.38" stroke="#F0B00B" stroke-width="4" stroke-linecap="round" stroke-linejoin="round"/><path d="M270.14 239.3 238 271.48l-9.64-9.64" stroke="#F0B00B" stroke-width="4" stroke-linecap="round" stroke-linejoin="round"/><g opacity=".9" filter="url(#c)"><circle cx="237.5" cy="264.5" r="24.5" fill="#F0B00B"/></g></g><rect x="160.25" y="187.25" width="154.5" height="154.5" rx="11.75" stroke="#fff" stroke-opacity=".2" stroke-width=".5" shape-rendering="crispEdges"/></g><g filter="url(#d)"><rect x="38" y="132" width="155" height="155" rx="12" fill="#fff" fill-opacity=".1" shape-rendering="crispEdges"/><g filter="url(#e)"><path d="M116 174a36 36 0 1 0 0 72 36 36 0 0 0 0-72Zm0 58.5a4.5 4.5 0 1 1 0-9 4.5 4.5 0 0 1 0 9Zm6.2-21c-1.98 1.83-3.2 3.04-3.2 4.5h-6c0-4.17 2.85-6.8 5.13-8.91 2.4-2.21 3.87-3.7 3.87-6.09a6 6 0 0 0-12 0h-6a12.01 12.01 0 0 1 24 0c0 5.15-3.21 8.11-5.8 10.5Z" fill="#F0B00B"/></g><rect x="38.25" y="132.25" width="154.5" height="154.5" rx="11.75" stroke="#fff" stroke-opacity=".2" stroke-width=".5" shape-rendering="crispEdges"/></g><defs><filter id="a" x="142" y="172" width="215" height="215" filterUnits="userSpaceOnUse" color-interpolation-filters="sRGB"><feFlood flood-opacity="0" result="BackgroundImageFix"/><feGaussianBlur in="BackgroundImage" stdDeviation="5"/><feComposite in2="SourceAlpha" operator="in" result="effect1_backgroundBlur_140_3376"/><feColorMatrix in="SourceAlpha" values="0 0 0 0 0 0 0 0 0 0 0 0 0 0 0 0 0 0 127 0" result="hardAlpha"/><feOffset dx="12" dy="15"/><feGaussianBlur stdDeviation="15"/><feComposite in2="hardAlpha" operator="out"/><feColorMatrix values="0 0 0 0 0.941176 0 0 0 0 0.690196 0 0 0 0 0.0431373 0 0 0 0.25 0"/><feBlend in2="effect1_backgroundBlur_140_3376" result="effect2_dropShadow_140_3376"/><feBlend in="SourceGraphic" in2="effect2_dropShadow_140_3376" result="shape"/></filter><filter id="c" x="143" y="170" width="189" height="189" filterUnits="userSpaceOnUse" color-interpolation-filters="sRGB"><feFlood flood-opacity="0" result="BackgroundImageFix"/><feBlend in="SourceGraphic" in2="BackgroundImageFix" result="shape"/><feGaussianBlur stdDeviation="35" result="effect1_foregroundBlur_140_3376"/></filter><filter id="d" x="0" y="97" width="255" height="255" filterUnits="userSpaceOnUse" color-interpolation-filters="sRGB"><feFlood flood-opacity="0" result="BackgroundImageFix"/><feGaussianBlur in="BackgroundImage" stdDeviation="5"/><feComposite in2="SourceAlpha" operator="in" result="effect1_backgroundBlur_140_3376"/><feColorMatrix in="SourceAlpha" values="0 0 0 0 0 0 0 0 0 0 0 0 0 0 0 0 0 0 127 0" result="hardAlpha"/><feOffset dx="12" dy="15"/><feGaussianBlur stdDeviation="25"/><feComposite in2="hardAlpha" operator="out"/><feColorMatrix values="0 0 0 0 0.941176 0 0 0 0 0.690196 0 0 0 0 0.0431373 0 0 0 0.4 0"/><feBlend in2="effect1_backgroundBlur_140_3376" result="effect2_dropShadow_140_3376"/><feBlend in="SourceGraphic" in2="effect2_dropShadow_140_3376" result="shape"/></filter><filter id="e" x="53" y="147" width="126" height="126" filterUnits="userSpaceOnUse" color-interpolation-filters="sRGB"><feFlood flood-opacity="0" result="BackgroundImageFix"/><feColorMatrix in="SourceAlpha" values="0 0 0 0 0 0 0 0 0 0 0 0 0 0 0 0 0 0 127 0" result="hardAlpha"/><feOffset/><feGaussianBlur stdDeviation="9"/><feComposite in2="hardAlpha" operator="out"/><feColorMatrix values="0 0 0 0 0.941176 0 0 0 0 0.690196 0 0 0 0 0.0431373 0 0 0 0.8 0"/><feBlend in2="BackgroundImageFix" result="effect1_dropShadow_140_3376"/><feBlend in="SourceGraphic" in2="effect1_dropShadow_140_3376" result="shape"/></filter><clipPath id="b"><rect x="160" y="187" width="155" height="155" rx="12" fill="#fff"/></clipPath></defs></svg>