<svg width="30" height="30" viewBox="0 0 30 30" fill="none" xmlns="http://www.w3.org/2000/svg">
<path d="M0.333252 15.1035C0.333252 15.5451 0.491401 15.9211 0.807698 16.2315C1.124 16.5418 1.49699 16.6969 1.92668 16.6969H13.5103V28.2805C13.5103 28.7103 13.6655 29.0833 13.9758 29.3996C14.2862 29.7159 14.6621 29.8741 15.1038 29.8741C15.5454 29.8741 15.9243 29.7159 16.2406 29.3996C16.5569 29.0833 16.7151 28.7103 16.7151 28.2805V16.6969H28.2808C28.7105 16.6969 29.0835 16.5418 29.3998 16.2315C29.7161 15.9211 29.8743 15.5451 29.8743 15.1035C29.8743 14.6619 29.7161 14.2829 29.3998 13.9666C29.0835 13.6503 28.7105 13.4922 28.2808 13.4922H16.7151V1.92643C16.7151 1.49674 16.5569 1.12375 16.2406 0.807454C15.9243 0.491157 15.5454 0.333008 15.1038 0.333008C14.6621 0.333008 14.2862 0.491157 13.9758 0.807454C13.6655 1.12375 13.5103 1.49674 13.5103 1.92643V13.4922H1.92668C1.49699 13.4922 1.124 13.6503 0.807698 13.9666C0.491401 14.2829 0.333252 14.6619 0.333252 15.1035Z" fill="#F0B00B"/>
</svg>
