<svg width="316" height="333" viewBox="0 0 316 333" fill="none" xmlns="http://www.w3.org/2000/svg">
<g opacity="0.3">
<path opacity="0.1" d="M338.643 245.835L301.284 130.544L334.626 71.8936L338.643 245.835Z" fill="white" fill-opacity="0.3"/>
<path opacity="0.2" d="M257.498 314.922L282.404 307.289L232.19 153.434L257.498 314.922Z" fill="white" fill-opacity="0.3"/>
<path opacity="0.1" d="M175.147 148.213L85.5654 249.043L173.139 206.059L175.147 148.213Z" fill="white" fill-opacity="0.3"/>
<path opacity="0.2" d="M321.773 281.581L84.7627 249.042L318.559 208.067L321.773 281.581Z" fill="white" fill-opacity="0.3"/>
<path opacity="0.3" d="M231.387 155.448L224.959 259.893L400.106 221.329L231.387 155.448Z" fill="white" fill-opacity="0.3"/>
<path opacity="0.3" d="M106.455 57.4326L175.951 71.8943L39.3687 83.9456L106.455 57.4326Z" fill="white" fill-opacity="0.3"/>
<path opacity="0.4" d="M218.533 108.04L269.55 72.6895L231.387 151.023L218.533 108.04Z" fill="white" fill-opacity="0.3"/>
<path opacity="0.3" d="M145.822 104.031L334.627 71.8936L301.285 130.544L145.822 104.031Z" fill="white" fill-opacity="0.3"/>
<path opacity="0.3" d="M318.557 208.076L270.352 189.597L402.515 188.794L318.557 208.076Z" fill="white" fill-opacity="0.3"/>
<path d="M89.1802 293.639L174.343 203.254L159.48 262.707L89.1802 293.639ZM171.531 208.878L96.0093 288.819L158.275 261.502L171.531 208.878Z" fill="white" fill-opacity="0.4"/>
<path d="M120.915 329.359L90.3853 290.393L231.386 256.649L120.915 329.359ZM94.8041 292L121.719 326.547L218.933 262.675L94.8041 292Z" fill="white" fill-opacity="0.4"/>
<path d="M92.3937 294.832L83.1543 248.234V247.832L119.71 178.336L92.3937 294.832ZM85.1629 248.636L92.7954 287.602L115.693 190.789L85.1629 248.636Z" fill="white" fill-opacity="0.4"/>
<path d="M201.659 326.99L171.531 203.664L227.77 259.502L201.659 326.99ZM174.343 208.886L201.659 321.767L225.762 259.904L174.343 208.886Z" fill="white" fill-opacity="0.4"/>
<path d="M82.3511 251.452L175.95 145.802L173.941 206.46L82.3511 251.452ZM174.343 150.221L88.7785 246.23L172.335 205.255L174.343 150.221Z" fill="white" fill-opacity="0.4"/>
<path d="M160.685 267.906L116.898 184.751L146.625 96.7764L160.685 267.906ZM119.309 184.35L157.07 256.256L145.018 108.426L119.309 184.35Z" fill="white" fill-opacity="0.4"/>
<path d="M170.326 207.661L232.189 152.626L271.557 187.575L170.326 207.661ZM232.189 154.635L175.95 204.849L268.343 186.772L232.189 154.635Z" fill="white" fill-opacity="0.4"/>
<path d="M322.173 282.375L163.095 202.435L339.447 244.614L322.173 282.375ZM182.779 209.665L320.968 279.162L335.831 246.623L182.779 209.665Z" fill="white" fill-opacity="0.4"/>
<path d="M282.805 308.487L222.548 259.076L319.763 206.452L282.805 308.487ZM225.36 259.076L282.002 305.675L316.951 209.666L225.36 259.076Z" fill="white" fill-opacity="0.4"/>
<path d="M267.943 188.797L301.687 127.335L337.038 155.857L267.943 188.797ZM302.089 129.745L271.559 185.182L333.824 155.455L302.089 129.745Z" fill="white" fill-opacity="0.4"/>
<path d="M119.71 328.58L158.676 260.289L202.864 324.563L119.71 328.58ZM159.078 263.503L122.924 326.973L200.454 323.358L159.078 263.503Z" fill="white" fill-opacity="0.4"/>
<path d="M175.949 150.638L145.018 102.433L177.155 69.4922L175.949 150.638ZM146.624 102.834L174.343 145.416L175.146 73.911L146.624 102.834Z" fill="white" fill-opacity="0.4"/>
<path d="M173.138 208.487L108.061 128.145L222.147 109.666L173.138 208.487ZM112.881 129.752L172.736 204.068L218.13 112.88L112.881 129.752Z" fill="white" fill-opacity="0.4"/>
<path d="M177.155 149.397L63.8721 118.465L106.855 55.7979L177.155 149.397ZM66.2823 117.662L173.138 146.585L106.454 59.0115L66.2823 117.662Z" fill="white" fill-opacity="0.4"/>
<path d="M232.189 151.83L173.539 149.018L222.146 64.6582L232.189 151.83ZM176.351 147.411L230.18 150.223L220.941 69.4787L176.351 147.411Z" fill="white" fill-opacity="0.4"/>
<path d="M303.694 138.58L268.343 72.6995L283.608 33.7334L303.694 138.58ZM271.155 72.6995L298.472 123.717L282.805 42.5711L271.155 72.6995Z" fill="white" fill-opacity="0.4"/>
<path d="M337.84 71.9086L237.813 53.0281L283.609 37.3613L284.01 37.7631L337.84 71.9086ZM244.241 52.6264L329.806 68.6949L283.207 38.9682L244.241 52.6264Z" fill="white" fill-opacity="0.4"/>
<path d="M230.984 153.435L217.326 107.639L271.557 70.2803L230.984 153.435ZM219.335 108.041L231.386 148.614L267.54 74.6991L219.335 108.041Z" fill="white" fill-opacity="0.4"/>
<path d="M271.155 193.619L221.745 63.4639L272.762 75.1135V75.917L271.155 193.619ZM224.557 65.8742L269.548 185.183L271.155 76.3187L224.557 65.8742Z" fill="white" fill-opacity="0.4"/>
<path d="M33.7437 85.1593L106.454 56.6377H106.855L181.975 72.3045L33.7437 85.1593ZM106.454 58.2446L44.5899 82.3473L170.326 71.501L106.454 58.2446Z" fill="white" fill-opacity="0.4"/>
<path d="M4.82031 143.404L11.6494 103.635L67.4874 118.096L4.82031 143.404ZM12.8546 105.643L6.82887 140.994L62.2652 118.498L12.8546 105.643Z" fill="white" fill-opacity="0.4"/>
<path d="M9.64062 105.641L38.9656 83.1455H39.3673L145.821 102.026V103.633L9.64062 105.641ZM39.3673 84.7524L14.4612 104.035L137.385 102.428L39.3673 84.7524Z" fill="white" fill-opacity="0.4"/>
<path d="M219.335 109.666L174.343 71.5036L224.156 63.8711L219.335 109.666ZM177.959 72.307L217.728 106.051L222.147 65.4779L177.959 72.307Z" fill="white" fill-opacity="0.4"/>
<path d="M272.362 76.7246L271.96 75.1177L410.149 10.8438L376.807 47.8013H376.405L272.362 76.7246ZM403.722 15.6643L281.199 72.7074L376.003 46.5961L403.722 15.6643Z" fill="white" fill-opacity="0.4"/>
<path d="M333.824 71.0725L333.422 70.6708L281.199 37.7304L410.149 11.6191L333.824 71.0725ZM285.618 38.5338L333.824 69.064L403.721 14.4311L285.618 38.5338Z" fill="white" fill-opacity="0.4"/>
<path d="M297.669 134.152L331.814 71.8861L380.422 44.168L297.669 134.152ZM333.02 73.0912L305.301 123.305L371.986 50.5954L333.02 73.0912Z" fill="white" fill-opacity="0.4"/>
<path d="M218.531 263.091L337.84 155.834L318.959 208.86H318.558L218.531 263.091ZM334.224 161.056L229.377 255.057L317.754 207.253L334.224 161.056Z" fill="white" fill-opacity="0.4"/>
<path d="M318.558 208.864L266.335 188.778L409.746 187.975L318.558 208.864ZM274.771 190.385L318.558 207.257L395.285 189.983L274.771 190.385Z" fill="white" fill-opacity="0.4"/>
<path d="M340.652 248.644L267.541 185.575L335.832 154.241L340.652 248.644ZM270.353 186.378L338.644 245.028L334.225 157.053L270.353 186.378Z" fill="white" fill-opacity="0.4"/>
<path d="M281.6 309.3L268.343 183.162L323.378 281.18L281.6 309.3ZM271.557 194.41L283.207 304.881L319.762 280.376L271.557 194.41Z" fill="white" fill-opacity="0.4"/>
<path d="M256.694 316.128L231.386 153.836L232.993 153.435L283.608 307.692L256.694 316.128ZM234.599 163.076L258.3 313.718L281.6 306.487L234.599 163.076Z" fill="white" fill-opacity="0.4"/>
<path d="M200.455 325.366L224.557 260.289L258.703 315.725L200.455 325.366ZM224.959 263.503L203.267 322.956L256.293 314.119L224.959 263.503Z" fill="white" fill-opacity="0.4"/>
<path d="M117.702 187.582L107.659 129.735L146.224 102.419L117.702 187.582ZM109.668 130.539L118.104 181.155L143.412 106.436L109.668 130.539Z" fill="white" fill-opacity="0.4"/>
<path d="M10.4445 141.385C10.4445 144.197 8.03426 146.608 5.22227 146.608C2.41029 146.608 0 144.197 0 141.385C0 138.573 2.41029 136.163 5.22227 136.163C8.03426 136.163 10.4445 138.172 10.4445 141.385Z" fill="white" fill-opacity="0.4"/>
<path d="M17.676 106.037C17.676 108.849 15.2657 111.259 12.4537 111.259C9.64172 111.259 7.23145 108.849 7.23145 106.037C7.23145 103.225 9.64172 100.814 12.4537 100.814C15.2657 100.814 17.676 103.225 17.676 106.037Z" fill="white" fill-opacity="0.4"/>
<path d="M69.8986 120.097C69.8986 122.909 67.4883 125.32 64.6764 125.32C61.8644 125.32 59.4541 122.909 59.4541 120.097C59.4541 117.285 61.8644 114.875 64.6764 114.875C67.4883 114.875 69.8986 116.884 69.8986 120.097Z" fill="white" fill-opacity="0.4"/>
<path d="M109.265 134.559C112.149 134.559 114.487 132.221 114.487 129.336C114.487 126.452 112.149 124.114 109.265 124.114C106.381 124.114 104.043 126.452 104.043 129.336C104.043 132.221 106.381 134.559 109.265 134.559Z" fill="white" fill-opacity="0.4"/>
<path d="M123.326 183.971C123.326 186.783 120.916 189.193 118.104 189.193C115.292 189.193 112.882 186.783 112.882 183.971C112.882 181.159 115.292 178.749 118.104 178.749C120.916 178.347 123.326 180.757 123.326 183.971Z" fill="white"/>
<path d="M181.172 148.621C181.172 151.433 178.762 153.843 175.95 153.843C173.138 153.843 170.728 151.433 170.728 148.621C170.728 145.809 173.138 143.398 175.95 143.398C178.762 143.398 181.172 145.809 181.172 148.621Z" fill="white" fill-opacity="0.4"/>
<path d="M306.908 130.543C306.908 133.355 304.498 135.765 301.686 135.765C298.874 135.765 296.463 133.355 296.463 130.543C296.463 127.731 298.874 125.32 301.686 125.32C304.498 125.32 306.908 127.731 306.908 130.543Z" fill="white" fill-opacity="0.4"/>
<path d="M225.361 109.645C225.361 112.457 222.95 114.867 220.138 114.867C217.326 114.867 214.916 112.457 214.916 109.645C214.916 106.833 217.326 104.423 220.138 104.423C222.95 104.021 225.361 106.431 225.361 109.645Z" fill="white" fill-opacity="0.4"/>
<path d="M274.371 187.987C274.371 190.799 271.96 193.209 269.149 193.209C266.337 193.209 263.926 190.799 263.926 187.987C263.926 185.175 266.337 182.765 269.149 182.765C271.96 182.363 274.371 184.773 274.371 187.987Z" fill="white" fill-opacity="0.4"/>
<path d="M179.164 206.464C179.164 209.276 176.754 211.687 173.942 211.687C171.13 211.687 168.72 209.276 168.72 206.464C168.72 203.652 171.13 201.242 173.942 201.242C176.754 200.84 179.164 203.251 179.164 206.464Z" fill="white" fill-opacity="0.4"/>
<path d="M164.702 262.302C164.702 265.114 162.292 267.525 159.48 267.525C156.668 267.525 154.257 265.114 154.257 262.302C154.257 259.49 156.668 257.08 159.48 257.08C162.292 257.08 164.702 259.49 164.702 262.302Z" fill="white" fill-opacity="0.4"/>
<path d="M224.959 265.112C227.843 265.112 230.181 262.774 230.181 259.89C230.181 257.006 227.843 254.668 224.959 254.668C222.075 254.668 219.737 257.006 219.737 259.89C219.737 262.774 222.075 265.112 224.959 265.112Z" fill="white" fill-opacity="0.4"/>
<path d="M237.412 152.636C237.412 155.448 235.002 157.859 232.19 157.859C229.378 157.859 226.968 155.448 226.968 152.636C226.968 149.824 229.378 147.414 232.19 147.414C235.002 147.414 237.412 149.824 237.412 152.636Z" fill="white" fill-opacity="0.4"/>
<path d="M323.78 208.069C323.78 210.881 321.37 213.291 318.558 213.291C315.746 213.291 313.336 210.881 313.336 208.069C313.336 205.257 315.746 202.847 318.558 202.847C321.37 202.445 323.78 204.855 323.78 208.069Z" fill="white" fill-opacity="0.4"/>
<path d="M145.822 109.244C148.707 109.244 151.045 106.906 151.045 104.022C151.045 101.138 148.707 98.7998 145.822 98.7998C142.938 98.7998 140.6 101.138 140.6 104.022C140.6 106.906 142.938 109.244 145.822 109.244Z" fill="white" fill-opacity="0.4"/>
<path d="M45.3937 85.9467C45.3937 88.7587 42.9835 91.169 40.1715 91.169C37.3595 91.169 34.9492 88.7587 34.9492 85.9467C34.9492 83.1348 37.3595 80.7245 40.1715 80.7245C42.9835 80.3228 45.3937 82.733 45.3937 85.9467Z" fill="white" fill-opacity="0.4"/>
<path d="M111.676 59.0367C111.676 61.8487 109.266 64.259 106.454 64.259C103.642 64.259 101.232 61.8487 101.232 59.0367C101.232 56.2247 103.642 53.8145 106.454 53.8145C109.266 53.8145 111.676 56.2247 111.676 59.0367Z" fill="white" fill-opacity="0.4"/>
<path d="M181.976 73.0912C181.976 75.9032 179.566 78.3135 176.754 78.3135C173.942 78.3135 171.532 75.9032 171.532 73.0912C171.532 70.2793 173.942 67.869 176.754 67.869C179.566 67.4673 181.976 69.8775 181.976 73.0912Z" fill="white" fill-opacity="0.4"/>
<path d="M228.976 65.4654C228.976 68.2774 226.566 70.6877 223.754 70.6877C220.942 70.6877 218.531 68.2774 218.531 65.4654C218.531 62.6534 220.942 60.2432 223.754 60.2432C226.566 60.2432 228.976 62.6534 228.976 65.4654Z" fill="white" fill-opacity="0.4"/>
<path d="M277.181 75.1011C277.181 77.9131 274.771 80.3234 271.959 80.3234C269.147 80.3234 266.737 77.9131 266.737 75.1011C266.737 72.2892 269.147 69.8789 271.959 69.8789C274.771 69.8789 277.181 72.2892 277.181 75.1011Z" fill="white"/>
<path d="M248.258 52.609C248.258 55.421 245.848 57.8313 243.036 57.8313C240.224 57.8313 237.814 55.421 237.814 52.609C237.814 49.797 240.224 47.3867 243.036 47.3867C245.848 47.3867 248.258 49.797 248.258 52.609Z" fill="white" fill-opacity="0.4"/>
<path d="M288.83 39.7535C288.83 42.5655 286.42 44.9758 283.608 44.9758C280.796 44.9758 278.386 42.5655 278.386 39.7535C278.386 36.9415 280.796 34.5312 283.608 34.5312C286.42 34.5312 288.83 36.9415 288.83 39.7535Z" fill="white" fill-opacity="0.4"/>
<path d="M90.3849 249.049C90.3849 251.861 87.9747 254.271 85.1627 254.271C82.3507 254.271 79.9404 251.861 79.9404 249.049C79.9404 246.237 82.3507 243.827 85.1627 243.827C87.9747 243.425 90.3849 245.836 90.3849 249.049Z" fill="white" fill-opacity="0.4"/>
<path d="M98.822 291.632C98.822 294.444 96.4117 296.855 93.5997 296.855C90.7877 296.855 88.3774 294.444 88.3774 291.632C88.3774 288.82 90.7877 286.41 93.5997 286.41C96.4117 286.41 98.822 288.82 98.822 291.632Z" fill="white" fill-opacity="0.4"/>
<path d="M121.317 333C124.201 333 126.539 330.662 126.539 327.778C126.539 324.894 124.201 322.556 121.317 322.556C118.432 322.556 116.094 324.894 116.094 327.778C116.094 330.662 118.432 333 121.317 333Z" fill="white" fill-opacity="0.4"/>
<path d="M207.686 324.568C207.686 327.38 205.275 329.79 202.463 329.79C199.651 329.79 197.241 327.38 197.241 324.568C197.241 321.756 199.651 319.346 202.463 319.346C205.275 319.346 207.686 321.756 207.686 324.568Z" fill="white" fill-opacity="0.4"/>
<path d="M256.695 320.143C259.579 320.143 261.917 317.805 261.917 314.921C261.917 312.036 259.579 309.698 256.695 309.698C253.811 309.698 251.473 312.036 251.473 314.921C251.473 317.805 253.811 320.143 256.695 320.143Z" fill="white" fill-opacity="0.4"/>
<path d="M282.404 312.919C285.289 312.919 287.627 310.581 287.627 307.697C287.627 304.813 285.289 302.475 282.404 302.475C279.52 302.475 277.182 304.813 277.182 307.697C277.182 310.581 279.52 312.919 282.404 312.919Z" fill="white" fill-opacity="0.4"/>
<path d="M69.8986 120.097C69.8986 122.909 67.4883 125.32 64.6764 125.32C61.8644 125.32 59.4541 122.909 59.4541 120.097C59.4541 117.285 61.8644 114.875 64.6764 114.875C67.4883 114.875 69.8986 116.884 69.8986 120.097Z" fill="white" fill-opacity="0.6"/>
<path d="M181.173 148.621C181.173 151.433 178.762 153.843 175.95 153.843C173.138 153.843 170.728 151.433 170.728 148.621C170.728 145.809 173.138 143.398 175.95 143.398C178.762 143.398 181.173 145.809 181.173 148.621Z" fill="white" fill-opacity="0.6"/>
<path d="M179.165 206.464C179.165 209.276 176.754 211.687 173.942 211.687C171.131 211.687 168.72 209.276 168.72 206.464C168.72 203.652 171.131 201.242 173.942 201.242C176.754 200.84 179.165 203.251 179.165 206.464Z" fill="white" fill-opacity="0.6"/>
<path d="M224.959 265.112C227.843 265.112 230.181 262.774 230.181 259.89C230.181 257.006 227.843 254.668 224.959 254.668C222.075 254.668 219.737 257.006 219.737 259.89C219.737 262.774 222.075 265.112 224.959 265.112Z" fill="white" fill-opacity="0.6"/>
<path d="M237.413 152.636C237.413 155.448 235.003 157.859 232.191 157.859C229.379 157.859 226.969 155.448 226.969 152.636C226.969 149.824 229.379 147.414 232.191 147.414C235.003 147.414 237.413 149.824 237.413 152.636Z" fill="white" fill-opacity="0.6"/>
<path d="M181.976 73.0912C181.976 75.9032 179.566 78.3135 176.754 78.3135C173.942 78.3135 171.532 75.9032 171.532 73.0912C171.532 70.2793 173.942 67.869 176.754 67.869C179.566 67.4673 181.976 69.8775 181.976 73.0912Z" fill="white" fill-opacity="0.6"/>
<path d="M288.83 39.7535C288.83 42.5655 286.42 44.9758 283.608 44.9758C280.796 44.9758 278.386 42.5655 278.386 39.7535C278.386 36.9415 280.796 34.5312 283.608 34.5312C286.42 34.5312 288.83 36.9415 288.83 39.7535Z" fill="white" fill-opacity="0.6"/>
<path d="M121.318 333C124.203 333 126.541 330.662 126.541 327.778C126.541 324.894 124.203 322.556 121.318 322.556C118.434 322.556 116.096 324.894 116.096 327.778C116.096 330.662 118.434 333 121.318 333Z" fill="white" fill-opacity="0.6"/>
<path d="M207.686 324.568C207.686 327.38 205.275 329.79 202.463 329.79C199.651 329.79 197.241 327.38 197.241 324.568C197.241 321.756 199.651 319.346 202.463 319.346C205.275 319.346 207.686 321.756 207.686 324.568Z" fill="white" fill-opacity="0.6"/>
<path d="M232.994 153.438L231.789 153.036L62.668 120.096L176.353 72.292L176.754 72.6937L232.994 153.438ZM66.2834 119.694L230.985 151.831L176.353 73.4971L66.2834 119.694Z" fill="white" fill-opacity="0.6"/>
<path d="M224.961 260.286L173.14 206.858L232.593 151.422L224.961 260.286ZM174.747 206.858L224.157 257.876L231.388 153.832L174.747 206.858Z" fill="white" fill-opacity="0.6"/>
<path d="M324.584 282.399L322.977 281.997L226.165 261.108V260.707L174.344 146.219L175.951 147.826L324.584 282.399ZM226.566 260.305L320.969 280.792L176.754 150.236L226.566 260.305Z" fill="white" fill-opacity="0.6"/>
<path d="M337.037 158.259L282.806 38.1475L284.413 38.9509L386.046 109.652L385.644 110.054L337.037 158.259ZM284.814 40.9594L337.037 156.653L384.037 110.054L284.814 40.9594Z" fill="white" fill-opacity="0.6"/>
<path d="M226.567 155.465L333.825 71.1055L387.654 110.473L226.567 155.465ZM333.825 73.9175L237.414 149.841L382.432 109.268L333.825 73.9175Z" fill="white" fill-opacity="0.6"/>
<path d="M222.549 260.708L318.558 207.28L339.447 246.246H338.644L222.549 260.708ZM318.156 208.485L226.968 259.101L337.84 245.443L318.156 208.485Z" fill="#F0B00B"/>
<path d="M224.557 260.688L230.985 155.038L231.788 155.44L402.114 222.124L400.507 222.526L224.557 260.688ZM231.788 156.243L225.361 259.483L398.499 221.722L231.788 156.243Z" fill="#F0B00B"/>
<path d="M339.448 249.052L300.883 130.547L335.029 70.29V71.8969L339.448 249.052ZM302.088 130.547L338.243 242.223L334.225 73.5037L302.088 130.547Z" fill="#F0B00B"/>
<path d="M319.362 208.853L318.558 208.452L143.412 103.203L302.088 130.52V130.921L319.362 208.853ZM148.232 104.81L317.755 206.845L300.883 130.921L148.232 104.81Z" fill="#F0B00B"/>
<path d="M301.687 130.941L143.01 103.625L145.822 103.223L335.43 71.0859L301.687 130.941ZM148.634 104.026L301.285 130.138L333.824 72.6928L148.634 104.026Z" fill="#F0B00B"/>
<path d="M231.613 155.321L39.9966 85.8249L40.3983 85.0215L146.049 103.099L231.613 154.518V155.321ZM45.6206 86.6283L227.194 152.911L145.647 103.902L45.6206 86.6283Z" fill="#F0B00B"/>
<path d="M322.575 281.974H322.174L81.9497 249.034L85.1634 248.632L319.362 207.657L322.575 281.974ZM87.9754 249.034L321.37 280.769L318.157 208.461L87.9754 249.034Z" fill="#F0B00B"/>
<path d="M225.763 260.298H224.96L84.3604 249.452L84.7621 248.649L145.822 102.827L146.224 103.631L225.763 260.298ZM85.5655 248.649L224.156 259.495L145.822 105.237L85.5655 248.649Z" fill="#F0B00B"/>
<path d="M322.175 282.379L321.773 281.576L228.978 152.626L339.448 245.421V245.823L322.175 282.379ZM234.2 158.25L321.773 280.37L338.243 245.823L234.2 158.25Z" fill="#F0B00B"/>
<path d="M339.448 246.636L283.208 227.354L314.542 187.986L339.448 246.636ZM284.815 226.952L337.841 245.029L314.14 189.593L284.815 226.952Z" fill="#F0B00B"/>
<path d="M100.429 291.627C100.429 295.644 97.2152 298.858 93.1981 298.858C89.181 298.858 85.9673 295.644 85.9673 291.627C85.9673 287.61 89.181 284.396 93.1981 284.396C97.2152 284.396 100.429 287.61 100.429 291.627Z" fill="#F0B00B"/>
<path d="M318.559 214.493C322.109 214.493 324.987 211.616 324.987 208.066C324.987 204.516 322.109 201.639 318.559 201.639C315.009 201.639 312.132 204.516 312.132 208.066C312.132 211.616 315.009 214.493 318.559 214.493Z" fill="#F0B00B"/>
<path d="M224.96 265.112C227.844 265.112 230.182 262.774 230.182 259.89C230.182 257.006 227.844 254.668 224.96 254.668C222.076 254.668 219.738 257.006 219.738 259.89C219.738 262.774 222.076 265.112 224.96 265.112Z" fill="#F0B00B"/>
<path d="M89.1807 249.048C89.1807 251.459 87.1722 253.065 85.1636 253.065C82.7533 253.065 81.1465 251.057 81.1465 249.048C81.1465 246.638 83.155 245.031 85.1636 245.031C87.1722 245.031 89.1807 246.638 89.1807 249.048Z" fill="#F0B00B"/>
<path d="M44.1895 85.9455C44.1895 88.3558 42.181 89.9626 40.1724 89.9626C37.7621 89.9626 36.1553 87.9541 36.1553 85.9455C36.1553 83.5352 38.1638 81.9284 40.1724 81.9284C42.181 81.5267 44.1895 83.5352 44.1895 85.9455Z" fill="#F0B00B"/>
<path d="M305.705 130.543C305.705 132.953 303.697 134.56 301.688 134.56C299.278 134.56 297.671 132.551 297.671 130.543C297.671 128.534 299.679 126.525 301.688 126.525C303.697 126.525 305.705 128.132 305.705 130.543Z" fill="#F0B00B"/>
<path d="M149.839 104.023C149.839 106.433 147.831 108.04 145.822 108.04C143.412 108.04 141.805 106.032 141.805 104.023C141.805 101.613 143.814 100.006 145.822 100.006C147.831 100.006 149.839 101.613 149.839 104.023Z" fill="#F0B00B"/>
<path d="M236.208 153.435C236.208 155.845 234.2 157.452 232.191 157.452C230.182 157.452 228.174 155.444 228.174 153.435C228.174 151.025 230.182 149.418 232.191 149.418C234.2 149.418 236.208 151.427 236.208 153.435Z" fill="#F0B00B"/>
<path d="M283.209 230.161C284.984 230.161 286.423 228.722 286.423 226.947C286.423 225.172 284.984 223.733 283.209 223.733C281.434 223.733 279.995 225.172 279.995 226.947C279.995 228.722 281.434 230.161 283.209 230.161Z" fill="#F0B00B"/>
<path d="M317.756 187.979C317.756 189.988 316.149 191.193 314.542 191.193C312.935 191.193 311.328 189.586 311.328 187.979C311.328 185.971 312.935 184.766 314.542 184.766C316.149 184.766 317.756 185.971 317.756 187.979Z" fill="#F0B00B"/>
<path d="M300.882 211.281C300.882 213.289 299.275 214.494 297.668 214.494C295.66 214.494 294.455 212.887 294.455 211.281C294.455 209.272 296.061 208.067 297.668 208.067C299.677 207.665 300.882 209.272 300.882 211.281Z" fill="#F0B00B"/>
<path d="M226.566 227.75C228.341 227.75 229.78 226.311 229.78 224.536C229.78 222.761 228.341 221.322 226.566 221.322C224.791 221.322 223.353 222.761 223.353 224.536C223.353 226.311 224.791 227.75 226.566 227.75Z" fill="#F0B00B"/>
<path d="M300.081 244.628C300.081 246.636 298.474 247.841 296.867 247.841C294.858 247.841 293.653 246.235 293.653 244.628C293.653 242.619 295.26 241.414 296.867 241.414C298.876 241.414 300.081 243.021 300.081 244.628Z" fill="#F0B00B"/>
<path d="M118.506 287.209C118.506 289.218 116.899 290.423 115.292 290.423C113.283 290.423 112.078 288.816 112.078 287.209C112.078 285.201 113.685 283.996 115.292 283.996C117.3 283.594 118.506 285.201 118.506 287.209Z" fill="#F0B00B"/>
</g>
</svg>
