<svg width="331" height="127" fill="none" xmlns="http://www.w3.org/2000/svg"><path opacity=".2" stroke="#fff" d="M1 102.5h329"/><path opacity=".1" stroke="#fff" stroke-width=".5" stroke-dasharray="4 4" d="M1 71.75h329M1 40.75h329M1 9.75h329"/><path d="m7.404 111.99 2.022-.392h1.306V120H9.174v-7.154l-1.664.363-.106-1.219Zm8.654 8.098c-1.136 0-2.033-.387-2.69-1.16-.655-.774-.984-1.817-.984-3.129 0-1.313.329-2.356.985-3.129.656-.774 1.553-1.16 2.69-1.16 1.128 0 2.025.386 2.689 1.16.66.769.99 1.812.99 3.129 0 1.316-.33 2.359-.99 3.129-.664.773-1.56 1.16-2.69 1.16Zm0-1.43c.7 0 1.233-.26 1.6-.779.367-.512.55-1.205.55-2.08 0-.879-.179-1.574-.538-2.086-.364-.512-.899-.768-1.606-.768-.71 0-1.246.256-1.605.768-.364.508-.545 1.203-.545 2.086 0 .875.181 1.57.545 2.086.36.515.892.773 1.6.773ZM58.404 111.99l2.022-.392h1.306V120h-1.558v-7.154l-1.664.363-.106-1.219Zm4.857 0 2.022-.392h1.307V120H65.03v-7.154l-1.664.363-.105-1.219ZM101.404 111.99l2.022-.392h1.306V120h-1.558v-7.154l-1.664.363-.106-1.219Zm7.342 6.762h4.078V120h-6v-1.242h-.006l.006-.006a92.714 92.714 0 0 0 2.092-1.693c1.125-.969 1.832-1.774 2.121-2.414.113-.266.168-.506.164-.721 0-.363-.129-.654-.387-.873-.262-.219-.607-.328-1.037-.328-.734 0-1.211.361-1.43 1.084l-1.552-.123c.105-.707.425-1.248.961-1.623.535-.372 1.209-.557 2.021-.557 1.215 0 2.078.332 2.59.996.266.348.398.771.398 1.271 0 .489-.146 1-.439 1.536a4.38 4.38 0 0 1-.522.732c-.246.285-.449.51-.609.674-.172.18-.416.402-.732.668-.336.285-.582.488-.739.609a32.202 32.202 0 0 0-.978.762ZM206.046 111.99l2.022-.392h1.306V120h-1.558v-7.154l-1.665.363-.105-1.219Zm11.045 4.91h1.394v1.248h-1.394V120h-1.559v-1.852h-4.148l1.382-6.55h1.559l-1.213 5.302h2.426v-3.879h1.553v3.879ZM256.509 111.99l2.021-.392h1.307V120h-1.559v-7.154l-1.664.363-.105-1.219Zm11.261-.398v1.248h-4.013l-.141 1.846a4.077 4.077 0 0 1 1.066-.282 4.366 4.366 0 0 1 1.19-.011c.715.093 1.291.4 1.728.919.442.524.663 1.122.663 1.793 0 .86-.315 1.571-.944 2.133-.633.563-1.428.844-2.385.844-.96 0-1.753-.281-2.378-.844-.633-.554-.95-1.265-.95-2.133h1.559c0 .543.172.987.516 1.331.339.351.757.527 1.253.527.493 0 .911-.176 1.254-.527.344-.344.516-.788.516-1.331 0-.48-.168-.867-.504-1.16-.344-.289-.766-.445-1.266-.468a2.38 2.38 0 0 0-1.388.369h-1.576l.298-4.254h5.502ZM305.509 111.99l2.021-.392h1.307V120h-1.559v-7.154l-1.664.363-.105-1.219Zm8.156-.392h1.682l-1.881 2.836c.359-.129.828-.161 1.406-.094.715.086 1.293.39 1.734.914.438.519.657 1.137.657 1.851 0 .86-.315 1.569-.944 2.127-.633.563-1.428.844-2.385.844-.96 0-1.755-.279-2.384-.838-.629-.558-.944-1.269-.944-2.133 0-.578.2-1.173.598-1.787l2.461-3.72Zm.269 7.365c.493 0 .911-.176 1.254-.527.344-.344.516-.788.516-1.331 0-.453-.174-.847-.522-1.183a1.753 1.753 0 0 0-1.248-.492c-.488 0-.904.166-1.248.498-.347.336-.521.728-.521 1.177 0 .543.172.987.516 1.331.339.351.757.527 1.253.527ZM156.691 111.99l2.021-.392h1.307V120h-1.559v-7.154l-1.664.363-.105-1.219Zm11.132.85-2.349 2.326c.789.141 1.419.428 1.892.861.473.438.709.987.709 1.647 0 .504-.141.941-.422 1.312a2.537 2.537 0 0 1-1.131.838c-.468.188-1 .281-1.593.281-.606 0-1.141-.087-1.606-.263a2.5 2.5 0 0 1-1.119-.826c-.277-.371-.416-.817-.416-1.336l1.559-.1c0 .414.148.734.445.961.301.23.68.346 1.137.346.464 0 .845-.125 1.142-.375.293-.25.44-.582.44-.996 0-.496-.205-.885-.616-1.166-.414-.278-.976-.397-1.687-.358l-.51-.885 2.408-2.267h-4.242v-1.248h5.959v1.248Z" fill="#fff"/><path opacity=".2" d="M2 21.775 51.934 2l101.827 47.155 96.932-8.366 28.394-28.902L330 56" stroke="#fff" stroke-width="2"/><path d="M1 61.178 99.896 83 141.02 7l82.25 15.05 78.333 51.92L330 22.05" stroke="#F0B00B" stroke-width="2"/></svg>