<svg width="331" height="126" fill="none" xmlns="http://www.w3.org/2000/svg"><g filter="url(#a)"><path d="M306.07 63.78c4.87 0 5.13-4.5 5.13-5.38" stroke="#F0B00B" stroke-width="2" stroke-miterlimit="10" stroke-linecap="round" stroke-linejoin="round"/><path d="M266.81 62.92a3.45 3.45 0 0 0 1.53-2.1c.22-1 .56-1.96 1-2.87.44-.92.45-1.98.05-2.91l-3.19-7.44c3.78 0 6.6.95 8.6 2.06.98.54 2.15.56 3.16.08a23.13 23.13 0 0 1 9.84-2.14c10.94 0 19.8 7.25 19.8 16.2 0 3.58-1.44 6.88-3.84 9.56l-4.03 9.41a4.19 4.19 0 0 1-3.57 2.62 3.97 3.97 0 0 1-4.11-4.53l.02-.12a.86.86 0 0 0-.98-.98 23.47 23.47 0 0 1-6.58 0c-.6-.08-1.05.42-.97 1a4.04 4.04 0 0 1-2.34 4.32 3.99 3.99 0 0 1-5.23-2.09l-2.33-5.44a3.6 3.6 0 0 0-2.5-2.1l-3.84-.88-2-10.68 1.51-.97Z" fill="#F0B00B"/><path d="M264.65 69.43c.55 2.98 1.87 5.3 2.93 5.17 1.06-.13 1.48-2.65.92-5.63-.55-2.98-1.87-5.3-2.93-5.16-1.07.12-1.48 2.64-.92 5.62ZM287.8 44c-1.84 0-3.63.2-5.35.54 0-.18-.05-.35-.05-.54a7.2 7.2 0 1 1 14.25 1.48A26.95 26.95 0 0 0 287.8 44Z" fill="#F0B00B"/></g><rect width="175" height="34" rx="6" fill="#fff" fill-opacity=".1"/><path d="M0 5a5 5 0 0 1 5-5v34a5 5 0 0 1-5-5V5Z" fill="#F0B00B"/><path d="M119.43 21v-1.26l3.42-3.49c.83-.83 1.25-1.55 1.25-2.15 0-.48-.15-.85-.44-1.1-.28-.28-.64-.41-1.08-.41-.82 0-1.42.4-1.82 1.21l-1.35-.8a3.33 3.33 0 0 1 3.16-1.98c.86 0 1.6.27 2.21.81.62.54.93 1.28.93 2.21 0 1-.56 2.06-1.67 3.2l-2.21 2.2h4.06V21h-6.46Zm9.51-.14c-.2.2-.45.3-.74.3s-.53-.1-.74-.3c-.2-.2-.3-.45-.3-.74a1.04 1.04 0 0 1 1.04-1.05c.3 0 .54.1.74.3.2.21.31.46.31.75s-.1.53-.3.74Zm5.72-5.66c.7.17 1.28.5 1.72 1 .44.48.67 1.1.67 1.83 0 .98-.33 1.75-1 2.31-.66.56-1.47.84-2.43.84-.75 0-1.42-.17-2.02-.52a2.95 2.95 0 0 1-1.27-1.5l1.37-.8c.29.83.93 1.25 1.92 1.25.56 0 1-.14 1.33-.42.33-.29.49-.67.49-1.16 0-.48-.16-.87-.5-1.15a1.98 1.98 0 0 0-1.32-.42h-.37l-.64-.96 2.11-2.79h-4.1V11.2h6.02v1.37l-1.98 2.63Zm10.9 2.54v1.5h-1.12V21h-1.63v-1.76H138v-1.5l3.37-6.54h1.75l-3.37 6.54h3.06v-2.55h1.63v2.55h1.12Zm4.09-2.84c.93 0 1.72.28 2.36.84.65.55.97 1.31.97 2.3 0 .97-.33 1.74-1 2.3-.66.56-1.47.84-2.43.84-.78 0-1.46-.18-2.06-.53a3 3 0 0 1-1.27-1.57l1.38-.8c.26.9.91 1.33 1.95 1.33.55 0 .99-.14 1.31-.42.34-.29.5-.67.5-1.16 0-.48-.15-.87-.48-1.15a1.93 1.93 0 0 0-1.3-.42h-2.86l.38-5.26h5.46v1.51h-3.98l-.17 2.19h1.24Zm11.04 3.41c0 .8-.25 1.44-.77 1.95-.5.5-1.16.8-1.99.9v1.24h-.9v-1.23a3.89 3.89 0 0 1-2-.63 3.12 3.12 0 0 1-1.18-1.53l1.38-.8c.33.83.93 1.28 1.8 1.38v-2.92a5.52 5.52 0 0 1-1.86-.95 2.2 2.2 0 0 1-.67-.81c-.14-.33-.2-.7-.2-1.13 0-.79.25-1.42.78-1.9a3.23 3.23 0 0 1 1.94-.85V9.8h.91v1.25a3.1 3.1 0 0 1 2.6 1.91l-1.35.79c-.24-.6-.66-.98-1.25-1.1v2.76a15.35 15.35 0 0 1 1.3.56 2.59 2.59 0 0 1 1.03.87c.16.19.27.4.33.66.07.24.1.51.1.81Zm-4.79-4.53c0 .29.09.52.26.71.17.19.46.37.86.56v-2.44c-.34.06-.62.2-.82.4-.2.2-.3.46-.3.77Zm2.03 5.8c.38-.08.66-.23.86-.46.2-.22.3-.49.3-.8a1 1 0 0 0-.29-.74c-.19-.2-.47-.38-.87-.56v2.55Z" fill="#fff"/><path opacity=".4" d="M20.55 15.92a2.54 2.54 0 0 1 1.57 2.35c0 .76-.27 1.4-.8 1.93s-1.17.8-1.93.8h-4.27v-9.8h3.95c.73 0 1.35.26 1.86.78s.77 1.13.77 1.85a2.3 2.3 0 0 1-1.15 2.09Zm-1.48-3.8H16.1v3.42h2.97c.46 0 .84-.16 1.16-.49.33-.34.49-.74.49-1.22 0-.46-.16-.87-.49-1.2-.32-.34-.7-.5-1.16-.5Zm.32 7.96c.49 0 .9-.18 1.23-.52.35-.36.52-.79.52-1.29s-.17-.92-.52-1.27a1.63 1.63 0 0 0-1.23-.54H16.1v3.62h3.29ZM29.69 14h.92v7h-.93v-1.37a3.13 3.13 0 0 1-2.83 1.54c-1 0-1.85-.36-2.56-1.07a3.57 3.57 0 0 1-1.05-2.6c0-1.03.35-1.9 1.05-2.6a3.5 3.5 0 0 1 2.56-1.07c1.24 0 2.19.52 2.83 1.54V14Zm-4.73 5.47c.54.54 1.19.8 1.96.8.78 0 1.43-.26 1.96-.8.54-.54.8-1.2.8-1.97s-.26-1.43-.8-1.96a2.64 2.64 0 0 0-1.96-.81c-.77 0-1.42.27-1.96.81-.53.53-.8 1.19-.8 1.96s.27 1.43.8 1.97Zm7.6 1.53V10.78h.93V21h-.93Zm2.89 0V10.78h.92V21h-.92Zm8.9-7h.93v7h-.93v-1.37a3.13 3.13 0 0 1-2.83 1.54c-1 0-1.85-.36-2.56-1.07a3.57 3.57 0 0 1-1.05-2.6c0-1.03.35-1.9 1.05-2.6a3.5 3.5 0 0 1 2.56-1.07c1.24 0 2.19.52 2.83 1.54V14Zm-4.72 5.47c.54.54 1.19.8 1.96.8.78 0 1.43-.26 1.96-.8.54-.54.8-1.2.8-1.97s-.26-1.43-.8-1.96a2.64 2.64 0 0 0-1.96-.81c-.77 0-1.42.27-1.96.81-.53.53-.8 1.19-.8 1.96s.27 1.43.8 1.97Zm10.88-5.64c.85 0 1.51.26 2 .79.5.5.74 1.2.74 2.08V21h-.92v-4.3a2 2 0 0 0-.5-1.45c-.33-.35-.8-.52-1.4-.52-.68 0-1.22.21-1.64.64-.42.42-.63 1.08-.63 1.96V21h-.93v-7h.93v1.1a2.59 2.59 0 0 1 2.35-1.27Zm7.8 7.34a3.57 3.57 0 0 1-3.7-3.67c0-1.04.36-1.9 1.06-2.6.7-.71 1.58-1.07 2.63-1.07.7 0 1.31.17 1.86.5.55.33.95.78 1.2 1.34l-.75.43a2.13 2.13 0 0 0-.9-1 2.62 2.62 0 0 0-1.4-.37c-.78 0-1.44.27-1.97.81-.53.53-.8 1.19-.8 1.96a2.71 2.71 0 0 0 2.76 2.77c.52 0 .99-.12 1.4-.36.41-.25.73-.59.97-1.01l.77.45c-.3.56-.72 1-1.28 1.33-.56.32-1.18.49-1.86.49Zm7.62-7.34c1.03 0 1.87.37 2.5 1.1a3.78 3.78 0 0 1 .94 3.03h-6.14c.09.71.39 1.28.9 1.7.5.4 1.14.61 1.88.61.53 0 1-.1 1.37-.32.4-.22.7-.51.89-.87l.8.48c-.3.5-.72.88-1.25 1.17-.53.3-1.14.44-1.82.44-1.1 0-2-.35-2.69-1.04a3.57 3.57 0 0 1-1.04-2.63 3.6 3.6 0 0 1 1.03-2.62 3.51 3.51 0 0 1 2.63-1.05Zm0 .9a2.63 2.63 0 0 0-2.7 2.34h5.22a2.61 2.61 0 0 0-.86-1.73 2.47 2.47 0 0 0-1.66-.61Zm10.26-3.53h.84V21h-.98v-8.72l-2.2.66-.25-.84 2.6-.9Zm4.11 3.98a.74.74 0 0 1-.54.22.74.74 0 0 1-.55-.22.74.74 0 0 1-.22-.55c0-.21.07-.4.22-.55a.74.74 0 0 1 .55-.22c.21 0 .4.07.54.22.15.15.23.34.23.55 0 .21-.08.4-.23.55Zm0 5.74a.74.74 0 0 1-.54.22.74.74 0 0 1-.55-.22.74.74 0 0 1-.22-.55c0-.21.07-.4.22-.55a.74.74 0 0 1 .55-.22c.21 0 .4.07.54.22.15.15.23.34.23.55 0 .21-.08.4-.23.55Z" fill="#fff"/><circle cx="174.5" cy="16.5" r="3.5" fill="#F0B00B"/><rect y="46" width="175" height="34" rx="6" fill="#fff" fill-opacity=".1"/><path d="M0 51a5 5 0 0 1 5-5v34a5 5 0 0 1-5-5V51Z" fill="#285CFF"/><path d="M135.85 60.9c.93 0 1.72.28 2.37.84.64.55.96 1.31.96 2.3 0 .97-.33 1.74-1 2.3-.66.56-1.47.84-2.43.84-.77 0-1.46-.18-2.06-.53a3 3 0 0 1-1.27-1.57l1.39-.8c.26.9.9 1.33 1.94 1.33.55 0 1-.14 1.32-.42.33-.29.5-.67.5-1.16 0-.48-.16-.87-.49-1.15a1.93 1.93 0 0 0-1.3-.42h-2.86l.38-5.26h5.46v1.51h-3.97l-.17 2.19h1.23Zm7.6-.41c1.02 0 1.85.31 2.5.94.64.61.96 1.42.96 2.4 0 1-.32 1.8-.97 2.43-.64.61-1.47.92-2.49.92-1.03 0-1.86-.3-2.5-.92a3.23 3.23 0 0 1-.97-2.42c0-.75.2-1.4.59-1.98l3.1-4.66h1.84l-2.24 3.29h.18Zm0 5.17c.54 0 .99-.17 1.33-.5.35-.33.52-.77.52-1.32s-.17-1-.52-1.32c-.34-.34-.79-.5-1.33-.5-.55 0-1 .16-1.34.5-.35.33-.52.77-.52 1.32s.17.99.52 1.33c.34.32.79.49 1.34.49Zm3.6-8.46h6.22v1.4l-3.44 8.4h-1.7l3.4-8.26h-4.49V57.2Zm13.78 7.11c0 .8-.26 1.44-.77 1.95-.5.5-1.17.8-2 .9v1.24h-.9v-1.23a3.89 3.89 0 0 1-1.99-.63 3.12 3.12 0 0 1-1.19-1.53l1.39-.8c.32.83.92 1.28 1.79 1.38v-2.92a5.52 5.52 0 0 1-1.86-.95 2.2 2.2 0 0 1-.66-.81c-.14-.33-.21-.7-.21-1.13 0-.79.26-1.42.78-1.9a3.23 3.23 0 0 1 1.95-.85V55.8h.9v1.25a3.1 3.1 0 0 1 2.61 1.91l-1.35.79c-.25-.6-.66-.98-1.25-1.1v2.76a15.35 15.35 0 0 1 1.29.56 2.59 2.59 0 0 1 1.03.87c.16.19.27.4.34.66.06.24.1.51.1.81Zm-4.8-4.53c0 .29.1.52.26.71.18.19.47.37.87.56v-2.44c-.35.06-.62.2-.83.4-.2.2-.3.46-.3.77Zm2.04 5.8c.37-.08.66-.23.85-.46.2-.22.3-.49.3-.8a1 1 0 0 0-.28-.74c-.19-.2-.48-.38-.87-.56v2.55Z" fill="#fff"/><path opacity=".4" d="M20.55 61.92a2.54 2.54 0 0 1 1.57 2.35c0 .76-.27 1.4-.8 1.93s-1.17.8-1.93.8h-4.27v-9.8h3.95c.73 0 1.35.26 1.86.78s.77 1.13.77 1.85a2.3 2.3 0 0 1-1.15 2.09Zm-1.48-3.8H16.1v3.42h2.97c.46 0 .84-.16 1.16-.49.33-.34.49-.74.49-1.22 0-.46-.16-.87-.49-1.2-.32-.34-.7-.5-1.16-.5Zm.32 7.96c.49 0 .9-.18 1.23-.52.35-.36.52-.79.52-1.29s-.17-.92-.52-1.27a1.63 1.63 0 0 0-1.23-.54H16.1v3.62h3.29ZM29.69 60h.92v7h-.93v-1.37a3.13 3.13 0 0 1-2.83 1.54c-1 0-1.85-.36-2.56-1.07a3.57 3.57 0 0 1-1.05-2.6c0-1.03.35-1.9 1.05-2.6a3.5 3.5 0 0 1 2.56-1.07c1.24 0 2.19.52 2.83 1.54V60Zm-4.73 5.47c.54.54 1.19.8 1.96.8.78 0 1.43-.26 1.96-.8.54-.54.8-1.2.8-1.97s-.26-1.43-.8-1.96a2.64 2.64 0 0 0-1.96-.81c-.77 0-1.42.27-1.96.81-.53.53-.8 1.19-.8 1.96s.27 1.43.8 1.97Zm7.6 1.53V56.78h.93V67h-.93Zm2.89 0V56.78h.92V67h-.92Zm8.9-7h.93v7h-.93v-1.37a3.13 3.13 0 0 1-2.83 1.54c-1 0-1.85-.36-2.56-1.07a3.57 3.57 0 0 1-1.05-2.6c0-1.03.35-1.9 1.05-2.6a3.5 3.5 0 0 1 2.56-1.07c1.24 0 2.19.52 2.83 1.54V60Zm-4.72 5.47c.54.54 1.19.8 1.96.8.78 0 1.43-.26 1.96-.8.54-.54.8-1.2.8-1.97s-.26-1.43-.8-1.96a2.64 2.64 0 0 0-1.96-.81c-.77 0-1.42.27-1.96.81-.53.53-.8 1.19-.8 1.96s.27 1.43.8 1.97Zm10.88-5.64c.85 0 1.51.26 2 .79.5.5.74 1.2.74 2.08V67h-.92v-4.3a2 2 0 0 0-.5-1.45c-.33-.35-.8-.52-1.4-.52-.68 0-1.22.21-1.64.64-.42.42-.63 1.08-.63 1.96V67h-.93v-7h.93v1.1a2.59 2.59 0 0 1 2.35-1.27Zm7.8 7.34a3.57 3.57 0 0 1-3.7-3.67c0-1.04.36-1.9 1.06-2.6.7-.71 1.58-1.07 2.63-1.07.7 0 1.31.17 1.86.5.55.33.95.78 1.2 1.34l-.75.43a2.13 2.13 0 0 0-.9-1 2.62 2.62 0 0 0-1.4-.37c-.78 0-1.44.27-1.97.81-.53.53-.8 1.19-.8 1.96a2.71 2.71 0 0 0 2.76 2.77c.52 0 .99-.12 1.4-.36.41-.25.73-.59.97-1.01l.77.45c-.3.56-.72 1-1.28 1.33-.56.32-1.18.49-1.86.49Zm7.62-7.34c1.03 0 1.87.37 2.5 1.1a3.78 3.78 0 0 1 .94 3.03h-6.14c.09.71.39 1.28.9 1.7.5.4 1.14.61 1.88.61.53 0 1-.1 1.37-.32.4-.22.7-.51.89-.87l.8.48c-.3.5-.72.88-1.25 1.17-.53.3-1.14.44-1.82.44-1.1 0-2-.35-2.69-1.04a3.57 3.57 0 0 1-1.04-2.63 3.6 3.6 0 0 1 1.03-2.62 3.51 3.51 0 0 1 2.63-1.05Zm0 .9a2.63 2.63 0 0 0-2.7 2.34h5.22a2.61 2.61 0 0 0-.86-1.73 2.47 2.47 0 0 0-1.66-.61ZM73.95 67v-.88l3.53-3.56c1-1 1.51-1.87 1.51-2.59 0-.62-.2-1.1-.59-1.45a1.97 1.97 0 0 0-1.38-.54c-1.01 0-1.74.47-2.2 1.39l-.83-.49c.31-.6.73-1.06 1.26-1.37a3.38 3.38 0 0 1 1.77-.48c.78 0 1.47.27 2.05.8.6.52.9 1.24.9 2.14 0 .57-.16 1.12-.48 1.64a9.01 9.01 0 0 1-1.34 1.65l-2.8 2.79h4.83V67h-6.23Zm8.95-5.82a.74.74 0 0 1-.54.22.74.74 0 0 1-.55-.22.74.74 0 0 1-.22-.55c0-.21.07-.4.22-.55a.74.74 0 0 1 .55-.22c.21 0 .4.07.54.22.15.15.23.34.23.55 0 .21-.08.4-.23.55Zm0 5.74a.74.74 0 0 1-.54.22.74.74 0 0 1-.55-.22.74.74 0 0 1-.22-.55c0-.21.07-.4.22-.55a.74.74 0 0 1 .55-.22c.21 0 .4.07.54.22.15.15.23.34.23.55 0 .21-.08.4-.23.55Z" fill="#fff"/><circle cx="174.5" cy="63.5" r="3.5" fill="#285CFF"/><rect y="92" width="175" height="34" rx="6" fill="#fff" fill-opacity=".1"/><path d="M0 97a5 5 0 0 1 5-5v34a5 5 0 0 1-5-5V97Z" fill="#BB34B5"/><path d="M121.98 106.9c.93 0 1.72.28 2.36.84.65.55.97 1.31.97 2.3 0 .97-.33 1.74-1 2.3-.66.56-1.47.84-2.43.84-.78 0-1.46-.18-2.06-.53a3 3 0 0 1-1.27-1.57l1.38-.8c.26.9.91 1.33 1.95 1.33.55 0 .99-.14 1.31-.42.34-.28.5-.67.5-1.16 0-.48-.15-.87-.48-1.15a1.93 1.93 0 0 0-1.3-.42h-2.86l.38-5.26h5.46v1.51h-3.98l-.16 2.19h1.23Zm6.04 5.96c-.2.2-.46.3-.75.3-.28 0-.53-.1-.74-.3-.2-.2-.3-.45-.3-.74a1.04 1.04 0 0 1 1.04-1.05c.3 0 .54.1.75.3.2.21.3.46.3.75a1 1 0 0 1-.3.74Zm4.85-6.37c1.02 0 1.85.31 2.5.94.64.61.96 1.42.96 2.4 0 1-.32 1.8-.97 2.43-.64.61-1.47.92-2.49.92-1.02 0-1.86-.3-2.5-.92a3.23 3.23 0 0 1-.97-2.42c0-.75.2-1.4.59-1.98l3.1-4.66h1.84l-2.24 3.29h.18Zm0 5.17c.54 0 .99-.17 1.33-.5.35-.33.52-.77.52-1.32 0-.56-.17-1-.52-1.32-.34-.34-.79-.5-1.33-.5-.55 0-1 .16-1.34.5-.35.33-.52.77-.52 1.32s.17.99.52 1.33c.34.32.8.49 1.34.49Zm11.05.14a3.3 3.3 0 0 1-2.83 1.38 3.33 3.33 0 0 1-2.84-1.38c-.67-.93-1.01-2.16-1.01-3.7s.34-2.77 1-3.7a3.33 3.33 0 0 1 2.85-1.38 3.3 3.3 0 0 1 2.83 1.38 6.1 6.1 0 0 1 1.02 3.7 6.1 6.1 0 0 1-1.02 3.7Zm-2.83-.19c.73 0 1.28-.3 1.67-.9.38-.61.57-1.48.57-2.61s-.2-2-.57-2.6c-.39-.61-.94-.91-1.67-.91-.72 0-1.27.3-1.67.9a4.9 4.9 0 0 0-.57 2.61c0 1.13.2 2 .57 2.6.4.61.95.91 1.67.91Zm11.65.19a3.3 3.3 0 0 1-2.83 1.38 3.33 3.33 0 0 1-2.84-1.38c-.68-.93-1.01-2.16-1.01-3.7s.33-2.77 1-3.7a3.33 3.33 0 0 1 2.85-1.38 3.3 3.3 0 0 1 2.83 1.38 6.1 6.1 0 0 1 1.02 3.7 6.1 6.1 0 0 1-1.02 3.7Zm-2.83-.19c.73 0 1.28-.3 1.66-.9.39-.61.58-1.48.58-2.61s-.2-2-.58-2.6c-.38-.61-.93-.91-1.66-.91-.72 0-1.28.3-1.67.9a4.9 4.9 0 0 0-.57 2.61c0 1.13.19 2 .57 2.6.4.61.95.91 1.67.91Zm11.67-1.3c0 .8-.25 1.44-.77 1.95-.5.5-1.16.8-1.99.9v1.24h-.9v-1.23a3.9 3.9 0 0 1-2-.63 3.13 3.13 0 0 1-1.18-1.53l1.38-.8c.33.83.93 1.28 1.8 1.38v-2.92a5.65 5.65 0 0 1-1.86-.95c-.3-.22-.52-.5-.67-.81-.14-.33-.2-.7-.2-1.13 0-.79.26-1.42.78-1.9a3.23 3.23 0 0 1 1.94-.85v-1.23h.91v1.25a3.1 3.1 0 0 1 2.6 1.91l-1.35.79c-.24-.6-.66-.98-1.25-1.1v2.76a14.73 14.73 0 0 1 1.3.56 2.57 2.57 0 0 1 1.03.87c.16.19.27.4.33.66.07.24.1.51.1.81Zm-4.79-4.53c0 .28.09.52.26.71.17.19.46.37.86.56v-2.44c-.34.06-.62.2-.82.4-.2.2-.3.46-.3.77Zm2.03 5.8c.38-.08.66-.23.86-.46.2-.22.3-.49.3-.8a1 1 0 0 0-.29-.74c-.18-.2-.47-.38-.87-.56v2.55Z" fill="#fff"/><path opacity=".4" d="M20.55 107.92a2.54 2.54 0 0 1 1.57 2.35c0 .76-.27 1.4-.8 1.93s-1.17.8-1.93.8h-4.27v-9.8h3.95c.73 0 1.35.26 1.86.78s.77 1.13.77 1.85a2.3 2.3 0 0 1-1.15 2.09Zm-1.48-3.8H16.1v3.42h2.97c.46 0 .84-.16 1.16-.49.33-.34.49-.74.49-1.22 0-.47-.16-.87-.49-1.2-.32-.34-.7-.5-1.16-.5Zm.32 7.96a1.78 1.78 0 0 0 1.75-1.8c0-.5-.17-.93-.52-1.28a1.63 1.63 0 0 0-1.23-.54H16.1v3.62h3.29Zm10.3-6.08h.92v7h-.93v-1.37a3.13 3.13 0 0 1-2.83 1.54c-1 0-1.85-.36-2.56-1.07a3.56 3.56 0 0 1-1.05-2.6c0-1.03.35-1.9 1.05-2.6a3.5 3.5 0 0 1 2.56-1.07c1.24 0 2.19.52 2.83 1.54V106Zm-4.73 5.47c.54.54 1.19.8 1.96.8.78 0 1.43-.26 1.96-.8.54-.54.8-1.2.8-1.97 0-.78-.26-1.43-.8-1.96a2.64 2.64 0 0 0-1.96-.81c-.77 0-1.42.27-1.96.81-.53.53-.8 1.18-.8 1.96s.27 1.43.8 1.97Zm7.6 1.53v-10.22h.93V113h-.93Zm2.89 0v-10.22h.92V113h-.92Zm8.9-7h.93v7h-.93v-1.37a3.13 3.13 0 0 1-2.83 1.54c-1 0-1.85-.36-2.56-1.07a3.56 3.56 0 0 1-1.05-2.6c0-1.03.35-1.9 1.05-2.6a3.5 3.5 0 0 1 2.56-1.07c1.24 0 2.19.52 2.83 1.54V106Zm-4.72 5.47c.54.54 1.19.8 1.96.8.78 0 1.43-.26 1.96-.8.54-.54.8-1.2.8-1.97 0-.78-.26-1.43-.8-1.96a2.64 2.64 0 0 0-1.96-.81c-.77 0-1.42.27-1.96.81-.53.53-.8 1.18-.8 1.96s.27 1.43.8 1.97Zm10.88-5.64c.85 0 1.51.26 2 .79.5.5.74 1.2.74 2.08v4.3h-.92v-4.3a2 2 0 0 0-.5-1.45c-.33-.35-.8-.52-1.4-.52a2.2 2.2 0 0 0-1.64.64c-.42.42-.63 1.07-.63 1.96V113h-.93v-7h.93v1.1a2.59 2.59 0 0 1 2.35-1.27Zm7.8 7.34a3.57 3.57 0 0 1-3.7-3.67c0-1.04.36-1.9 1.06-2.6.7-.71 1.58-1.07 2.63-1.07.7 0 1.31.17 1.86.5.55.33.95.78 1.2 1.34l-.75.43a2.13 2.13 0 0 0-.9-1 2.62 2.62 0 0 0-1.4-.37c-.78 0-1.44.27-1.97.81-.53.53-.8 1.18-.8 1.96a2.71 2.71 0 0 0 2.76 2.77c.52 0 .99-.12 1.4-.36.41-.25.73-.59.97-1.01l.77.45c-.3.56-.72 1-1.28 1.33-.56.32-1.18.49-1.86.49Zm7.62-7.34c1.03 0 1.87.37 2.5 1.1a3.78 3.78 0 0 1 .94 3.03h-6.14c.09.71.39 1.28.9 1.7.5.4 1.14.61 1.88.61.53 0 1-.1 1.37-.32.4-.22.7-.51.89-.87l.8.48c-.3.5-.72.88-1.25 1.17-.53.3-1.14.44-1.82.44-1.1 0-2-.35-2.69-1.04a3.57 3.57 0 0 1-1.04-2.63 3.6 3.6 0 0 1 1.03-2.62 3.51 3.51 0 0 1 2.63-1.05Zm0 .9a2.63 2.63 0 0 0-2.7 2.34h5.22a2.61 2.61 0 0 0-.86-1.73 2.47 2.47 0 0 0-1.66-.61Zm11.62.54c.78.1 1.43.41 1.93.91.51.5.77 1.16.77 1.98 0 .93-.32 1.67-.97 2.21-.63.53-1.4.8-2.32.8-.73 0-1.38-.17-1.95-.5a2.74 2.74 0 0 1-1.2-1.45l.81-.47c.16.48.45.85.86 1.1.4.25.9.37 1.48.37a2.5 2.5 0 0 0 1.65-.54c.44-.36.66-.87.66-1.52 0-.66-.22-1.16-.66-1.51a2.47 2.47 0 0 0-1.65-.55v-.01l-.01.01h-.27l-.42-.64 2.44-3.34h-4.6v-.92h5.73v.92l-2.28 3.15Zm5.28-.1a.74.74 0 0 1-.54.23.74.74 0 0 1-.55-.22.74.74 0 0 1-.22-.55c0-.21.07-.4.22-.55a.74.74 0 0 1 .55-.22c.21 0 .4.08.54.22.15.15.23.34.23.55 0 .22-.08.4-.23.55Zm0 5.75a.74.74 0 0 1-.54.22.74.74 0 0 1-.55-.22.74.74 0 0 1-.22-.55c0-.22.07-.4.22-.55a.74.74 0 0 1 .55-.22c.21 0 .4.08.54.22.15.15.23.34.23.55 0 .21-.08.4-.23.55Z" fill="#fff"/><path stroke="#285CFF" d="M177 63.5h75"/><path d="M177 16.32c8.86-1.26 27.34.58 30.43 18.06 3.86 21.84 6.86 29.96 44.57 29.12" stroke="#F0B00B"/><path d="M177 108.7c8.86 1.2 27.34-.56 30.43-17.09 3.86-20.66 6.86-28.35 44.57-27.55" stroke="#BB34B5"/><circle cx="174.5" cy="108.5" r="3.5" fill="#BB34B5"/><circle cx="253.5" cy="63.5" r="3.5" fill="#F0B00B"/><defs><filter id="a" x="241" y="17" width="90" height="90" filterUnits="userSpaceOnUse" color-interpolation-filters="sRGB"><feFlood flood-opacity="0" result="BackgroundImageFix"/><feColorMatrix in="SourceAlpha" values="0 0 0 0 0 0 0 0 0 0 0 0 0 0 0 0 0 0 127 0" result="hardAlpha"/><feOffset/><feGaussianBlur stdDeviation="9"/><feComposite in2="hardAlpha" operator="out"/><feColorMatrix values="0 0 0 0 0.941176 0 0 0 0 0.690196 0 0 0 0 0.0431373 0 0 0 0.8 0"/><feBlend in2="BackgroundImageFix" result="effect1_dropShadow_66_244"/><feBlend in="SourceGraphic" in2="effect1_dropShadow_66_244" result="shape"/></filter></defs></svg>