<svg width="331" height="127" fill="none" xmlns="http://www.w3.org/2000/svg"><path opacity=".2" stroke="#fff" d="M1 102.5h329"/><path opacity=".1" stroke="#fff" stroke-width=".5" stroke-dasharray="4 4" d="M1 71.75h329M1 40.75h329M1 9.75h329"/><path d="m58.4 111.99 2.03-.4h1.3V120h-1.56v-7.15l-1.66.36-.1-1.22Zm4.86 0 2.02-.4h1.31V120h-1.56v-7.15l-1.66.36-.1-1.22ZM101.4 111.99l2.03-.4h1.3V120h-1.56v-7.15l-1.66.36-.1-1.22Zm7.35 6.76h4.07V120h-6v-1.24c1.13-.9 1.83-1.47 2.1-1.7a8.17 8.17 0 0 0 2.12-2.42c.11-.26.16-.5.16-.72 0-.36-.13-.65-.39-.87-.26-.22-.6-.33-1.03-.33-.74 0-1.21.36-1.43 1.09l-1.55-.13c.1-.7.42-1.24.96-1.62.53-.37 1.2-.56 2.02-.56 1.21 0 2.08.34 2.59 1 .26.35.4.77.4 1.27 0 .49-.15 1-.44 1.54-.12.2-.3.45-.53.73l-.6.67a23.16 23.16 0 0 1-2.45 2.04ZM206.05 111.99l2.02-.4h1.3V120h-1.55v-7.15l-1.67.36-.1-1.22Zm11.04 4.91h1.4v1.25h-1.4V120h-1.56v-1.85h-4.15l1.39-6.55h1.55l-1.2 5.3h2.42v-3.88h1.55v3.88ZM256.5 111.99l2.03-.4h1.3V120h-1.55v-7.15l-1.67.36-.1-1.22Zm11.27-.4v1.25h-4.01l-.14 1.85a4.37 4.37 0 0 1 2.26-.3 2.7 2.7 0 0 1 2.4 2.71c-.02.86-.33 1.58-.96 2.14-.63.56-1.43.84-2.39.84-.96 0-1.75-.28-2.37-.84a2.7 2.7 0 0 1-.95-2.13h1.56c0 .54.17.98.51 1.33.34.35.76.52 1.25.52.5 0 .92-.17 1.26-.52.34-.35.51-.8.51-1.33 0-.48-.16-.87-.5-1.17a2.06 2.06 0 0 0-1.27-.46c-.51-.02-.97.1-1.38.37h-1.58l.3-4.26h5.5ZM305.5 111.99l2.03-.4h1.3V120h-1.55v-7.15l-1.67.36-.1-1.22Zm8.17-.4h1.68l-1.88 2.84c.35-.13.82-.16 1.4-.09.72.09 1.3.39 1.74.91.43.52.65 1.14.65 1.86 0 .86-.31 1.56-.94 2.12-.63.56-1.43.85-2.39.85-.96 0-1.75-.28-2.38-.84a2.73 2.73 0 0 1-.94-2.13c0-.58.2-1.18.6-1.8l2.46-3.71Zm.26 7.37c.5 0 .92-.17 1.26-.52.34-.35.51-.8.51-1.33 0-.46-.17-.85-.52-1.19-.35-.33-.76-.49-1.25-.49-.48 0-.9.17-1.24.5-.35.33-.52.73-.52 1.17 0 .55.17 1 .51 1.34.34.35.76.52 1.25.52ZM156.7 111.99l2.01-.4h1.3V120h-1.55v-7.15l-1.66.36-.1-1.22Zm11.12.85-2.35 2.33a3.7 3.7 0 0 1 1.9.86c.47.44.7.98.7 1.64 0 .5-.14.94-.42 1.32-.29.38-.66.66-1.13.83-.47.2-1 .29-1.6.29-.6 0-1.13-.1-1.6-.27a2.5 2.5 0 0 1-1.12-.82 2.17 2.17 0 0 1-.41-1.34l1.56-.1c0 .41.15.73.44.96.3.23.68.35 1.14.35.46 0 .84-.13 1.14-.38.3-.25.44-.58.44-1 0-.49-.2-.88-.61-1.16-.42-.28-.98-.4-1.7-.36l-.5-.88 2.4-2.27h-4.24v-1.25h5.96v1.25Z" fill="#fff"/><path opacity=".2" d="M2 21.77 51.93 2l101.83 47.15 96.93-8.36 28.4-28.9L330 56" stroke="#fff" stroke-width="2"/><path d="M1 61.18 99.9 83l41.12-76 82.25 15.05 78.33 51.92L330 22.05" stroke="#F0B00B" stroke-width="2"/></svg>