<svg width="331" height="126" viewBox="0 0 331 126" fill="none" xmlns="http://www.w3.org/2000/svg">
<g filter="url(#filter0_d_66_244)">
<path d="M306.07 63.7802C310.939 63.7802 311.2 59.273 311.2 58.4" stroke="#F0B00B" stroke-width="2" stroke-miterlimit="10" stroke-linecap="round" stroke-linejoin="round"/>
<path d="M266.814 62.9198C267.568 62.4338 268.14 61.6886 268.338 60.8138C268.563 59.822 268.904 58.8644 269.343 57.9464C269.78 57.0302 269.786 55.9682 269.386 55.0358L266.2 47.6C269.98 47.6 272.801 48.5522 274.806 49.6574C275.781 50.1956 276.955 50.2172 277.963 49.7438C280.859 48.3812 284.218 47.6 287.8 47.6C298.735 47.6 307.6 54.8522 307.6 63.8C307.6 67.3802 306.164 70.6778 303.761 73.358L299.725 82.7738C299.1 84.23 297.741 85.328 296.157 85.3946C293.654 85.5026 291.697 83.3156 292.048 80.864L292.066 80.738C292.147 80.1692 291.661 79.685 291.09 79.7642C290.021 79.9154 288.923 80 287.8 80C286.677 80 285.577 79.9154 284.508 79.7642C283.917 79.6814 283.458 80.1764 283.539 80.7668C283.782 82.5614 282.873 84.3992 281.196 85.0832C279.05 85.9598 276.8 84.9248 275.97 82.9898L273.638 77.5484C273.186 76.4936 272.257 75.7178 271.139 75.4586L267.296 74.5694L265.309 63.89L266.814 62.9198Z" fill="#F0B00B"/>
<path d="M264.647 69.4304C265.201 72.4094 266.515 74.7224 267.579 74.5964C268.643 74.4704 269.055 71.9504 268.5 68.9714C267.946 65.9924 266.632 63.6795 265.568 63.8055C264.504 63.9315 264.092 66.4496 264.647 69.4304Z" fill="#F0B00B"/>
<path d="M287.8 44C285.959 44 284.175 44.1998 282.454 44.5419C282.441 44.36 282.4 44.1854 282.4 44C282.4 40.0238 285.624 36.8 289.6 36.8C293.576 36.8 296.8 40.0238 296.8 44C296.8 44.5076 296.744 45.0008 296.645 45.4796C293.913 44.531 290.93 44 287.8 44Z" fill="#F0B00B"/>
</g>
<rect width="175" height="34" rx="6" fill="white" fill-opacity="0.1"/>
<path d="M0 5C0 2.23858 2.23858 0 5 0V34C2.23858 34 0 31.7614 0 29V5Z" fill="#F0B00B"/>
<path d="M119.434 21V19.74L122.85 16.254C123.681 15.4233 124.096 14.7047 124.096 14.098C124.096 13.622 123.951 13.2533 123.662 12.992C123.382 12.7213 123.023 12.586 122.584 12.586C121.763 12.586 121.156 12.992 120.764 13.804L119.406 13.006C119.714 12.3527 120.148 11.858 120.708 11.522C121.268 11.186 121.889 11.018 122.57 11.018C123.429 11.018 124.166 11.2887 124.782 11.83C125.398 12.3713 125.706 13.1087 125.706 14.042C125.706 15.0407 125.151 16.1047 124.04 17.234L121.828 19.446H125.888V21H119.434ZM128.944 20.86C128.739 21.0653 128.491 21.168 128.202 21.168C127.913 21.168 127.665 21.0653 127.46 20.86C127.255 20.6547 127.152 20.4073 127.152 20.118C127.152 19.8287 127.25 19.5813 127.446 19.376C127.651 19.1707 127.903 19.068 128.202 19.068C128.491 19.068 128.739 19.1707 128.944 19.376C129.149 19.5813 129.252 19.8287 129.252 20.118C129.252 20.4073 129.149 20.6547 128.944 20.86ZM134.655 15.204C135.364 15.372 135.938 15.7033 136.377 16.198C136.825 16.6833 137.049 17.2947 137.049 18.032C137.049 19.012 136.717 19.782 136.055 20.342C135.392 20.902 134.58 21.182 133.619 21.182C132.872 21.182 132.2 21.0093 131.603 20.664C131.015 20.3187 130.59 19.8147 130.329 19.152L131.701 18.354C131.99 19.194 132.629 19.614 133.619 19.614C134.179 19.614 134.622 19.474 134.949 19.194C135.275 18.9047 135.439 18.5173 135.439 18.032C135.439 17.5467 135.275 17.164 134.949 16.884C134.622 16.604 134.179 16.464 133.619 16.464H133.255L132.611 15.498L134.725 12.712H130.623V11.2H136.643V12.572L134.655 15.204ZM145.558 17.738V19.236H144.438V21H142.814V19.236H137.998V17.738L141.372 11.2H143.122L139.748 17.738H142.814V15.19H144.438V17.738H145.558ZM149.647 14.896C150.58 14.896 151.369 15.176 152.013 15.736C152.657 16.2867 152.979 17.052 152.979 18.032C152.979 19.012 152.648 19.782 151.985 20.342C151.322 20.902 150.51 21.182 149.549 21.182C148.774 21.182 148.088 21.0047 147.491 20.65C146.894 20.286 146.469 19.7633 146.217 19.082L147.603 18.284C147.864 19.1707 148.513 19.614 149.549 19.614C150.1 19.614 150.538 19.474 150.865 19.194C151.201 18.9047 151.369 18.5173 151.369 18.032C151.369 17.5467 151.206 17.164 150.879 16.884C150.552 16.604 150.118 16.464 149.577 16.464H146.721L147.099 11.2H152.559V12.712H148.583L148.415 14.896H149.647ZM160.692 18.312C160.692 19.1053 160.435 19.754 159.922 20.258C159.418 20.7527 158.755 21.0513 157.934 21.154V22.4H157.024V21.168C156.249 21.1213 155.586 20.9113 155.036 20.538C154.485 20.1647 154.088 19.656 153.846 19.012L155.232 18.214C155.558 19.0353 156.156 19.4927 157.024 19.586V16.674C156.604 16.5153 156.263 16.3753 156.002 16.254C155.74 16.1233 155.46 15.946 155.162 15.722C154.872 15.498 154.653 15.2273 154.504 14.91C154.364 14.5833 154.294 14.2053 154.294 13.776C154.294 12.992 154.555 12.3573 155.078 11.872C155.6 11.3867 156.249 11.1067 157.024 11.032V9.8H157.934V11.046C159.184 11.214 160.052 11.8533 160.538 12.964L159.18 13.748C158.937 13.1413 158.522 12.7727 157.934 12.642V15.414C158.232 15.526 158.456 15.6147 158.606 15.68C158.764 15.7453 158.97 15.8433 159.222 15.974C159.483 16.1047 159.684 16.2353 159.824 16.366C159.964 16.4967 160.108 16.6553 160.258 16.842C160.416 17.0287 160.528 17.248 160.594 17.5C160.659 17.7427 160.692 18.0133 160.692 18.312ZM155.904 13.776C155.904 14.0653 155.988 14.3033 156.156 14.49C156.333 14.6767 156.622 14.8633 157.024 15.05V12.614C156.678 12.67 156.403 12.8007 156.198 13.006C156.002 13.2113 155.904 13.468 155.904 13.776ZM157.934 19.572C158.307 19.4973 158.592 19.348 158.788 19.124C158.984 18.9 159.082 18.634 159.082 18.326C159.082 18.018 158.988 17.7707 158.802 17.584C158.615 17.388 158.326 17.2013 157.934 17.024V19.572Z" fill="white"/>
<path opacity="0.4" d="M20.552 15.918C21.028 16.1233 21.406 16.436 21.686 16.856C21.9753 17.2667 22.12 17.738 22.12 18.27C22.12 19.026 21.854 19.67 21.322 20.202C20.79 20.734 20.146 21 19.39 21H15.12V11.2H19.068C19.796 11.2 20.4167 11.4613 20.93 11.984C21.4433 12.4973 21.7 13.1133 21.7 13.832C21.7 14.7467 21.3173 15.442 20.552 15.918ZM19.068 12.124H16.1V15.54H19.068C19.5253 15.54 19.9127 15.3767 20.23 15.05C20.5567 14.714 20.72 14.308 20.72 13.832C20.72 13.3653 20.5567 12.964 20.23 12.628C19.9127 12.292 19.5253 12.124 19.068 12.124ZM19.39 20.076C19.8753 20.076 20.286 19.9033 20.622 19.558C20.9673 19.2033 21.14 18.774 21.14 18.27C21.14 17.7753 20.9673 17.3507 20.622 16.996C20.286 16.6413 19.8753 16.464 19.39 16.464H16.1V20.076H19.39ZM29.6816 14H30.6056V21H29.6816V19.628C29.0376 20.6547 28.095 21.168 26.8536 21.168C25.855 21.168 25.001 20.8133 24.2916 20.104C23.5916 19.3947 23.2416 18.5267 23.2416 17.5C23.2416 16.4733 23.5916 15.6053 24.2916 14.896C25.001 14.1867 25.855 13.832 26.8536 13.832C28.095 13.832 29.0376 14.3453 29.6816 15.372V14ZM24.9636 19.474C25.4956 20.006 26.149 20.272 26.9236 20.272C27.6983 20.272 28.3516 20.006 28.8836 19.474C29.4156 18.9327 29.6816 18.2747 29.6816 17.5C29.6816 16.7253 29.4156 16.072 28.8836 15.54C28.3516 14.9987 27.6983 14.728 26.9236 14.728C26.149 14.728 25.4956 14.9987 24.9636 15.54C24.4316 16.072 24.1656 16.7253 24.1656 17.5C24.1656 18.2747 24.4316 18.9327 24.9636 19.474ZM32.562 21V10.78H33.486V21H32.562ZM35.4468 21V10.78H36.3708V21H35.4468ZM44.3516 14H45.2756V21H44.3516V19.628C43.7076 20.6547 42.7649 21.168 41.5236 21.168C40.5249 21.168 39.6709 20.8133 38.9616 20.104C38.2616 19.3947 37.9116 18.5267 37.9116 17.5C37.9116 16.4733 38.2616 15.6053 38.9616 14.896C39.6709 14.1867 40.5249 13.832 41.5236 13.832C42.7649 13.832 43.7076 14.3453 44.3516 15.372V14ZM39.6336 19.474C40.1656 20.006 40.8189 20.272 41.5936 20.272C42.3682 20.272 43.0216 20.006 43.5536 19.474C44.0856 18.9327 44.3516 18.2747 44.3516 17.5C44.3516 16.7253 44.0856 16.072 43.5536 15.54C43.0216 14.9987 42.3682 14.728 41.5936 14.728C40.8189 14.728 40.1656 14.9987 39.6336 15.54C39.1016 16.072 38.8356 16.7253 38.8356 17.5C38.8356 18.2747 39.1016 18.9327 39.6336 19.474ZM50.508 13.832C51.3573 13.832 52.0246 14.0933 52.51 14.616C53.0046 15.1293 53.252 15.8247 53.252 16.702V21H52.328V16.702C52.328 16.0767 52.16 15.5913 51.824 15.246C51.4973 14.9007 51.0306 14.728 50.424 14.728C49.752 14.728 49.206 14.9427 48.786 15.372C48.366 15.792 48.156 16.4453 48.156 17.332V21H47.232V14H48.156V15.092C48.6786 14.252 49.4626 13.832 50.508 13.832ZM58.3006 21.168C57.2459 21.168 56.3686 20.818 55.6686 20.118C54.9686 19.4087 54.6186 18.536 54.6186 17.5C54.6186 16.464 54.9686 15.596 55.6686 14.896C56.3686 14.1867 57.2459 13.832 58.3006 13.832C58.9913 13.832 59.6119 14 60.1626 14.336C60.7133 14.6627 61.1146 15.106 61.3666 15.666L60.6106 16.1C60.4239 15.68 60.1206 15.3487 59.7006 15.106C59.2899 14.854 58.8233 14.728 58.3006 14.728C57.5259 14.728 56.8726 14.9987 56.3406 15.54C55.8086 16.072 55.5426 16.7253 55.5426 17.5C55.5426 18.2747 55.8086 18.9327 56.3406 19.474C56.8726 20.006 57.5259 20.272 58.3006 20.272C58.8233 20.272 59.2899 20.1507 59.7006 19.908C60.1113 19.656 60.4333 19.32 60.6666 18.9L61.4366 19.348C61.1473 19.908 60.7226 20.3513 60.1626 20.678C59.6026 21.0047 58.9819 21.168 58.3006 21.168ZM65.9288 13.832C66.9648 13.832 67.8002 14.2007 68.4348 14.938C69.0788 15.666 69.4008 16.5293 69.4008 17.528C69.4008 17.6307 69.3915 17.7753 69.3728 17.962H63.2268C63.3202 18.6713 63.6188 19.236 64.1228 19.656C64.6362 20.0667 65.2662 20.272 66.0128 20.272C66.5448 20.272 67.0022 20.1647 67.3848 19.95C67.7768 19.726 68.0708 19.4367 68.2668 19.082L69.0788 19.558C68.7708 20.0527 68.3508 20.4447 67.8188 20.734C67.2868 21.0233 66.6802 21.168 65.9988 21.168C64.8975 21.168 64.0015 20.8227 63.3108 20.132C62.6202 19.4413 62.2748 18.564 62.2748 17.5C62.2748 16.4547 62.6155 15.582 63.2968 14.882C63.9782 14.182 64.8555 13.832 65.9288 13.832ZM65.9288 14.728C65.2008 14.728 64.5895 14.9473 64.0948 15.386C63.6095 15.8153 63.3202 16.3753 63.2268 17.066H68.4488C68.3555 16.3287 68.0708 15.7547 67.5948 15.344C67.1188 14.9333 66.5635 14.728 65.9288 14.728ZM76.1906 11.2H77.0306V21H76.0506V12.278L73.8526 12.936L73.6006 12.096L76.1906 11.2ZM80.3044 15.176C80.1551 15.3253 79.9731 15.4 79.7584 15.4C79.5438 15.4 79.3618 15.3253 79.2124 15.176C79.0631 15.0267 78.9884 14.8447 78.9884 14.63C78.9884 14.4153 79.0631 14.2333 79.2124 14.084C79.3618 13.9347 79.5438 13.86 79.7584 13.86C79.9731 13.86 80.1551 13.9347 80.3044 14.084C80.4538 14.2333 80.5284 14.4153 80.5284 14.63C80.5284 14.8447 80.4538 15.0267 80.3044 15.176ZM80.3044 20.916C80.1551 21.0653 79.9731 21.14 79.7584 21.14C79.5438 21.14 79.3618 21.0653 79.2124 20.916C79.0631 20.7667 78.9884 20.5847 78.9884 20.37C78.9884 20.1553 79.0631 19.9733 79.2124 19.824C79.3618 19.6747 79.5438 19.6 79.7584 19.6C79.9731 19.6 80.1551 19.6747 80.3044 19.824C80.4538 19.9733 80.5284 20.1553 80.5284 20.37C80.5284 20.5847 80.4538 20.7667 80.3044 20.916Z" fill="white"/>
<circle cx="174.5" cy="16.5" r="3.5" fill="#F0B00B"/>
<rect y="46" width="175" height="34" rx="6" fill="white" fill-opacity="0.1"/>
<path d="M0 51C0 48.2386 2.23858 46 5 46V80C2.23858 80 0 77.7614 0 75V51Z" fill="#285CFF"/>
<path d="M135.85 60.896C136.783 60.896 137.572 61.176 138.216 61.736C138.86 62.2867 139.182 63.052 139.182 64.032C139.182 65.012 138.851 65.782 138.188 66.342C137.525 66.902 136.713 67.182 135.752 67.182C134.977 67.182 134.291 67.0047 133.694 66.65C133.097 66.286 132.672 65.7633 132.42 65.082L133.806 64.284C134.067 65.1707 134.716 65.614 135.752 65.614C136.303 65.614 136.741 65.474 137.068 65.194C137.404 64.9047 137.572 64.5173 137.572 64.032C137.572 63.5467 137.409 63.164 137.082 62.884C136.755 62.604 136.321 62.464 135.78 62.464H132.924L133.302 57.2H138.762V58.712H134.786L134.618 60.896H135.85ZM143.451 60.49C144.468 60.49 145.299 60.8027 145.943 61.428C146.587 62.044 146.909 62.8467 146.909 63.836C146.909 64.8253 146.587 65.6327 145.943 66.258C145.299 66.874 144.468 67.182 143.451 67.182C142.424 67.182 141.589 66.874 140.945 66.258C140.301 65.6327 139.979 64.8253 139.979 63.836C139.979 63.0893 140.175 62.4313 140.567 61.862L143.675 57.2H145.509L143.269 60.49H143.451ZM143.451 65.656C143.992 65.656 144.436 65.4927 144.781 65.166C145.126 64.83 145.299 64.3867 145.299 63.836C145.299 63.2853 145.126 62.8467 144.781 62.52C144.436 62.184 143.992 62.016 143.451 62.016C142.9 62.016 142.452 62.184 142.107 62.52C141.762 62.8467 141.589 63.2853 141.589 63.836C141.589 64.3867 141.762 64.83 142.107 65.166C142.452 65.4927 142.9 65.656 143.451 65.656ZM147.044 57.2H153.274V58.6L149.83 67H148.136L151.524 58.74H147.044V57.2ZM160.827 64.312C160.827 65.1053 160.57 65.754 160.057 66.258C159.553 66.7527 158.89 67.0513 158.069 67.154V68.4H157.159V67.168C156.384 67.1213 155.721 66.9113 155.171 66.538C154.62 66.1647 154.223 65.656 153.981 65.012L155.367 64.214C155.693 65.0353 156.291 65.4927 157.159 65.586V62.674C156.739 62.5153 156.398 62.3753 156.137 62.254C155.875 62.1233 155.595 61.946 155.297 61.722C155.007 61.498 154.788 61.2273 154.639 60.91C154.499 60.5833 154.429 60.2053 154.429 59.776C154.429 58.992 154.69 58.3573 155.213 57.872C155.735 57.3867 156.384 57.1067 157.159 57.032V55.8H158.069V57.046C159.319 57.214 160.187 57.8533 160.673 58.964L159.315 59.748C159.072 59.1413 158.657 58.7727 158.069 58.642V61.414C158.367 61.526 158.591 61.6147 158.741 61.68C158.899 61.7453 159.105 61.8433 159.357 61.974C159.618 62.1047 159.819 62.2353 159.959 62.366C160.099 62.4967 160.243 62.6553 160.393 62.842C160.551 63.0287 160.663 63.248 160.729 63.5C160.794 63.7427 160.827 64.0133 160.827 64.312ZM156.039 59.776C156.039 60.0653 156.123 60.3033 156.291 60.49C156.468 60.6767 156.757 60.8633 157.159 61.05V58.614C156.813 58.67 156.538 58.8007 156.333 59.006C156.137 59.2113 156.039 59.468 156.039 59.776ZM158.069 65.572C158.442 65.4973 158.727 65.348 158.923 65.124C159.119 64.9 159.217 64.634 159.217 64.326C159.217 64.018 159.123 63.7707 158.937 63.584C158.75 63.388 158.461 63.2013 158.069 63.024V65.572Z" fill="white"/>
<path opacity="0.4" d="M20.552 61.918C21.028 62.1233 21.406 62.436 21.686 62.856C21.9753 63.2667 22.12 63.738 22.12 64.27C22.12 65.026 21.854 65.67 21.322 66.202C20.79 66.734 20.146 67 19.39 67H15.12V57.2H19.068C19.796 57.2 20.4167 57.4613 20.93 57.984C21.4433 58.4973 21.7 59.1133 21.7 59.832C21.7 60.7467 21.3173 61.442 20.552 61.918ZM19.068 58.124H16.1V61.54H19.068C19.5253 61.54 19.9127 61.3767 20.23 61.05C20.5567 60.714 20.72 60.308 20.72 59.832C20.72 59.3653 20.5567 58.964 20.23 58.628C19.9127 58.292 19.5253 58.124 19.068 58.124ZM19.39 66.076C19.8753 66.076 20.286 65.9033 20.622 65.558C20.9673 65.2033 21.14 64.774 21.14 64.27C21.14 63.7753 20.9673 63.3507 20.622 62.996C20.286 62.6413 19.8753 62.464 19.39 62.464H16.1V66.076H19.39ZM29.6816 60H30.6056V67H29.6816V65.628C29.0376 66.6547 28.095 67.168 26.8536 67.168C25.855 67.168 25.001 66.8133 24.2916 66.104C23.5916 65.3947 23.2416 64.5267 23.2416 63.5C23.2416 62.4733 23.5916 61.6053 24.2916 60.896C25.001 60.1867 25.855 59.832 26.8536 59.832C28.095 59.832 29.0376 60.3453 29.6816 61.372V60ZM24.9636 65.474C25.4956 66.006 26.149 66.272 26.9236 66.272C27.6983 66.272 28.3516 66.006 28.8836 65.474C29.4156 64.9327 29.6816 64.2747 29.6816 63.5C29.6816 62.7253 29.4156 62.072 28.8836 61.54C28.3516 60.9987 27.6983 60.728 26.9236 60.728C26.149 60.728 25.4956 60.9987 24.9636 61.54C24.4316 62.072 24.1656 62.7253 24.1656 63.5C24.1656 64.2747 24.4316 64.9327 24.9636 65.474ZM32.562 67V56.78H33.486V67H32.562ZM35.4468 67V56.78H36.3708V67H35.4468ZM44.3516 60H45.2756V67H44.3516V65.628C43.7076 66.6547 42.7649 67.168 41.5236 67.168C40.5249 67.168 39.6709 66.8133 38.9616 66.104C38.2616 65.3947 37.9116 64.5267 37.9116 63.5C37.9116 62.4733 38.2616 61.6053 38.9616 60.896C39.6709 60.1867 40.5249 59.832 41.5236 59.832C42.7649 59.832 43.7076 60.3453 44.3516 61.372V60ZM39.6336 65.474C40.1656 66.006 40.8189 66.272 41.5936 66.272C42.3682 66.272 43.0216 66.006 43.5536 65.474C44.0856 64.9327 44.3516 64.2747 44.3516 63.5C44.3516 62.7253 44.0856 62.072 43.5536 61.54C43.0216 60.9987 42.3682 60.728 41.5936 60.728C40.8189 60.728 40.1656 60.9987 39.6336 61.54C39.1016 62.072 38.8356 62.7253 38.8356 63.5C38.8356 64.2747 39.1016 64.9327 39.6336 65.474ZM50.508 59.832C51.3573 59.832 52.0246 60.0933 52.51 60.616C53.0046 61.1293 53.252 61.8247 53.252 62.702V67H52.328V62.702C52.328 62.0767 52.16 61.5913 51.824 61.246C51.4973 60.9007 51.0306 60.728 50.424 60.728C49.752 60.728 49.206 60.9427 48.786 61.372C48.366 61.792 48.156 62.4453 48.156 63.332V67H47.232V60H48.156V61.092C48.6786 60.252 49.4626 59.832 50.508 59.832ZM58.3006 67.168C57.2459 67.168 56.3686 66.818 55.6686 66.118C54.9686 65.4087 54.6186 64.536 54.6186 63.5C54.6186 62.464 54.9686 61.596 55.6686 60.896C56.3686 60.1867 57.2459 59.832 58.3006 59.832C58.9913 59.832 59.6119 60 60.1626 60.336C60.7133 60.6627 61.1146 61.106 61.3666 61.666L60.6106 62.1C60.4239 61.68 60.1206 61.3487 59.7006 61.106C59.2899 60.854 58.8233 60.728 58.3006 60.728C57.5259 60.728 56.8726 60.9987 56.3406 61.54C55.8086 62.072 55.5426 62.7253 55.5426 63.5C55.5426 64.2747 55.8086 64.9327 56.3406 65.474C56.8726 66.006 57.5259 66.272 58.3006 66.272C58.8233 66.272 59.2899 66.1507 59.7006 65.908C60.1113 65.656 60.4333 65.32 60.6666 64.9L61.4366 65.348C61.1473 65.908 60.7226 66.3513 60.1626 66.678C59.6026 67.0047 58.9819 67.168 58.3006 67.168ZM65.9288 59.832C66.9648 59.832 67.8002 60.2007 68.4348 60.938C69.0788 61.666 69.4008 62.5293 69.4008 63.528C69.4008 63.6307 69.3915 63.7753 69.3728 63.962H63.2268C63.3202 64.6713 63.6188 65.236 64.1228 65.656C64.6362 66.0667 65.2662 66.272 66.0128 66.272C66.5448 66.272 67.0022 66.1647 67.3848 65.95C67.7768 65.726 68.0708 65.4367 68.2668 65.082L69.0788 65.558C68.7708 66.0527 68.3508 66.4447 67.8188 66.734C67.2868 67.0233 66.6802 67.168 65.9988 67.168C64.8975 67.168 64.0015 66.8227 63.3108 66.132C62.6202 65.4413 62.2748 64.564 62.2748 63.5C62.2748 62.4547 62.6155 61.582 63.2968 60.882C63.9782 60.182 64.8555 59.832 65.9288 59.832ZM65.9288 60.728C65.2008 60.728 64.5895 60.9473 64.0948 61.386C63.6095 61.8153 63.3202 62.3753 63.2268 63.066H68.4488C68.3555 62.3287 68.0708 61.7547 67.5948 61.344C67.1188 60.9333 66.5635 60.728 65.9288 60.728ZM73.9506 67V66.118L77.4786 62.562C78.4866 61.554 78.9906 60.6907 78.9906 59.972C78.9906 59.3467 78.7946 58.8613 78.4026 58.516C78.02 58.1613 77.558 57.984 77.0166 57.984C76.0086 57.984 75.276 58.446 74.8186 59.37L73.9926 58.88C74.3006 58.2733 74.7206 57.816 75.2526 57.508C75.7846 57.1907 76.3726 57.032 77.0166 57.032C77.8006 57.032 78.4866 57.298 79.0746 57.83C79.672 58.3527 79.9706 59.0667 79.9706 59.972C79.9706 60.5413 79.812 61.0873 79.4946 61.61C79.1773 62.1327 78.7293 62.6833 78.1506 63.262L75.3506 66.048H80.1806V67H73.9506ZM82.9021 61.176C82.7528 61.3253 82.5708 61.4 82.3561 61.4C82.1414 61.4 81.9594 61.3253 81.8101 61.176C81.6608 61.0267 81.5861 60.8447 81.5861 60.63C81.5861 60.4153 81.6608 60.2333 81.8101 60.084C81.9594 59.9347 82.1414 59.86 82.3561 59.86C82.5708 59.86 82.7528 59.9347 82.9021 60.084C83.0514 60.2333 83.1261 60.4153 83.1261 60.63C83.1261 60.8447 83.0514 61.0267 82.9021 61.176ZM82.9021 66.916C82.7528 67.0653 82.5708 67.14 82.3561 67.14C82.1414 67.14 81.9594 67.0653 81.8101 66.916C81.6608 66.7667 81.5861 66.5847 81.5861 66.37C81.5861 66.1553 81.6608 65.9733 81.8101 65.824C81.9594 65.6747 82.1414 65.6 82.3561 65.6C82.5708 65.6 82.7528 65.6747 82.9021 65.824C83.0514 65.9733 83.1261 66.1553 83.1261 66.37C83.1261 66.5847 83.0514 66.7667 82.9021 66.916Z" fill="white"/>
<circle cx="174.5" cy="63.5" r="3.5" fill="#285CFF"/>
<rect y="92" width="175" height="34" rx="6" fill="white" fill-opacity="0.1"/>
<path d="M0 97C0 94.2386 2.23858 92 5 92V126C2.23858 126 0 123.761 0 121V97Z" fill="#BB34B5"/>
<path d="M121.977 106.896C122.91 106.896 123.699 107.176 124.343 107.736C124.987 108.287 125.309 109.052 125.309 110.032C125.309 111.012 124.978 111.782 124.315 112.342C123.652 112.902 122.84 113.182 121.879 113.182C121.104 113.182 120.418 113.005 119.821 112.65C119.224 112.286 118.799 111.763 118.547 111.082L119.933 110.284C120.194 111.171 120.843 111.614 121.879 111.614C122.43 111.614 122.868 111.474 123.195 111.194C123.531 110.905 123.699 110.517 123.699 110.032C123.699 109.547 123.536 109.164 123.209 108.884C122.882 108.604 122.448 108.464 121.907 108.464H119.051L119.429 103.2H124.889V104.712H120.913L120.745 106.896H121.977ZM128.016 112.86C127.811 113.065 127.564 113.168 127.274 113.168C126.985 113.168 126.738 113.065 126.532 112.86C126.327 112.655 126.224 112.407 126.224 112.118C126.224 111.829 126.322 111.581 126.518 111.376C126.724 111.171 126.976 111.068 127.274 111.068C127.564 111.068 127.811 111.171 128.016 111.376C128.222 111.581 128.324 111.829 128.324 112.118C128.324 112.407 128.222 112.655 128.016 112.86ZM132.873 106.49C133.89 106.49 134.721 106.803 135.365 107.428C136.009 108.044 136.331 108.847 136.331 109.836C136.331 110.825 136.009 111.633 135.365 112.258C134.721 112.874 133.89 113.182 132.873 113.182C131.846 113.182 131.011 112.874 130.367 112.258C129.723 111.633 129.401 110.825 129.401 109.836C129.401 109.089 129.597 108.431 129.989 107.862L133.097 103.2H134.931L132.691 106.49H132.873ZM132.873 111.656C133.414 111.656 133.857 111.493 134.203 111.166C134.548 110.83 134.721 110.387 134.721 109.836C134.721 109.285 134.548 108.847 134.203 108.52C133.857 108.184 133.414 108.016 132.873 108.016C132.322 108.016 131.874 108.184 131.529 108.52C131.183 108.847 131.011 109.285 131.011 109.836C131.011 110.387 131.183 110.83 131.529 111.166C131.874 111.493 132.322 111.656 132.873 111.656ZM143.918 111.796C143.246 112.72 142.303 113.182 141.09 113.182C139.876 113.182 138.929 112.72 138.248 111.796C137.576 110.872 137.24 109.64 137.24 108.1C137.24 106.56 137.576 105.328 138.248 104.404C138.929 103.48 139.876 103.018 141.09 103.018C142.303 103.018 143.246 103.48 143.918 104.404C144.599 105.328 144.94 106.56 144.94 108.1C144.94 109.64 144.599 110.872 143.918 111.796ZM141.09 111.614C141.818 111.614 142.373 111.311 142.756 110.704C143.138 110.097 143.33 109.229 143.33 108.1C143.33 106.971 143.138 106.103 142.756 105.496C142.373 104.889 141.818 104.586 141.09 104.586C140.371 104.586 139.816 104.889 139.424 105.496C139.041 106.103 138.85 106.971 138.85 108.1C138.85 109.229 139.041 110.097 139.424 110.704C139.816 111.311 140.371 111.614 141.09 111.614ZM152.736 111.796C152.064 112.72 151.121 113.182 149.908 113.182C148.695 113.182 147.747 112.72 147.066 111.796C146.394 110.872 146.058 109.64 146.058 108.1C146.058 106.56 146.394 105.328 147.066 104.404C147.747 103.48 148.695 103.018 149.908 103.018C151.121 103.018 152.064 103.48 152.736 104.404C153.417 105.328 153.758 106.56 153.758 108.1C153.758 109.64 153.417 110.872 152.736 111.796ZM149.908 111.614C150.636 111.614 151.191 111.311 151.574 110.704C151.957 110.097 152.148 109.229 152.148 108.1C152.148 106.971 151.957 106.103 151.574 105.496C151.191 104.889 150.636 104.586 149.908 104.586C149.189 104.586 148.634 104.889 148.242 105.496C147.859 106.103 147.668 106.971 147.668 108.1C147.668 109.229 147.859 110.097 148.242 110.704C148.634 111.311 149.189 111.614 149.908 111.614ZM161.582 110.312C161.582 111.105 161.326 111.754 160.812 112.258C160.308 112.753 159.646 113.051 158.824 113.154V114.4H157.914V113.168C157.14 113.121 156.477 112.911 155.926 112.538C155.376 112.165 154.979 111.656 154.736 111.012L156.122 110.214C156.449 111.035 157.046 111.493 157.914 111.586V108.674C157.494 108.515 157.154 108.375 156.892 108.254C156.631 108.123 156.351 107.946 156.052 107.722C155.763 107.498 155.544 107.227 155.394 106.91C155.254 106.583 155.184 106.205 155.184 105.776C155.184 104.992 155.446 104.357 155.968 103.872C156.491 103.387 157.14 103.107 157.914 103.032V101.8H158.824V103.046C160.075 103.214 160.943 103.853 161.428 104.964L160.07 105.748C159.828 105.141 159.412 104.773 158.824 104.642V107.414C159.123 107.526 159.347 107.615 159.496 107.68C159.655 107.745 159.86 107.843 160.112 107.974C160.374 108.105 160.574 108.235 160.714 108.366C160.854 108.497 160.999 108.655 161.148 108.842C161.307 109.029 161.419 109.248 161.484 109.5C161.55 109.743 161.582 110.013 161.582 110.312ZM156.794 105.776C156.794 106.065 156.878 106.303 157.046 106.49C157.224 106.677 157.513 106.863 157.914 107.05V104.614C157.569 104.67 157.294 104.801 157.088 105.006C156.892 105.211 156.794 105.468 156.794 105.776ZM158.824 111.572C159.198 111.497 159.482 111.348 159.678 111.124C159.874 110.9 159.972 110.634 159.972 110.326C159.972 110.018 159.879 109.771 159.692 109.584C159.506 109.388 159.216 109.201 158.824 109.024V111.572Z" fill="white"/>
<path opacity="0.4" d="M20.552 107.918C21.028 108.123 21.406 108.436 21.686 108.856C21.9753 109.267 22.12 109.738 22.12 110.27C22.12 111.026 21.854 111.67 21.322 112.202C20.79 112.734 20.146 113 19.39 113H15.12V103.2H19.068C19.796 103.2 20.4167 103.461 20.93 103.984C21.4433 104.497 21.7 105.113 21.7 105.832C21.7 106.747 21.3173 107.442 20.552 107.918ZM19.068 104.124H16.1V107.54H19.068C19.5253 107.54 19.9127 107.377 20.23 107.05C20.5567 106.714 20.72 106.308 20.72 105.832C20.72 105.365 20.5567 104.964 20.23 104.628C19.9127 104.292 19.5253 104.124 19.068 104.124ZM19.39 112.076C19.8753 112.076 20.286 111.903 20.622 111.558C20.9673 111.203 21.14 110.774 21.14 110.27C21.14 109.775 20.9673 109.351 20.622 108.996C20.286 108.641 19.8753 108.464 19.39 108.464H16.1V112.076H19.39ZM29.6816 106H30.6056V113H29.6816V111.628C29.0376 112.655 28.095 113.168 26.8536 113.168C25.855 113.168 25.001 112.813 24.2916 112.104C23.5916 111.395 23.2416 110.527 23.2416 109.5C23.2416 108.473 23.5916 107.605 24.2916 106.896C25.001 106.187 25.855 105.832 26.8536 105.832C28.095 105.832 29.0376 106.345 29.6816 107.372V106ZM24.9636 111.474C25.4956 112.006 26.149 112.272 26.9236 112.272C27.6983 112.272 28.3516 112.006 28.8836 111.474C29.4156 110.933 29.6816 110.275 29.6816 109.5C29.6816 108.725 29.4156 108.072 28.8836 107.54C28.3516 106.999 27.6983 106.728 26.9236 106.728C26.149 106.728 25.4956 106.999 24.9636 107.54C24.4316 108.072 24.1656 108.725 24.1656 109.5C24.1656 110.275 24.4316 110.933 24.9636 111.474ZM32.562 113V102.78H33.486V113H32.562ZM35.4468 113V102.78H36.3708V113H35.4468ZM44.3516 106H45.2756V113H44.3516V111.628C43.7076 112.655 42.7649 113.168 41.5236 113.168C40.5249 113.168 39.6709 112.813 38.9616 112.104C38.2616 111.395 37.9116 110.527 37.9116 109.5C37.9116 108.473 38.2616 107.605 38.9616 106.896C39.6709 106.187 40.5249 105.832 41.5236 105.832C42.7649 105.832 43.7076 106.345 44.3516 107.372V106ZM39.6336 111.474C40.1656 112.006 40.8189 112.272 41.5936 112.272C42.3682 112.272 43.0216 112.006 43.5536 111.474C44.0856 110.933 44.3516 110.275 44.3516 109.5C44.3516 108.725 44.0856 108.072 43.5536 107.54C43.0216 106.999 42.3682 106.728 41.5936 106.728C40.8189 106.728 40.1656 106.999 39.6336 107.54C39.1016 108.072 38.8356 108.725 38.8356 109.5C38.8356 110.275 39.1016 110.933 39.6336 111.474ZM50.508 105.832C51.3573 105.832 52.0246 106.093 52.51 106.616C53.0046 107.129 53.252 107.825 53.252 108.702V113H52.328V108.702C52.328 108.077 52.16 107.591 51.824 107.246C51.4973 106.901 51.0306 106.728 50.424 106.728C49.752 106.728 49.206 106.943 48.786 107.372C48.366 107.792 48.156 108.445 48.156 109.332V113H47.232V106H48.156V107.092C48.6786 106.252 49.4626 105.832 50.508 105.832ZM58.3006 113.168C57.2459 113.168 56.3686 112.818 55.6686 112.118C54.9686 111.409 54.6186 110.536 54.6186 109.5C54.6186 108.464 54.9686 107.596 55.6686 106.896C56.3686 106.187 57.2459 105.832 58.3006 105.832C58.9913 105.832 59.6119 106 60.1626 106.336C60.7133 106.663 61.1146 107.106 61.3666 107.666L60.6106 108.1C60.4239 107.68 60.1206 107.349 59.7006 107.106C59.2899 106.854 58.8233 106.728 58.3006 106.728C57.5259 106.728 56.8726 106.999 56.3406 107.54C55.8086 108.072 55.5426 108.725 55.5426 109.5C55.5426 110.275 55.8086 110.933 56.3406 111.474C56.8726 112.006 57.5259 112.272 58.3006 112.272C58.8233 112.272 59.2899 112.151 59.7006 111.908C60.1113 111.656 60.4333 111.32 60.6666 110.9L61.4366 111.348C61.1473 111.908 60.7226 112.351 60.1626 112.678C59.6026 113.005 58.9819 113.168 58.3006 113.168ZM65.9288 105.832C66.9648 105.832 67.8002 106.201 68.4348 106.938C69.0788 107.666 69.4008 108.529 69.4008 109.528C69.4008 109.631 69.3915 109.775 69.3728 109.962H63.2268C63.3202 110.671 63.6188 111.236 64.1228 111.656C64.6362 112.067 65.2662 112.272 66.0128 112.272C66.5448 112.272 67.0022 112.165 67.3848 111.95C67.7768 111.726 68.0708 111.437 68.2668 111.082L69.0788 111.558C68.7708 112.053 68.3508 112.445 67.8188 112.734C67.2868 113.023 66.6802 113.168 65.9988 113.168C64.8975 113.168 64.0015 112.823 63.3108 112.132C62.6202 111.441 62.2748 110.564 62.2748 109.5C62.2748 108.455 62.6155 107.582 63.2968 106.882C63.9782 106.182 64.8555 105.832 65.9288 105.832ZM65.9288 106.728C65.2008 106.728 64.5895 106.947 64.0948 107.386C63.6095 107.815 63.3202 108.375 63.2268 109.066H68.4488C68.3555 108.329 68.0708 107.755 67.5948 107.344C67.1188 106.933 66.5635 106.728 65.9288 106.728ZM77.5486 107.274C78.3326 107.377 78.9766 107.68 79.4806 108.184C79.994 108.679 80.2506 109.337 80.2506 110.158C80.2506 111.091 79.9286 111.829 79.2846 112.37C78.65 112.902 77.8753 113.168 76.9606 113.168C76.2326 113.168 75.584 113 75.0146 112.664C74.4453 112.328 74.044 111.847 73.8106 111.222L74.6226 110.746C74.7813 111.231 75.066 111.6 75.4766 111.852C75.8873 112.095 76.382 112.216 76.9606 112.216C77.6326 112.216 78.1833 112.039 78.6126 111.684C79.0513 111.32 79.2706 110.811 79.2706 110.158C79.2706 109.505 79.0513 109.001 78.6126 108.646C78.1833 108.282 77.6326 108.1 76.9606 108.1V108.086L76.9466 108.1H76.6806L76.2606 107.456L78.6966 104.124H74.0906V103.2H79.8306V104.124L77.5486 107.274ZM82.8337 107.176C82.6844 107.325 82.5024 107.4 82.2877 107.4C82.0731 107.4 81.8911 107.325 81.7417 107.176C81.5924 107.027 81.5177 106.845 81.5177 106.63C81.5177 106.415 81.5924 106.233 81.7417 106.084C81.8911 105.935 82.0731 105.86 82.2877 105.86C82.5024 105.86 82.6844 105.935 82.8337 106.084C82.9831 106.233 83.0577 106.415 83.0577 106.63C83.0577 106.845 82.9831 107.027 82.8337 107.176ZM82.8337 112.916C82.6844 113.065 82.5024 113.14 82.2877 113.14C82.0731 113.14 81.8911 113.065 81.7417 112.916C81.5924 112.767 81.5177 112.585 81.5177 112.37C81.5177 112.155 81.5924 111.973 81.7417 111.824C81.8911 111.675 82.0731 111.6 82.2877 111.6C82.5024 111.6 82.6844 111.675 82.8337 111.824C82.9831 111.973 83.0577 112.155 83.0577 112.37C83.0577 112.585 82.9831 112.767 82.8337 112.916Z" fill="white"/>
<line x1="177" y1="63.5" x2="252" y2="63.5" stroke="#285CFF"/>
<path d="M177 16.3153C185.857 15.0552 204.343 16.9033 207.429 34.3762C211.286 56.2173 214.286 64.34 252 63.5" stroke="#F0B00B"/>
<path d="M177 108.702C185.857 109.894 204.343 108.145 207.429 91.6124C211.286 70.9463 214.286 63.2606 252 64.0554" stroke="#BB34B5"/>
<circle cx="174.5" cy="108.5" r="3.5" fill="#BB34B5"/>
<circle cx="253.5" cy="63.5" r="3.5" fill="#F0B00B"/>
<defs>
<filter id="filter0_d_66_244" x="241" y="17" width="90" height="90" filterUnits="userSpaceOnUse" color-interpolation-filters="sRGB">
<feFlood flood-opacity="0" result="BackgroundImageFix"/>
<feColorMatrix in="SourceAlpha" type="matrix" values="0 0 0 0 0 0 0 0 0 0 0 0 0 0 0 0 0 0 127 0" result="hardAlpha"/>
<feOffset/>
<feGaussianBlur stdDeviation="9"/>
<feComposite in2="hardAlpha" operator="out"/>
<feColorMatrix type="matrix" values="0 0 0 0 0.941176 0 0 0 0 0.690196 0 0 0 0 0.0431373 0 0 0 0.8 0"/>
<feBlend mode="normal" in2="BackgroundImageFix" result="effect1_dropShadow_66_244"/>
<feBlend mode="normal" in="SourceGraphic" in2="effect1_dropShadow_66_244" result="shape"/>
</filter>
</defs>
</svg>
