<svg width="54" height="54" viewBox="0 0 54 54" fill="none" xmlns="http://www.w3.org/2000/svg">
<path d="M47.07 28.7802C51.939 28.7802 52.2 24.273 52.2 23.4" stroke="#F0B00B" stroke-width="2" stroke-miterlimit="10" stroke-linecap="round" stroke-linejoin="round"/>
<path d="M7.8139 27.9198C8.5681 27.4338 9.1405 26.6886 9.3385 25.8138C9.5635 24.822 9.9037 23.8644 10.3429 22.9464C10.7803 22.0302 10.7857 20.9682 10.3861 20.0358L7.2001 12.6C10.9801 12.6 13.8007 13.5522 15.8059 14.6574C16.7815 15.1956 17.9551 15.2172 18.9631 14.7438C21.8593 13.3812 25.2181 12.6 28.8001 12.6C39.7351 12.6 48.6001 19.8522 48.6001 28.8C48.6001 32.3802 47.1637 35.6778 44.7607 38.358L40.7251 47.7738C40.1005 49.23 38.7415 50.328 37.1575 50.3946C34.6537 50.5026 32.6971 48.3156 33.0481 45.864L33.0661 45.738C33.1471 45.1692 32.6611 44.685 32.0905 44.7642C31.0213 44.9154 29.9233 45 28.8001 45C27.6769 45 26.5771 44.9154 25.5079 44.7642C24.9175 44.6814 24.4585 45.1764 24.5395 45.7668C24.7825 47.5614 23.8735 49.3992 22.1959 50.0832C20.0503 50.9598 17.8003 49.9248 16.9705 47.9898L14.6377 42.5484C14.1859 41.4936 13.2571 40.7178 12.1393 40.4586L8.2963 39.5694L6.3091 28.89L7.8139 27.9198Z" fill="#F0B00B"/>
<path d="M5.64654 34.4304C6.20094 37.4094 7.51494 39.7224 8.57874 39.5964C9.64254 39.4704 10.0547 36.9504 9.50034 33.9714C8.94594 30.9924 7.63194 28.6795 6.56814 28.8055C5.50434 28.9315 5.09214 31.4496 5.64654 34.4304Z" fill="#F0B00B"/>
<path d="M28.8 9.00005C26.9586 9.00005 25.1749 9.19985 23.4541 9.54185C23.4415 9.36005 23.4 9.18545 23.4 9.00005C23.4 5.02385 26.6238 1.80005 30.6 1.80005C34.5762 1.80005 37.8 5.02385 37.8 9.00005C37.8 9.50765 37.7442 10.0008 37.6452 10.4796C34.9128 9.53105 31.9302 9.00005 28.8 9.00005Z" fill="#F0B00B"/>
</svg>
