<svg width="240" height="279" fill="none" xmlns="http://www.w3.org/2000/svg"><path d="M21.4 82.4 120 25.87l98.6 56.53v118.72L120 257.65l-98.6-56.53V82.4Z" stroke="#F0B00B"/><g filter="url(#a)"><path d="M90.53 17.96 120 1l29.47 16.96v35.61L120 70.53 90.53 53.57V17.96Z" fill="#fff" fill-opacity=".1"/><path d="M90.53 17.96 120 1l29.47 16.96v35.61L120 70.53 90.53 53.57V17.96Z" stroke="#F0B00B"/></g><g filter="url(#b)" fill="#F0B00B"><path d="M119.98 25.63a7.98 7.98 0 0 0-7.83 6.53 7.91 7.91 0 0 0 .2 3.65 1.14 1.14 0 0 0 2.18-.64 5.66 5.66 0 0 1 9.16-5.89 5.67 5.67 0 0 1 1.96 4.29c0 3.08-2.46 5.51-5.73 5.66-.67.02-1.34.15-1.98.39l1.23-5.73a1.13 1.13 0 0 0-.88-1.35 1.14 1.14 0 0 0-1.35.88l-2.47 11.48a1.13 1.13 0 0 0 1.12 1.39 1.14 1.14 0 0 0 1.11-.9l.34-1.55c.38-1.6 1.31-2.25 2.99-2.33 4.43-.2 7.9-3.69 7.9-7.93a7.94 7.94 0 0 0-7.95-7.95ZM120.27 46.42a1.26 1.26 0 1 0 0-2.53 1.26 1.26 0 0 0 0 2.53Z"/></g><g filter="url(#c)"><path d="m180.07 70.53 29.46-16.96L239 70.53v35.62l-29.47 16.95-29.46-16.95V70.53Z" fill="#fff" fill-opacity=".1"/><path d="m180.07 70.53 29.46-16.96L239 70.53v35.62l-29.47 16.95-29.46-16.95V70.53Z" stroke="#F0B00B"/></g><g filter="url(#d)"><path d="m180.07 172.29 29.46-16.96L239 172.29v35.61l-29.47 16.96-29.46-16.96V172.3Z" fill="#fff" fill-opacity=".1"/><path d="m180.07 172.29 29.46-16.96L239 172.29v35.61l-29.47 16.96-29.46-16.96V172.3Z" stroke="#F0B00B"/></g><g filter="url(#e)"><path d="M90.53 225.43 120 208.47l29.47 16.96v35.61L120 278l-29.47-16.96v-35.61Z" fill="#fff" fill-opacity=".1"/><path d="M90.53 225.43 120 208.47l29.47 16.96v35.61L120 278l-29.47-16.96v-35.61Z" stroke="#F0B00B"/></g><g filter="url(#f)"><path d="m1 172.29 29.47-16.96 29.46 16.96v35.61l-29.46 16.96L1 207.9V172.3Z" fill="#fff" fill-opacity=".1"/><path d="m1 172.29 29.47-16.96 29.46 16.96v35.61l-29.46 16.96L1 207.9V172.3Z" stroke="#F0B00B"/></g><g filter="url(#g)" fill="#F0B00B"><path d="M214.33 85.25c.83-2.18.97-3.96.39-5.03a2.2 2.2 0 0 0-1.62-1.13 2.14 2.14 0 0 0-1.88.5c-1.2 1.07-1.39 3.32-1.43 4.7h-.59c-.08-1.38-.24-3.63-1.44-4.7a2.15 2.15 0 0 0-1.89-.5 2.22 2.22 0 0 0-1.61 1.13c-.58 1.08-.45 2.87.39 5.06-2.38 1.11-3.73 3.06-3.73 5.38 0 3.86 3.37 6.36 8.58 6.36 5.22 0 8.59-2.5 8.59-6.36 0-2.34-1.36-4.3-3.76-5.41Zm-9.07.55.33-.14-.13-.33c-.86-2.1-1.07-3.84-.57-4.76a1.5 1.5 0 0 1 1.12-.77 1.42 1.42 0 0 1 1.27.33c1.36 1.15 1.23 4.92 1.23 4.92l.33-.02c.43-.02.87-.02 1.31 0l.32.02s-.1-3.77 1.24-4.9a1.43 1.43 0 0 1 1.26-.34 1.49 1.49 0 0 1 1.11.76c.5.92.3 2.64-.55 4.74l-.13.32.33.14c2.04.86 3.47 2.33 3.59 4.15.17 2.68-3.47 4.79-7.81 4.79-4.35 0-7.97-2.08-7.8-4.74.1-1.83 1.52-3.31 3.55-4.17Z"/><path d="M212.5 91.07c.51 0 .92-.61.92-1.37 0-.75-.4-1.36-.91-1.36s-.92.6-.92 1.36c0 .76.4 1.37.92 1.37ZM206.5 91.07c.5 0 .92-.61.92-1.37 0-.75-.41-1.36-.92-1.36-.5 0-.92.6-.92 1.36 0 .76.41 1.37.92 1.37Z"/></g><g filter="url(#h)"><path d="m1 70.53 29.47-16.96 29.46 16.96v35.62L30.47 123.1 1 106.16V70.53Z" fill="#fff" fill-opacity=".1"/><path d="m1 70.53 29.47-16.96 29.46 16.96v35.62L30.47 123.1 1 106.16V70.53Z" stroke="#F0B00B"/></g><g filter="url(#i)"><path d="m214.53 186.15-5.02-7.1-5.02 7.1-2.17 10 7.19 4.37 7.2-4.37-2.18-10Zm.47 9.26-4.23 2.59 2.85-8.94 1.38 6.35Zm-2.14-9-3.35 10.6-3.38-10.57 3.38-4.78 3.35 4.76Zm-7.46 2.68 2.83 8.9-4.21-2.58 1.38-6.32Z" fill="#F0B00B"/></g><g filter="url(#j)"><path d="m124.16 239.35-8.36 4.82a1.02 1.02 0 0 1-1.01 0l-2.68-1.53a1.01 1.01 0 0 1-.5-.88v-3.07a1.01 1.01 0 0 1 .51-.88l2.67-1.53a1.03 1.03 0 0 1 1.01 0l2.67 1.53a1.01 1.01 0 0 1 .5.88v1.47a.26.26 0 0 0 .13.22.25.25 0 0 0 .25 0l1.4-.8a.5.5 0 0 0 .25-.44v-1.62a1 1 0 0 0-.5-.87l-4.7-2.7a1.01 1.01 0 0 0-1.02 0l-4.69 2.7a1 1 0 0 0-.5.87v5.4a1 1 0 0 0 .5.88l4.7 2.7a1 1 0 0 0 1 0l8.36-4.82a1.02 1.02 0 0 1 1.01 0l2.67 1.54a1 1 0 0 1 .5.87v3.07a1.01 1.01 0 0 1-.5.88l-2.66 1.54a1.02 1.02 0 0 1-1.01 0l-2.67-1.54a1 1 0 0 1-.5-.88v-1.47a.25.25 0 0 0-.26-.25.25.25 0 0 0-.12.03l-1.4.8a.51.51 0 0 0-.24.44v1.62a1 1 0 0 0 .5.87l4.69 2.7a1.02 1.02 0 0 0 1.01 0l4.69-2.7a1.02 1.02 0 0 0 .5-.87v-5.4a1.01 1.01 0 0 0-.5-.88l-4.69-2.7a1.02 1.02 0 0 0-1.01 0Z" fill="#F0B00B"/></g><g filter="url(#k)" fill="#F0B00B"><path d="M36.26 185.64H20.68l3.94-3.92h15.59l-3.95 3.92ZM36.26 197.85H20.68l3.94-3.91h15.59M24.62 191.75h15.59l-3.95-3.92H20.68"/></g><g filter="url(#l)" fill="#F0B00B"><path d="M28.7 94.65c-.13 0-.27 0-.41-.02a.2.2 0 0 1-.18-.21.2.2 0 0 1 .21-.18c.7.05 1.4-.04 2.06-.25a.2.2 0 0 1 .24.26.2.2 0 0 1-.11.1c-.58.2-1.19.3-1.8.3ZM30.44 95.84c-.2 0-.42-.01-.63-.05a.2.2 0 0 1-.15-.16.2.2 0 0 1 .17-.23 2.65 2.65 0 0 0 1.23 0 .2.2 0 0 1 .01.39c-.2.04-.42.06-.63.05Z"/><path d="M30.44 94.37a.2.2 0 0 1-.2-.2v-1.1a.2.2 0 0 1 .2-.19.2.2 0 0 1 .2.2v1.1a.2.2 0 0 1-.2.19Z"/><path d="M30.43 91.35c-.54 0-1.09.17-1.1.57-.02.72.62 1.45 1.1 1.43.49.02 1.15-.7 1.13-1.43-.02-.4-.58-.57-1.13-.57ZM32.18 94.65a5.93 5.93 0 0 1-1.87-.33.2.2 0 0 1 .2-.33c.66.21 1.36.3 2.05.25a.2.2 0 0 1 .17.32.2.2 0 0 1-.13.07l-.42.02Z"/><path d="M32.46 94.44h-.74l-.05 1.46.79-1.46ZM28.43 94.44l.78 1.46-.04-1.45-.74-.01Z"/><path d="M37.37 86.74s1.43-4.37 1.1-5.94c-.17-.85-.62-1.21-1.59-.84-1.6.62-3.08 2.95-3.08 2.95-1.1-.26-2.23-.4-3.36-.43-1.13.02-2.25.17-3.35.43 0 0-1.49-2.33-3.08-2.95-.98-.37-1.42-.01-1.6.84-.33 1.57 1.11 5.94 1.11 5.94-.37.86-.68 1.73-.95 2.62-.21.77-.18 2.07-.18 2.07v.14c-.01.95.3 1.88.9 2.63 1.5 1.98 5.08 3.53 7.15 3.53 2.08 0 5.66-1.55 7.16-3.53.59-.75.9-1.68.9-2.63v-.14s.02-1.3-.18-2.07a25.5 25.5 0 0 0-.95-2.62Zm-4.01.3c.06-.33.36-.8.8-.8.39 0 .87.5.88.84 0 .33-.4.49-.86.47-.46-.02-.88-.16-.82-.5Zm.22 1.73c.73-.42 1.63-.76 1.87-.54.24.21.23 1.16-1.03 1.66-1.11.43-2 .26-2.1.06-.17-.35.84-.93 1.26-1.18Zm-6.86-2.52c.44 0 .74.46.8.8.06.34-.36.48-.83.5-.46.03-.86-.14-.85-.47.01-.33.49-.83.88-.83Zm-1.29 1.98c.24-.22 1.14.12 1.88.55.42.24 1.42.82 1.25 1.17-.1.2-.97.38-2.1-.06-1.26-.5-1.27-1.45-1.03-1.66Zm11.86 5.74c-1.4 1.86-4.9 3.37-6.85 3.37-1.94 0-5.43-1.5-6.84-3.37a3.7 3.7 0 0 1-.81-2.29c.76-.03 1.52.04 2.27.21.74.2 1.77 1.21 1.78 1.22l.24.23.09-.31c0-.02.4-1.36 1.1-1.94.57-.48 1.24-.7 2.17-.7.94 0 1.61.22 2.18.7.7.58 1.1 1.92 1.1 1.94l.09.3.23-.22c.01 0 1.05-1.01 1.79-1.22a8.54 8.54 0 0 1 2.27-.21c0 .83-.3 1.64-.81 2.28Z"/></g><g filter="url(#m)"><path d="m79.2 118 40.23-23.16L159.67 118v48.65l-40.24 23.16-40.23-23.16V118Z" stroke="#F0B00B"/></g><path d="m121.9 114.06-.31 1.27v36.8l.31.37 14.42-10.1-14.42-28.34ZM117.05 114.06l-14.73 28.34 14.73 10.1v-38.44ZM119.19 156l-.21.25v13.27l.21.62 17.33-24.35-17.33 10.2Z" fill="#F0B00B"/><path d="M119.19 170.14V156l-17.32-10.22 17.32 24.36Z" fill="#F0B00B"/><defs><filter id="a" x="82.03" y="-7.58" width="75.93" height="86.69" filterUnits="userSpaceOnUse" color-interpolation-filters="sRGB"><feFlood flood-opacity="0" result="BackgroundImageFix"/><feGaussianBlur in="BackgroundImage" stdDeviation="4"/><feComposite in2="SourceAlpha" operator="in" result="effect1_backgroundBlur_66_261"/><feBlend in="SourceGraphic" in2="effect1_backgroundBlur_66_261" result="shape"/></filter><filter id="b" x="89.53" y="5.61" width="60.89" height="60.83" filterUnits="userSpaceOnUse" color-interpolation-filters="sRGB"><feFlood flood-opacity="0" result="BackgroundImageFix"/><feColorMatrix in="SourceAlpha" values="0 0 0 0 0 0 0 0 0 0 0 0 0 0 0 0 0 0 127 0" result="hardAlpha"/><feOffset/><feGaussianBlur stdDeviation="9"/><feComposite in2="hardAlpha" operator="out"/><feColorMatrix values="0 0 0 0 0.941176 0 0 0 0 0.690196 0 0 0 0 0.0431373 0 0 0 0.8 0"/><feBlend in2="BackgroundImageFix" result="effect1_dropShadow_66_261"/><feBlend in="SourceGraphic" in2="effect1_dropShadow_66_261" result="shape"/></filter><filter id="c" x="171.57" y="45" width="75.93" height="86.69" filterUnits="userSpaceOnUse" color-interpolation-filters="sRGB"><feFlood flood-opacity="0" result="BackgroundImageFix"/><feGaussianBlur in="BackgroundImage" stdDeviation="4"/><feComposite in2="SourceAlpha" operator="in" result="effect1_backgroundBlur_66_261"/><feBlend in="SourceGraphic" in2="effect1_backgroundBlur_66_261" result="shape"/></filter><filter id="d" x="171.57" y="146.75" width="75.93" height="86.69" filterUnits="userSpaceOnUse" color-interpolation-filters="sRGB"><feFlood flood-opacity="0" result="BackgroundImageFix"/><feGaussianBlur in="BackgroundImage" stdDeviation="4"/><feComposite in2="SourceAlpha" operator="in" result="effect1_backgroundBlur_66_261"/><feBlend in="SourceGraphic" in2="effect1_backgroundBlur_66_261" result="shape"/></filter><filter id="e" x="82.03" y="199.89" width="75.93" height="86.69" filterUnits="userSpaceOnUse" color-interpolation-filters="sRGB"><feFlood flood-opacity="0" result="BackgroundImageFix"/><feGaussianBlur in="BackgroundImage" stdDeviation="4"/><feComposite in2="SourceAlpha" operator="in" result="effect1_backgroundBlur_66_261"/><feBlend in="SourceGraphic" in2="effect1_backgroundBlur_66_261" result="shape"/></filter><filter id="f" x="-7.5" y="146.75" width="75.93" height="86.69" filterUnits="userSpaceOnUse" color-interpolation-filters="sRGB"><feFlood flood-opacity="0" result="BackgroundImageFix"/><feGaussianBlur in="BackgroundImage" stdDeviation="4"/><feComposite in2="SourceAlpha" operator="in" result="effect1_backgroundBlur_66_261"/><feBlend in="SourceGraphic" in2="effect1_backgroundBlur_66_261" result="shape"/></filter><filter id="g" x="191.07" y="69.62" width="36.89" height="36.83" filterUnits="userSpaceOnUse" color-interpolation-filters="sRGB"><feFlood flood-opacity="0" result="BackgroundImageFix"/><feColorMatrix in="SourceAlpha" values="0 0 0 0 0 0 0 0 0 0 0 0 0 0 0 0 0 0 127 0" result="hardAlpha"/><feOffset/><feGaussianBlur stdDeviation="3"/><feComposite in2="hardAlpha" operator="out"/><feColorMatrix values="0 0 0 0 0.941176 0 0 0 0 0.690196 0 0 0 0 0.0431373 0 0 0 0.8 0"/><feBlend in2="BackgroundImageFix" result="effect1_dropShadow_66_261"/><feBlend in="SourceGraphic" in2="effect1_dropShadow_66_261" result="shape"/></filter><filter id="h" x="-7.5" y="45" width="75.93" height="86.69" filterUnits="userSpaceOnUse" color-interpolation-filters="sRGB"><feFlood flood-opacity="0" result="BackgroundImageFix"/><feGaussianBlur in="BackgroundImage" stdDeviation="4"/><feComposite in2="SourceAlpha" operator="in" result="effect1_backgroundBlur_66_261"/><feBlend in="SourceGraphic" in2="effect1_backgroundBlur_66_261" result="shape"/></filter><filter id="i" x="179.07" y="159.38" width="60.89" height="60.83" filterUnits="userSpaceOnUse" color-interpolation-filters="sRGB"><feFlood flood-opacity="0" result="BackgroundImageFix"/><feColorMatrix in="SourceAlpha" values="0 0 0 0 0 0 0 0 0 0 0 0 0 0 0 0 0 0 127 0" result="hardAlpha"/><feOffset/><feGaussianBlur stdDeviation="9"/><feComposite in2="hardAlpha" operator="out"/><feColorMatrix values="0 0 0 0 0.941176 0 0 0 0 0.690196 0 0 0 0 0.0431373 0 0 0 0.8 0"/><feBlend in2="BackgroundImageFix" result="effect1_dropShadow_66_261"/><feBlend in="SourceGraphic" in2="effect1_dropShadow_66_261" result="shape"/></filter><filter id="j" x="89.53" y="212.51" width="60.89" height="60.83" filterUnits="userSpaceOnUse" color-interpolation-filters="sRGB"><feFlood flood-opacity="0" result="BackgroundImageFix"/><feColorMatrix in="SourceAlpha" values="0 0 0 0 0 0 0 0 0 0 0 0 0 0 0 0 0 0 127 0" result="hardAlpha"/><feOffset/><feGaussianBlur stdDeviation="9"/><feComposite in2="hardAlpha" operator="out"/><feColorMatrix values="0 0 0 0 0.941176 0 0 0 0 0.690196 0 0 0 0 0.0431373 0 0 0 0.8 0"/><feBlend in2="BackgroundImageFix" result="effect1_dropShadow_66_261"/><feBlend in="SourceGraphic" in2="effect1_dropShadow_66_261" result="shape"/></filter><filter id="k" x="0" y="159.38" width="60.89" height="60.83" filterUnits="userSpaceOnUse" color-interpolation-filters="sRGB"><feFlood flood-opacity="0" result="BackgroundImageFix"/><feColorMatrix in="SourceAlpha" values="0 0 0 0 0 0 0 0 0 0 0 0 0 0 0 0 0 0 127 0" result="hardAlpha"/><feOffset/><feGaussianBlur stdDeviation="9"/><feComposite in2="hardAlpha" operator="out"/><feColorMatrix values="0 0 0 0 0.941176 0 0 0 0 0.690196 0 0 0 0 0.0431373 0 0 0 0.8 0"/><feBlend in2="BackgroundImageFix" result="effect1_dropShadow_66_261"/><feBlend in="SourceGraphic" in2="effect1_dropShadow_66_261" result="shape"/></filter><filter id="l" x="0" y="57.62" width="60.89" height="60.83" filterUnits="userSpaceOnUse" color-interpolation-filters="sRGB"><feFlood flood-opacity="0" result="BackgroundImageFix"/><feColorMatrix in="SourceAlpha" values="0 0 0 0 0 0 0 0 0 0 0 0 0 0 0 0 0 0 127 0" result="hardAlpha"/><feOffset/><feGaussianBlur stdDeviation="9"/><feComposite in2="hardAlpha" operator="out"/><feColorMatrix values="0 0 0 0 0.941176 0 0 0 0 0.690196 0 0 0 0 0.0431373 0 0 0 0.8 0"/><feBlend in2="BackgroundImageFix" result="effect1_dropShadow_66_261"/><feBlend in="SourceGraphic" in2="effect1_dropShadow_66_261" result="shape"/></filter><filter id="m" x="70.7" y="86.26" width="97.47" height="112.13" filterUnits="userSpaceOnUse" color-interpolation-filters="sRGB"><feFlood flood-opacity="0" result="BackgroundImageFix"/><feGaussianBlur in="BackgroundImage" stdDeviation="4"/><feComposite in2="SourceAlpha" operator="in" result="effect1_backgroundBlur_66_261"/><feBlend in="SourceGraphic" in2="effect1_backgroundBlur_66_261" result="shape"/></filter></defs></svg>