<svg width="28" height="28" viewBox="0 0 28 28" fill="none" xmlns="http://www.w3.org/2000/svg">
<path d="M0.666748 14.0945C0.666748 14.496 0.81052 14.8378 1.09806 15.1199C1.38561 15.402 1.72469 15.543 2.11532 15.543H12.6459V26.0736C12.6459 26.4642 12.787 26.8034 13.0691 27.0909C13.3512 27.3785 13.693 27.5222 14.0945 27.5222C14.496 27.5222 14.8405 27.3785 15.128 27.0909C15.4156 26.8034 15.5593 26.4642 15.5593 26.0736V15.543H26.0736C26.4642 15.543 26.8034 15.402 27.0909 15.1199C27.3785 14.8378 27.5222 14.496 27.5222 14.0945C27.5222 13.693 27.3785 13.3485 27.0909 13.0609C26.8034 12.7734 26.4642 12.6296 26.0736 12.6296H15.5593V2.11532C15.5593 1.72469 15.4156 1.38561 15.128 1.09806C14.8405 0.81052 14.496 0.666748 14.0945 0.666748C13.693 0.666748 13.3512 0.81052 13.0691 1.09806C12.787 1.38561 12.6459 1.72469 12.6459 2.11532V12.6296H2.11532C1.72469 12.6296 1.38561 12.7734 1.09806 13.0609C0.81052 13.3485 0.666748 13.693 0.666748 14.0945Z" fill="white"/>
</svg>
