<svg width="240" height="279" viewBox="0 0 240 279" fill="none" xmlns="http://www.w3.org/2000/svg">
<path d="M21.3997 82.4043L120 25.8738L218.6 82.4043V201.118L120 257.649L21.3997 201.118V82.4043Z" stroke="#F0B00B"/>
<g filter="url(#filter0_b_66_261)">
<path d="M90.533 17.9591L120 1L149.466 17.9591V53.5734L120 70.5325L90.533 53.5734V17.9591Z" fill="white" fill-opacity="0.1"/>
<path d="M90.533 17.9591L120 1L149.466 17.9591V53.5734L120 70.5325L90.533 53.5734V17.9591Z" stroke="#F0B00B"/>
</g>
<g filter="url(#filter1_d_66_261)">
<path d="M119.976 25.6313C118.74 25.6322 117.521 25.9205 116.415 26.4731C115.31 27.0258 114.349 27.8278 113.609 28.8154C112.869 29.803 112.369 30.9491 112.15 32.1629C111.931 33.3766 111.998 34.6246 112.347 35.8078C112.432 36.0969 112.629 36.3404 112.894 36.4848C113.159 36.6292 113.471 36.6627 113.76 36.5778C114.05 36.4929 114.294 36.2967 114.439 36.0322C114.584 35.7678 114.617 35.4569 114.532 35.1678C114.301 34.3886 114.241 33.569 114.355 32.7646C114.47 31.9601 114.757 31.1897 115.196 30.5056C115.635 29.8214 116.217 29.2396 116.902 28.7997C117.587 28.3597 118.358 28.0719 119.164 27.9558C119.971 27.8397 120.792 27.8979 121.574 28.1267C122.355 28.3554 123.078 28.7492 123.694 29.2814C124.309 29.8135 124.803 30.4716 125.141 31.2108C125.479 31.9501 125.653 32.7532 125.653 33.5658C125.653 36.6495 123.19 39.0836 119.925 39.229C119.247 39.2531 118.577 39.384 117.94 39.6169L119.169 33.8916C119.232 33.5971 119.176 33.2897 119.011 33.0369C118.847 32.7841 118.589 32.6067 118.294 32.5437C117.999 32.4806 117.691 32.5372 117.437 32.7009C117.184 32.8645 117.006 33.1219 116.943 33.4164L114.474 44.904C114.441 45.0505 114.438 45.202 114.464 45.3498C114.49 45.4976 114.546 45.6388 114.627 45.765C114.709 45.8913 114.814 46.0002 114.938 46.0855C115.062 46.1707 115.202 46.2306 115.349 46.2616C115.427 46.2786 115.508 46.2871 115.588 46.2868C115.848 46.2864 116.101 46.1971 116.303 46.0337C116.505 45.8703 116.645 45.6427 116.7 45.3888L117.036 43.8373C117.425 42.2372 118.351 41.5894 120.026 41.5099C124.457 41.3159 127.927 37.8249 127.927 33.5793C127.926 31.4744 127.089 29.4557 125.598 27.9659C124.108 26.476 122.086 25.6365 119.976 25.6313Z" fill="#F0B00B"/>
<path d="M120.273 46.4168C120.971 46.4168 121.537 45.8524 121.537 45.1562C121.537 44.4599 120.971 43.8955 120.273 43.8955C119.575 43.8955 119.01 44.4599 119.01 45.1562C119.01 45.8524 119.575 46.4168 120.273 46.4168Z" fill="#F0B00B"/>
</g>
<g filter="url(#filter2_b_66_261)">
<path d="M180.067 70.5319L209.533 53.5728L239 70.5319V106.146L209.533 123.105L180.067 106.146V70.5319Z" fill="white" fill-opacity="0.1"/>
<path d="M180.067 70.5319L209.533 53.5728L239 70.5319V106.146L209.533 123.105L180.067 106.146V70.5319Z" stroke="#F0B00B"/>
</g>
<g filter="url(#filter3_b_66_261)">
<path d="M180.067 172.288L209.533 155.328L239 172.288V207.902L209.533 224.861L180.067 207.902V172.288Z" fill="white" fill-opacity="0.1"/>
<path d="M180.067 172.288L209.533 155.328L239 172.288V207.902L209.533 224.861L180.067 207.902V172.288Z" stroke="#F0B00B"/>
</g>
<g filter="url(#filter4_b_66_261)">
<path d="M90.533 225.427L120 208.468L149.466 225.427V261.041L120 278L90.533 261.041V225.427Z" fill="white" fill-opacity="0.1"/>
<path d="M90.533 225.427L120 208.468L149.466 225.427V261.041L120 278L90.533 261.041V225.427Z" stroke="#F0B00B"/>
</g>
<g filter="url(#filter5_b_66_261)">
<path d="M1 172.288L30.4667 155.328L59.9333 172.288V207.902L30.4667 224.861L1 207.902V172.288Z" fill="white" fill-opacity="0.1"/>
<path d="M1 172.288L30.4667 155.328L59.9333 172.288V207.902L30.4667 224.861L1 207.902V172.288Z" stroke="#F0B00B"/>
</g>
<g filter="url(#filter6_d_66_261)">
<path d="M214.327 85.2485C215.165 83.0666 215.299 81.2881 214.716 80.2175C214.553 79.9184 214.323 79.6612 214.043 79.466C213.763 79.2708 213.442 79.143 213.104 79.0926C212.773 79.022 212.43 79.0308 212.103 79.1185C211.775 79.2062 211.474 79.3701 211.222 79.5969C210.025 80.6636 209.83 82.9076 209.788 84.2866C209.578 84.2866 209.399 84.2866 209.204 84.2866C209.121 82.9076 208.963 80.6636 207.76 79.5988C207.508 79.3711 207.206 79.2065 206.878 79.1184C206.55 79.0304 206.206 79.0216 205.874 79.0926C205.536 79.1442 205.214 79.2731 204.934 79.4693C204.654 79.6654 204.424 79.9235 204.26 80.2233C203.677 81.3017 203.813 83.088 204.649 85.2757C202.274 86.3928 200.918 88.3401 200.918 90.6616C200.918 94.5231 204.288 97.0173 209.502 97.0173C214.716 97.0173 218.085 94.5231 218.085 90.6616C218.093 88.3187 216.726 86.3618 214.327 85.2485ZM205.264 85.7993L205.594 85.6597L205.458 85.3281C204.597 83.2257 204.393 81.4918 204.894 80.5686C205.007 80.3629 205.167 80.1866 205.361 80.0539C205.555 79.9211 205.777 79.8357 206.01 79.8044C206.118 79.7833 206.228 79.7722 206.339 79.7714C206.686 79.7748 207.019 79.9052 207.276 80.138C208.637 81.2784 208.508 85.0507 208.508 85.0507L208.835 85.0274C209.273 85.0051 209.713 85.0051 210.151 85.0274L210.47 85.0468C210.47 85.0468 210.361 81.2823 211.71 80.1458C211.879 79.9939 212.082 79.8844 212.302 79.8264C212.522 79.7683 212.752 79.7635 212.974 79.8122C213.206 79.8429 213.427 79.9277 213.62 80.0598C213.813 80.1919 213.972 80.3675 214.084 80.5724C214.584 81.4879 214.382 83.214 213.526 85.3106L213.398 85.6345L213.73 85.7741C215.774 86.6256 217.195 88.1015 217.319 89.9207C217.492 92.5953 213.855 94.7093 209.51 94.7093C205.164 94.7093 201.539 92.6263 201.704 89.9731C201.813 88.1384 203.226 86.6585 205.264 85.7993Z" fill="#F0B00B"/>
<path d="M212.506 91.0709C213.013 91.0709 213.423 90.4587 213.423 89.7035C213.423 88.9484 213.013 88.3362 212.506 88.3362C211.999 88.3362 211.588 88.9484 211.588 89.7035C211.588 90.4587 211.999 91.0709 212.506 91.0709Z" fill="#F0B00B"/>
<path d="M206.502 91.0709C207.009 91.0709 207.42 90.4587 207.42 89.7035C207.42 88.9484 207.009 88.3362 206.502 88.3362C205.995 88.3362 205.584 88.9484 205.584 89.7035C205.584 90.4587 205.995 91.0709 206.502 91.0709Z" fill="#F0B00B"/>
</g>
<g filter="url(#filter7_b_66_261)">
<path d="M1 70.5319L30.4667 53.5728L59.9333 70.5319V106.146L30.4667 123.105L1 106.146V70.5319Z" fill="white" fill-opacity="0.1"/>
<path d="M1 70.5319L30.4667 53.5728L59.9333 70.5319V106.146L30.4667 123.105L1 106.146V70.5319Z" stroke="#F0B00B"/>
</g>
<g filter="url(#filter8_d_66_261)">
<path d="M214.528 186.154L209.51 179.054L204.492 186.154L202.316 196.148L209.51 200.524L216.703 196.148L214.528 186.154ZM215.002 195.413L210.773 197.995L213.618 189.058L215.002 195.413ZM212.863 186.416L209.51 197.015L206.135 186.437L209.51 181.662L212.863 186.416ZM205.396 189.085L208.229 197.983L204.018 195.413L205.396 189.085Z" fill="#F0B00B"/>
</g>
<g filter="url(#filter9_d_66_261)">
<path d="M124.16 239.353L115.8 244.173C115.646 244.261 115.472 244.307 115.294 244.307C115.117 244.307 114.943 244.261 114.789 244.173L112.112 242.635C111.96 242.545 111.834 242.417 111.747 242.264C111.66 242.111 111.615 241.938 111.616 241.762V238.686C111.616 238.509 111.663 238.335 111.751 238.182C111.84 238.029 111.968 237.902 112.121 237.813L114.791 236.275C114.945 236.188 115.119 236.141 115.296 236.141C115.473 236.141 115.648 236.188 115.802 236.275L118.471 237.813C118.625 237.902 118.752 238.029 118.841 238.182C118.93 238.335 118.976 238.509 118.976 238.686V240.162C118.976 240.206 118.988 240.249 119.01 240.288C119.032 240.326 119.064 240.357 119.102 240.38C119.14 240.402 119.183 240.414 119.228 240.414C119.272 240.414 119.315 240.403 119.354 240.381L120.744 239.58C120.82 239.536 120.884 239.472 120.928 239.396C120.972 239.319 120.995 239.232 120.994 239.144V237.522C120.994 237.346 120.948 237.172 120.859 237.019C120.771 236.866 120.644 236.738 120.491 236.65L115.792 233.95C115.638 233.861 115.464 233.814 115.286 233.814C115.109 233.814 114.935 233.861 114.781 233.95L110.092 236.65C109.938 236.738 109.811 236.865 109.722 237.018C109.633 237.172 109.586 237.345 109.586 237.522V242.926C109.586 243.103 109.633 243.276 109.722 243.43C109.811 243.583 109.938 243.71 110.092 243.799L114.781 246.498C114.935 246.587 115.109 246.634 115.286 246.634C115.464 246.634 115.638 246.587 115.792 246.498L124.152 241.679C124.306 241.591 124.48 241.545 124.657 241.545C124.835 241.545 125.009 241.591 125.163 241.679L127.832 243.217C127.986 243.305 128.113 243.432 128.202 243.586C128.291 243.739 128.337 243.913 128.338 244.089V247.165C128.337 247.342 128.291 247.516 128.202 247.669C128.113 247.823 127.986 247.95 127.832 248.038L125.171 249.576C125.017 249.664 124.842 249.71 124.665 249.71C124.488 249.71 124.313 249.664 124.16 249.576L121.49 248.038C121.337 247.95 121.209 247.823 121.12 247.669C121.032 247.516 120.985 247.342 120.985 247.165V245.688C120.985 245.644 120.973 245.6 120.951 245.562C120.929 245.524 120.898 245.492 120.859 245.47C120.821 245.448 120.778 245.436 120.733 245.436C120.689 245.436 120.646 245.448 120.608 245.47L119.218 246.269C119.141 246.314 119.078 246.378 119.034 246.454C118.99 246.531 118.967 246.618 118.967 246.706V248.329C118.967 248.506 119.013 248.679 119.102 248.833C119.19 248.986 119.317 249.113 119.47 249.202L124.16 251.902C124.313 251.99 124.488 252.037 124.665 252.037C124.843 252.037 125.017 251.99 125.171 251.902L129.86 249.202C130.013 249.113 130.141 248.986 130.23 248.833C130.318 248.68 130.365 248.506 130.365 248.329V242.926C130.365 242.749 130.318 242.575 130.23 242.422C130.141 242.269 130.013 242.141 129.86 242.053L125.171 239.353C125.017 239.265 124.843 239.218 124.665 239.218C124.488 239.218 124.313 239.265 124.16 239.353Z" fill="#F0B00B"/>
</g>
<g filter="url(#filter10_d_66_261)">
<path d="M36.2638 185.644H20.6794L24.6222 181.722H40.2065L36.2638 185.644Z" fill="#F0B00B"/>
<path d="M36.2638 197.855H20.6794L24.6222 193.935H40.2065" fill="#F0B00B"/>
<path d="M24.6222 191.75H40.2065L36.2638 187.828H20.6794" fill="#F0B00B"/>
</g>
<g filter="url(#filter11_d_66_261)">
<path d="M28.709 94.6453C28.5709 94.6453 28.4309 94.6453 28.2871 94.6278C28.2355 94.6232 28.1879 94.5983 28.1547 94.5587C28.1216 94.519 28.1055 94.4679 28.1102 94.4164C28.1148 94.365 28.1397 94.3175 28.1795 94.2844C28.2192 94.2513 28.2705 94.2353 28.3221 94.2399C29.0168 94.2878 29.7143 94.2029 30.377 93.9898C30.4251 93.9739 30.4775 93.9774 30.523 93.9995C30.5685 94.0216 30.6036 94.0605 30.6208 94.108C30.638 94.1554 30.636 94.2077 30.6152 94.2538C30.5943 94.2998 30.5563 94.3359 30.5092 94.3544C29.9278 94.5436 29.3205 94.6418 28.709 94.6453Z" fill="#F0B00B"/>
<path d="M30.4432 95.84C30.2318 95.8453 30.0206 95.8271 29.8133 95.7857C29.7876 95.7805 29.7634 95.7701 29.7419 95.7552C29.7203 95.7403 29.7021 95.7213 29.6881 95.6992C29.6742 95.6771 29.6648 95.6524 29.6607 95.6267C29.6565 95.6009 29.6576 95.5746 29.6639 95.5492C29.6702 95.5239 29.6815 95.5001 29.6973 95.4792C29.713 95.4584 29.7328 95.4409 29.7554 95.4278C29.7781 95.4148 29.8032 95.4064 29.8291 95.4033C29.8551 95.4001 29.8815 95.4022 29.9066 95.4095C30.0834 95.4425 30.2633 95.4568 30.4432 95.4521C30.623 95.4562 30.8028 95.4419 30.9798 95.4095C31.0049 95.4022 31.0312 95.4001 31.0572 95.4033C31.0832 95.4064 31.1083 95.4148 31.1309 95.4278C31.1536 95.4409 31.1734 95.4584 31.1891 95.4792C31.2048 95.5001 31.2162 95.5239 31.2225 95.5492C31.2287 95.5746 31.2298 95.6009 31.2257 95.6267C31.2215 95.6524 31.2122 95.6771 31.1982 95.6992C31.1843 95.7213 31.166 95.7403 31.1445 95.7552C31.123 95.7701 31.0987 95.7805 31.0731 95.7857C30.8658 95.8271 30.6545 95.8453 30.4432 95.84Z" fill="#F0B00B"/>
<path d="M30.443 94.366C30.3914 94.366 30.3419 94.3456 30.3055 94.3092C30.269 94.2728 30.2485 94.2235 30.2485 94.1721V93.0763C30.2485 93.0248 30.269 92.9755 30.3055 92.9391C30.3419 92.9028 30.3914 92.8823 30.443 92.8823C30.4945 92.8823 30.544 92.9028 30.5804 92.9391C30.6169 92.9755 30.6374 93.0248 30.6374 93.0763V94.1721C30.6374 94.2235 30.6169 94.2728 30.5804 94.3092C30.544 94.3456 30.4945 94.366 30.443 94.366Z" fill="#F0B00B"/>
<path d="M30.4275 91.354C29.8929 91.354 29.3447 91.5227 29.331 91.9242C29.3058 92.6418 29.9493 93.3672 30.4275 93.3497C30.9194 93.3672 31.5804 92.6418 31.5552 91.9242C31.5396 91.5247 30.9777 91.354 30.4275 91.354Z" fill="#F0B00B"/>
<path d="M32.1772 94.6451C31.5656 94.6416 30.9583 94.5434 30.3769 94.3542C30.3522 94.3461 30.3294 94.3331 30.3098 94.316C30.2903 94.2989 30.2743 94.2781 30.263 94.2548C30.2516 94.2315 30.245 94.2061 30.2437 94.1802C30.2423 94.1543 30.2462 94.1284 30.255 94.1041C30.2638 94.0797 30.2775 94.0573 30.2952 94.0383C30.3128 94.0192 30.3341 94.0039 30.3578 93.9933C30.3815 93.9826 30.4071 93.9768 30.4331 93.9761C30.4591 93.9755 30.4849 93.9801 30.5091 93.9896C31.1723 94.201 31.8694 94.2859 32.5641 94.2398C32.6156 94.2351 32.6669 94.2511 32.7067 94.2842C32.7464 94.3173 32.7713 94.3648 32.776 94.4163C32.7806 94.4677 32.7646 94.5189 32.7314 94.5585C32.6982 94.5982 32.6506 94.623 32.5991 94.6277C32.4552 94.6393 32.3152 94.6451 32.1772 94.6451Z" fill="#F0B00B"/>
<path d="M32.4573 94.4358L31.7205 94.4474L31.6719 95.902L32.4573 94.4358Z" fill="#F0B00B"/>
<path d="M28.429 94.4358L29.2144 95.902L29.1658 94.4474L28.429 94.4358Z" fill="#F0B00B"/>
<path d="M37.3662 86.7438C37.3662 86.7438 38.801 82.3742 38.4764 80.8012C38.2994 79.9479 37.8484 79.5871 36.8802 79.9614C35.286 80.5782 33.7987 82.9114 33.7987 82.9114C32.6992 82.6463 31.5741 82.5007 30.4431 82.477C29.3122 82.5007 28.1871 82.6463 27.0875 82.9114C27.0875 82.9114 25.6002 80.584 24.006 79.9614C23.0339 79.5871 22.5868 79.9479 22.4099 80.8012C22.0833 82.3742 23.52 86.7438 23.52 86.7438C23.1545 87.5967 22.8359 88.4688 22.5654 89.3563C22.3593 90.1321 22.3924 91.4277 22.3924 91.4277V91.5712C22.3799 92.5226 22.6949 93.4495 23.2847 94.1972C24.7876 96.1794 28.3668 97.731 30.4431 97.731C32.5195 97.731 36.0987 96.1794 37.5995 94.1972C38.1893 93.4494 38.5042 92.5226 38.4919 91.5712V91.4277C38.4919 91.4277 38.525 90.1263 38.3189 89.3563C38.0491 88.4689 37.7311 87.5968 37.3662 86.7438ZM33.3593 87.0483C33.4196 86.7089 33.719 86.2492 34.1603 86.2492C34.5492 86.2492 35.0274 86.7477 35.0371 87.0793C35.0469 87.411 34.6483 87.57 34.1837 87.5506C33.719 87.5312 33.303 87.3897 33.3593 87.0483ZM33.5771 88.7744C34.31 88.3497 35.2121 88.0084 35.4513 88.2256C35.6904 88.4428 35.6787 89.3893 34.4189 89.8877C33.3068 90.3241 32.4281 90.1515 32.3251 89.9478C32.152 89.5968 33.1649 89.0188 33.581 88.7744H33.5771ZM26.7181 86.2531C27.1594 86.2531 27.4588 86.7128 27.5191 87.0522C27.5794 87.3916 27.1575 87.5332 26.6948 87.5545C26.2321 87.5759 25.8316 87.4129 25.8413 87.0832C25.851 86.7535 26.3254 86.2492 26.722 86.2492L26.7181 86.2531ZM25.4311 88.2275C25.6702 88.0103 26.5723 88.3516 27.3053 88.7764C27.7252 89.0208 28.7342 89.5987 28.5573 89.9498C28.4542 90.1437 27.5852 90.326 26.4634 89.8897C25.2036 89.3912 25.1939 88.4409 25.4311 88.2275ZM37.2904 93.9664C35.8867 95.8342 32.3873 97.3431 30.4431 97.3431C28.499 97.3431 25.0092 95.8361 23.5978 93.9664C23.0778 93.3165 22.7916 92.5113 22.7851 91.6798C23.5494 91.6471 24.3146 91.7182 25.0598 91.8912C25.8005 92.0968 26.8328 93.0995 26.8445 93.1092L27.0758 93.3361L27.1672 93.0258C27.1672 93.0122 27.5677 91.6682 28.2657 91.0863C28.8353 90.6073 29.508 90.392 30.4431 90.392C31.3783 90.392 32.0509 90.6073 32.6206 91.0863C33.3185 91.6682 33.7151 93.0122 33.719 93.0258L33.8104 93.3361L34.0417 93.1092C34.0534 93.1092 35.0857 92.0968 35.8265 91.8912C36.5717 91.7192 37.3368 91.6481 38.1011 91.6798C38.0942 92.5106 37.808 93.3151 37.2885 93.9645L37.2904 93.9664Z" fill="#F0B00B"/>
</g>
<g filter="url(#filter12_b_66_261)">
<path d="M79.1995 118.004L119.433 94.8406L159.666 118.004V166.648L119.433 189.812L79.1995 166.648V118.004Z" stroke="#F0B00B"/>
</g>
<path d="M121.902 114.061L121.587 115.329V152.129L121.902 152.501L136.32 142.404L121.902 114.061Z" fill="#F0B00B"/>
<path d="M117.054 114.061L102.321 142.404L117.054 152.501V134.64V114.061Z" fill="#F0B00B"/>
<path d="M119.19 155.995L118.977 156.255V169.517L119.19 170.138L136.524 145.785L119.19 155.995Z" fill="#F0B00B"/>
<path d="M119.19 170.138V155.995L101.867 145.785L119.19 170.138Z" fill="#F0B00B"/>
<defs>
<filter id="filter0_b_66_261" x="82.033" y="-7.5769" width="75.9333" height="86.6863" filterUnits="userSpaceOnUse" color-interpolation-filters="sRGB">
<feFlood flood-opacity="0" result="BackgroundImageFix"/>
<feGaussianBlur in="BackgroundImage" stdDeviation="4"/>
<feComposite in2="SourceAlpha" operator="in" result="effect1_backgroundBlur_66_261"/>
<feBlend mode="normal" in="SourceGraphic" in2="effect1_backgroundBlur_66_261" result="shape"/>
</filter>
<filter id="filter1_d_66_261" x="89.5332" y="5.6123" width="60.8853" height="60.8254" filterUnits="userSpaceOnUse" color-interpolation-filters="sRGB">
<feFlood flood-opacity="0" result="BackgroundImageFix"/>
<feColorMatrix in="SourceAlpha" type="matrix" values="0 0 0 0 0 0 0 0 0 0 0 0 0 0 0 0 0 0 127 0" result="hardAlpha"/>
<feOffset/>
<feGaussianBlur stdDeviation="9"/>
<feComposite in2="hardAlpha" operator="out"/>
<feColorMatrix type="matrix" values="0 0 0 0 0.941176 0 0 0 0 0.690196 0 0 0 0 0.0431373 0 0 0 0.8 0"/>
<feBlend mode="normal" in2="BackgroundImageFix" result="effect1_dropShadow_66_261"/>
<feBlend mode="normal" in="SourceGraphic" in2="effect1_dropShadow_66_261" result="shape"/>
</filter>
<filter id="filter2_b_66_261" x="171.567" y="44.9958" width="75.9333" height="86.6863" filterUnits="userSpaceOnUse" color-interpolation-filters="sRGB">
<feFlood flood-opacity="0" result="BackgroundImageFix"/>
<feGaussianBlur in="BackgroundImage" stdDeviation="4"/>
<feComposite in2="SourceAlpha" operator="in" result="effect1_backgroundBlur_66_261"/>
<feBlend mode="normal" in="SourceGraphic" in2="effect1_backgroundBlur_66_261" result="shape"/>
</filter>
<filter id="filter3_b_66_261" x="171.567" y="146.751" width="75.9333" height="86.6863" filterUnits="userSpaceOnUse" color-interpolation-filters="sRGB">
<feFlood flood-opacity="0" result="BackgroundImageFix"/>
<feGaussianBlur in="BackgroundImage" stdDeviation="4"/>
<feComposite in2="SourceAlpha" operator="in" result="effect1_backgroundBlur_66_261"/>
<feBlend mode="normal" in="SourceGraphic" in2="effect1_backgroundBlur_66_261" result="shape"/>
</filter>
<filter id="filter4_b_66_261" x="82.033" y="199.891" width="75.9333" height="86.6863" filterUnits="userSpaceOnUse" color-interpolation-filters="sRGB">
<feFlood flood-opacity="0" result="BackgroundImageFix"/>
<feGaussianBlur in="BackgroundImage" stdDeviation="4"/>
<feComposite in2="SourceAlpha" operator="in" result="effect1_backgroundBlur_66_261"/>
<feBlend mode="normal" in="SourceGraphic" in2="effect1_backgroundBlur_66_261" result="shape"/>
</filter>
<filter id="filter5_b_66_261" x="-7.5" y="146.751" width="75.9333" height="86.6863" filterUnits="userSpaceOnUse" color-interpolation-filters="sRGB">
<feFlood flood-opacity="0" result="BackgroundImageFix"/>
<feGaussianBlur in="BackgroundImage" stdDeviation="4"/>
<feComposite in2="SourceAlpha" operator="in" result="effect1_backgroundBlur_66_261"/>
<feBlend mode="normal" in="SourceGraphic" in2="effect1_backgroundBlur_66_261" result="shape"/>
</filter>
<filter id="filter6_d_66_261" x="191.067" y="69.6208" width="36.8853" height="36.8254" filterUnits="userSpaceOnUse" color-interpolation-filters="sRGB">
<feFlood flood-opacity="0" result="BackgroundImageFix"/>
<feColorMatrix in="SourceAlpha" type="matrix" values="0 0 0 0 0 0 0 0 0 0 0 0 0 0 0 0 0 0 127 0" result="hardAlpha"/>
<feOffset/>
<feGaussianBlur stdDeviation="3"/>
<feComposite in2="hardAlpha" operator="out"/>
<feColorMatrix type="matrix" values="0 0 0 0 0.941176 0 0 0 0 0.690196 0 0 0 0 0.0431373 0 0 0 0.8 0"/>
<feBlend mode="normal" in2="BackgroundImageFix" result="effect1_dropShadow_66_261"/>
<feBlend mode="normal" in="SourceGraphic" in2="effect1_dropShadow_66_261" result="shape"/>
</filter>
<filter id="filter7_b_66_261" x="-7.5" y="44.9958" width="75.9333" height="86.6863" filterUnits="userSpaceOnUse" color-interpolation-filters="sRGB">
<feFlood flood-opacity="0" result="BackgroundImageFix"/>
<feGaussianBlur in="BackgroundImage" stdDeviation="4"/>
<feComposite in2="SourceAlpha" operator="in" result="effect1_backgroundBlur_66_261"/>
<feBlend mode="normal" in="SourceGraphic" in2="effect1_backgroundBlur_66_261" result="shape"/>
</filter>
<filter id="filter8_d_66_261" x="179.067" y="159.376" width="60.8853" height="60.8254" filterUnits="userSpaceOnUse" color-interpolation-filters="sRGB">
<feFlood flood-opacity="0" result="BackgroundImageFix"/>
<feColorMatrix in="SourceAlpha" type="matrix" values="0 0 0 0 0 0 0 0 0 0 0 0 0 0 0 0 0 0 127 0" result="hardAlpha"/>
<feOffset/>
<feGaussianBlur stdDeviation="9"/>
<feComposite in2="hardAlpha" operator="out"/>
<feColorMatrix type="matrix" values="0 0 0 0 0.941176 0 0 0 0 0.690196 0 0 0 0 0.0431373 0 0 0 0.8 0"/>
<feBlend mode="normal" in2="BackgroundImageFix" result="effect1_dropShadow_66_261"/>
<feBlend mode="normal" in="SourceGraphic" in2="effect1_dropShadow_66_261" result="shape"/>
</filter>
<filter id="filter9_d_66_261" x="89.5332" y="212.513" width="60.8853" height="60.8254" filterUnits="userSpaceOnUse" color-interpolation-filters="sRGB">
<feFlood flood-opacity="0" result="BackgroundImageFix"/>
<feColorMatrix in="SourceAlpha" type="matrix" values="0 0 0 0 0 0 0 0 0 0 0 0 0 0 0 0 0 0 127 0" result="hardAlpha"/>
<feOffset/>
<feGaussianBlur stdDeviation="9"/>
<feComposite in2="hardAlpha" operator="out"/>
<feColorMatrix type="matrix" values="0 0 0 0 0.941176 0 0 0 0 0.690196 0 0 0 0 0.0431373 0 0 0 0.8 0"/>
<feBlend mode="normal" in2="BackgroundImageFix" result="effect1_dropShadow_66_261"/>
<feBlend mode="normal" in="SourceGraphic" in2="effect1_dropShadow_66_261" result="shape"/>
</filter>
<filter id="filter10_d_66_261" x="0.000488281" y="159.376" width="60.8853" height="60.8254" filterUnits="userSpaceOnUse" color-interpolation-filters="sRGB">
<feFlood flood-opacity="0" result="BackgroundImageFix"/>
<feColorMatrix in="SourceAlpha" type="matrix" values="0 0 0 0 0 0 0 0 0 0 0 0 0 0 0 0 0 0 127 0" result="hardAlpha"/>
<feOffset/>
<feGaussianBlur stdDeviation="9"/>
<feComposite in2="hardAlpha" operator="out"/>
<feColorMatrix type="matrix" values="0 0 0 0 0.941176 0 0 0 0 0.690196 0 0 0 0 0.0431373 0 0 0 0.8 0"/>
<feBlend mode="normal" in2="BackgroundImageFix" result="effect1_dropShadow_66_261"/>
<feBlend mode="normal" in="SourceGraphic" in2="effect1_dropShadow_66_261" result="shape"/>
</filter>
<filter id="filter11_d_66_261" x="0.000488281" y="57.6208" width="60.8853" height="60.8254" filterUnits="userSpaceOnUse" color-interpolation-filters="sRGB">
<feFlood flood-opacity="0" result="BackgroundImageFix"/>
<feColorMatrix in="SourceAlpha" type="matrix" values="0 0 0 0 0 0 0 0 0 0 0 0 0 0 0 0 0 0 127 0" result="hardAlpha"/>
<feOffset/>
<feGaussianBlur stdDeviation="9"/>
<feComposite in2="hardAlpha" operator="out"/>
<feColorMatrix type="matrix" values="0 0 0 0 0.941176 0 0 0 0 0.690196 0 0 0 0 0.0431373 0 0 0 0.8 0"/>
<feBlend mode="normal" in2="BackgroundImageFix" result="effect1_dropShadow_66_261"/>
<feBlend mode="normal" in="SourceGraphic" in2="effect1_dropShadow_66_261" result="shape"/>
</filter>
<filter id="filter12_b_66_261" x="70.6995" y="86.2637" width="97.4666" height="112.125" filterUnits="userSpaceOnUse" color-interpolation-filters="sRGB">
<feFlood flood-opacity="0" result="BackgroundImageFix"/>
<feGaussianBlur in="BackgroundImage" stdDeviation="4"/>
<feComposite in2="SourceAlpha" operator="in" result="effect1_backgroundBlur_66_261"/>
<feBlend mode="normal" in="SourceGraphic" in2="effect1_backgroundBlur_66_261" result="shape"/>
</filter>
</defs>
</svg>
