<svg width="292" height="195" viewBox="0 0 292 195" fill="none" xmlns="http://www.w3.org/2000/svg">
<g filter="url(#filter0_f_119_3328)">
<path d="M146.174 154.989V109.382L185.358 86.2568L187.285 132.507L146.174 154.989Z" fill="#F0B00B"/>
</g>
<g filter="url(#filter1_f_119_3328)">
<path d="M146.174 109.382L107.632 86.2568V133.149L146.174 154.989V109.382Z" fill="#F0B00B"/>
</g>
<path d="M146.174 140.215V94.6077L185.358 71.4827V118.75L146.174 140.215Z" fill="url(#paint0_linear_119_3328)"/>
<path d="M146.174 94.6077L107.632 71.4827V118.25L146.174 140.215V94.6077Z" fill="url(#paint1_linear_119_3328)"/>
<g clip-path="url(#clip0_119_3328)">
<path d="M131.075 101.344L117.977 93.7813C117.503 93.5077 117.049 93.4627 116.714 93.6561C116.379 93.8495 116.191 94.2655 116.191 94.8125L116.191 108.563C116.191 109.11 116.379 109.743 116.714 110.323C117.049 110.903 117.503 111.383 117.977 111.656L131.075 119.219C131.549 119.492 132.004 119.537 132.339 119.344C132.673 119.15 132.862 118.735 132.862 118.188L132.862 104.438C132.862 103.89 132.673 103.257 132.339 102.677C132.004 102.097 131.549 101.617 131.075 101.344Z" stroke="white" stroke-width="1.5" stroke-linecap="round" stroke-linejoin="round"/>
<path d="M118.572 96.875L121.549 101.344L118.572 102.375" stroke="white" stroke-width="1.5" stroke-linecap="round" stroke-linejoin="round"/>
<path d="M122.145 104.438L124.526 105.813" stroke="white" stroke-width="1.5" stroke-linecap="round" stroke-linejoin="round"/>
</g>
<path d="M107.632 71.4826L146.174 49L185.358 71.4826L146.174 94.6076L107.632 71.4826Z" fill="#F0B00B"/>
<g clip-path="url(#clip1_119_3328)">
<path d="M151.39 74.3484C154.611 72.489 154.611 69.4722 151.39 67.6129C148.169 65.7535 142.944 65.7535 139.723 67.6129C136.502 69.4722 136.502 72.489 139.723 74.3484C142.944 76.2078 148.169 76.2078 151.39 74.3484Z" stroke="white" stroke-width="1.5" stroke-linecap="round" stroke-linejoin="round"/>
<path d="M150.904 71.2613L141.959 71.7103L142.153 69.5774" stroke="white" stroke-width="1.5" stroke-linecap="round" stroke-linejoin="round"/>
</g>
<path opacity="0.2" d="M146 42.7535L102.178 69.0903V119.194L146 148.101M146 42.7535L191.756 69.0903M146 42.7535L128.6 32.4757M146 42.7535L164.689 32.4757M146 148.101L191.756 119.194M146 148.101L130.533 157.094M146 148.101L162.756 157.094M191.756 119.194V69.0903M191.756 119.194V139.75M191.756 119.194L207.222 109.559L223.978 119.837M191.756 119.194L207.222 127.545M191.756 69.0903L209.156 76.7986M191.756 69.0903V48.1158M130.533 157.094L129.889 176.365L146 186L162.756 175.722V157.094M130.533 157.094L114.422 147.875M162.756 157.094L178.171 147.875M95.7333 137.181L80.9111 147.458M95.7333 137.181V119.194M95.7333 137.181L114.422 147.875M80.9111 147.458L64.1556 137.823V119.194M80.9111 147.458V127.545M64.1556 119.194L80.9111 127.545M64.1556 119.194L80.9111 109.559L95.7333 119.194M64.1556 119.194L50.9444 111.486M80.9111 127.545L95.7333 119.194M37.7333 103.778L21.6222 114.698L2.93333 104.42V83.8646L20.3333 72.9444L37.7333 83.8646M37.7333 103.778V83.8646M37.7333 103.778L50.9444 111.486M37.7333 83.8646L52.5556 76.1562M50.9444 111.486L22.9111 128.83M22.9111 128.83V141.677L12.6 147.458M22.9111 128.83L12.6 134.611M22.9111 128.83L12.6 122.406L1 128.83M12.6 147.458L1 141.677V128.83M12.6 147.458V134.611M1 128.83L12.6 134.611M114.422 147.875L86.0667 164.16M86.0667 164.16V179.576L75.1111 184.715L62.2222 178.292V164.16L75.1111 156.451L86.0667 164.16ZM191.756 139.75L178.171 147.875M191.756 139.75L207.222 147.458M178.171 147.875L205.289 163.517M205.289 163.517V176.365L216.244 182.788M205.289 163.517L216.244 157.094L226.556 164.802M205.289 163.517L216.244 170.583M216.244 182.788L226.556 176.365V164.802M216.244 182.788V170.583M226.556 164.802L216.244 170.583M207.222 147.458L223.978 137.823V119.837M207.222 147.458V127.545M223.978 119.837L207.222 127.545M223.978 119.837L240.089 112.45M254.267 104.42L271.667 114.056L289.711 104.42V83.2222L271.667 72.9444L254.267 83.2222M254.267 104.42V83.2222M254.267 104.42L240.089 112.45M254.267 83.2222L239.767 75.5139M240.089 112.45L269.089 128.83M269.089 128.83V141.035L279.4 147.458M269.089 128.83L279.4 122.406L291 128.83M269.089 128.83L279.4 134.611M279.4 147.458L291 141.035V128.83M279.4 147.458V134.611M291 128.83L279.4 134.611M6.15556 44.0382L17.1111 36.9722L27.4222 44.0382M6.15556 44.0382L17.1111 49.1771M6.15556 44.0382V56.8854L17.1111 62.6667M17.1111 49.1771V62.6667M17.1111 49.1771L27.4222 44.0382M17.1111 62.6667L23.5556 59.0534M27.4222 44.0382V56.8854L23.5556 59.0534M23.5556 59.0534L52.5556 76.1562M52.5556 76.1562L68.6667 67.1632M68.6667 67.1632L84.1333 76.1562M68.6667 67.1632V49.1771M84.1333 76.1562V56.8854M84.1333 76.1562L99.6 67.1632V49.1771M84.1333 56.8854L68.6667 49.1771M84.1333 56.8854L99.6 49.1771M68.6667 49.1771L84.1333 39.5417L99.6 49.1771M99.6 49.1771L109.267 43.61M128.6 32.4757V11.9201L146 1L164.689 11.9201V32.4757M128.6 32.4757L109.267 43.61M164.689 32.4757L182.476 42.7535M109.267 43.61L82.8444 27.9792M82.8444 27.9792L75.7556 31.8333L62.8667 24.7674V9.99306L75.7556 2.28472L88 9.99306V24.7674L82.8444 27.9792ZM209.156 58.1701V76.7986M209.156 58.1701L191.756 48.1158M209.156 58.1701L225.267 48.1158M209.156 76.7986L225.267 67.8056M191.756 48.1158L209.156 38.8993L225.267 48.1158M191.756 48.1158L182.476 42.7535M225.267 48.1158V67.8056M225.267 67.8056L239.767 75.5139M182.476 42.7535L210.444 26.0521M210.444 26.0521L217.533 29.9062M210.444 26.0521L205.933 22.8403V10.6354M217.533 29.9062V16.4167M217.533 29.9062L228.489 22.8403V10.6354M217.533 16.4167L205.933 10.6354M217.533 16.4167L228.489 10.6354M205.933 10.6354L217.533 4.21181L228.489 10.6354M239.767 75.5139L269.089 58.1701M269.089 58.1701L275.533 62.6667L287.778 55.6007V42.1111L275.533 35.0451L263.933 42.1111V55.6007L269.089 58.1701Z" stroke="white"/>
<path d="M150.336 23.5031V21.5515L148.749 22.4671V24.4203L150.336 23.5031Z" fill="#F0B00B"/>
<path d="M150.336 18.497L148.689 17.5454L146 19.0985L143.311 17.5454L141.664 18.497V20.2267L144.398 21.8063V25.0829L146 26.0079L147.602 25.0829V21.8063L150.336 20.2267V18.497Z" fill="#F0B00B"/>
<path d="M153.086 18.639V16.9093L151.439 15.9578L149.836 16.8828L151.483 17.8343V19.564L153.086 18.639Z" fill="#F0B00B"/>
<path d="M140.517 19.564V17.8343L142.164 16.8828L140.561 15.9578L138.914 16.9093V18.639L140.517 19.564Z" fill="#F0B00B"/>
<path d="M141.664 23.5031L143.252 24.4203V22.4671L141.664 21.5515V23.5031Z" fill="#F0B00B"/>
<path d="M147.602 26.4077L146 27.3327L144.398 26.4077V28.2577L146 29.1827L147.602 28.2577V26.4077Z" fill="#F0B00B"/>
<path d="M147.542 16.8828L146 15.9922L144.458 16.8828L146 17.7734L147.542 16.8828Z" fill="#F0B00B"/>
<path d="M151.483 20.8891V24.1657L148.749 25.7454V27.5954L153.086 25.0907V19.9641L151.483 20.8891Z" fill="#F0B00B"/>
<path d="M143.252 25.7454L140.517 24.1657V20.8891L138.914 19.9641V25.0907L143.252 27.5954V25.7454Z" fill="#F0B00B"/>
<path d="M143.311 16.2203L146 14.6687L148.689 16.2203L150.292 15.2953L146 12.8171L141.708 15.2953L143.311 16.2203Z" fill="#F0B00B"/>
<path d="M20.0001 89.4437L25.5595 93.0687L20.0001 85.0938L14.5688 93.0734L20.0001 89.4437Z" fill="#F0B00B"/>
<path d="M25.611 93.9968L20.0001 90.4734L14.3892 94L20.0001 97.5265L25.611 93.9968Z" fill="#F0B00B"/>
<path d="M14.4407 94.9266L20 102.906L25.4313 94.925L20 98.5563L14.4407 94.9266Z" fill="#F0B00B"/>
<path d="M273.719 91.7781V89.8234H278.166V86.739H265.822V89.8234H270.281V91.7781C266.545 91.9578 263.741 92.7078 263.741 93.6062C263.741 94.5046 266.542 95.25 270.281 95.4343V101.886H273.719V95.4343C277.455 95.2562 280.259 94.5062 280.259 93.6062C280.259 92.7062 277.458 91.9578 273.719 91.7781ZM272 94.85C267.955 94.85 264.675 94.2249 264.675 93.4718C264.675 92.8234 267.064 92.2796 270.278 92.1343V94.3421C270.831 94.3671 271.406 94.3812 271.997 94.3812C272.588 94.3812 273.166 94.3671 273.716 94.3421V92.1343C276.93 92.2796 279.319 92.8234 279.319 93.4718C279.325 94.2328 276.045 94.85 272 94.85Z" fill="#F0B00B"/>
<path d="M149.362 164.122L142.644 168.005C142.52 168.075 142.38 168.113 142.237 168.113C142.095 168.113 141.955 168.075 141.831 168.005L139.68 166.766C139.558 166.693 139.457 166.59 139.387 166.467C139.317 166.344 139.28 166.204 139.281 166.063V163.584C139.281 163.442 139.319 163.302 139.39 163.178C139.461 163.055 139.564 162.953 139.687 162.881L141.833 161.642C141.956 161.571 142.096 161.534 142.239 161.534C142.381 161.534 142.521 161.571 142.645 161.642L144.791 162.881C144.914 162.953 145.016 163.055 145.088 163.178C145.159 163.302 145.197 163.442 145.197 163.584V164.773C145.197 164.809 145.206 164.844 145.224 164.875C145.242 164.905 145.267 164.931 145.298 164.949C145.328 164.967 145.363 164.976 145.399 164.976C145.434 164.977 145.469 164.967 145.5 164.95L146.617 164.305C146.679 164.269 146.73 164.218 146.765 164.156C146.8 164.094 146.819 164.024 146.819 163.953V162.647C146.819 162.505 146.781 162.365 146.71 162.241C146.639 162.118 146.537 162.015 146.414 161.944L142.637 159.769C142.514 159.697 142.374 159.66 142.231 159.66C142.088 159.66 141.948 159.697 141.825 159.769L138.056 161.944C137.933 162.015 137.83 162.118 137.759 162.241C137.688 162.364 137.65 162.504 137.65 162.647V167C137.65 167.143 137.688 167.283 137.759 167.406C137.83 167.529 137.933 167.632 138.056 167.703L141.825 169.878C141.948 169.95 142.088 169.987 142.231 169.987C142.374 169.987 142.514 169.95 142.637 169.878L149.356 165.995C149.48 165.925 149.62 165.887 149.762 165.887C149.905 165.887 150.045 165.925 150.169 165.995L152.314 167.234C152.437 167.306 152.54 167.408 152.611 167.532C152.683 167.655 152.72 167.795 152.72 167.938V170.416C152.72 170.558 152.683 170.698 152.611 170.822C152.54 170.945 152.437 171.047 152.314 171.119L150.175 172.358C150.051 172.429 149.911 172.466 149.769 172.466C149.626 172.466 149.486 172.429 149.362 172.358L147.217 171.119C147.094 171.047 146.991 170.945 146.92 170.822C146.849 170.698 146.811 170.558 146.811 170.416V169.225C146.811 169.189 146.802 169.155 146.784 169.124C146.766 169.093 146.741 169.067 146.71 169.05C146.679 169.032 146.644 169.022 146.609 169.023C146.573 169.023 146.538 169.032 146.508 169.05L145.391 169.694C145.329 169.73 145.278 169.781 145.243 169.843C145.207 169.904 145.189 169.974 145.189 170.045V171.353C145.189 171.495 145.226 171.635 145.297 171.759C145.368 171.882 145.471 171.985 145.594 172.056L149.362 174.231C149.486 174.303 149.626 174.34 149.769 174.34C149.911 174.34 150.051 174.303 150.175 174.231L153.944 172.056C154.067 171.985 154.17 171.883 154.241 171.759C154.312 171.636 154.35 171.496 154.35 171.353V167C154.35 166.857 154.312 166.717 154.241 166.594C154.17 166.471 154.067 166.368 153.944 166.297L150.175 164.122C150.051 164.05 149.911 164.013 149.769 164.013C149.626 164.013 149.486 164.05 149.362 164.122Z" fill="#F0B00B"/>
<defs>
<filter id="filter0_f_119_3328" x="106.174" y="46.2568" width="121.111" height="148.733" filterUnits="userSpaceOnUse" color-interpolation-filters="sRGB">
<feFlood flood-opacity="0" result="BackgroundImageFix"/>
<feBlend mode="normal" in="SourceGraphic" in2="BackgroundImageFix" result="shape"/>
<feGaussianBlur stdDeviation="20" result="effect1_foregroundBlur_119_3328"/>
</filter>
<filter id="filter1_f_119_3328" x="67.6318" y="46.2568" width="118.542" height="148.733" filterUnits="userSpaceOnUse" color-interpolation-filters="sRGB">
<feFlood flood-opacity="0" result="BackgroundImageFix"/>
<feBlend mode="normal" in="SourceGraphic" in2="BackgroundImageFix" result="shape"/>
<feGaussianBlur stdDeviation="20" result="effect1_foregroundBlur_119_3328"/>
</filter>
<linearGradient id="paint0_linear_119_3328" x1="173" y1="78.75" x2="156.5" y2="141.25" gradientUnits="userSpaceOnUse">
<stop stop-color="#F0B00B"/>
<stop offset="1" stop-color="#B58200"/>
</linearGradient>
<linearGradient id="paint1_linear_119_3328" x1="112.128" y1="70.1979" x2="133.969" y2="142.142" gradientUnits="userSpaceOnUse">
<stop stop-color="#F0B00B"/>
<stop offset="1" stop-color="#DB9E01"/>
</linearGradient>
<clipPath id="clip0_119_3328">
<rect width="22" height="22" fill="white" transform="matrix(0.866025 0.5 -2.20305e-08 1 115 90)"/>
</clipPath>
<clipPath id="clip1_119_3328">
<rect width="17.9625" height="17.9625" fill="white" transform="matrix(0.866044 0.499967 -0.866044 0.499967 145.556 62)"/>
</clipPath>
</defs>
</svg>
