<svg width="191" height="281" viewBox="0 0 191 281" fill="none" xmlns="http://www.w3.org/2000/svg">
<mask id="mask0_208_729" style="mask-type:alpha" maskUnits="userSpaceOnUse" x="0" y="40" width="191" height="241">
<path fill-rule="evenodd" clip-rule="evenodd" d="M0 234.793L84.0427 40.5043C87.6993 40.1705 91.4032 40 95.1468 40C99.2833 40 103.371 40.2082 107.4 40.6147L191 233.879C171.664 259.143 142.566 276.54 109.341 280.435H80.9531C48.1296 276.587 19.3343 259.563 0 234.793Z" fill="white"/>
</mask>
<g mask="url(#mask0_208_729)">
<circle cx="95.5" cy="101.5" r="181.5" fill="#2F3848"/>
<circle cx="96.3596" cy="92.3596" r="122.36" fill="#262F40"/>
<circle cx="95.5" cy="81.5" r="64.5787" fill="#2F3848"/>
</g>
<path opacity="0.2" d="M86.892 93.466C87.924 94.138 88.44 95.086 88.44 96.31C88.44 97.402 88.05 98.29 87.27 98.974C86.49 99.658 85.524 100 84.372 100H79.08V87.4H84.012C85.128 87.4 86.07 87.736 86.838 88.408C87.606 89.068 87.99 89.932 87.99 91C87.99 92.02 87.624 92.842 86.892 93.466ZM84.012 90.1H81.96V92.332H84.012C84.336 92.332 84.6 92.23 84.804 92.026C85.008 91.81 85.11 91.54 85.11 91.216C85.11 90.892 85.008 90.628 84.804 90.424C84.6 90.208 84.336 90.1 84.012 90.1ZM81.96 97.3H84.372C84.732 97.3 85.02 97.192 85.236 96.976C85.452 96.748 85.56 96.454 85.56 96.094C85.56 95.734 85.452 95.446 85.236 95.23C85.02 95.002 84.732 94.888 84.372 94.888H81.96V97.3ZM90.0551 95.932V87.4H92.9351V95.68C92.9351 96.856 93.5951 97.444 94.9151 97.444C96.2351 97.444 96.8951 96.856 96.8951 95.68V87.4H99.7751V95.932C99.7751 97.264 99.3191 98.314 98.4071 99.082C97.4831 99.862 96.3191 100.252 94.9151 100.252C93.5111 100.252 92.3471 99.862 91.4231 99.082C90.5111 98.314 90.0551 97.264 90.0551 95.932ZM109.02 87.4H112.296L108.066 95.158V100H105.186V95.158L100.956 87.4H104.232L106.626 92.26L109.02 87.4Z" fill="white"/>
<path opacity="0.2" d="M67.8 172.4H70.68V185H67.8V177.674L64.542 183.02H64.218L60.96 177.674V185H58.08V172.4H60.96L64.38 177.998L67.8 172.4ZM84.3656 185H81.2156L80.5856 183.02H75.9056L75.2756 185H72.1256L76.4096 172.4H80.0816L84.3656 185ZM78.2456 175.694L76.7696 180.32H79.7216L78.2456 175.694ZM92.82 179.24V172.4H95.7V185H93.54L88.68 178.16V185H85.8V172.4H87.96L92.82 179.24ZM109.379 185H106.229L105.599 183.02H100.919L100.289 185H97.1386L101.423 172.4H105.095L109.379 185ZM103.259 175.694L101.783 180.32H104.735L103.259 175.694ZM116.512 177.98H122.83V179.06C122.83 180.932 122.242 182.438 121.066 183.578C119.902 184.694 118.42 185.252 116.62 185.252C114.664 185.252 113.038 184.622 111.742 183.362C110.458 182.102 109.816 180.554 109.816 178.718C109.816 176.882 110.452 175.328 111.724 174.056C112.996 172.784 114.562 172.148 116.422 172.148C117.586 172.148 118.654 172.412 119.626 172.94C120.61 173.456 121.378 174.152 121.93 175.028L119.482 176.432C119.194 175.988 118.774 175.634 118.222 175.37C117.682 175.094 117.076 174.956 116.404 174.956C115.336 174.956 114.448 175.31 113.74 176.018C113.044 176.714 112.696 177.62 112.696 178.736C112.696 179.816 113.056 180.71 113.776 181.418C114.496 182.102 115.456 182.444 116.656 182.444C118.312 182.444 119.386 181.796 119.878 180.5H116.512V177.98ZM127.694 179.996V182.228H132.734V185H124.814V172.4H132.644V175.172H127.694V177.26H132.194V179.996H127.694Z" fill="white"/>
<path opacity="0.2" d="M80.49 254.252C79.23 254.252 78.168 253.982 77.304 253.442C76.44 252.89 75.822 252.122 75.45 251.138L77.934 249.698C78.438 250.862 79.32 251.444 80.58 251.444C81.72 251.444 82.29 251.102 82.29 250.418C82.29 250.034 82.104 249.746 81.732 249.554C81.348 249.326 80.664 249.08 79.68 248.816C78.672 248.54 77.82 248.144 77.124 247.628C76.356 247.004 75.972 246.122 75.972 244.982C75.972 243.818 76.386 242.888 77.214 242.192C78.054 241.496 79.05 241.148 80.202 241.148C81.234 241.148 82.146 241.394 82.938 241.886C83.73 242.366 84.354 243.068 84.81 243.992L82.38 245.414C81.924 244.442 81.198 243.956 80.202 243.956C79.782 243.956 79.452 244.046 79.212 244.226C78.972 244.406 78.852 244.634 78.852 244.91C78.852 245.21 78.996 245.48 79.284 245.72C79.596 245.96 80.208 246.212 81.12 246.476L82.29 246.854C82.59 246.95 82.938 247.112 83.334 247.34C83.766 247.556 84.09 247.79 84.306 248.042C84.882 248.666 85.17 249.446 85.17 250.382C85.17 251.57 84.738 252.518 83.874 253.226C83.01 253.91 81.882 254.252 80.49 254.252ZM97.9535 254H94.8035L94.1735 252.02H89.4935L88.8635 254H85.7135L89.9975 241.4H93.6695L97.9535 254ZM91.8335 244.694L90.3575 249.32H93.3095L91.8335 244.694ZM102.268 241.4V251.228H106.768V254H99.3879V241.4H102.268ZM111.276 248.996V251.228H116.316V254H108.396V241.4H116.226V244.172H111.276V246.26H115.776V248.996H111.276Z" fill="white"/>
<g filter="url(#filter0_b_208_729)">
<g clip-path="url(#clip0_208_729)">
<rect x="99" y="92" width="24" height="24" rx="12" fill="white" fill-opacity="0.1"/>
<g filter="url(#filter1_d_208_729)">
<path d="M112.394 102.847V101.262H115.999V98.7615H105.991V101.262H109.606V102.847C106.577 102.993 104.303 103.601 104.303 104.329C104.303 105.058 106.575 105.662 109.606 105.812V111.043H112.394V105.812C115.423 105.667 117.697 105.059 117.697 104.329C117.697 103.6 115.425 102.993 112.394 102.847ZM111 105.338C107.72 105.338 105.061 104.831 105.061 104.221C105.061 103.695 106.998 103.254 109.604 103.136V104.926C110.052 104.946 110.519 104.958 110.997 104.958C111.476 104.958 111.945 104.946 112.391 104.926V103.136C114.997 103.254 116.934 103.695 116.934 104.221C116.939 104.837 114.28 105.338 111 105.338Z" fill="#F0B00B"/>
</g>
</g>
</g>
<g filter="url(#filter2_b_208_729)">
<g clip-path="url(#clip1_208_729)">
<rect x="82" y="60" width="24" height="24" rx="12" fill="white" fill-opacity="0.1"/>
<g filter="url(#filter3_d_208_729)">
<path d="M97.1394 70.8295C97.6854 69.4042 97.7728 68.2425 97.3927 67.5431C97.2864 67.3478 97.1363 67.1797 96.954 67.0522C96.7718 66.9247 96.5625 66.8413 96.3425 66.8083C96.1266 66.7622 95.9028 66.768 95.6896 66.8252C95.4764 66.8825 95.2798 66.9896 95.1161 67.1377C94.3357 67.8345 94.209 69.3003 94.1812 70.2011C94.0443 70.2011 93.9278 70.2011 93.8011 70.2011C93.7466 69.3003 93.644 67.8345 92.8598 67.139C92.6959 66.9903 92.499 66.8827 92.2853 66.8252C92.0716 66.7677 91.8473 66.7619 91.6309 66.8083C91.4106 66.842 91.201 66.9262 91.0186 67.0544C90.8362 67.1825 90.6859 67.3511 90.5794 67.5469C90.1993 68.2513 90.288 69.4181 90.8328 70.8472C89.2846 71.5769 88.4016 72.8489 88.4016 74.3654C88.4016 76.8877 90.5971 78.517 93.9949 78.517C97.3927 78.517 99.5883 76.8877 99.5883 74.3654C99.5933 72.8349 98.7027 71.5567 97.1394 70.8295ZM91.2331 71.1893L91.4485 71.098L91.3598 70.8814C90.7986 69.5081 90.6655 68.3755 90.9924 67.7724C91.0661 67.6381 91.1702 67.5229 91.2965 67.4362C91.4229 67.3495 91.5678 67.2937 91.7196 67.2733C91.7901 67.2595 91.8618 67.2523 91.9337 67.2518C92.1597 67.2539 92.3771 67.3392 92.5443 67.4912C93.4312 68.2361 93.3476 70.7002 93.3476 70.7002L93.5604 70.685C93.8461 70.6705 94.1324 70.6705 94.4181 70.685L94.6259 70.6977C94.6259 70.6977 94.5549 68.2387 95.4341 67.4963C95.5442 67.3971 95.6763 67.3255 95.8195 67.2876C95.9627 67.2497 96.1129 67.2466 96.2576 67.2784C96.4088 67.2984 96.553 67.3538 96.6787 67.4401C96.8044 67.5264 96.908 67.6411 96.981 67.775C97.3066 68.373 97.1748 69.5005 96.6174 70.87L96.5338 71.0816L96.7504 71.1728C98.0819 71.729 99.008 72.6931 99.0891 73.8814C99.2019 75.6284 96.8315 77.0094 94 77.0094C91.1685 77.0094 88.8057 75.6487 88.9134 73.9156C88.9844 72.7171 89.9054 71.7505 91.2331 71.1893Z" fill="#F0B00B"/>
<path d="M95.9523 74.6325C96.2825 74.6325 96.5503 74.2326 96.5503 73.7394C96.5503 73.2461 96.2825 72.8462 95.9523 72.8462C95.622 72.8462 95.3543 73.2461 95.3543 73.7394C95.3543 74.2326 95.622 74.6325 95.9523 74.6325Z" fill="#F0B00B"/>
<path d="M92.0401 74.6325C92.3704 74.6325 92.6381 74.2326 92.6381 73.7394C92.6381 73.2461 92.3704 72.8462 92.0401 72.8462C91.7099 72.8462 91.4421 73.2461 91.4421 73.7394C91.4421 74.2326 91.7099 74.6325 92.0401 74.6325Z" fill="#F0B00B"/>
</g>
</g>
</g>
<g filter="url(#filter4_b_208_729)">
<g clip-path="url(#clip2_208_729)">
<rect x="64" y="102" width="24" height="24" rx="12" fill="white" fill-opacity="0.1"/>
<g filter="url(#filter5_d_208_729)">
<path d="M80.4721 119.328C80.7317 119.217 80.9663 119.054 81.1621 118.851C81.3579 118.647 81.511 118.406 81.6123 118.143C81.9278 117.266 81.7973 116.289 81.2247 115.795C80.652 115.301 79.2825 114.574 79.2825 114.574C79.2825 114.574 78.9392 115.231 79.5359 116.152C80.106 117.039 80.4151 117.499 80.6064 117.996C80.8522 118.634 80.4721 119.328 80.4721 119.328Z" fill="#F0B00B"/>
<path d="M81.9417 116.288C81.9417 116.288 82.0773 115.347 80.595 114.768C79.4713 114.327 78.5338 113.952 78.0777 113.399C77.9341 113.23 77.8293 113.032 77.7706 112.818C77.712 112.603 77.7009 112.379 77.7382 112.16C77.7382 112.16 78.1005 112.597 79.5384 112.748C80.8611 112.888 81.6922 113.36 82.0393 114.12C82.2044 114.461 82.2819 114.838 82.2648 115.216C82.2478 115.595 82.1368 115.963 81.9417 116.288Z" fill="#F0B00B"/>
<path d="M78.6212 114.262C78.6212 114.262 78.9316 115.223 78.3754 115.791C77.8902 116.287 77.1719 116.288 76.6018 116.398C76.2087 116.474 75.834 116.626 75.4983 116.844C76.0368 116.705 76.5892 116.626 77.1453 116.61C77.9231 116.61 78.5832 116.292 78.8252 115.743C79.2344 114.825 78.6212 114.262 78.6212 114.262Z" fill="#F0B00B"/>
<path d="M75.8606 118.218C76.3129 118.024 76.7842 118.244 77.0819 118.643C77.3797 119.042 77.5025 119.882 78.1461 120.261C78.7897 120.64 79.4776 120.037 79.4776 120.037C79.4776 120.037 78.834 120.309 78.4464 120.12C78.0296 119.918 77.9662 119.563 77.8927 118.952C77.7661 117.955 77.2428 117.559 76.7829 117.391C76.1326 117.18 75.4255 117.231 74.8117 117.532C74.3746 117.751 73.9655 118.022 73.5929 118.339C73.5929 118.339 74.353 118.466 74.6571 118.647C74.9612 118.828 75.3488 119.444 75.734 119.564C76.0874 119.676 76.4536 119.62 76.6512 119.334C76.8488 119.047 76.7627 118.546 76.4409 118.438C76.0469 118.305 75.7656 118.492 75.7821 118.736C75.7789 118.801 75.8009 118.865 75.8436 118.914C75.8863 118.963 75.9464 118.994 76.0114 119C76.0114 119 75.758 118.874 75.8644 118.658C75.9911 118.421 76.2825 118.456 76.4409 118.567C76.6347 118.704 76.6639 119.175 76.3332 119.31C76.0025 119.444 75.5845 119.225 75.5211 118.962C75.4578 118.7 75.4818 118.381 75.8606 118.218Z" fill="#F0B00B"/>
<path d="M74.8839 111.624L69.5034 105.66C69.5034 105.66 74.0731 111.295 74.2365 111.488C74.3999 111.68 74.4899 111.85 74.348 111.98C74.2297 112.078 74.0868 112.141 73.935 112.163C73.8292 112.187 73.7188 112.179 73.6176 112.14C73.5164 112.101 73.4289 112.033 73.3661 111.945C73.1356 111.668 71.4519 109.003 71.4519 109.003C71.4519 109.003 72.9595 111.732 73.0367 111.893C73.114 112.054 73.1634 112.196 73.0874 112.297C72.9629 112.428 72.8576 112.575 72.7745 112.736C72.6909 112.941 72.6225 113.541 72.5528 113.801C72.3655 114.358 72.0634 114.87 71.666 115.303C71.3036 115.684 71.0236 116.178 71.1339 116.876C71.239 117.543 71.6685 118.073 71.7407 118.187C71.8148 118.289 71.8587 118.41 71.8674 118.535C71.8674 118.535 72.9443 118.409 73.5587 117.845C74.1111 117.338 73.8121 116.771 73.6499 116.627C73.5346 116.525 72.796 116.029 72.7225 115.768C72.6491 115.507 72.53 115.324 72.8822 114.618C73.2344 113.912 73.1444 113.838 73.1913 113.594C73.2382 113.351 73.228 112.85 73.508 112.748C73.788 112.647 74.1415 112.694 74.4785 112.495C74.97 112.196 74.8839 111.624 74.8839 111.624ZM71.8433 116.93C71.8228 116.93 71.8025 116.926 71.7836 116.918C71.7647 116.91 71.7477 116.899 71.7335 116.884C71.7194 116.869 71.7084 116.851 71.7014 116.832C71.6944 116.813 71.6913 116.792 71.6926 116.772C71.6926 116.687 71.7812 116.626 71.766 116.573C71.7508 116.52 71.6736 116.517 71.6571 116.446C71.6482 116.408 71.6812 116.336 71.8205 116.331C71.9004 116.336 71.9754 116.371 72.0299 116.429C72.0845 116.488 72.1143 116.565 72.1132 116.645C72.1109 116.718 72.082 116.787 72.032 116.839C71.982 116.892 71.9144 116.924 71.8421 116.93H71.8433Z" fill="#F0B00B"/>
<path d="M75.3336 112.76C75.2418 112.765 75.1521 112.79 75.0703 112.832C74.9885 112.874 74.9163 112.933 74.8583 113.004C74.8003 113.076 74.7578 113.159 74.7334 113.247C74.709 113.336 74.7033 113.429 74.7166 113.52C74.7584 113.842 75.1816 113.818 75.4438 113.737C75.7061 113.655 75.9861 113.61 75.962 113.282C75.9379 112.954 75.5452 112.748 75.3336 112.76ZM75.3425 113.28C75.1778 113.28 75.0448 113.189 75.0448 113.076C75.0448 112.964 75.1714 112.872 75.3425 112.872C75.5135 112.872 75.6402 112.964 75.6402 113.076C75.6402 113.189 75.5072 113.28 75.3425 113.28Z" fill="#F0B00B"/>
<path d="M74.3239 109.309C74.3239 109.309 74.9155 109.364 75.2019 109.815C75.4882 110.266 75.4552 110.871 75.6111 111.138C75.6872 111.284 75.7718 111.426 75.8644 111.562C75.9088 111.618 75.943 111.702 75.8366 111.721C75.5756 111.769 74.9877 111.531 74.666 110.895C74.1845 109.948 74.3239 109.309 74.3239 109.309Z" fill="#F0B00B"/>
<path d="M80.353 109.197C80.353 109.197 80.1858 109.539 80.3138 110.141C80.3506 110.308 80.4393 110.459 80.5671 110.573C80.81 110.812 81.0376 111.066 81.2487 111.333L80.6533 110.85C80.5266 110.749 80.4506 110.753 80.443 110.86C80.4354 110.968 80.3898 111.438 80.3733 111.541C80.3351 111.674 80.2855 111.804 80.2251 111.928C80.2251 111.928 80.2872 111.636 80.2935 111.556C80.3074 111.361 80.3049 110.765 80.1567 110.577C79.9033 110.255 79.1432 109.966 79.1432 109.966C79.4387 110.01 79.7266 110.095 79.9983 110.219C80.1123 110.273 80.1377 110.233 80.1377 110.154C80.1461 109.941 80.1681 109.73 80.2035 109.52C80.2271 109.402 80.2783 109.291 80.353 109.197V109.197Z" fill="#F0B00B"/>
<path d="M80.6457 111.374C80.5469 111.934 80.3556 112.134 80.2935 112.182C80.2538 112.217 80.203 112.238 80.1498 112.24C80.0967 112.242 80.0445 112.225 80.0021 112.193C79.9631 112.158 79.9373 112.11 79.929 112.058C79.9207 112.006 79.9304 111.953 79.9565 111.907C80.0111 111.808 80.0496 111.7 80.0705 111.589C80.0867 111.334 80.068 111.079 80.0148 110.829C79.8052 110.687 79.5809 110.567 79.3459 110.473C77.9257 109.893 76.8285 110.255 76.8285 110.255C76.8285 110.255 76.242 109.548 75.6668 109.241C75.2621 109.042 74.8117 108.955 74.3619 108.988C74.3619 108.988 75.1727 109.115 75.6288 109.482C76.4472 110.15 77.2948 111.541 77.8927 111.865C79.1178 112.53 80.1883 112.134 80.8459 112.463C81.3425 112.717 81.4793 113.022 81.4793 113.022C81.3545 112.408 81.0666 111.838 80.6457 111.374V111.374Z" fill="#F0B00B"/>
</g>
</g>
</g>
<rect x="90" y="189" width="41" height="18" rx="9" fill="white" fill-opacity="0.1"/>
<path d="M101.324 202V200.764L104.192 197.812C104.832 197.14 105.152 196.58 105.152 196.132C105.152 195.804 105.048 195.54 104.84 195.34C104.64 195.14 104.38 195.04 104.06 195.04C103.428 195.04 102.96 195.368 102.656 196.024L101.264 195.208C101.528 194.632 101.908 194.192 102.404 193.888C102.9 193.584 103.444 193.432 104.036 193.432C104.796 193.432 105.448 193.672 105.992 194.152C106.536 194.624 106.808 195.264 106.808 196.072C106.808 196.944 106.348 197.84 105.428 198.76L103.784 200.404H106.94V202H101.324ZM110.823 196.66C111.631 196.66 112.311 196.904 112.863 197.392C113.415 197.872 113.691 198.544 113.691 199.408C113.691 200.272 113.399 200.948 112.815 201.436C112.239 201.924 111.531 202.168 110.691 202.168C110.011 202.168 109.411 202.016 108.891 201.712C108.371 201.408 107.995 200.96 107.763 200.368L109.179 199.54C109.387 200.212 109.891 200.548 110.691 200.548C111.115 200.548 111.443 200.448 111.675 200.248C111.915 200.04 112.035 199.76 112.035 199.408C112.035 199.064 111.919 198.788 111.687 198.58C111.455 198.372 111.139 198.268 110.739 198.268H108.195L108.531 193.6H113.295V195.148H110.067L109.959 196.66H110.823ZM120.565 199.648C120.565 200.352 120.341 200.924 119.893 201.364C119.445 201.796 118.861 202.056 118.141 202.144V203.2H117.337V202.156C116.665 202.108 116.089 201.92 115.609 201.592C115.129 201.264 114.785 200.82 114.577 200.26L116.005 199.432C116.261 200.072 116.705 200.436 117.337 200.524V198.448C117.329 198.448 117.325 198.448 117.325 198.448L117.301 198.436C117.021 198.332 116.793 198.24 116.617 198.16C116.441 198.08 116.233 197.964 115.993 197.812C115.761 197.66 115.577 197.504 115.441 197.344C115.313 197.176 115.197 196.964 115.093 196.708C114.997 196.452 114.949 196.172 114.949 195.868C114.949 195.164 115.177 194.6 115.633 194.176C116.097 193.752 116.665 193.508 117.337 193.444V192.4H118.141V193.468C119.229 193.596 119.997 194.16 120.445 195.16L119.053 195.976C118.861 195.496 118.557 195.204 118.141 195.1V197.104C118.885 197.4 119.385 197.636 119.641 197.812C120.257 198.252 120.565 198.864 120.565 199.648ZM116.593 195.88C116.593 196.056 116.649 196.212 116.761 196.348C116.873 196.476 117.065 196.608 117.337 196.744V195.064C117.097 195.112 116.913 195.208 116.785 195.352C116.657 195.496 116.593 195.672 116.593 195.88ZM118.141 200.5C118.653 200.388 118.909 200.108 118.909 199.66C118.909 199.46 118.845 199.292 118.717 199.156C118.597 199.02 118.405 198.892 118.141 198.772V200.5Z" fill="#F0B00B"/>
<rect x="38" y="156" width="41" height="18" rx="9" fill="white" fill-opacity="0.1"/>
<path d="M51.36 163.66C52.168 163.66 52.848 163.904 53.4 164.392C53.952 164.872 54.228 165.544 54.228 166.408C54.228 167.272 53.936 167.948 53.352 168.436C52.776 168.924 52.068 169.168 51.228 169.168C50.548 169.168 49.948 169.016 49.428 168.712C48.908 168.408 48.532 167.96 48.3 167.368L49.716 166.54C49.924 167.212 50.428 167.548 51.228 167.548C51.652 167.548 51.98 167.448 52.212 167.248C52.452 167.04 52.572 166.76 52.572 166.408C52.572 166.064 52.456 165.788 52.224 165.58C51.992 165.372 51.676 165.268 51.276 165.268H48.732L49.068 160.6H53.832V162.148H50.604L50.496 163.66H51.36ZM58.5239 169.168C57.4759 169.168 56.6519 168.772 56.0519 167.98C55.4599 167.18 55.1639 166.12 55.1639 164.8C55.1639 163.48 55.4599 162.424 56.0519 161.632C56.6519 160.832 57.4759 160.432 58.5239 160.432C59.5799 160.432 60.4039 160.832 60.9959 161.632C61.5879 162.424 61.8839 163.48 61.8839 164.8C61.8839 166.12 61.5879 167.18 60.9959 167.98C60.4039 168.772 59.5799 169.168 58.5239 169.168ZM57.2519 166.852C57.5399 167.316 57.9639 167.548 58.5239 167.548C59.0839 167.548 59.5079 167.312 59.7959 166.84C60.0919 166.368 60.2399 165.688 60.2399 164.8C60.2399 163.904 60.0919 163.22 59.7959 162.748C59.5079 162.276 59.0839 162.04 58.5239 162.04C57.9639 162.04 57.5399 162.276 57.2519 162.748C56.9639 163.22 56.8199 163.904 56.8199 164.8C56.8199 165.696 56.9639 166.38 57.2519 166.852ZM68.8305 166.648C68.8305 167.352 68.6065 167.924 68.1585 168.364C67.7105 168.796 67.1265 169.056 66.4065 169.144V170.2H65.6025V169.156C64.9305 169.108 64.3545 168.92 63.8745 168.592C63.3945 168.264 63.0505 167.82 62.8425 167.26L64.2705 166.432C64.5265 167.072 64.9705 167.436 65.6025 167.524V165.448C65.5945 165.448 65.5905 165.448 65.5905 165.448L65.5665 165.436C65.2865 165.332 65.0585 165.24 64.8825 165.16C64.7065 165.08 64.4985 164.964 64.2585 164.812C64.0265 164.66 63.8425 164.504 63.7065 164.344C63.5785 164.176 63.4625 163.964 63.3585 163.708C63.2625 163.452 63.2145 163.172 63.2145 162.868C63.2145 162.164 63.4425 161.6 63.8985 161.176C64.3625 160.752 64.9305 160.508 65.6025 160.444V159.4H66.4065V160.468C67.4945 160.596 68.2625 161.16 68.7105 162.16L67.3185 162.976C67.1265 162.496 66.8225 162.204 66.4065 162.1V164.104C67.1505 164.4 67.6505 164.636 67.9065 164.812C68.5225 165.252 68.8305 165.864 68.8305 166.648ZM64.8585 162.88C64.8585 163.056 64.9145 163.212 65.0265 163.348C65.1385 163.476 65.3305 163.608 65.6025 163.744V162.064C65.3625 162.112 65.1785 162.208 65.0505 162.352C64.9225 162.496 64.8585 162.672 64.8585 162.88ZM66.4065 167.5C66.9185 167.388 67.1745 167.108 67.1745 166.66C67.1745 166.46 67.1105 166.292 66.9825 166.156C66.8625 166.02 66.6705 165.892 66.4065 165.772V167.5Z" fill="#F0B00B"/>
<rect x="110" y="156" width="41" height="18" rx="9" fill="white" fill-opacity="0.1"/>
<path d="M123.34 160.6H124.78V169H123.124V162.352L121.54 162.796L121.132 161.38L123.34 160.6ZM129.661 169.168C128.613 169.168 127.789 168.772 127.189 167.98C126.597 167.18 126.301 166.12 126.301 164.8C126.301 163.48 126.597 162.424 127.189 161.632C127.789 160.832 128.613 160.432 129.661 160.432C130.717 160.432 131.541 160.832 132.133 161.632C132.725 162.424 133.021 163.48 133.021 164.8C133.021 166.12 132.725 167.18 132.133 167.98C131.541 168.772 130.717 169.168 129.661 169.168ZM128.389 166.852C128.677 167.316 129.101 167.548 129.661 167.548C130.221 167.548 130.645 167.312 130.933 166.84C131.229 166.368 131.377 165.688 131.377 164.8C131.377 163.904 131.229 163.22 130.933 162.748C130.645 162.276 130.221 162.04 129.661 162.04C129.101 162.04 128.677 162.276 128.389 162.748C128.101 163.22 127.957 163.904 127.957 164.8C127.957 165.696 128.101 166.38 128.389 166.852ZM139.967 166.648C139.967 167.352 139.743 167.924 139.295 168.364C138.847 168.796 138.263 169.056 137.543 169.144V170.2H136.739V169.156C136.067 169.108 135.491 168.92 135.011 168.592C134.531 168.264 134.187 167.82 133.979 167.26L135.407 166.432C135.663 167.072 136.107 167.436 136.739 167.524V165.448C136.731 165.448 136.727 165.448 136.727 165.448L136.703 165.436C136.423 165.332 136.195 165.24 136.019 165.16C135.843 165.08 135.635 164.964 135.395 164.812C135.163 164.66 134.979 164.504 134.843 164.344C134.715 164.176 134.599 163.964 134.495 163.708C134.399 163.452 134.351 163.172 134.351 162.868C134.351 162.164 134.579 161.6 135.035 161.176C135.499 160.752 136.067 160.508 136.739 160.444V159.4H137.543V160.468C138.631 160.596 139.399 161.16 139.847 162.16L138.455 162.976C138.263 162.496 137.959 162.204 137.543 162.1V164.104C138.287 164.4 138.787 164.636 139.043 164.812C139.659 165.252 139.967 165.864 139.967 166.648ZM135.995 162.88C135.995 163.056 136.051 163.212 136.163 163.348C136.275 163.476 136.467 163.608 136.739 163.744V162.064C136.499 162.112 136.315 162.208 136.187 162.352C136.059 162.496 135.995 162.672 135.995 162.88ZM137.543 167.5C138.055 167.388 138.311 167.108 138.311 166.66C138.311 166.46 138.247 166.292 138.119 166.156C137.999 166.02 137.807 165.892 137.543 165.772V167.5Z" fill="#F0B00B"/>
<path d="M23.036 229.068V230.52H21.056V232.5H19.604V230.52H17.636V229.068H19.604V227.1H21.056V229.068H23.036ZM27.6763 234.168C26.6283 234.168 25.8042 233.772 25.2042 232.98C24.6122 232.18 24.3162 231.12 24.3162 229.8C24.3162 228.48 24.6122 227.424 25.2042 226.632C25.8042 225.832 26.6283 225.432 27.6763 225.432C28.7323 225.432 29.5563 225.832 30.1483 226.632C30.7403 227.424 31.0363 228.48 31.0363 229.8C31.0363 231.12 30.7403 232.18 30.1483 232.98C29.5563 233.772 28.7323 234.168 27.6763 234.168ZM26.4042 231.852C26.6922 232.316 27.1162 232.548 27.6763 232.548C28.2363 232.548 28.6603 232.312 28.9483 231.84C29.2443 231.368 29.3923 230.688 29.3923 229.8C29.3923 228.904 29.2443 228.22 28.9483 227.748C28.6603 227.276 28.2363 227.04 27.6763 227.04C27.1162 227.04 26.6922 227.276 26.4042 227.748C26.1162 228.22 25.9722 228.904 25.9722 229.8C25.9722 230.696 26.1162 231.38 26.4042 231.852ZM33.6596 233.856C33.4596 234.056 33.2196 234.156 32.9396 234.156C32.6596 234.156 32.4196 234.056 32.2196 233.856C32.0196 233.656 31.9196 233.416 31.9196 233.136C31.9196 232.856 32.0196 232.616 32.2196 232.416C32.4196 232.216 32.6596 232.116 32.9396 232.116C33.2196 232.116 33.4596 232.216 33.6596 232.416C33.8596 232.616 33.9596 232.856 33.9596 233.136C33.9596 233.416 33.8596 233.656 33.6596 233.856ZM39.0185 229.008C39.5865 229.176 40.0465 229.472 40.3985 229.896C40.7585 230.312 40.9385 230.816 40.9385 231.408C40.9385 232.272 40.6465 232.948 40.0625 233.436C39.4865 233.924 38.7785 234.168 37.9385 234.168C37.2825 234.168 36.6945 234.02 36.1745 233.724C35.6625 233.42 35.2905 232.976 35.0585 232.392L36.4745 231.576C36.6825 232.224 37.1705 232.548 37.9385 232.548C38.3625 232.548 38.6905 232.448 38.9225 232.248C39.1625 232.04 39.2825 231.76 39.2825 231.408C39.2825 231.064 39.1625 230.788 38.9225 230.58C38.6905 230.372 38.3625 230.268 37.9385 230.268H37.5785L36.9425 229.308L38.5985 227.148H35.3105V225.6H40.5905V226.968L39.0185 229.008ZM48.4707 231.036V232.572H47.5707V234H45.9027V232.572H41.9307V231.036L44.7267 225.6H46.5027L43.7187 231.036H45.9027V229.044H47.5707V231.036H48.4707ZM52.29 228.828C51.906 229.204 51.426 229.392 50.85 229.392C50.274 229.392 49.79 229.2 49.398 228.816C49.014 228.432 48.822 227.964 48.822 227.412C48.822 226.86 49.014 226.392 49.398 226.008C49.79 225.624 50.274 225.432 50.85 225.432C51.426 225.432 51.906 225.624 52.29 226.008C52.674 226.384 52.866 226.852 52.866 227.412C52.866 227.972 52.674 228.444 52.29 228.828ZM49.674 232.728L55.146 226.644L55.878 227.052L50.394 233.148L49.674 232.728ZM50.298 227.964C50.442 228.108 50.622 228.18 50.838 228.18C51.054 228.18 51.234 228.108 51.378 227.964C51.522 227.812 51.594 227.628 51.594 227.412C51.594 227.196 51.522 227.016 51.378 226.872C51.234 226.728 51.054 226.656 50.838 226.656C50.622 226.656 50.442 226.728 50.298 226.872C50.162 227.016 50.094 227.196 50.094 227.412C50.094 227.628 50.162 227.812 50.298 227.964ZM56.346 233.568C55.962 233.952 55.482 234.144 54.906 234.144C54.33 234.144 53.85 233.952 53.466 233.568C53.082 233.184 52.89 232.716 52.89 232.164C52.89 231.612 53.082 231.144 53.466 230.76C53.85 230.376 54.33 230.184 54.906 230.184C55.482 230.184 55.962 230.376 56.346 230.76C56.73 231.144 56.922 231.612 56.922 232.164C56.922 232.716 56.73 233.184 56.346 233.568ZM54.366 232.716C54.51 232.86 54.69 232.932 54.906 232.932C55.122 232.932 55.298 232.856 55.434 232.704C55.578 232.552 55.65 232.372 55.65 232.164C55.65 231.948 55.578 231.768 55.434 231.624C55.298 231.472 55.122 231.396 54.906 231.396C54.69 231.396 54.51 231.472 54.366 231.624C54.23 231.768 54.162 231.948 54.162 232.164C54.162 232.38 54.23 232.564 54.366 232.716Z" fill="#61B67F"/>
<path d="M140.036 244.068V245.52H138.056V247.5H136.604V245.52H134.636V244.068H136.604V242.1H138.056V244.068H140.036ZM141.22 249V247.764L144.088 244.812C144.728 244.14 145.048 243.58 145.048 243.132C145.048 242.804 144.944 242.54 144.736 242.34C144.536 242.14 144.276 242.04 143.956 242.04C143.324 242.04 142.856 242.368 142.552 243.024L141.16 242.208C141.424 241.632 141.804 241.192 142.3 240.888C142.796 240.584 143.34 240.432 143.932 240.432C144.692 240.432 145.344 240.672 145.888 241.152C146.432 241.624 146.704 242.264 146.704 243.072C146.704 243.944 146.244 244.84 145.324 245.76L143.68 247.404H146.836V249H141.22ZM149.839 248.856C149.639 249.056 149.399 249.156 149.119 249.156C148.839 249.156 148.599 249.056 148.399 248.856C148.199 248.656 148.099 248.416 148.099 248.136C148.099 247.856 148.199 247.616 148.399 247.416C148.599 247.216 148.839 247.116 149.119 247.116C149.399 247.116 149.639 247.216 149.839 247.416C150.039 247.616 150.139 247.856 150.139 248.136C150.139 248.416 150.039 248.656 149.839 248.856ZM157.754 246.036V247.572H156.854V249H155.186V247.572H151.214V246.036L154.01 240.6H155.786L153.002 246.036H155.186V244.044H156.854V246.036H157.754ZM161.573 243.828C161.189 244.204 160.709 244.392 160.133 244.392C159.557 244.392 159.073 244.2 158.681 243.816C158.297 243.432 158.105 242.964 158.105 242.412C158.105 241.86 158.297 241.392 158.681 241.008C159.073 240.624 159.557 240.432 160.133 240.432C160.709 240.432 161.189 240.624 161.573 241.008C161.957 241.384 162.149 241.852 162.149 242.412C162.149 242.972 161.957 243.444 161.573 243.828ZM158.957 247.728L164.429 241.644L165.161 242.052L159.677 248.148L158.957 247.728ZM159.581 242.964C159.725 243.108 159.905 243.18 160.121 243.18C160.337 243.18 160.517 243.108 160.661 242.964C160.805 242.812 160.877 242.628 160.877 242.412C160.877 242.196 160.805 242.016 160.661 241.872C160.517 241.728 160.337 241.656 160.121 241.656C159.905 241.656 159.725 241.728 159.581 241.872C159.445 242.016 159.377 242.196 159.377 242.412C159.377 242.628 159.445 242.812 159.581 242.964ZM165.629 248.568C165.245 248.952 164.765 249.144 164.189 249.144C163.613 249.144 163.133 248.952 162.749 248.568C162.365 248.184 162.173 247.716 162.173 247.164C162.173 246.612 162.365 246.144 162.749 245.76C163.133 245.376 163.613 245.184 164.189 245.184C164.765 245.184 165.245 245.376 165.629 245.76C166.013 246.144 166.205 246.612 166.205 247.164C166.205 247.716 166.013 248.184 165.629 248.568ZM163.649 247.716C163.793 247.86 163.973 247.932 164.189 247.932C164.405 247.932 164.581 247.856 164.717 247.704C164.861 247.552 164.933 247.372 164.933 247.164C164.933 246.948 164.861 246.768 164.717 246.624C164.581 246.472 164.405 246.396 164.189 246.396C163.973 246.396 163.793 246.472 163.649 246.624C163.513 246.768 163.445 246.948 163.445 247.164C163.445 247.38 163.513 247.564 163.649 247.716Z" fill="#61B67F"/>
<path d="M83.036 259.068V260.52H81.056V262.5H79.604V260.52H77.636V259.068H79.604V257.1H81.056V259.068H83.036ZM83.0913 255.6H88.5153V257.004L85.6713 264H83.9193L86.6793 257.184H83.0913V255.6ZM93.0661 258.828C92.6821 259.204 92.2021 259.392 91.6261 259.392C91.0501 259.392 90.5661 259.2 90.1741 258.816C89.7901 258.432 89.5981 257.964 89.5981 257.412C89.5981 256.86 89.7901 256.392 90.1741 256.008C90.5661 255.624 91.0501 255.432 91.6261 255.432C92.2021 255.432 92.6821 255.624 93.0661 256.008C93.4501 256.384 93.6421 256.852 93.6421 257.412C93.6421 257.972 93.4501 258.444 93.0661 258.828ZM90.4501 262.728L95.9221 256.644L96.6541 257.052L91.1701 263.148L90.4501 262.728ZM91.0741 257.964C91.2181 258.108 91.3981 258.18 91.6141 258.18C91.8301 258.18 92.0101 258.108 92.1541 257.964C92.2981 257.812 92.3701 257.628 92.3701 257.412C92.3701 257.196 92.2981 257.016 92.1541 256.872C92.0101 256.728 91.8301 256.656 91.6141 256.656C91.3981 256.656 91.2181 256.728 91.0741 256.872C90.9381 257.016 90.8701 257.196 90.8701 257.412C90.8701 257.628 90.9381 257.812 91.0741 257.964ZM97.1221 263.568C96.7381 263.952 96.2581 264.144 95.6821 264.144C95.1061 264.144 94.6261 263.952 94.2421 263.568C93.8581 263.184 93.6661 262.716 93.6661 262.164C93.6661 261.612 93.8581 261.144 94.2421 260.76C94.6261 260.376 95.1061 260.184 95.6821 260.184C96.2581 260.184 96.7381 260.376 97.1221 260.76C97.5061 261.144 97.6981 261.612 97.6981 262.164C97.6981 262.716 97.5061 263.184 97.1221 263.568ZM95.1421 262.716C95.2861 262.86 95.4661 262.932 95.6821 262.932C95.8981 262.932 96.0741 262.856 96.2101 262.704C96.3541 262.552 96.4261 262.372 96.4261 262.164C96.4261 261.948 96.3541 261.768 96.2101 261.624C96.0741 261.472 95.8981 261.396 95.6821 261.396C95.4661 261.396 95.2861 261.472 95.1421 261.624C95.0061 261.768 94.9381 261.948 94.9381 262.164C94.9381 262.38 95.0061 262.564 95.1421 262.716Z" fill="#61B67F"/>
<g clip-path="url(#clip3_208_729)">
<rect x="76" width="40" height="40" rx="6" fill="white" fill-opacity="0.1"/>
<g filter="url(#filter6_dd_208_729)">
<circle cx="96.8001" cy="20.8" r="9.6" fill="#F0B00B"/>
</g>
</g>
<defs>
<filter id="filter0_b_208_729" x="91" y="84" width="40" height="40" filterUnits="userSpaceOnUse" color-interpolation-filters="sRGB">
<feFlood flood-opacity="0" result="BackgroundImageFix"/>
<feGaussianBlur in="BackgroundImage" stdDeviation="4"/>
<feComposite in2="SourceAlpha" operator="in" result="effect1_backgroundBlur_208_729"/>
<feBlend mode="normal" in="SourceGraphic" in2="effect1_backgroundBlur_208_729" result="shape"/>
</filter>
<filter id="filter1_d_208_729" x="84.8919" y="78.5405" width="52.2162" height="52.2163" filterUnits="userSpaceOnUse" color-interpolation-filters="sRGB">
<feFlood flood-opacity="0" result="BackgroundImageFix"/>
<feColorMatrix in="SourceAlpha" type="matrix" values="0 0 0 0 0 0 0 0 0 0 0 0 0 0 0 0 0 0 127 0" result="hardAlpha"/>
<feOffset/>
<feGaussianBlur stdDeviation="9"/>
<feComposite in2="hardAlpha" operator="out"/>
<feColorMatrix type="matrix" values="0 0 0 0 0.941176 0 0 0 0 0.690196 0 0 0 0 0.0431373 0 0 0 0.8 0"/>
<feBlend mode="normal" in2="BackgroundImageFix" result="effect1_dropShadow_208_729"/>
<feBlend mode="normal" in="SourceGraphic" in2="effect1_dropShadow_208_729" result="shape"/>
</filter>
<filter id="filter2_b_208_729" x="74" y="52" width="40" height="40" filterUnits="userSpaceOnUse" color-interpolation-filters="sRGB">
<feFlood flood-opacity="0" result="BackgroundImageFix"/>
<feGaussianBlur in="BackgroundImage" stdDeviation="4"/>
<feComposite in2="SourceAlpha" operator="in" result="effect1_backgroundBlur_208_729"/>
<feBlend mode="normal" in="SourceGraphic" in2="effect1_backgroundBlur_208_729" result="shape"/>
</filter>
<filter id="filter3_d_208_729" x="67.8919" y="46.5405" width="52.2162" height="52.2163" filterUnits="userSpaceOnUse" color-interpolation-filters="sRGB">
<feFlood flood-opacity="0" result="BackgroundImageFix"/>
<feColorMatrix in="SourceAlpha" type="matrix" values="0 0 0 0 0 0 0 0 0 0 0 0 0 0 0 0 0 0 127 0" result="hardAlpha"/>
<feOffset/>
<feGaussianBlur stdDeviation="9"/>
<feComposite in2="hardAlpha" operator="out"/>
<feColorMatrix type="matrix" values="0 0 0 0 0.941176 0 0 0 0 0.690196 0 0 0 0 0.0431373 0 0 0 0.8 0"/>
<feBlend mode="normal" in2="BackgroundImageFix" result="effect1_dropShadow_208_729"/>
<feBlend mode="normal" in="SourceGraphic" in2="effect1_dropShadow_208_729" result="shape"/>
</filter>
<filter id="filter4_b_208_729" x="56" y="94" width="40" height="40" filterUnits="userSpaceOnUse" color-interpolation-filters="sRGB">
<feFlood flood-opacity="0" result="BackgroundImageFix"/>
<feGaussianBlur in="BackgroundImage" stdDeviation="4"/>
<feComposite in2="SourceAlpha" operator="in" result="effect1_backgroundBlur_208_729"/>
<feBlend mode="normal" in="SourceGraphic" in2="effect1_backgroundBlur_208_729" result="shape"/>
</filter>
<filter id="filter5_d_208_729" x="49.8919" y="87.2432" width="52.2162" height="52.2163" filterUnits="userSpaceOnUse" color-interpolation-filters="sRGB">
<feFlood flood-opacity="0" result="BackgroundImageFix"/>
<feColorMatrix in="SourceAlpha" type="matrix" values="0 0 0 0 0 0 0 0 0 0 0 0 0 0 0 0 0 0 127 0" result="hardAlpha"/>
<feOffset/>
<feGaussianBlur stdDeviation="9"/>
<feComposite in2="hardAlpha" operator="out"/>
<feColorMatrix type="matrix" values="0 0 0 0 0.941176 0 0 0 0 0.690196 0 0 0 0 0.0431373 0 0 0 0.8 0"/>
<feBlend mode="normal" in2="BackgroundImageFix" result="effect1_dropShadow_208_729"/>
<feBlend mode="normal" in="SourceGraphic" in2="effect1_dropShadow_208_729" result="shape"/>
</filter>
<filter id="filter6_dd_208_729" x="72.2001" y="-3.80005" width="49.2" height="49.2" filterUnits="userSpaceOnUse" color-interpolation-filters="sRGB">
<feFlood flood-opacity="0" result="BackgroundImageFix"/>
<feColorMatrix in="SourceAlpha" type="matrix" values="0 0 0 0 0 0 0 0 0 0 0 0 0 0 0 0 0 0 127 0" result="hardAlpha"/>
<feOffset/>
<feGaussianBlur stdDeviation="5"/>
<feComposite in2="hardAlpha" operator="out"/>
<feColorMatrix type="matrix" values="0 0 0 0 0.941176 0 0 0 0 0.690196 0 0 0 0 0.0431373 0 0 0 0.86 0"/>
<feBlend mode="normal" in2="BackgroundImageFix" result="effect1_dropShadow_208_729"/>
<feColorMatrix in="SourceAlpha" type="matrix" values="0 0 0 0 0 0 0 0 0 0 0 0 0 0 0 0 0 0 127 0" result="hardAlpha"/>
<feOffset/>
<feGaussianBlur stdDeviation="7.5"/>
<feComposite in2="hardAlpha" operator="out"/>
<feColorMatrix type="matrix" values="0 0 0 0 0.941176 0 0 0 0 0.690196 0 0 0 0 0.0431373 0 0 0 1 0"/>
<feBlend mode="normal" in2="effect1_dropShadow_208_729" result="effect2_dropShadow_208_729"/>
<feBlend mode="normal" in="SourceGraphic" in2="effect2_dropShadow_208_729" result="shape"/>
</filter>
<clipPath id="clip0_208_729">
<rect x="99" y="92" width="24" height="24" rx="12" fill="white"/>
</clipPath>
<clipPath id="clip1_208_729">
<rect x="82" y="60" width="24" height="24" rx="12" fill="white"/>
</clipPath>
<clipPath id="clip2_208_729">
<rect x="64" y="102" width="24" height="24" rx="12" fill="white"/>
</clipPath>
<clipPath id="clip3_208_729">
<rect x="76" width="40" height="40" rx="6" fill="white"/>
</clipPath>
</defs>
</svg>
