<svg width="193" height="265" viewBox="0 0 193 265" fill="none" xmlns="http://www.w3.org/2000/svg">
<mask id="mask0_66_365" style="mask-type:alpha" maskUnits="userSpaceOnUse" x="1" y="24" width="191" height="241">
<path fill-rule="evenodd" clip-rule="evenodd" d="M0.999925 218.793L85.0426 24.5043C88.6993 24.1705 92.4031 24 96.1468 24C100.283 24 104.371 24.2082 108.4 24.6147L192 217.879C172.664 243.143 143.566 260.54 110.34 264.435H81.953C49.1295 260.587 20.3342 243.563 0.999925 218.793Z" fill="white" fill-opacity="0.1"/>
</mask>
<g mask="url(#mask0_66_365)">
<circle cx="96.5" cy="85.5" r="181.5" fill="#D9D9D9"/>
<circle cx="97.1799" cy="76.1799" r="122.36" fill="#868686"/>
<circle cx="96.5" cy="65.5" r="64.5787" fill="#D9D9D9"/>
</g>
<path opacity="0.2" d="M87.892 88.466C88.924 89.138 89.44 90.086 89.44 91.31C89.44 92.402 89.05 93.29 88.27 93.974C87.49 94.658 86.524 95 85.372 95H80.08V82.4H85.012C86.128 82.4 87.07 82.736 87.838 83.408C88.606 84.068 88.99 84.932 88.99 86C88.99 87.02 88.624 87.842 87.892 88.466ZM85.012 85.1H82.96V87.332H85.012C85.336 87.332 85.6 87.23 85.804 87.026C86.008 86.81 86.11 86.54 86.11 86.216C86.11 85.892 86.008 85.628 85.804 85.424C85.6 85.208 85.336 85.1 85.012 85.1ZM82.96 92.3H85.372C85.732 92.3 86.02 92.192 86.236 91.976C86.452 91.748 86.56 91.454 86.56 91.094C86.56 90.734 86.452 90.446 86.236 90.23C86.02 90.002 85.732 89.888 85.372 89.888H82.96V92.3ZM91.0551 90.932V82.4H93.9351V90.68C93.9351 91.856 94.5951 92.444 95.9151 92.444C97.2351 92.444 97.8951 91.856 97.8951 90.68V82.4H100.775V90.932C100.775 92.264 100.319 93.314 99.4071 94.082C98.4831 94.862 97.3191 95.252 95.9151 95.252C94.5111 95.252 93.3471 94.862 92.4231 94.082C91.5111 93.314 91.0551 92.264 91.0551 90.932ZM110.02 82.4H113.296L109.066 90.158V95H106.186V90.158L101.956 82.4H105.232L107.626 87.26L110.02 82.4Z" fill="white"/>
<path opacity="0.2" d="M68.8 156.4H71.68V169H68.8V161.674L65.542 167.02H65.218L61.96 161.674V169H59.08V156.4H61.96L65.38 161.998L68.8 156.4ZM85.3656 169H82.2156L81.5856 167.02H76.9056L76.2756 169H73.1256L77.4096 156.4H81.0816L85.3656 169ZM79.2456 159.694L77.7696 164.32H80.7216L79.2456 159.694ZM93.82 163.24V156.4H96.7V169H94.54L89.68 162.16V169H86.8V156.4H88.96L93.82 163.24ZM110.379 169H107.229L106.599 167.02H101.919L101.289 169H98.1386L102.423 156.4H106.095L110.379 169ZM104.259 159.694L102.783 164.32H105.735L104.259 159.694ZM117.512 161.98H123.83V163.06C123.83 164.932 123.242 166.438 122.066 167.578C120.902 168.694 119.42 169.252 117.62 169.252C115.664 169.252 114.038 168.622 112.742 167.362C111.458 166.102 110.816 164.554 110.816 162.718C110.816 160.882 111.452 159.328 112.724 158.056C113.996 156.784 115.562 156.148 117.422 156.148C118.586 156.148 119.654 156.412 120.626 156.94C121.61 157.456 122.378 158.152 122.93 159.028L120.482 160.432C120.194 159.988 119.774 159.634 119.222 159.37C118.682 159.094 118.076 158.956 117.404 158.956C116.336 158.956 115.448 159.31 114.74 160.018C114.044 160.714 113.696 161.62 113.696 162.736C113.696 163.816 114.056 164.71 114.776 165.418C115.496 166.102 116.456 166.444 117.656 166.444C119.312 166.444 120.386 165.796 120.878 164.5H117.512V161.98ZM128.694 163.996V166.228H133.734V169H125.814V156.4H133.644V159.172H128.694V161.26H133.194V163.996H128.694Z" fill="white"/>
<path opacity="0.2" d="M81.49 238.252C80.23 238.252 79.168 237.982 78.304 237.442C77.44 236.89 76.822 236.122 76.45 235.138L78.934 233.698C79.438 234.862 80.32 235.444 81.58 235.444C82.72 235.444 83.29 235.102 83.29 234.418C83.29 234.034 83.104 233.746 82.732 233.554C82.348 233.326 81.664 233.08 80.68 232.816C79.672 232.54 78.82 232.144 78.124 231.628C77.356 231.004 76.972 230.122 76.972 228.982C76.972 227.818 77.386 226.888 78.214 226.192C79.054 225.496 80.05 225.148 81.202 225.148C82.234 225.148 83.146 225.394 83.938 225.886C84.73 226.366 85.354 227.068 85.81 227.992L83.38 229.414C82.924 228.442 82.198 227.956 81.202 227.956C80.782 227.956 80.452 228.046 80.212 228.226C79.972 228.406 79.852 228.634 79.852 228.91C79.852 229.21 79.996 229.48 80.284 229.72C80.596 229.96 81.208 230.212 82.12 230.476L83.29 230.854C83.59 230.95 83.938 231.112 84.334 231.34C84.766 231.556 85.09 231.79 85.306 232.042C85.882 232.666 86.17 233.446 86.17 234.382C86.17 235.57 85.738 236.518 84.874 237.226C84.01 237.91 82.882 238.252 81.49 238.252ZM98.9535 238H95.8035L95.1735 236.02H90.4935L89.8635 238H86.7135L90.9975 225.4H94.6695L98.9535 238ZM92.8335 228.694L91.3575 233.32H94.3095L92.8335 228.694ZM103.268 225.4V235.228H107.768V238H100.388V225.4H103.268ZM112.276 232.996V235.228H117.316V238H109.396V225.4H117.226V228.172H112.276V230.26H116.776V232.996H112.276Z" fill="white"/>
<line opacity="0.2" x1="108.459" y1="23.8013" x2="192.459" y2="217.801" stroke="white"/>
<line opacity="0.2" y1="-0.5" x2="211.405" y2="-0.5" transform="matrix(0.397342 -0.917671 -0.917671 -0.397342 0 218)" stroke="white"/>
<g filter="url(#filter0_b_66_365)">
<g clip-path="url(#clip0_66_365)">
<rect x="100" y="87" width="24" height="24" rx="12" fill="white" fill-opacity="0.1"/>
<g filter="url(#filter1_d_66_365)">
<path d="M113.394 97.8472V96.2623H116.999V93.7615H106.991V96.2623H110.606V97.8472C107.577 97.9929 105.303 98.601 105.303 99.3295C105.303 100.058 107.575 100.662 110.606 100.812V106.043H113.394V100.812C116.423 100.667 118.697 100.059 118.697 99.3295C118.697 98.5997 116.425 97.9929 113.394 97.8472ZM112 100.338C108.72 100.338 106.061 99.8312 106.061 99.2205C106.061 98.6948 107.998 98.2539 110.604 98.1361V99.9262C111.052 99.9464 111.519 99.9578 111.997 99.9578C112.476 99.9578 112.945 99.9464 113.391 99.9262V98.1361C115.997 98.2539 117.934 98.6948 117.934 99.2205C117.939 99.8375 115.28 100.338 112 100.338Z" fill="#F0B00B"/>
</g>
</g>
</g>
<g filter="url(#filter2_b_66_365)">
<g clip-path="url(#clip1_66_365)">
<rect x="83" y="55" width="24" height="24" rx="12" fill="white" fill-opacity="0.1"/>
<g filter="url(#filter3_d_66_365)">
<path d="M98.1394 65.8295C98.6854 64.4042 98.7728 63.2425 98.3927 62.5431C98.2864 62.3478 98.1363 62.1797 97.954 62.0522C97.7718 61.9247 97.5625 61.8413 97.3425 61.8083C97.1266 61.7622 96.9028 61.768 96.6896 61.8252C96.4764 61.8825 96.2798 61.9896 96.1161 62.1377C95.3357 62.8345 95.209 64.3003 95.1812 65.2011C95.0443 65.2011 94.9278 65.2011 94.8011 65.2011C94.7466 64.3003 94.644 62.8345 93.8598 62.139C93.6959 61.9903 93.499 61.8827 93.2853 61.8252C93.0716 61.7677 92.8473 61.7619 92.6309 61.8083C92.4106 61.842 92.201 61.9262 92.0186 62.0544C91.8362 62.1825 91.6859 62.3511 91.5794 62.5469C91.1993 63.2513 91.288 64.4181 91.8328 65.8472C90.2846 66.5769 89.4016 67.8489 89.4016 69.3654C89.4016 71.8877 91.5971 73.517 94.9949 73.517C98.3927 73.517 100.588 71.8877 100.588 69.3654C100.593 67.8349 99.7027 66.5567 98.1394 65.8295ZM92.2331 66.1893L92.4485 66.098L92.3598 65.8814C91.7986 64.5081 91.6655 63.3755 91.9924 62.7724C92.0661 62.6381 92.1702 62.5229 92.2965 62.4362C92.4229 62.3495 92.5678 62.2937 92.7196 62.2733C92.7901 62.2595 92.8618 62.2523 92.9337 62.2518C93.1597 62.2539 93.3771 62.3392 93.5443 62.4912C94.4312 63.2361 94.3476 65.7002 94.3476 65.7002L94.5604 65.685C94.8461 65.6705 95.1324 65.6705 95.4181 65.685L95.6259 65.6977C95.6259 65.6977 95.5549 63.2387 96.4341 62.4963C96.5442 62.3971 96.6763 62.3255 96.8195 62.2876C96.9627 62.2497 97.1129 62.2466 97.2576 62.2784C97.4088 62.2984 97.553 62.3538 97.6787 62.4401C97.8044 62.5264 97.908 62.6411 97.981 62.775C98.3066 63.373 98.1748 64.5005 97.6174 65.87L97.5338 66.0816L97.7504 66.1728C99.0819 66.729 100.008 67.6931 100.089 68.8814C100.202 70.6284 97.8315 72.0094 95 72.0094C92.1685 72.0094 89.8057 70.6487 89.9134 68.9156C89.9844 67.7171 90.9054 66.7505 92.2331 66.1893Z" fill="#F0B00B"/>
<path d="M96.9522 69.6325C97.2825 69.6325 97.5502 69.2326 97.5502 68.7394C97.5502 68.2461 97.2825 67.8462 96.9522 67.8462C96.622 67.8462 96.3542 68.2461 96.3542 68.7394C96.3542 69.2326 96.622 69.6325 96.9522 69.6325Z" fill="#F0B00B"/>
<path d="M93.0401 69.6325C93.3704 69.6325 93.6381 69.2326 93.6381 68.7394C93.6381 68.2461 93.3704 67.8462 93.0401 67.8462C92.7099 67.8462 92.4421 68.2461 92.4421 68.7394C92.4421 69.2326 92.7099 69.6325 93.0401 69.6325Z" fill="#F0B00B"/>
</g>
</g>
</g>
<g filter="url(#filter4_b_66_365)">
<g clip-path="url(#clip2_66_365)">
<rect x="65" y="97" width="24" height="24" rx="12" fill="white" fill-opacity="0.1"/>
<g filter="url(#filter5_d_66_365)">
<path d="M81.472 114.328C81.7315 114.217 81.9662 114.054 82.162 113.851C82.3578 113.647 82.5109 113.406 82.6122 113.143C82.9276 112.266 82.7971 111.289 82.2245 110.795C81.6519 110.301 80.2824 109.574 80.2824 109.574C80.2824 109.574 79.939 110.231 80.5357 111.152C81.1058 112.039 81.415 112.499 81.6063 112.996C81.852 113.634 81.472 114.328 81.472 114.328Z" fill="#F0B00B"/>
<path d="M82.9417 111.288C82.9417 111.288 83.0773 110.347 81.595 109.768C80.4713 109.327 79.5338 108.952 79.0777 108.399C78.9341 108.23 78.8293 108.032 78.7706 107.818C78.712 107.603 78.7009 107.379 78.7382 107.16C78.7382 107.16 79.1005 107.597 80.5384 107.748C81.861 107.888 82.6921 108.36 83.0392 109.12C83.2043 109.461 83.2818 109.838 83.2648 110.216C83.2478 110.595 83.1367 110.963 82.9417 111.288Z" fill="#F0B00B"/>
<path d="M79.6212 109.262C79.6212 109.262 79.9316 110.223 79.3754 110.791C78.8902 111.287 78.1719 111.288 77.6018 111.398C77.2086 111.474 76.834 111.626 76.4983 111.844C77.0368 111.705 77.5892 111.626 78.1453 111.61C78.9231 111.61 79.5832 111.292 79.8251 110.743C80.2344 109.825 79.6212 109.262 79.6212 109.262Z" fill="#F0B00B"/>
<path d="M76.8605 113.218C77.3128 113.024 77.7841 113.244 78.0818 113.643C78.3795 114.042 78.5024 114.882 79.146 115.261C79.7896 115.64 80.4775 115.037 80.4775 115.037C80.4775 115.037 79.8339 115.309 79.4462 115.12C79.0294 114.918 78.9661 114.563 78.8926 113.952C78.7659 112.955 78.2427 112.559 77.7828 112.391C77.1324 112.18 76.4254 112.231 75.8115 112.532C75.3745 112.751 74.9653 113.022 74.5928 113.339C74.5928 113.339 75.3529 113.466 75.657 113.647C75.961 113.828 76.3487 114.444 76.7338 114.564C77.0873 114.676 77.4534 114.62 77.6511 114.334C77.8487 114.047 77.7625 113.546 77.4407 113.438C77.0467 113.305 76.7655 113.492 76.782 113.736C76.7787 113.801 76.8008 113.865 76.8435 113.914C76.8862 113.963 76.9463 113.994 77.0113 114C77.0113 114 76.7579 113.874 76.8643 113.658C76.991 113.421 77.2824 113.456 77.4407 113.567C77.6346 113.704 77.6637 114.175 77.3331 114.31C77.0024 114.444 76.5843 114.225 76.521 113.962C76.4576 113.7 76.4817 113.381 76.8605 113.218Z" fill="#F0B00B"/>
<path d="M75.8839 106.624L70.5034 100.66C70.5034 100.66 75.0731 106.295 75.2365 106.488C75.4 106.68 75.4899 106.85 75.348 106.98C75.2297 107.078 75.0868 107.141 74.935 107.163C74.8293 107.187 74.7189 107.179 74.6177 107.14C74.5164 107.101 74.429 107.033 74.3662 106.945C74.1356 106.668 72.4519 104.003 72.4519 104.003C72.4519 104.003 73.9595 106.732 74.0368 106.893C74.1141 107.054 74.1635 107.196 74.0875 107.297C73.963 107.428 73.8576 107.575 73.7745 107.736C73.6909 107.941 73.6225 108.541 73.5528 108.801C73.3656 109.358 73.0634 109.87 72.666 110.303C72.3037 110.684 72.0237 111.178 72.1339 111.876C72.2391 112.543 72.6685 113.073 72.7407 113.187C72.8148 113.289 72.8587 113.41 72.8674 113.535C72.8674 113.535 73.9443 113.409 74.5587 112.845C75.1111 112.338 74.8121 111.771 74.65 111.627C74.5347 111.525 73.7961 111.029 73.7226 110.768C73.6491 110.507 73.53 110.324 73.8822 109.618C74.2344 108.912 74.1445 108.838 74.1913 108.594C74.2382 108.351 74.2281 107.85 74.5081 107.748C74.788 107.647 75.1415 107.694 75.4785 107.495C75.9701 107.196 75.8839 106.624 75.8839 106.624ZM72.8434 111.93C72.8229 111.93 72.8025 111.926 72.7836 111.918C72.7647 111.91 72.7477 111.899 72.7336 111.884C72.7194 111.869 72.7085 111.851 72.7014 111.832C72.6944 111.813 72.6914 111.792 72.6926 111.772C72.6926 111.687 72.7813 111.626 72.7661 111.573C72.7509 111.52 72.6736 111.517 72.6571 111.446C72.6483 111.408 72.6812 111.336 72.8206 111.331C72.9004 111.336 72.9755 111.371 73.03 111.429C73.0845 111.488 73.1143 111.565 73.1132 111.645C73.111 111.718 73.0821 111.787 73.0321 111.839C72.9821 111.892 72.9144 111.924 72.8421 111.93H72.8434Z" fill="#F0B00B"/>
<path d="M76.3335 107.76C76.2416 107.765 76.152 107.79 76.0702 107.832C75.9883 107.874 75.9162 107.933 75.8582 108.004C75.8002 108.076 75.7577 108.159 75.7333 108.247C75.7089 108.336 75.7032 108.429 75.7165 108.52C75.7583 108.842 76.1814 108.818 76.4437 108.737C76.7059 108.655 76.9859 108.61 76.9618 108.282C76.9378 107.954 76.545 107.748 76.3335 107.76ZM76.3423 108.28C76.1776 108.28 76.0446 108.189 76.0446 108.076C76.0446 107.964 76.1713 107.872 76.3423 107.872C76.5134 107.872 76.64 107.964 76.64 108.076C76.64 108.189 76.507 108.28 76.3423 108.28Z" fill="#F0B00B"/>
<path d="M75.3239 104.309C75.3239 104.309 75.9156 104.364 76.2019 104.815C76.4882 105.266 76.4552 105.871 76.6111 106.138C76.6872 106.284 76.7718 106.426 76.8645 106.562C76.9088 106.618 76.943 106.702 76.8366 106.721C76.5756 106.769 75.9878 106.531 75.666 105.895C75.1846 104.948 75.3239 104.309 75.3239 104.309Z" fill="#F0B00B"/>
<path d="M81.3529 104.197C81.3529 104.197 81.1857 104.539 81.3137 105.141C81.3505 105.308 81.4392 105.459 81.5671 105.573C81.8099 105.812 82.0375 106.066 82.2486 106.333L81.6532 105.85C81.5265 105.749 81.4505 105.753 81.4429 105.86C81.4353 105.968 81.3897 106.438 81.3732 106.541C81.335 106.674 81.2854 106.804 81.225 106.928C81.225 106.928 81.2871 106.636 81.2934 106.556C81.3073 106.361 81.3048 105.765 81.1566 105.577C80.9032 105.255 80.1431 104.966 80.1431 104.966C80.4386 105.01 80.7265 105.095 80.9982 105.219C81.1122 105.273 81.1376 105.233 81.1376 105.154C81.146 104.941 81.168 104.73 81.2035 104.52C81.227 104.402 81.2782 104.291 81.3529 104.197V104.197Z" fill="#F0B00B"/>
<path d="M81.6456 106.374C81.5468 106.934 81.3555 107.134 81.2934 107.182C81.2537 107.217 81.2029 107.238 81.1498 107.24C81.0966 107.242 81.0444 107.225 81.002 107.193C80.963 107.158 80.9372 107.11 80.9289 107.058C80.9206 107.006 80.9303 106.953 80.9564 106.907C81.011 106.808 81.0495 106.7 81.0704 106.589C81.0866 106.334 81.0679 106.079 81.0147 105.829C80.8051 105.687 80.5808 105.567 80.3458 105.473C78.9256 104.893 77.8285 105.255 77.8285 105.255C77.8285 105.255 77.2419 104.548 76.6667 104.241C76.262 104.042 75.8116 103.955 75.3618 103.988C75.3618 103.988 76.1726 104.115 76.6287 104.482C77.4471 105.15 78.2947 106.541 78.8926 106.865C80.1177 107.53 81.1883 107.134 81.8458 107.463C82.3424 107.717 82.4792 108.022 82.4792 108.022C82.3545 107.408 82.0665 106.838 81.6456 106.374V106.374Z" fill="#F0B00B"/>
</g>
</g>
</g>
<rect x="91" y="173" width="41" height="18" rx="9" fill="white" fill-opacity="0.1"/>
<path d="M102.324 186V184.764L105.192 181.812C105.832 181.14 106.152 180.58 106.152 180.132C106.152 179.804 106.048 179.54 105.84 179.34C105.64 179.14 105.38 179.04 105.06 179.04C104.428 179.04 103.96 179.368 103.656 180.024L102.264 179.208C102.528 178.632 102.908 178.192 103.404 177.888C103.9 177.584 104.444 177.432 105.036 177.432C105.796 177.432 106.448 177.672 106.992 178.152C107.536 178.624 107.808 179.264 107.808 180.072C107.808 180.944 107.348 181.84 106.428 182.76L104.784 184.404H107.94V186H102.324ZM111.823 180.66C112.631 180.66 113.311 180.904 113.863 181.392C114.415 181.872 114.691 182.544 114.691 183.408C114.691 184.272 114.399 184.948 113.815 185.436C113.239 185.924 112.531 186.168 111.691 186.168C111.011 186.168 110.411 186.016 109.891 185.712C109.371 185.408 108.995 184.96 108.763 184.368L110.179 183.54C110.387 184.212 110.891 184.548 111.691 184.548C112.115 184.548 112.443 184.448 112.675 184.248C112.915 184.04 113.035 183.76 113.035 183.408C113.035 183.064 112.919 182.788 112.687 182.58C112.455 182.372 112.139 182.268 111.739 182.268H109.195L109.531 177.6H114.295V179.148H111.067L110.959 180.66H111.823ZM121.565 183.648C121.565 184.352 121.341 184.924 120.893 185.364C120.445 185.796 119.861 186.056 119.141 186.144V187.2H118.337V186.156C117.665 186.108 117.089 185.92 116.609 185.592C116.129 185.264 115.785 184.82 115.577 184.26L117.005 183.432C117.261 184.072 117.705 184.436 118.337 184.524V182.448C118.329 182.448 118.325 182.448 118.325 182.448L118.301 182.436C118.021 182.332 117.793 182.24 117.617 182.16C117.441 182.08 117.233 181.964 116.993 181.812C116.761 181.66 116.577 181.504 116.441 181.344C116.313 181.176 116.197 180.964 116.093 180.708C115.997 180.452 115.949 180.172 115.949 179.868C115.949 179.164 116.177 178.6 116.633 178.176C117.097 177.752 117.665 177.508 118.337 177.444V176.4H119.141V177.468C120.229 177.596 120.997 178.16 121.445 179.16L120.053 179.976C119.861 179.496 119.557 179.204 119.141 179.1V181.104C119.885 181.4 120.385 181.636 120.641 181.812C121.257 182.252 121.565 182.864 121.565 183.648ZM117.593 179.88C117.593 180.056 117.649 180.212 117.761 180.348C117.873 180.476 118.065 180.608 118.337 180.744V179.064C118.097 179.112 117.913 179.208 117.785 179.352C117.657 179.496 117.593 179.672 117.593 179.88ZM119.141 184.5C119.653 184.388 119.909 184.108 119.909 183.66C119.909 183.46 119.845 183.292 119.717 183.156C119.597 183.02 119.405 182.892 119.141 182.772V184.5Z" fill="#F0B00B"/>
<rect x="39" y="140" width="41" height="18" rx="9" fill="white" fill-opacity="0.1"/>
<path d="M52.36 147.66C53.168 147.66 53.848 147.904 54.4 148.392C54.952 148.872 55.228 149.544 55.228 150.408C55.228 151.272 54.936 151.948 54.352 152.436C53.776 152.924 53.068 153.168 52.228 153.168C51.548 153.168 50.948 153.016 50.428 152.712C49.908 152.408 49.532 151.96 49.3 151.368L50.716 150.54C50.924 151.212 51.428 151.548 52.228 151.548C52.652 151.548 52.98 151.448 53.212 151.248C53.452 151.04 53.572 150.76 53.572 150.408C53.572 150.064 53.456 149.788 53.224 149.58C52.992 149.372 52.676 149.268 52.276 149.268H49.732L50.068 144.6H54.832V146.148H51.604L51.496 147.66H52.36ZM59.5239 153.168C58.4759 153.168 57.6519 152.772 57.0519 151.98C56.4599 151.18 56.1639 150.12 56.1639 148.8C56.1639 147.48 56.4599 146.424 57.0519 145.632C57.6519 144.832 58.4759 144.432 59.5239 144.432C60.5799 144.432 61.4039 144.832 61.9959 145.632C62.5879 146.424 62.8839 147.48 62.8839 148.8C62.8839 150.12 62.5879 151.18 61.9959 151.98C61.4039 152.772 60.5799 153.168 59.5239 153.168ZM58.2519 150.852C58.5399 151.316 58.9639 151.548 59.5239 151.548C60.0839 151.548 60.5079 151.312 60.7959 150.84C61.0919 150.368 61.2399 149.688 61.2399 148.8C61.2399 147.904 61.0919 147.22 60.7959 146.748C60.5079 146.276 60.0839 146.04 59.5239 146.04C58.9639 146.04 58.5399 146.276 58.2519 146.748C57.9639 147.22 57.8199 147.904 57.8199 148.8C57.8199 149.696 57.9639 150.38 58.2519 150.852ZM69.8305 150.648C69.8305 151.352 69.6065 151.924 69.1585 152.364C68.7105 152.796 68.1265 153.056 67.4065 153.144V154.2H66.6025V153.156C65.9305 153.108 65.3545 152.92 64.8745 152.592C64.3945 152.264 64.0505 151.82 63.8425 151.26L65.2705 150.432C65.5265 151.072 65.9705 151.436 66.6025 151.524V149.448C66.5945 149.448 66.5905 149.448 66.5905 149.448L66.5665 149.436C66.2865 149.332 66.0585 149.24 65.8825 149.16C65.7065 149.08 65.4985 148.964 65.2585 148.812C65.0265 148.66 64.8425 148.504 64.7065 148.344C64.5785 148.176 64.4625 147.964 64.3585 147.708C64.2625 147.452 64.2145 147.172 64.2145 146.868C64.2145 146.164 64.4425 145.6 64.8985 145.176C65.3625 144.752 65.9305 144.508 66.6025 144.444V143.4H67.4065V144.468C68.4945 144.596 69.2625 145.16 69.7105 146.16L68.3185 146.976C68.1265 146.496 67.8225 146.204 67.4065 146.1V148.104C68.1505 148.4 68.6505 148.636 68.9065 148.812C69.5225 149.252 69.8305 149.864 69.8305 150.648ZM65.8585 146.88C65.8585 147.056 65.9145 147.212 66.0265 147.348C66.1385 147.476 66.3305 147.608 66.6025 147.744V146.064C66.3625 146.112 66.1785 146.208 66.0505 146.352C65.9225 146.496 65.8585 146.672 65.8585 146.88ZM67.4065 151.5C67.9185 151.388 68.1745 151.108 68.1745 150.66C68.1745 150.46 68.1105 150.292 67.9825 150.156C67.8625 150.02 67.6705 149.892 67.4065 149.772V151.5Z" fill="#F0B00B"/>
<rect x="111" y="140" width="41" height="18" rx="9" fill="white" fill-opacity="0.1"/>
<path d="M124.34 144.6H125.78V153H124.124V146.352L122.54 146.796L122.132 145.38L124.34 144.6ZM130.661 153.168C129.613 153.168 128.789 152.772 128.189 151.98C127.597 151.18 127.301 150.12 127.301 148.8C127.301 147.48 127.597 146.424 128.189 145.632C128.789 144.832 129.613 144.432 130.661 144.432C131.717 144.432 132.541 144.832 133.133 145.632C133.725 146.424 134.021 147.48 134.021 148.8C134.021 150.12 133.725 151.18 133.133 151.98C132.541 152.772 131.717 153.168 130.661 153.168ZM129.389 150.852C129.677 151.316 130.101 151.548 130.661 151.548C131.221 151.548 131.645 151.312 131.933 150.84C132.229 150.368 132.377 149.688 132.377 148.8C132.377 147.904 132.229 147.22 131.933 146.748C131.645 146.276 131.221 146.04 130.661 146.04C130.101 146.04 129.677 146.276 129.389 146.748C129.101 147.22 128.957 147.904 128.957 148.8C128.957 149.696 129.101 150.38 129.389 150.852ZM140.967 150.648C140.967 151.352 140.743 151.924 140.295 152.364C139.847 152.796 139.263 153.056 138.543 153.144V154.2H137.739V153.156C137.067 153.108 136.491 152.92 136.011 152.592C135.531 152.264 135.187 151.82 134.979 151.26L136.407 150.432C136.663 151.072 137.107 151.436 137.739 151.524V149.448C137.731 149.448 137.727 149.448 137.727 149.448L137.703 149.436C137.423 149.332 137.195 149.24 137.019 149.16C136.843 149.08 136.635 148.964 136.395 148.812C136.163 148.66 135.979 148.504 135.843 148.344C135.715 148.176 135.599 147.964 135.495 147.708C135.399 147.452 135.351 147.172 135.351 146.868C135.351 146.164 135.579 145.6 136.035 145.176C136.499 144.752 137.067 144.508 137.739 144.444V143.4H138.543V144.468C139.631 144.596 140.399 145.16 140.847 146.16L139.455 146.976C139.263 146.496 138.959 146.204 138.543 146.1V148.104C139.287 148.4 139.787 148.636 140.043 148.812C140.659 149.252 140.967 149.864 140.967 150.648ZM136.995 146.88C136.995 147.056 137.051 147.212 137.163 147.348C137.275 147.476 137.467 147.608 137.739 147.744V146.064C137.499 146.112 137.315 146.208 137.187 146.352C137.059 146.496 136.995 146.672 136.995 146.88ZM138.543 151.5C139.055 151.388 139.311 151.108 139.311 150.66C139.311 150.46 139.247 150.292 139.119 150.156C138.999 150.02 138.807 149.892 138.543 149.772V151.5Z" fill="#F0B00B"/>
<path d="M24.036 213.068V214.52H22.056V216.5H20.604V214.52H18.636V213.068H20.604V211.1H22.056V213.068H24.036ZM28.6763 218.168C27.6283 218.168 26.8042 217.772 26.2042 216.98C25.6122 216.18 25.3162 215.12 25.3162 213.8C25.3162 212.48 25.6122 211.424 26.2042 210.632C26.8042 209.832 27.6283 209.432 28.6763 209.432C29.7323 209.432 30.5563 209.832 31.1483 210.632C31.7403 211.424 32.0363 212.48 32.0363 213.8C32.0363 215.12 31.7403 216.18 31.1483 216.98C30.5563 217.772 29.7323 218.168 28.6763 218.168ZM27.4042 215.852C27.6922 216.316 28.1162 216.548 28.6763 216.548C29.2363 216.548 29.6603 216.312 29.9483 215.84C30.2443 215.368 30.3923 214.688 30.3923 213.8C30.3923 212.904 30.2443 212.22 29.9483 211.748C29.6603 211.276 29.2363 211.04 28.6763 211.04C28.1162 211.04 27.6922 211.276 27.4042 211.748C27.1162 212.22 26.9722 212.904 26.9722 213.8C26.9722 214.696 27.1162 215.38 27.4042 215.852ZM34.6596 217.856C34.4596 218.056 34.2196 218.156 33.9396 218.156C33.6596 218.156 33.4196 218.056 33.2196 217.856C33.0196 217.656 32.9196 217.416 32.9196 217.136C32.9196 216.856 33.0196 216.616 33.2196 216.416C33.4196 216.216 33.6596 216.116 33.9396 216.116C34.2196 216.116 34.4596 216.216 34.6596 216.416C34.8596 216.616 34.9596 216.856 34.9596 217.136C34.9596 217.416 34.8596 217.656 34.6596 217.856ZM40.0185 213.008C40.5865 213.176 41.0465 213.472 41.3985 213.896C41.7585 214.312 41.9385 214.816 41.9385 215.408C41.9385 216.272 41.6465 216.948 41.0625 217.436C40.4865 217.924 39.7785 218.168 38.9385 218.168C38.2825 218.168 37.6945 218.02 37.1745 217.724C36.6625 217.42 36.2905 216.976 36.0585 216.392L37.4745 215.576C37.6825 216.224 38.1705 216.548 38.9385 216.548C39.3625 216.548 39.6905 216.448 39.9225 216.248C40.1625 216.04 40.2825 215.76 40.2825 215.408C40.2825 215.064 40.1625 214.788 39.9225 214.58C39.6905 214.372 39.3625 214.268 38.9385 214.268H38.5785L37.9425 213.308L39.5985 211.148H36.3105V209.6H41.5905V210.968L40.0185 213.008ZM49.4707 215.036V216.572H48.5707V218H46.9027V216.572H42.9307V215.036L45.7267 209.6H47.5027L44.7187 215.036H46.9027V213.044H48.5707V215.036H49.4707ZM53.29 212.828C52.906 213.204 52.426 213.392 51.85 213.392C51.274 213.392 50.79 213.2 50.398 212.816C50.014 212.432 49.822 211.964 49.822 211.412C49.822 210.86 50.014 210.392 50.398 210.008C50.79 209.624 51.274 209.432 51.85 209.432C52.426 209.432 52.906 209.624 53.29 210.008C53.674 210.384 53.866 210.852 53.866 211.412C53.866 211.972 53.674 212.444 53.29 212.828ZM50.674 216.728L56.146 210.644L56.878 211.052L51.394 217.148L50.674 216.728ZM51.298 211.964C51.442 212.108 51.622 212.18 51.838 212.18C52.054 212.18 52.234 212.108 52.378 211.964C52.522 211.812 52.594 211.628 52.594 211.412C52.594 211.196 52.522 211.016 52.378 210.872C52.234 210.728 52.054 210.656 51.838 210.656C51.622 210.656 51.442 210.728 51.298 210.872C51.162 211.016 51.094 211.196 51.094 211.412C51.094 211.628 51.162 211.812 51.298 211.964ZM57.346 217.568C56.962 217.952 56.482 218.144 55.906 218.144C55.33 218.144 54.85 217.952 54.466 217.568C54.082 217.184 53.89 216.716 53.89 216.164C53.89 215.612 54.082 215.144 54.466 214.76C54.85 214.376 55.33 214.184 55.906 214.184C56.482 214.184 56.962 214.376 57.346 214.76C57.73 215.144 57.922 215.612 57.922 216.164C57.922 216.716 57.73 217.184 57.346 217.568ZM55.366 216.716C55.51 216.86 55.69 216.932 55.906 216.932C56.122 216.932 56.298 216.856 56.434 216.704C56.578 216.552 56.65 216.372 56.65 216.164C56.65 215.948 56.578 215.768 56.434 215.624C56.298 215.472 56.122 215.396 55.906 215.396C55.69 215.396 55.51 215.472 55.366 215.624C55.23 215.768 55.162 215.948 55.162 216.164C55.162 216.38 55.23 216.564 55.366 216.716Z" fill="#61B67F"/>
<path d="M141.036 228.068V229.52H139.056V231.5H137.604V229.52H135.636V228.068H137.604V226.1H139.056V228.068H141.036ZM142.22 233V231.764L145.088 228.812C145.728 228.14 146.048 227.58 146.048 227.132C146.048 226.804 145.944 226.54 145.736 226.34C145.536 226.14 145.276 226.04 144.956 226.04C144.324 226.04 143.856 226.368 143.552 227.024L142.16 226.208C142.424 225.632 142.804 225.192 143.3 224.888C143.796 224.584 144.34 224.432 144.932 224.432C145.692 224.432 146.344 224.672 146.888 225.152C147.432 225.624 147.704 226.264 147.704 227.072C147.704 227.944 147.244 228.84 146.324 229.76L144.68 231.404H147.836V233H142.22ZM150.839 232.856C150.639 233.056 150.399 233.156 150.119 233.156C149.839 233.156 149.599 233.056 149.399 232.856C149.199 232.656 149.099 232.416 149.099 232.136C149.099 231.856 149.199 231.616 149.399 231.416C149.599 231.216 149.839 231.116 150.119 231.116C150.399 231.116 150.639 231.216 150.839 231.416C151.039 231.616 151.139 231.856 151.139 232.136C151.139 232.416 151.039 232.656 150.839 232.856ZM158.754 230.036V231.572H157.854V233H156.186V231.572H152.214V230.036L155.01 224.6H156.786L154.002 230.036H156.186V228.044H157.854V230.036H158.754ZM162.573 227.828C162.189 228.204 161.709 228.392 161.133 228.392C160.557 228.392 160.073 228.2 159.681 227.816C159.297 227.432 159.105 226.964 159.105 226.412C159.105 225.86 159.297 225.392 159.681 225.008C160.073 224.624 160.557 224.432 161.133 224.432C161.709 224.432 162.189 224.624 162.573 225.008C162.957 225.384 163.149 225.852 163.149 226.412C163.149 226.972 162.957 227.444 162.573 227.828ZM159.957 231.728L165.429 225.644L166.161 226.052L160.677 232.148L159.957 231.728ZM160.581 226.964C160.725 227.108 160.905 227.18 161.121 227.18C161.337 227.18 161.517 227.108 161.661 226.964C161.805 226.812 161.877 226.628 161.877 226.412C161.877 226.196 161.805 226.016 161.661 225.872C161.517 225.728 161.337 225.656 161.121 225.656C160.905 225.656 160.725 225.728 160.581 225.872C160.445 226.016 160.377 226.196 160.377 226.412C160.377 226.628 160.445 226.812 160.581 226.964ZM166.629 232.568C166.245 232.952 165.765 233.144 165.189 233.144C164.613 233.144 164.133 232.952 163.749 232.568C163.365 232.184 163.173 231.716 163.173 231.164C163.173 230.612 163.365 230.144 163.749 229.76C164.133 229.376 164.613 229.184 165.189 229.184C165.765 229.184 166.245 229.376 166.629 229.76C167.013 230.144 167.205 230.612 167.205 231.164C167.205 231.716 167.013 232.184 166.629 232.568ZM164.649 231.716C164.793 231.86 164.973 231.932 165.189 231.932C165.405 231.932 165.581 231.856 165.717 231.704C165.861 231.552 165.933 231.372 165.933 231.164C165.933 230.948 165.861 230.768 165.717 230.624C165.581 230.472 165.405 230.396 165.189 230.396C164.973 230.396 164.793 230.472 164.649 230.624C164.513 230.768 164.445 230.948 164.445 231.164C164.445 231.38 164.513 231.564 164.649 231.716Z" fill="#61B67F"/>
<path d="M84.036 243.068V244.52H82.056V246.5H80.604V244.52H78.636V243.068H80.604V241.1H82.056V243.068H84.036ZM84.0913 239.6H89.5153V241.004L86.6713 248H84.9193L87.6793 241.184H84.0913V239.6ZM94.0661 242.828C93.6821 243.204 93.2021 243.392 92.6261 243.392C92.0501 243.392 91.5661 243.2 91.1741 242.816C90.7901 242.432 90.5981 241.964 90.5981 241.412C90.5981 240.86 90.7901 240.392 91.1741 240.008C91.5661 239.624 92.0501 239.432 92.6261 239.432C93.2021 239.432 93.6821 239.624 94.0661 240.008C94.4501 240.384 94.6421 240.852 94.6421 241.412C94.6421 241.972 94.4501 242.444 94.0661 242.828ZM91.4501 246.728L96.9221 240.644L97.6541 241.052L92.1701 247.148L91.4501 246.728ZM92.0741 241.964C92.2181 242.108 92.3981 242.18 92.6141 242.18C92.8301 242.18 93.0101 242.108 93.1541 241.964C93.2981 241.812 93.3701 241.628 93.3701 241.412C93.3701 241.196 93.2981 241.016 93.1541 240.872C93.0101 240.728 92.8301 240.656 92.6141 240.656C92.3981 240.656 92.2181 240.728 92.0741 240.872C91.9381 241.016 91.8701 241.196 91.8701 241.412C91.8701 241.628 91.9381 241.812 92.0741 241.964ZM98.1221 247.568C97.7381 247.952 97.2581 248.144 96.6821 248.144C96.1061 248.144 95.6261 247.952 95.2421 247.568C94.8581 247.184 94.6661 246.716 94.6661 246.164C94.6661 245.612 94.8581 245.144 95.2421 244.76C95.6261 244.376 96.1061 244.184 96.6821 244.184C97.2581 244.184 97.7381 244.376 98.1221 244.76C98.5061 245.144 98.6981 245.612 98.6981 246.164C98.6981 246.716 98.5061 247.184 98.1221 247.568ZM96.1421 246.716C96.2861 246.86 96.4661 246.932 96.6821 246.932C96.8981 246.932 97.0741 246.856 97.2101 246.704C97.3541 246.552 97.4261 246.372 97.4261 246.164C97.4261 245.948 97.3541 245.768 97.2101 245.624C97.0741 245.472 96.8981 245.396 96.6821 245.396C96.4661 245.396 96.2861 245.472 96.1421 245.624C96.0061 245.768 95.9381 245.948 95.9381 246.164C95.9381 246.38 96.0061 246.564 96.1421 246.716Z" fill="#61B67F"/>
<g filter="url(#filter6_b_66_365)">
<g clip-path="url(#clip3_66_365)">
<rect x="76" width="40" height="40" rx="6" fill="white" fill-opacity="0.1"/>
<g filter="url(#filter7_dd_66_365)">
<circle cx="96.8002" cy="20.8" r="9.6" fill="#F0B00B"/>
</g>
</g>
</g>
<defs>
<filter id="filter0_b_66_365" x="92" y="79" width="40" height="40" filterUnits="userSpaceOnUse" color-interpolation-filters="sRGB">
<feFlood flood-opacity="0" result="BackgroundImageFix"/>
<feGaussianBlur in="BackgroundImage" stdDeviation="4"/>
<feComposite in2="SourceAlpha" operator="in" result="effect1_backgroundBlur_66_365"/>
<feBlend mode="normal" in="SourceGraphic" in2="effect1_backgroundBlur_66_365" result="shape"/>
</filter>
<filter id="filter1_d_66_365" x="85.8918" y="73.5405" width="52.2163" height="52.2163" filterUnits="userSpaceOnUse" color-interpolation-filters="sRGB">
<feFlood flood-opacity="0" result="BackgroundImageFix"/>
<feColorMatrix in="SourceAlpha" type="matrix" values="0 0 0 0 0 0 0 0 0 0 0 0 0 0 0 0 0 0 127 0" result="hardAlpha"/>
<feOffset/>
<feGaussianBlur stdDeviation="9"/>
<feComposite in2="hardAlpha" operator="out"/>
<feColorMatrix type="matrix" values="0 0 0 0 0.941176 0 0 0 0 0.690196 0 0 0 0 0.0431373 0 0 0 0.8 0"/>
<feBlend mode="normal" in2="BackgroundImageFix" result="effect1_dropShadow_66_365"/>
<feBlend mode="normal" in="SourceGraphic" in2="effect1_dropShadow_66_365" result="shape"/>
</filter>
<filter id="filter2_b_66_365" x="75" y="47" width="40" height="40" filterUnits="userSpaceOnUse" color-interpolation-filters="sRGB">
<feFlood flood-opacity="0" result="BackgroundImageFix"/>
<feGaussianBlur in="BackgroundImage" stdDeviation="4"/>
<feComposite in2="SourceAlpha" operator="in" result="effect1_backgroundBlur_66_365"/>
<feBlend mode="normal" in="SourceGraphic" in2="effect1_backgroundBlur_66_365" result="shape"/>
</filter>
<filter id="filter3_d_66_365" x="68.8918" y="41.5405" width="52.2163" height="52.2163" filterUnits="userSpaceOnUse" color-interpolation-filters="sRGB">
<feFlood flood-opacity="0" result="BackgroundImageFix"/>
<feColorMatrix in="SourceAlpha" type="matrix" values="0 0 0 0 0 0 0 0 0 0 0 0 0 0 0 0 0 0 127 0" result="hardAlpha"/>
<feOffset/>
<feGaussianBlur stdDeviation="9"/>
<feComposite in2="hardAlpha" operator="out"/>
<feColorMatrix type="matrix" values="0 0 0 0 0.941176 0 0 0 0 0.690196 0 0 0 0 0.0431373 0 0 0 0.8 0"/>
<feBlend mode="normal" in2="BackgroundImageFix" result="effect1_dropShadow_66_365"/>
<feBlend mode="normal" in="SourceGraphic" in2="effect1_dropShadow_66_365" result="shape"/>
</filter>
<filter id="filter4_b_66_365" x="57" y="89" width="40" height="40" filterUnits="userSpaceOnUse" color-interpolation-filters="sRGB">
<feFlood flood-opacity="0" result="BackgroundImageFix"/>
<feGaussianBlur in="BackgroundImage" stdDeviation="4"/>
<feComposite in2="SourceAlpha" operator="in" result="effect1_backgroundBlur_66_365"/>
<feBlend mode="normal" in="SourceGraphic" in2="effect1_backgroundBlur_66_365" result="shape"/>
</filter>
<filter id="filter5_d_66_365" x="50.8918" y="82.2432" width="52.2163" height="52.2163" filterUnits="userSpaceOnUse" color-interpolation-filters="sRGB">
<feFlood flood-opacity="0" result="BackgroundImageFix"/>
<feColorMatrix in="SourceAlpha" type="matrix" values="0 0 0 0 0 0 0 0 0 0 0 0 0 0 0 0 0 0 127 0" result="hardAlpha"/>
<feOffset/>
<feGaussianBlur stdDeviation="9"/>
<feComposite in2="hardAlpha" operator="out"/>
<feColorMatrix type="matrix" values="0 0 0 0 0.941176 0 0 0 0 0.690196 0 0 0 0 0.0431373 0 0 0 0.8 0"/>
<feBlend mode="normal" in2="BackgroundImageFix" result="effect1_dropShadow_66_365"/>
<feBlend mode="normal" in="SourceGraphic" in2="effect1_dropShadow_66_365" result="shape"/>
</filter>
<filter id="filter6_b_66_365" x="68" y="-8" width="56" height="56" filterUnits="userSpaceOnUse" color-interpolation-filters="sRGB">
<feFlood flood-opacity="0" result="BackgroundImageFix"/>
<feGaussianBlur in="BackgroundImage" stdDeviation="4"/>
<feComposite in2="SourceAlpha" operator="in" result="effect1_backgroundBlur_66_365"/>
<feBlend mode="normal" in="SourceGraphic" in2="effect1_backgroundBlur_66_365" result="shape"/>
</filter>
<filter id="filter7_dd_66_365" x="72.2002" y="-3.80005" width="49.2" height="49.2" filterUnits="userSpaceOnUse" color-interpolation-filters="sRGB">
<feFlood flood-opacity="0" result="BackgroundImageFix"/>
<feColorMatrix in="SourceAlpha" type="matrix" values="0 0 0 0 0 0 0 0 0 0 0 0 0 0 0 0 0 0 127 0" result="hardAlpha"/>
<feOffset/>
<feGaussianBlur stdDeviation="5"/>
<feComposite in2="hardAlpha" operator="out"/>
<feColorMatrix type="matrix" values="0 0 0 0 0.941176 0 0 0 0 0.690196 0 0 0 0 0.0431373 0 0 0 0.86 0"/>
<feBlend mode="normal" in2="BackgroundImageFix" result="effect1_dropShadow_66_365"/>
<feColorMatrix in="SourceAlpha" type="matrix" values="0 0 0 0 0 0 0 0 0 0 0 0 0 0 0 0 0 0 127 0" result="hardAlpha"/>
<feOffset/>
<feGaussianBlur stdDeviation="7.5"/>
<feComposite in2="hardAlpha" operator="out"/>
<feColorMatrix type="matrix" values="0 0 0 0 0.941176 0 0 0 0 0.690196 0 0 0 0 0.0431373 0 0 0 1 0"/>
<feBlend mode="normal" in2="effect1_dropShadow_66_365" result="effect2_dropShadow_66_365"/>
<feBlend mode="normal" in="SourceGraphic" in2="effect2_dropShadow_66_365" result="shape"/>
</filter>
<clipPath id="clip0_66_365">
<rect x="100" y="87" width="24" height="24" rx="12" fill="white"/>
</clipPath>
<clipPath id="clip1_66_365">
<rect x="83" y="55" width="24" height="24" rx="12" fill="white"/>
</clipPath>
<clipPath id="clip2_66_365">
<rect x="65" y="97" width="24" height="24" rx="12" fill="white"/>
</clipPath>
<clipPath id="clip3_66_365">
<rect x="76" width="40" height="40" rx="6" fill="white"/>
</clipPath>
</defs>
</svg>
