<svg width="24" height="18" viewBox="0 0 24 18" fill="none" xmlns="http://www.w3.org/2000/svg">
<path d="M23.4996 3.5061C23.3638 3.02133 23.099 2.58245 22.7336 2.2361C22.3579 1.8791 21.8974 1.62374 21.3956 1.4941C19.5176 0.999099 11.9936 0.9991 11.9936 0.9991C8.85697 0.963412 5.72107 1.12037 2.60364 1.4691C2.10183 1.60831 1.6422 1.86939 1.26564 2.2291C0.895641 2.5851 0.627641 3.0241 0.487641 3.5051C0.151334 5.31684 -0.0120674 7.15644 -0.000359379 8.9991C-0.0123594 10.8401 0.150641 12.6791 0.487641 14.4931C0.624641 14.9721 0.891641 15.4091 1.26264 15.7621C1.63364 16.1151 2.09564 16.3701 2.60364 16.5051C4.50664 16.9991 11.9936 16.9991 11.9936 16.9991C15.1343 17.0348 18.2742 16.8779 21.3956 16.5291C21.8974 16.3995 22.3579 16.1441 22.7336 15.7871C23.0989 15.4408 23.3633 15.0019 23.4986 14.5171C23.8437 12.7061 24.0115 10.8657 23.9996 9.0221C24.0256 7.1707 23.858 5.32166 23.4996 3.5051V3.5061ZM9.60164 12.4231V5.5761L15.8616 9.0001L9.60164 12.4231Z" fill="#DFDFDF"/>
</svg>
