<?xml version="1.0" standalone="no"?>
<!DOCTYPE svg PUBLIC "-//W3C//DTD SVG 20010904//EN"
 "http://www.w3.org/TR/2001/REC-SVG-20010904/DTD/svg10.dtd">
<svg version="1.0" xmlns="http://www.w3.org/2000/svg"
 width="700.000000pt" height="700.000000pt" viewBox="0 0 700.000000 700.000000"
 preserveAspectRatio="xMidYMid meet">
<metadata>
Created by potrace 1.14, written by Peter Selinger 2001-2017
</metadata>
<g transform="translate(0.000000,700.000000) scale(0.100000,-0.100000)"
fill="#000000" stroke="none">
<path d="M3258 6990 c-1313 -97 -2445 -894 -2964 -2087 -342 -785 -384 -1677
-118 -2493 245 -752 727 -1386 1389 -1825 718 -478 1582 -669 2450 -544 1284
185 2362 1077 2789 2309 86 247 146 518 177 800 19 169 16 563 -5 740 -97 823
-447 1538 -1032 2110 -563 550 -1264 884 -2044 974 -168 20 -487 27 -642 16z
m1612 -2105 c275 -37 495 -142 669 -317 103 -103 219 -285 195 -307 -13 -12
-451 -241 -461 -241 -4 0 -23 25 -41 56 -47 77 -134 168 -201 208 -31 19 -92
47 -136 63 -76 26 -89 28 -260 28 -166 0 -188 -2 -278 -28 -443 -123 -737
-533 -737 -1025 0 -68 7 -143 15 -179 34 -144 122 -282 233 -363 133 -98 277
-135 491 -127 277 10 466 96 648 292 l79 85 212 -136 212 -136 -20 -28 c-11
-15 -52 -62 -91 -105 -491 -525 -1311 -649 -1839 -277 -239 169 -397 421 -451
722 -17 94 -17 348 0 455 56 358 201 650 443 896 350 355 844 529 1318 464z
m-2057 -77 c-3 -18 -107 -613 -232 -1323 l-226 -1290 -264 -3 -263 -2 5 27 c3
16 108 612 234 1325 l228 1298 262 0 262 0 -6 -32z"/>
</g>
</svg>
