<?xml version="1.0" standalone="no"?>
<!DOCTYPE svg PUBLIC "-//W3C//DTD SVG 20010904//EN"
 "http://www.w3.org/TR/2001/REC-SVG-20010904/DTD/svg10.dtd">
<svg version="1.0" xmlns="http://www.w3.org/2000/svg"
 width="512.000000pt" height="512.000000pt" viewBox="0 0 512.000000 512.000000"
 preserveAspectRatio="xMidYMid meet">
<metadata>
Created by potrace 1.14, written by Peter Selinger 2001-2017
</metadata>
<g transform="translate(0.000000,512.000000) scale(0.100000,-0.100000)"
fill="#000000" stroke="none">
<path d="M2369 5116 c-2 -2 -33 -6 -69 -9 -36 -3 -99 -16 -139 -27 -81 -23
-237 -85 -261 -103 -15 -12 -26 -18 -99 -59 -72 -40 -195 -134 -265 -203 -81
-80 -206 -240 -256 -330 -18 -33 -39 -67 -47 -76 -7 -8 -40 -69 -72 -135 -85
-170 -76 -162 -142 -124 -66 39 -155 105 -189 140 -14 14 -40 37 -58 51 -38
29 -57 62 -161 276 -64 131 -89 171 -129 211 -43 40 -56 48 -84 46 -18 -2 -62
-4 -98 -5 -76 -3 -98 -15 -136 -72 -16 -23 -31 -44 -34 -47 -16 -14 -70 -103
-70 -115 0 -7 -4 -15 -9 -17 -15 -5 -37 -100 -35 -153 2 -71 10 -103 39 -162
19 -40 32 -54 52 -59 16 -4 51 -17 78 -29 28 -12 70 -25 95 -28 115 -15 355
-95 373 -124 4 -7 14 -13 22 -13 26 0 190 -172 217 -229 l25 -54 -33 -86 c-67
-169 -115 -394 -138 -646 -3 -28 -7 -57 -10 -65 -3 -8 -7 -37 -10 -65 -3 -27
-8 -61 -10 -74 -6 -29 -14 -99 -22 -211 -3 -47 -8 -105 -11 -130 -10 -114 -9
-411 3 -490 7 -47 15 -105 19 -130 13 -102 16 -121 30 -172 8 -29 20 -73 26
-98 7 -25 31 -70 54 -100 23 -30 62 -88 86 -128 30 -49 95 -124 204 -235 89
-89 187 -193 220 -232 33 -38 62 -72 65 -75 3 -3 25 -30 50 -60 42 -53 230
-242 356 -361 131 -123 383 -222 674 -265 19 -3 60 -9 90 -15 115 -21 424 -31
505 -16 22 4 62 9 90 12 51 5 173 41 189 56 6 5 17 9 25 9 9 0 27 6 41 13 14
8 59 32 100 54 66 34 131 81 270 193 111 89 262 263 347 400 68 111 163 322
188 420 2 8 4 15 5 15 1 0 3 16 6 35 2 19 7 42 11 50 3 8 7 18 7 22 1 3 4 10
9 14 4 4 7 16 7 26 0 10 4 18 9 18 12 0 41 80 41 112 0 15 5 30 10 33 6 4 10
18 9 33 0 15 5 45 12 67 8 27 13 139 15 350 1 171 4 362 7 425 8 183 -26 360
-132 680 -67 202 -89 291 -95 386 -2 31 40 80 119 139 146 110 239 139 475
149 112 5 199 26 240 58 37 30 41 41 45 113 8 139 -58 352 -147 477 l-19 27
-64 -23 c-82 -30 -110 -51 -220 -171 -178 -194 -320 -331 -360 -349 -22 -10
-52 -24 -67 -31 -26 -12 -28 -11 -48 22 -25 43 -25 53 -1 53 19 0 19 1 0 63
-10 34 -19 69 -19 78 0 20 -120 134 -151 144 -13 4 -36 16 -52 27 -15 11 -48
25 -74 31 -32 8 -47 18 -49 30 -8 56 -156 294 -231 372 -26 28 -70 68 -97 90
-28 22 -66 54 -85 71 -73 64 -271 179 -396 230 -33 14 -107 36 -165 50 -90 23
-132 27 -301 30 -108 2 -198 2 -200 0z"/>
</g>
</svg>
